%TF.GenerationSoftware,KiCad,Pcbnew,8.0.1*%
%TF.CreationDate,2024-05-26T17:54:05+02:00*%
%TF.ProjectId,BandPass,42616e64-5061-4737-932e-6b696361645f,v03*%
%TF.SameCoordinates,PX5f5e100PY5f5e100*%
%TF.FileFunction,Copper,L2,Inr*%
%TF.FilePolarity,Positive*%
%FSLAX46Y46*%
G04 Gerber Fmt 4.6, Leading zero omitted, Abs format (unit mm)*
G04 Created by KiCad (PCBNEW 8.0.1) date 2024-05-26 17:54:05*
%MOMM*%
%LPD*%
G01*
G04 APERTURE LIST*
%TA.AperFunction,ComponentPad*%
%ADD10C,1.600000*%
%TD*%
%TA.AperFunction,ComponentPad*%
%ADD11O,1.600000X1.600000*%
%TD*%
%TA.AperFunction,ComponentPad*%
%ADD12R,1.700000X1.700000*%
%TD*%
%TA.AperFunction,ComponentPad*%
%ADD13R,1.600000X1.600000*%
%TD*%
%TA.AperFunction,ComponentPad*%
%ADD14R,1.800000X1.800000*%
%TD*%
%TA.AperFunction,ComponentPad*%
%ADD15C,1.800000*%
%TD*%
%TA.AperFunction,ComponentPad*%
%ADD16C,2.000000*%
%TD*%
%TA.AperFunction,ComponentPad*%
%ADD17O,1.700000X1.700000*%
%TD*%
G04 APERTURE END LIST*
D10*
%TO.N,Net-(C5-Pad2)*%
%TO.C,R6*%
X26320000Y18700000D03*
D11*
%TO.N,Net-(U2--)*%
X36480000Y18700000D03*
%TD*%
D12*
%TO.N,GND*%
%TO.C,Gnd2*%
X4300000Y4000000D03*
%TD*%
%TO.N,Net-(U1-+)*%
%TO.C,VD1*%
X26500000Y44000000D03*
%TD*%
%TO.N,Net-(U2--)*%
%TO.C,Op2_in1*%
X36900000Y25300000D03*
%TD*%
D13*
%TO.N,Net-(C2-Pad1)*%
%TO.C,C2*%
X10400000Y21900000D03*
D10*
%TO.N,Radar*%
X10400000Y19900000D03*
%TD*%
D14*
%TO.N,GND*%
%TO.C,D1*%
X63060000Y19500000D03*
D15*
%TO.N,Net-(D1-A)*%
X65600000Y19500000D03*
%TD*%
D12*
%TO.N,Net-(C3-Pad2)*%
%TO.C,Op1_Out1*%
X37300000Y33700000D03*
%TD*%
D10*
%TO.N,Net-(U1-+)*%
%TO.C,R2*%
X8920000Y39300000D03*
D11*
%TO.N,GND*%
X19080000Y39300000D03*
%TD*%
D10*
%TO.N,Net-(U2--)*%
%TO.C,C6*%
X18300000Y3800000D03*
%TO.N,Net-(C6-Pad2)*%
X23300000Y3800000D03*
%TD*%
%TO.N,+5V*%
%TO.C,R1*%
X9120000Y44000000D03*
D11*
%TO.N,Net-(U1-+)*%
X19280000Y44000000D03*
%TD*%
D10*
%TO.N,Net-(U2--)*%
%TO.C,R7*%
X25820000Y9000000D03*
D11*
%TO.N,Net-(C6-Pad2)*%
X35980000Y9000000D03*
%TD*%
D12*
%TO.N,GND*%
%TO.C,Gnd1*%
X5400000Y45900000D03*
%TD*%
D13*
%TO.N,unconnected-(U2-NC-Pad1)*%
%TO.C,U2*%
X48100000Y21800000D03*
D11*
%TO.N,Net-(U2--)*%
X45560000Y21800000D03*
%TO.N,Net-(U1-+)*%
X43020000Y21800000D03*
%TO.N,GND*%
X40480000Y21800000D03*
%TO.N,unconnected-(U2-NC-Pad5)*%
X40480000Y14180000D03*
%TO.N,Net-(C6-Pad2)*%
X43020000Y14180000D03*
%TO.N,+5V*%
X45560000Y14180000D03*
%TO.N,unconnected-(U2-NC-Pad8)*%
X48100000Y14180000D03*
%TD*%
D14*
%TO.N,GND*%
%TO.C,D4*%
X57460000Y28000000D03*
D15*
%TO.N,Net-(D4-A)*%
X60000000Y28000000D03*
%TD*%
D10*
%TO.N,Net-(C6-Pad2)*%
%TO.C,R8*%
X40920000Y9000000D03*
D11*
%TO.N,VOut*%
X51080000Y9000000D03*
%TD*%
D10*
%TO.N,LED_Yellowo*%
%TO.C,R10*%
X56000000Y45000000D03*
D11*
%TO.N,Net-(D3-A)*%
X56000000Y34840000D03*
%TD*%
D10*
%TO.N,Net-(U1--)*%
%TO.C,R4*%
X12280000Y31700000D03*
D11*
%TO.N,Net-(C3-Pad2)*%
X2120000Y31700000D03*
%TD*%
D12*
%TO.N,Net-(C6-Pad2)*%
%TO.C,Op2_Out1*%
X24400000Y13300000D03*
%TD*%
D13*
%TO.N,Net-(C3-Pad2)*%
%TO.C,C5*%
X29500000Y27155112D03*
D10*
%TO.N,Net-(C5-Pad2)*%
X29500000Y25155112D03*
%TD*%
D12*
%TO.N,Net-(U1--)*%
%TO.C,OP1_in1*%
X3400000Y38800000D03*
%TD*%
D10*
%TO.N,+5V*%
%TO.C,R5*%
X48000000Y34840000D03*
D11*
%TO.N,Push_Buttoni*%
X48000000Y45000000D03*
%TD*%
D14*
%TO.N,GND*%
%TO.C,D2*%
X43460000Y28000000D03*
D15*
%TO.N,Net-(D2-A)*%
X46000000Y28000000D03*
%TD*%
D16*
%TO.N,GND*%
%TO.C,SW1*%
X35000000Y46000000D03*
X41500000Y46000000D03*
%TO.N,Push_Buttoni*%
X35000000Y41500000D03*
X41500000Y41500000D03*
%TD*%
D14*
%TO.N,GND*%
%TO.C,D3*%
X50460000Y28000000D03*
D15*
%TO.N,Net-(D3-A)*%
X53000000Y28000000D03*
%TD*%
D10*
%TO.N,Net-(U1-+)*%
%TO.C,C4*%
X25500000Y32000000D03*
%TO.N,GND*%
X30500000Y32000000D03*
%TD*%
%TO.N,LED_Redo*%
%TO.C,R9*%
X52000000Y45000000D03*
D11*
%TO.N,Net-(D2-A)*%
X52000000Y34840000D03*
%TD*%
D12*
%TO.N,GND*%
%TO.C,J5*%
X11100000Y15525000D03*
D17*
%TO.N,Radar*%
X11100000Y12985000D03*
%TO.N,+5V*%
X11100000Y10445000D03*
%TD*%
D12*
%TO.N,GND*%
%TO.C,Gnd3*%
X61250000Y11000000D03*
%TD*%
D10*
%TO.N,+5V*%
%TO.C,R12*%
X56900000Y12420000D03*
D11*
%TO.N,Net-(D1-A)*%
X56900000Y22580000D03*
%TD*%
D10*
%TO.N,Net-(U1--)*%
%TO.C,C3*%
X21200000Y34300000D03*
%TO.N,Net-(C3-Pad2)*%
X16200000Y34300000D03*
%TD*%
%TO.N,Net-(C2-Pad1)*%
%TO.C,R3*%
X2020000Y26900000D03*
D11*
%TO.N,Net-(U1--)*%
X12180000Y26900000D03*
%TD*%
D12*
%TO.N,Radar*%
%TO.C,Vin1*%
X9600000Y4700000D03*
%TD*%
D10*
%TO.N,LED_Greeno*%
%TO.C,R11*%
X60000000Y45000000D03*
D11*
%TO.N,Net-(D4-A)*%
X60000000Y34840000D03*
%TD*%
D13*
%TO.N,unconnected-(U1-NC-Pad1)*%
%TO.C,U1*%
X15600000Y28100000D03*
D11*
%TO.N,Net-(U1--)*%
X15600000Y25560000D03*
%TO.N,Net-(U1-+)*%
X15600000Y23020000D03*
%TO.N,GND*%
X15600000Y20480000D03*
%TO.N,unconnected-(U1-NC-Pad5)*%
X23220000Y20480000D03*
%TO.N,Net-(C3-Pad2)*%
X23220000Y23020000D03*
%TO.N,+5V*%
X23220000Y25560000D03*
%TO.N,unconnected-(U1-NC-Pad8)*%
X23220000Y28100000D03*
%TD*%
D13*
%TO.N,Net-(U1-+)*%
%TO.C,C1*%
X16100000Y13100000D03*
D10*
%TO.N,GND*%
X18100000Y13100000D03*
%TD*%
D12*
%TO.N,unconnected-(J1-Pin_1-Pad1)*%
%TO.C,J1*%
X27940000Y2540000D03*
D17*
%TO.N,/IOREF*%
X30480000Y2540000D03*
%TO.N,/~{RESET}*%
X33020000Y2540000D03*
%TO.N,unconnected-(J1-Pin_4-Pad4)*%
X35560000Y2540000D03*
%TO.N,+5V*%
X38100000Y2540000D03*
%TO.N,GND*%
X40640000Y2540000D03*
X43180000Y2540000D03*
%TO.N,unconnected-(J1-Pin_8-Pad8)*%
X45720000Y2540000D03*
%TD*%
D12*
%TO.N,VOut*%
%TO.C,J3*%
X50800000Y2540000D03*
D17*
%TO.N,/A1*%
X53340000Y2540000D03*
%TO.N,/A2*%
X55880000Y2540000D03*
%TO.N,/A3*%
X58420000Y2540000D03*
%TO.N,/SDA{slash}A4*%
X60960000Y2540000D03*
%TO.N,/SCL{slash}A5*%
X63500000Y2540000D03*
%TD*%
D12*
%TO.N,unconnected-(J2-Pin_1-Pad1)*%
%TO.C,J2*%
X18796000Y50800000D03*
D17*
%TO.N,unconnected-(J2-Pin_2-Pad2)*%
X21336000Y50800000D03*
%TO.N,/AREF*%
X23876000Y50800000D03*
%TO.N,GND*%
X26416000Y50800000D03*
%TO.N,/13*%
X28956000Y50800000D03*
%TO.N,/12*%
X31496000Y50800000D03*
%TO.N,/\u002A11*%
X34036000Y50800000D03*
%TO.N,/\u002A10*%
X36576000Y50800000D03*
%TO.N,/\u002A9*%
X39116000Y50800000D03*
%TO.N,/8*%
X41656000Y50800000D03*
%TD*%
D12*
%TO.N,Push_Buttoni*%
%TO.C,J4*%
X45720000Y50800000D03*
D17*
%TO.N,LED_Redo*%
X48260000Y50800000D03*
%TO.N,LED_Yellowo*%
X50800000Y50800000D03*
%TO.N,LED_Greeno*%
X53340000Y50800000D03*
%TO.N,/\u002A3*%
X55880000Y50800000D03*
%TO.N,/2*%
X58420000Y50800000D03*
%TO.N,/TX{slash}1*%
X60960000Y50800000D03*
%TO.N,/RX{slash}0*%
X63500000Y50800000D03*
%TD*%
%TA.AperFunction,Conductor*%
%TO.N,GND*%
G36*
X42714075Y2732993D02*
G01*
X42680000Y2605826D01*
X42680000Y2474174D01*
X42714075Y2347007D01*
X42746988Y2290000D01*
X41073012Y2290000D01*
X41105925Y2347007D01*
X41140000Y2474174D01*
X41140000Y2605826D01*
X41105925Y2732993D01*
X41073012Y2790000D01*
X42746988Y2790000D01*
X42714075Y2732993D01*
G37*
%TD.AperFunction*%
%TA.AperFunction,Conductor*%
G36*
X63484404Y53244815D02*
G01*
X63505046Y53228181D01*
X65928181Y50805046D01*
X65961666Y50743723D01*
X65964500Y50717365D01*
X65964500Y40655018D01*
X65964500Y40624982D01*
X65975994Y40597233D01*
X65975995Y40597232D01*
X68468181Y38105046D01*
X68501666Y38043723D01*
X68504500Y38017365D01*
X68504500Y3892636D01*
X68484815Y3825597D01*
X68468181Y3804955D01*
X65997233Y1334006D01*
X65975995Y1312769D01*
X65964500Y1285018D01*
X65964500Y768093D01*
X65963903Y755938D01*
X65952505Y640222D01*
X65947763Y616382D01*
X65917832Y517710D01*
X65915789Y510976D01*
X65906486Y488518D01*
X65854561Y391373D01*
X65841056Y371161D01*
X65771176Y286012D01*
X65753988Y268824D01*
X65668839Y198944D01*
X65648627Y185439D01*
X65551482Y133514D01*
X65529028Y124213D01*
X65487028Y111472D01*
X65423618Y92237D01*
X65399778Y87495D01*
X65291162Y76797D01*
X65284060Y76097D01*
X65271907Y75500D01*
X768093Y75500D01*
X755939Y76097D01*
X747995Y76880D01*
X640221Y87495D01*
X616381Y92237D01*
X599445Y97375D01*
X510968Y124214D01*
X488517Y133514D01*
X391372Y185439D01*
X371160Y198944D01*
X286011Y268824D01*
X268823Y286012D01*
X198943Y371161D01*
X185438Y391373D01*
X133510Y488524D01*
X124215Y510963D01*
X92234Y616388D01*
X87494Y640223D01*
X76097Y755939D01*
X75500Y768093D01*
X75500Y1641346D01*
X26581500Y1641346D01*
X26588011Y1580798D01*
X26588011Y1580796D01*
X26639111Y1443796D01*
X26726739Y1326739D01*
X26843796Y1239111D01*
X26980799Y1188011D01*
X27008050Y1185082D01*
X27041345Y1181501D01*
X27041362Y1181500D01*
X28838638Y1181500D01*
X28838654Y1181501D01*
X28865692Y1184409D01*
X28899201Y1188011D01*
X29036204Y1239111D01*
X29153261Y1326739D01*
X29240889Y1443796D01*
X29286138Y1565113D01*
X29328009Y1621044D01*
X29393474Y1645461D01*
X29461746Y1630609D01*
X29493545Y1605764D01*
X29556760Y1537094D01*
X29734424Y1398811D01*
X29734425Y1398811D01*
X29734427Y1398809D01*
X29861135Y1330239D01*
X29932426Y1291658D01*
X30145365Y1218556D01*
X30367431Y1181500D01*
X30592569Y1181500D01*
X30814635Y1218556D01*
X31027574Y1291658D01*
X31225576Y1398811D01*
X31403240Y1537094D01*
X31524594Y1668918D01*
X31555715Y1702724D01*
X31555715Y1702725D01*
X31555722Y1702732D01*
X31646193Y1841210D01*
X31699338Y1886563D01*
X31768569Y1895987D01*
X31831905Y1866485D01*
X31853804Y1841213D01*
X31944278Y1702732D01*
X31944283Y1702727D01*
X31944284Y1702724D01*
X32070968Y1565111D01*
X32096760Y1537094D01*
X32274424Y1398811D01*
X32274425Y1398811D01*
X32274427Y1398809D01*
X32401135Y1330239D01*
X32472426Y1291658D01*
X32685365Y1218556D01*
X32907431Y1181500D01*
X33132569Y1181500D01*
X33354635Y1218556D01*
X33567574Y1291658D01*
X33765576Y1398811D01*
X33943240Y1537094D01*
X34064594Y1668918D01*
X34095715Y1702724D01*
X34095715Y1702725D01*
X34095722Y1702732D01*
X34186193Y1841210D01*
X34239338Y1886563D01*
X34308569Y1895987D01*
X34371905Y1866485D01*
X34393804Y1841213D01*
X34484278Y1702732D01*
X34484283Y1702727D01*
X34484284Y1702724D01*
X34610968Y1565111D01*
X34636760Y1537094D01*
X34814424Y1398811D01*
X34814425Y1398811D01*
X34814427Y1398809D01*
X34941135Y1330239D01*
X35012426Y1291658D01*
X35225365Y1218556D01*
X35447431Y1181500D01*
X35672569Y1181500D01*
X35894635Y1218556D01*
X36107574Y1291658D01*
X36305576Y1398811D01*
X36483240Y1537094D01*
X36604594Y1668918D01*
X36635715Y1702724D01*
X36635715Y1702725D01*
X36635722Y1702732D01*
X36726193Y1841210D01*
X36779338Y1886563D01*
X36848569Y1895987D01*
X36911905Y1866485D01*
X36933804Y1841213D01*
X37024278Y1702732D01*
X37024283Y1702727D01*
X37024284Y1702724D01*
X37150968Y1565111D01*
X37176760Y1537094D01*
X37354424Y1398811D01*
X37354425Y1398811D01*
X37354427Y1398809D01*
X37481135Y1330239D01*
X37552426Y1291658D01*
X37765365Y1218556D01*
X37987431Y1181500D01*
X38212569Y1181500D01*
X38434635Y1218556D01*
X38647574Y1291658D01*
X38845576Y1398811D01*
X39023240Y1537094D01*
X39144594Y1668918D01*
X39175715Y1702724D01*
X39175715Y1702725D01*
X39175722Y1702732D01*
X39269749Y1846653D01*
X39322894Y1892006D01*
X39392125Y1901430D01*
X39455461Y1871928D01*
X39475130Y1849952D01*
X39601890Y1668922D01*
X39768917Y1501895D01*
X39962421Y1366400D01*
X40176507Y1266571D01*
X40176516Y1266567D01*
X40390000Y1209366D01*
X40390000Y2106988D01*
X40447007Y2074075D01*
X40574174Y2040000D01*
X40705826Y2040000D01*
X40832993Y2074075D01*
X40890000Y2106988D01*
X40890000Y1209367D01*
X41103483Y1266567D01*
X41103492Y1266571D01*
X41317578Y1366400D01*
X41511082Y1501895D01*
X41678105Y1668918D01*
X41808425Y1855032D01*
X41863002Y1898656D01*
X41932501Y1905849D01*
X41994855Y1874327D01*
X42011575Y1855032D01*
X42141894Y1668918D01*
X42308917Y1501895D01*
X42502421Y1366400D01*
X42716507Y1266571D01*
X42716516Y1266567D01*
X42930000Y1209366D01*
X42930000Y2106988D01*
X42987007Y2074075D01*
X43114174Y2040000D01*
X43245826Y2040000D01*
X43372993Y2074075D01*
X43430000Y2106988D01*
X43430000Y1209367D01*
X43643483Y1266567D01*
X43643492Y1266571D01*
X43857578Y1366400D01*
X44051082Y1501895D01*
X44218105Y1668918D01*
X44344868Y1849952D01*
X44399445Y1893577D01*
X44468944Y1900769D01*
X44531298Y1869247D01*
X44550251Y1846650D01*
X44644276Y1702735D01*
X44644284Y1702724D01*
X44770968Y1565111D01*
X44796760Y1537094D01*
X44974424Y1398811D01*
X44974425Y1398811D01*
X44974427Y1398809D01*
X45101135Y1330239D01*
X45172426Y1291658D01*
X45385365Y1218556D01*
X45607431Y1181500D01*
X45832569Y1181500D01*
X46054635Y1218556D01*
X46267574Y1291658D01*
X46465576Y1398811D01*
X46643240Y1537094D01*
X46739212Y1641346D01*
X49441500Y1641346D01*
X49448011Y1580798D01*
X49448011Y1580796D01*
X49499111Y1443796D01*
X49586739Y1326739D01*
X49703796Y1239111D01*
X49840799Y1188011D01*
X49868050Y1185082D01*
X49901345Y1181501D01*
X49901362Y1181500D01*
X51698638Y1181500D01*
X51698654Y1181501D01*
X51725692Y1184409D01*
X51759201Y1188011D01*
X51896204Y1239111D01*
X52013261Y1326739D01*
X52100889Y1443796D01*
X52146138Y1565113D01*
X52188009Y1621044D01*
X52253474Y1645461D01*
X52321746Y1630609D01*
X52353545Y1605764D01*
X52416760Y1537094D01*
X52594424Y1398811D01*
X52594425Y1398811D01*
X52594427Y1398809D01*
X52721135Y1330239D01*
X52792426Y1291658D01*
X53005365Y1218556D01*
X53227431Y1181500D01*
X53452569Y1181500D01*
X53674635Y1218556D01*
X53887574Y1291658D01*
X54085576Y1398811D01*
X54263240Y1537094D01*
X54384594Y1668918D01*
X54415715Y1702724D01*
X54415715Y1702725D01*
X54415722Y1702732D01*
X54506193Y1841210D01*
X54559338Y1886563D01*
X54628569Y1895987D01*
X54691905Y1866485D01*
X54713804Y1841213D01*
X54804278Y1702732D01*
X54804283Y1702727D01*
X54804284Y1702724D01*
X54930968Y1565111D01*
X54956760Y1537094D01*
X55134424Y1398811D01*
X55134425Y1398811D01*
X55134427Y1398809D01*
X55261135Y1330239D01*
X55332426Y1291658D01*
X55545365Y1218556D01*
X55767431Y1181500D01*
X55992569Y1181500D01*
X56214635Y1218556D01*
X56427574Y1291658D01*
X56625576Y1398811D01*
X56803240Y1537094D01*
X56924594Y1668918D01*
X56955715Y1702724D01*
X56955715Y1702725D01*
X56955722Y1702732D01*
X57046193Y1841210D01*
X57099338Y1886563D01*
X57168569Y1895987D01*
X57231905Y1866485D01*
X57253804Y1841213D01*
X57344278Y1702732D01*
X57344283Y1702727D01*
X57344284Y1702724D01*
X57470968Y1565111D01*
X57496760Y1537094D01*
X57674424Y1398811D01*
X57674425Y1398811D01*
X57674427Y1398809D01*
X57801135Y1330239D01*
X57872426Y1291658D01*
X58085365Y1218556D01*
X58307431Y1181500D01*
X58532569Y1181500D01*
X58754635Y1218556D01*
X58967574Y1291658D01*
X59165576Y1398811D01*
X59343240Y1537094D01*
X59464594Y1668918D01*
X59495715Y1702724D01*
X59495715Y1702725D01*
X59495722Y1702732D01*
X59586193Y1841210D01*
X59639338Y1886563D01*
X59708569Y1895987D01*
X59771905Y1866485D01*
X59793804Y1841213D01*
X59884278Y1702732D01*
X59884283Y1702727D01*
X59884284Y1702724D01*
X60010968Y1565111D01*
X60036760Y1537094D01*
X60214424Y1398811D01*
X60214425Y1398811D01*
X60214427Y1398809D01*
X60341135Y1330239D01*
X60412426Y1291658D01*
X60625365Y1218556D01*
X60847431Y1181500D01*
X61072569Y1181500D01*
X61294635Y1218556D01*
X61507574Y1291658D01*
X61705576Y1398811D01*
X61883240Y1537094D01*
X62004594Y1668918D01*
X62035715Y1702724D01*
X62035715Y1702725D01*
X62035722Y1702732D01*
X62126193Y1841210D01*
X62179338Y1886563D01*
X62248569Y1895987D01*
X62311905Y1866485D01*
X62333804Y1841213D01*
X62424278Y1702732D01*
X62424283Y1702727D01*
X62424284Y1702724D01*
X62550968Y1565111D01*
X62576760Y1537094D01*
X62754424Y1398811D01*
X62754425Y1398811D01*
X62754427Y1398809D01*
X62881135Y1330239D01*
X62952426Y1291658D01*
X63165365Y1218556D01*
X63387431Y1181500D01*
X63612569Y1181500D01*
X63834635Y1218556D01*
X64047574Y1291658D01*
X64245576Y1398811D01*
X64423240Y1537094D01*
X64544594Y1668918D01*
X64575715Y1702724D01*
X64575717Y1702727D01*
X64575722Y1702732D01*
X64698860Y1891209D01*
X64789296Y2097384D01*
X64844564Y2315632D01*
X64847164Y2347007D01*
X64863156Y2539995D01*
X64863156Y2540006D01*
X64844565Y2764360D01*
X64844563Y2764372D01*
X64789296Y2982615D01*
X64779071Y3005925D01*
X64698860Y3188791D01*
X64682706Y3213516D01*
X64599090Y3341501D01*
X64575722Y3377268D01*
X64575719Y3377271D01*
X64575715Y3377277D01*
X64423243Y3542903D01*
X64423238Y3542908D01*
X64245577Y3681188D01*
X64245572Y3681192D01*
X64047580Y3788339D01*
X64047577Y3788341D01*
X64047574Y3788342D01*
X64047571Y3788343D01*
X64047569Y3788344D01*
X63834637Y3861444D01*
X63612569Y3898500D01*
X63387431Y3898500D01*
X63165362Y3861444D01*
X62952430Y3788344D01*
X62952419Y3788339D01*
X62754427Y3681192D01*
X62754422Y3681188D01*
X62576761Y3542908D01*
X62576756Y3542903D01*
X62424284Y3377277D01*
X62424276Y3377266D01*
X62333808Y3238794D01*
X62280662Y3193438D01*
X62211431Y3184014D01*
X62148095Y3213516D01*
X62126192Y3238794D01*
X62059090Y3341501D01*
X62035722Y3377268D01*
X62035719Y3377271D01*
X62035715Y3377277D01*
X61883243Y3542903D01*
X61883238Y3542908D01*
X61705577Y3681188D01*
X61705572Y3681192D01*
X61507580Y3788339D01*
X61507577Y3788341D01*
X61507574Y3788342D01*
X61507571Y3788343D01*
X61507569Y3788344D01*
X61294637Y3861444D01*
X61072569Y3898500D01*
X60847431Y3898500D01*
X60625362Y3861444D01*
X60412430Y3788344D01*
X60412419Y3788339D01*
X60214427Y3681192D01*
X60214422Y3681188D01*
X60036761Y3542908D01*
X60036756Y3542903D01*
X59884284Y3377277D01*
X59884276Y3377266D01*
X59793808Y3238794D01*
X59740662Y3193438D01*
X59671431Y3184014D01*
X59608095Y3213516D01*
X59586192Y3238794D01*
X59519090Y3341501D01*
X59495722Y3377268D01*
X59495719Y3377271D01*
X59495715Y3377277D01*
X59343243Y3542903D01*
X59343238Y3542908D01*
X59165577Y3681188D01*
X59165572Y3681192D01*
X58967580Y3788339D01*
X58967577Y3788341D01*
X58967574Y3788342D01*
X58967571Y3788343D01*
X58967569Y3788344D01*
X58754637Y3861444D01*
X58532569Y3898500D01*
X58307431Y3898500D01*
X58085362Y3861444D01*
X57872430Y3788344D01*
X57872419Y3788339D01*
X57674427Y3681192D01*
X57674422Y3681188D01*
X57496761Y3542908D01*
X57496756Y3542903D01*
X57344284Y3377277D01*
X57344276Y3377266D01*
X57253808Y3238794D01*
X57200662Y3193438D01*
X57131431Y3184014D01*
X57068095Y3213516D01*
X57046192Y3238794D01*
X56979090Y3341501D01*
X56955722Y3377268D01*
X56955719Y3377271D01*
X56955715Y3377277D01*
X56803243Y3542903D01*
X56803238Y3542908D01*
X56625577Y3681188D01*
X56625572Y3681192D01*
X56427580Y3788339D01*
X56427577Y3788341D01*
X56427574Y3788342D01*
X56427571Y3788343D01*
X56427569Y3788344D01*
X56214637Y3861444D01*
X55992569Y3898500D01*
X55767431Y3898500D01*
X55545362Y3861444D01*
X55332430Y3788344D01*
X55332419Y3788339D01*
X55134427Y3681192D01*
X55134422Y3681188D01*
X54956761Y3542908D01*
X54956756Y3542903D01*
X54804284Y3377277D01*
X54804276Y3377266D01*
X54713808Y3238794D01*
X54660662Y3193438D01*
X54591431Y3184014D01*
X54528095Y3213516D01*
X54506192Y3238794D01*
X54439090Y3341501D01*
X54415722Y3377268D01*
X54415719Y3377271D01*
X54415715Y3377277D01*
X54263243Y3542903D01*
X54263238Y3542908D01*
X54085577Y3681188D01*
X54085572Y3681192D01*
X53887580Y3788339D01*
X53887577Y3788341D01*
X53887574Y3788342D01*
X53887571Y3788343D01*
X53887569Y3788344D01*
X53674637Y3861444D01*
X53452569Y3898500D01*
X53227431Y3898500D01*
X53005362Y3861444D01*
X52792430Y3788344D01*
X52792419Y3788339D01*
X52594427Y3681192D01*
X52594422Y3681188D01*
X52416761Y3542908D01*
X52353548Y3474240D01*
X52293661Y3438250D01*
X52223823Y3440351D01*
X52166207Y3479876D01*
X52146138Y3514890D01*
X52100889Y3636204D01*
X52067214Y3681188D01*
X52013261Y3753261D01*
X51896204Y3840889D01*
X51895172Y3841274D01*
X51759203Y3891989D01*
X51698654Y3898500D01*
X51698638Y3898500D01*
X49901362Y3898500D01*
X49901345Y3898500D01*
X49840797Y3891989D01*
X49840795Y3891989D01*
X49703795Y3840889D01*
X49586739Y3753261D01*
X49499111Y3636205D01*
X49448011Y3499205D01*
X49448011Y3499203D01*
X49441500Y3438655D01*
X49441500Y1641346D01*
X46739212Y1641346D01*
X46764594Y1668918D01*
X46795715Y1702724D01*
X46795717Y1702727D01*
X46795722Y1702732D01*
X46918860Y1891209D01*
X47009296Y2097384D01*
X47064564Y2315632D01*
X47067164Y2347007D01*
X47083156Y2539995D01*
X47083156Y2540006D01*
X47064565Y2764360D01*
X47064563Y2764372D01*
X47009296Y2982615D01*
X46999071Y3005925D01*
X46918860Y3188791D01*
X46902706Y3213516D01*
X46819090Y3341501D01*
X46795722Y3377268D01*
X46795719Y3377271D01*
X46795715Y3377277D01*
X46643243Y3542903D01*
X46643238Y3542908D01*
X46465577Y3681188D01*
X46465572Y3681192D01*
X46267580Y3788339D01*
X46267577Y3788341D01*
X46267574Y3788342D01*
X46267571Y3788343D01*
X46267569Y3788344D01*
X46054637Y3861444D01*
X45832569Y3898500D01*
X45607431Y3898500D01*
X45385362Y3861444D01*
X45172430Y3788344D01*
X45172419Y3788339D01*
X44974427Y3681192D01*
X44974422Y3681188D01*
X44796761Y3542908D01*
X44796756Y3542903D01*
X44644284Y3377277D01*
X44644276Y3377266D01*
X44550251Y3233350D01*
X44497105Y3187993D01*
X44427873Y3178570D01*
X44364538Y3208072D01*
X44344868Y3230049D01*
X44218113Y3411074D01*
X44218108Y3411080D01*
X44051082Y3578106D01*
X43857578Y3713601D01*
X43643492Y3813430D01*
X43643486Y3813433D01*
X43430000Y3870636D01*
X43430000Y2973012D01*
X43372993Y3005925D01*
X43245826Y3040000D01*
X43114174Y3040000D01*
X42987007Y3005925D01*
X42930000Y2973012D01*
X42930000Y3870636D01*
X42929999Y3870636D01*
X42716513Y3813433D01*
X42716507Y3813430D01*
X42502422Y3713601D01*
X42502420Y3713600D01*
X42308926Y3578114D01*
X42308920Y3578109D01*
X42141891Y3411080D01*
X42141890Y3411078D01*
X42011575Y3224969D01*
X41956998Y3181345D01*
X41887499Y3174152D01*
X41825145Y3205674D01*
X41808425Y3224969D01*
X41678109Y3411078D01*
X41678108Y3411080D01*
X41511082Y3578106D01*
X41317578Y3713601D01*
X41103492Y3813430D01*
X41103486Y3813433D01*
X40890000Y3870636D01*
X40890000Y2973012D01*
X40832993Y3005925D01*
X40705826Y3040000D01*
X40574174Y3040000D01*
X40447007Y3005925D01*
X40390000Y2973012D01*
X40390000Y3870636D01*
X40389999Y3870636D01*
X40176513Y3813433D01*
X40176507Y3813430D01*
X39962422Y3713601D01*
X39962420Y3713600D01*
X39768926Y3578114D01*
X39768920Y3578109D01*
X39601891Y3411080D01*
X39601890Y3411078D01*
X39475131Y3230048D01*
X39420554Y3186423D01*
X39351055Y3179231D01*
X39288701Y3210753D01*
X39269752Y3233344D01*
X39175722Y3377268D01*
X39175715Y3377275D01*
X39175715Y3377277D01*
X39023243Y3542903D01*
X39023238Y3542908D01*
X38845577Y3681188D01*
X38845572Y3681192D01*
X38647580Y3788339D01*
X38647577Y3788341D01*
X38647574Y3788342D01*
X38647571Y3788343D01*
X38647569Y3788344D01*
X38434637Y3861444D01*
X38212569Y3898500D01*
X37987431Y3898500D01*
X37765362Y3861444D01*
X37552430Y3788344D01*
X37552419Y3788339D01*
X37354427Y3681192D01*
X37354422Y3681188D01*
X37176761Y3542908D01*
X37176756Y3542903D01*
X37024284Y3377277D01*
X37024276Y3377266D01*
X36933808Y3238794D01*
X36880662Y3193438D01*
X36811431Y3184014D01*
X36748095Y3213516D01*
X36726192Y3238794D01*
X36659090Y3341501D01*
X36635722Y3377268D01*
X36635719Y3377271D01*
X36635715Y3377277D01*
X36483243Y3542903D01*
X36483238Y3542908D01*
X36305577Y3681188D01*
X36305572Y3681192D01*
X36107580Y3788339D01*
X36107577Y3788341D01*
X36107574Y3788342D01*
X36107571Y3788343D01*
X36107569Y3788344D01*
X35894637Y3861444D01*
X35672569Y3898500D01*
X35447431Y3898500D01*
X35225362Y3861444D01*
X35012430Y3788344D01*
X35012419Y3788339D01*
X34814427Y3681192D01*
X34814422Y3681188D01*
X34636761Y3542908D01*
X34636756Y3542903D01*
X34484284Y3377277D01*
X34484276Y3377266D01*
X34393808Y3238794D01*
X34340662Y3193438D01*
X34271431Y3184014D01*
X34208095Y3213516D01*
X34186192Y3238794D01*
X34119090Y3341501D01*
X34095722Y3377268D01*
X34095719Y3377271D01*
X34095715Y3377277D01*
X33943243Y3542903D01*
X33943238Y3542908D01*
X33765577Y3681188D01*
X33765572Y3681192D01*
X33567580Y3788339D01*
X33567577Y3788341D01*
X33567574Y3788342D01*
X33567571Y3788343D01*
X33567569Y3788344D01*
X33354637Y3861444D01*
X33132569Y3898500D01*
X32907431Y3898500D01*
X32685362Y3861444D01*
X32472430Y3788344D01*
X32472419Y3788339D01*
X32274427Y3681192D01*
X32274422Y3681188D01*
X32096761Y3542908D01*
X32096756Y3542903D01*
X31944284Y3377277D01*
X31944276Y3377266D01*
X31853808Y3238794D01*
X31800662Y3193438D01*
X31731431Y3184014D01*
X31668095Y3213516D01*
X31646192Y3238794D01*
X31579090Y3341501D01*
X31555722Y3377268D01*
X31555719Y3377271D01*
X31555715Y3377277D01*
X31403243Y3542903D01*
X31403238Y3542908D01*
X31225577Y3681188D01*
X31225572Y3681192D01*
X31027580Y3788339D01*
X31027577Y3788341D01*
X31027574Y3788342D01*
X31027571Y3788343D01*
X31027569Y3788344D01*
X30814637Y3861444D01*
X30592569Y3898500D01*
X30367431Y3898500D01*
X30145362Y3861444D01*
X29932430Y3788344D01*
X29932419Y3788339D01*
X29734427Y3681192D01*
X29734422Y3681188D01*
X29556761Y3542908D01*
X29493548Y3474240D01*
X29433661Y3438250D01*
X29363823Y3440351D01*
X29306207Y3479876D01*
X29286138Y3514890D01*
X29240889Y3636204D01*
X29207214Y3681188D01*
X29153261Y3753261D01*
X29036204Y3840889D01*
X29035172Y3841274D01*
X28899203Y3891989D01*
X28838654Y3898500D01*
X28838638Y3898500D01*
X27041362Y3898500D01*
X27041345Y3898500D01*
X26980797Y3891989D01*
X26980795Y3891989D01*
X26843795Y3840889D01*
X26726739Y3753261D01*
X26639111Y3636205D01*
X26588011Y3499205D01*
X26588011Y3499203D01*
X26581500Y3438655D01*
X26581500Y1641346D01*
X75500Y1641346D01*
X75500Y3102156D01*
X2950000Y3102156D01*
X2956401Y3042628D01*
X2956403Y3042621D01*
X3006645Y2907914D01*
X3006649Y2907907D01*
X3092809Y2792813D01*
X3092812Y2792810D01*
X3207906Y2706650D01*
X3207913Y2706646D01*
X3342620Y2656404D01*
X3342627Y2656402D01*
X3402155Y2650001D01*
X3402172Y2650000D01*
X4050000Y2650000D01*
X4050000Y3566988D01*
X4107007Y3534075D01*
X4234174Y3500000D01*
X4365826Y3500000D01*
X4492993Y3534075D01*
X4550000Y3566988D01*
X4550000Y2650000D01*
X5197828Y2650000D01*
X5197844Y2650001D01*
X5257372Y2656402D01*
X5257379Y2656404D01*
X5392086Y2706646D01*
X5392093Y2706650D01*
X5507187Y2792810D01*
X5507190Y2792813D01*
X5593350Y2907907D01*
X5593354Y2907914D01*
X5643596Y3042621D01*
X5643598Y3042628D01*
X5649999Y3102156D01*
X5650000Y3102173D01*
X5650000Y3750000D01*
X4733012Y3750000D01*
X4762657Y3801346D01*
X8241500Y3801346D01*
X8248011Y3740798D01*
X8248011Y3740796D01*
X8287023Y3636205D01*
X8299111Y3603796D01*
X8386739Y3486739D01*
X8503796Y3399111D01*
X8640799Y3348011D01*
X8668050Y3345082D01*
X8701345Y3341501D01*
X8701362Y3341500D01*
X10498638Y3341500D01*
X10498654Y3341501D01*
X10525692Y3344409D01*
X10559201Y3348011D01*
X10696204Y3399111D01*
X10813261Y3486739D01*
X10900889Y3603796D01*
X10951989Y3740799D01*
X10957100Y3788339D01*
X10958354Y3799999D01*
X16986502Y3799999D01*
X17006456Y3571919D01*
X17006457Y3571911D01*
X17065714Y3350762D01*
X17065718Y3350751D01*
X17162475Y3143255D01*
X17162477Y3143251D01*
X17293802Y2955700D01*
X17455700Y2793802D01*
X17643251Y2662477D01*
X17764740Y2605826D01*
X17850750Y2565719D01*
X17850752Y2565719D01*
X17850757Y2565716D01*
X18071913Y2506457D01*
X18234832Y2492204D01*
X18299998Y2486502D01*
X18300000Y2486502D01*
X18300002Y2486502D01*
X18357021Y2491491D01*
X18528087Y2506457D01*
X18749243Y2565716D01*
X18956749Y2662477D01*
X19144300Y2793802D01*
X19306198Y2955700D01*
X19437523Y3143251D01*
X19534284Y3350757D01*
X19593543Y3571913D01*
X19613498Y3799999D01*
X21986502Y3799999D01*
X22006456Y3571919D01*
X22006457Y3571911D01*
X22065714Y3350762D01*
X22065718Y3350751D01*
X22162475Y3143255D01*
X22162477Y3143251D01*
X22293802Y2955700D01*
X22455700Y2793802D01*
X22643251Y2662477D01*
X22764740Y2605826D01*
X22850750Y2565719D01*
X22850752Y2565719D01*
X22850757Y2565716D01*
X23071913Y2506457D01*
X23234832Y2492204D01*
X23299998Y2486502D01*
X23300000Y2486502D01*
X23300002Y2486502D01*
X23357021Y2491491D01*
X23528087Y2506457D01*
X23749243Y2565716D01*
X23956749Y2662477D01*
X24144300Y2793802D01*
X24306198Y2955700D01*
X24437523Y3143251D01*
X24534284Y3350757D01*
X24593543Y3571913D01*
X24613498Y3800000D01*
X24613064Y3804955D01*
X24593543Y4028082D01*
X24593543Y4028087D01*
X24534284Y4249243D01*
X24437523Y4456749D01*
X24306198Y4644300D01*
X24144300Y4806198D01*
X23956749Y4937523D01*
X23956745Y4937525D01*
X23749249Y5034282D01*
X23749238Y5034286D01*
X23528089Y5093543D01*
X23528081Y5093544D01*
X23300002Y5113498D01*
X23299998Y5113498D01*
X23071918Y5093544D01*
X23071910Y5093543D01*
X22850761Y5034286D01*
X22850750Y5034282D01*
X22643254Y4937525D01*
X22643252Y4937524D01*
X22643251Y4937523D01*
X22455700Y4806198D01*
X22455698Y4806197D01*
X22455695Y4806194D01*
X22293806Y4644305D01*
X22162476Y4456748D01*
X22162475Y4456746D01*
X22065718Y4249250D01*
X22065714Y4249239D01*
X22006457Y4028090D01*
X22006456Y4028082D01*
X21986502Y3800002D01*
X21986502Y3799999D01*
X19613498Y3799999D01*
X19613498Y3800000D01*
X19613064Y3804955D01*
X19593543Y4028082D01*
X19593543Y4028087D01*
X19534284Y4249243D01*
X19437523Y4456749D01*
X19306198Y4644300D01*
X19144300Y4806198D01*
X18956749Y4937523D01*
X18956745Y4937525D01*
X18749249Y5034282D01*
X18749238Y5034286D01*
X18528089Y5093543D01*
X18528081Y5093544D01*
X18300002Y5113498D01*
X18299998Y5113498D01*
X18071918Y5093544D01*
X18071910Y5093543D01*
X17850761Y5034286D01*
X17850750Y5034282D01*
X17643254Y4937525D01*
X17643252Y4937524D01*
X17643251Y4937523D01*
X17455700Y4806198D01*
X17455698Y4806197D01*
X17455695Y4806194D01*
X17293806Y4644305D01*
X17162476Y4456748D01*
X17162475Y4456746D01*
X17065718Y4249250D01*
X17065714Y4249239D01*
X17006457Y4028090D01*
X17006456Y4028082D01*
X16986502Y3800002D01*
X16986502Y3799999D01*
X10958354Y3799999D01*
X10958499Y3801346D01*
X10958500Y3801363D01*
X10958500Y5598638D01*
X10958499Y5598655D01*
X10955157Y5629730D01*
X10951989Y5659201D01*
X10900889Y5796204D01*
X10813261Y5913261D01*
X10696204Y6000889D01*
X10559203Y6051989D01*
X10498654Y6058500D01*
X10498638Y6058500D01*
X8701362Y6058500D01*
X8701345Y6058500D01*
X8640797Y6051989D01*
X8640795Y6051989D01*
X8503795Y6000889D01*
X8386739Y5913261D01*
X8299111Y5796205D01*
X8248011Y5659205D01*
X8248011Y5659203D01*
X8241500Y5598655D01*
X8241500Y3801346D01*
X4762657Y3801346D01*
X4765925Y3807007D01*
X4800000Y3934174D01*
X4800000Y4065826D01*
X4765925Y4192993D01*
X4733012Y4250000D01*
X5650000Y4250000D01*
X5650000Y4897828D01*
X5649999Y4897845D01*
X5643598Y4957373D01*
X5643596Y4957380D01*
X5593354Y5092087D01*
X5593350Y5092094D01*
X5507190Y5207188D01*
X5507187Y5207191D01*
X5392093Y5293351D01*
X5392086Y5293355D01*
X5257379Y5343597D01*
X5257372Y5343599D01*
X5197844Y5350000D01*
X4550000Y5350000D01*
X4550000Y4433012D01*
X4492993Y4465925D01*
X4365826Y4500000D01*
X4234174Y4500000D01*
X4107007Y4465925D01*
X4050000Y4433012D01*
X4050000Y5350000D01*
X3402155Y5350000D01*
X3342627Y5343599D01*
X3342620Y5343597D01*
X3207913Y5293355D01*
X3207906Y5293351D01*
X3092812Y5207191D01*
X3092809Y5207188D01*
X3006649Y5092094D01*
X3006645Y5092087D01*
X2956403Y4957380D01*
X2956401Y4957373D01*
X2950000Y4897845D01*
X2950000Y4250000D01*
X3866988Y4250000D01*
X3834075Y4192993D01*
X3800000Y4065826D01*
X3800000Y3934174D01*
X3834075Y3807007D01*
X3866988Y3750000D01*
X2950000Y3750000D01*
X2950000Y3102156D01*
X75500Y3102156D01*
X75500Y8999999D01*
X24506502Y8999999D01*
X24526456Y8771919D01*
X24526457Y8771911D01*
X24585714Y8550762D01*
X24585718Y8550751D01*
X24682475Y8343255D01*
X24682477Y8343251D01*
X24813802Y8155700D01*
X24975700Y7993802D01*
X25163251Y7862477D01*
X25288091Y7804264D01*
X25370750Y7765719D01*
X25370752Y7765719D01*
X25370757Y7765716D01*
X25591913Y7706457D01*
X25754832Y7692204D01*
X25819998Y7686502D01*
X25820000Y7686502D01*
X25820002Y7686502D01*
X25877021Y7691491D01*
X26048087Y7706457D01*
X26269243Y7765716D01*
X26476749Y7862477D01*
X26664300Y7993802D01*
X26826198Y8155700D01*
X26957523Y8343251D01*
X27054284Y8550757D01*
X27113543Y8771913D01*
X27133498Y8999999D01*
X34666502Y8999999D01*
X34686456Y8771919D01*
X34686457Y8771911D01*
X34745714Y8550762D01*
X34745718Y8550751D01*
X34842475Y8343255D01*
X34842477Y8343251D01*
X34973802Y8155700D01*
X35135700Y7993802D01*
X35323251Y7862477D01*
X35448091Y7804264D01*
X35530750Y7765719D01*
X35530752Y7765719D01*
X35530757Y7765716D01*
X35751913Y7706457D01*
X35914832Y7692204D01*
X35979998Y7686502D01*
X35980000Y7686502D01*
X35980002Y7686502D01*
X36037021Y7691491D01*
X36208087Y7706457D01*
X36429243Y7765716D01*
X36636749Y7862477D01*
X36824300Y7993802D01*
X36986198Y8155700D01*
X37117523Y8343251D01*
X37214284Y8550757D01*
X37273543Y8771913D01*
X37293498Y8999999D01*
X39606502Y8999999D01*
X39626456Y8771919D01*
X39626457Y8771911D01*
X39685714Y8550762D01*
X39685718Y8550751D01*
X39782475Y8343255D01*
X39782477Y8343251D01*
X39913802Y8155700D01*
X40075700Y7993802D01*
X40263251Y7862477D01*
X40388091Y7804264D01*
X40470750Y7765719D01*
X40470752Y7765719D01*
X40470757Y7765716D01*
X40691913Y7706457D01*
X40854832Y7692204D01*
X40919998Y7686502D01*
X40920000Y7686502D01*
X40920002Y7686502D01*
X40977021Y7691491D01*
X41148087Y7706457D01*
X41369243Y7765716D01*
X41576749Y7862477D01*
X41764300Y7993802D01*
X41926198Y8155700D01*
X42057523Y8343251D01*
X42154284Y8550757D01*
X42213543Y8771913D01*
X42233498Y8999999D01*
X49766502Y8999999D01*
X49786456Y8771919D01*
X49786457Y8771911D01*
X49845714Y8550762D01*
X49845718Y8550751D01*
X49942475Y8343255D01*
X49942477Y8343251D01*
X50073802Y8155700D01*
X50235700Y7993802D01*
X50423251Y7862477D01*
X50548091Y7804264D01*
X50630750Y7765719D01*
X50630752Y7765719D01*
X50630757Y7765716D01*
X50851913Y7706457D01*
X51014832Y7692204D01*
X51079998Y7686502D01*
X51080000Y7686502D01*
X51080002Y7686502D01*
X51137021Y7691491D01*
X51308087Y7706457D01*
X51529243Y7765716D01*
X51736749Y7862477D01*
X51924300Y7993802D01*
X52086198Y8155700D01*
X52217523Y8343251D01*
X52314284Y8550757D01*
X52373543Y8771913D01*
X52393498Y9000000D01*
X52373543Y9228087D01*
X52314284Y9449243D01*
X52217523Y9656749D01*
X52086198Y9844300D01*
X51924300Y10006198D01*
X51787258Y10102156D01*
X59900000Y10102156D01*
X59906401Y10042628D01*
X59906403Y10042621D01*
X59956645Y9907914D01*
X59956649Y9907907D01*
X60042809Y9792813D01*
X60042812Y9792810D01*
X60157906Y9706650D01*
X60157913Y9706646D01*
X60292620Y9656404D01*
X60292627Y9656402D01*
X60352155Y9650001D01*
X60352172Y9650000D01*
X61000000Y9650000D01*
X61000000Y10566988D01*
X61057007Y10534075D01*
X61184174Y10500000D01*
X61315826Y10500000D01*
X61442993Y10534075D01*
X61500000Y10566988D01*
X61500000Y9650000D01*
X62147828Y9650000D01*
X62147844Y9650001D01*
X62207372Y9656402D01*
X62207379Y9656404D01*
X62342086Y9706646D01*
X62342093Y9706650D01*
X62457187Y9792810D01*
X62457190Y9792813D01*
X62543350Y9907907D01*
X62543354Y9907914D01*
X62593596Y10042621D01*
X62593598Y10042628D01*
X62599999Y10102156D01*
X62600000Y10102173D01*
X62600000Y10750000D01*
X61683012Y10750000D01*
X61715925Y10807007D01*
X61750000Y10934174D01*
X61750000Y11065826D01*
X61715925Y11192993D01*
X61683012Y11250000D01*
X62600000Y11250000D01*
X62600000Y11897828D01*
X62599999Y11897845D01*
X62593598Y11957373D01*
X62593596Y11957380D01*
X62543354Y12092087D01*
X62543350Y12092094D01*
X62457190Y12207188D01*
X62457187Y12207191D01*
X62342093Y12293351D01*
X62342086Y12293355D01*
X62207379Y12343597D01*
X62207372Y12343599D01*
X62147844Y12350000D01*
X61500000Y12350000D01*
X61500000Y11433012D01*
X61442993Y11465925D01*
X61315826Y11500000D01*
X61184174Y11500000D01*
X61057007Y11465925D01*
X61000000Y11433012D01*
X61000000Y12350000D01*
X60352155Y12350000D01*
X60292627Y12343599D01*
X60292620Y12343597D01*
X60157913Y12293355D01*
X60157906Y12293351D01*
X60042812Y12207191D01*
X60042809Y12207188D01*
X59956649Y12092094D01*
X59956645Y12092087D01*
X59906403Y11957380D01*
X59906401Y11957373D01*
X59900000Y11897845D01*
X59900000Y11250000D01*
X60816988Y11250000D01*
X60784075Y11192993D01*
X60750000Y11065826D01*
X60750000Y10934174D01*
X60784075Y10807007D01*
X60816988Y10750000D01*
X59900000Y10750000D01*
X59900000Y10102156D01*
X51787258Y10102156D01*
X51736749Y10137523D01*
X51736745Y10137525D01*
X51529249Y10234282D01*
X51529238Y10234286D01*
X51308089Y10293543D01*
X51308081Y10293544D01*
X51080002Y10313498D01*
X51079998Y10313498D01*
X50851918Y10293544D01*
X50851910Y10293543D01*
X50630761Y10234286D01*
X50630750Y10234282D01*
X50423254Y10137525D01*
X50423252Y10137524D01*
X50423251Y10137523D01*
X50235700Y10006198D01*
X50235698Y10006197D01*
X50235695Y10006194D01*
X50073806Y9844305D01*
X50073803Y9844302D01*
X50073802Y9844300D01*
X50037748Y9792810D01*
X49942476Y9656748D01*
X49942475Y9656746D01*
X49845718Y9449250D01*
X49845714Y9449239D01*
X49786457Y9228090D01*
X49786456Y9228082D01*
X49766502Y9000002D01*
X49766502Y8999999D01*
X42233498Y8999999D01*
X42233498Y9000000D01*
X42213543Y9228087D01*
X42154284Y9449243D01*
X42057523Y9656749D01*
X41926198Y9844300D01*
X41764300Y10006198D01*
X41576749Y10137523D01*
X41576745Y10137525D01*
X41369249Y10234282D01*
X41369238Y10234286D01*
X41148089Y10293543D01*
X41148081Y10293544D01*
X40920002Y10313498D01*
X40919998Y10313498D01*
X40691918Y10293544D01*
X40691910Y10293543D01*
X40470761Y10234286D01*
X40470750Y10234282D01*
X40263254Y10137525D01*
X40263252Y10137524D01*
X40263251Y10137523D01*
X40075700Y10006198D01*
X40075698Y10006197D01*
X40075695Y10006194D01*
X39913806Y9844305D01*
X39913803Y9844302D01*
X39913802Y9844300D01*
X39877748Y9792810D01*
X39782476Y9656748D01*
X39782475Y9656746D01*
X39685718Y9449250D01*
X39685714Y9449239D01*
X39626457Y9228090D01*
X39626456Y9228082D01*
X39606502Y9000002D01*
X39606502Y8999999D01*
X37293498Y8999999D01*
X37293498Y9000000D01*
X37273543Y9228087D01*
X37214284Y9449243D01*
X37117523Y9656749D01*
X36986198Y9844300D01*
X36824300Y10006198D01*
X36636749Y10137523D01*
X36636745Y10137525D01*
X36429249Y10234282D01*
X36429238Y10234286D01*
X36208089Y10293543D01*
X36208081Y10293544D01*
X35980002Y10313498D01*
X35979998Y10313498D01*
X35751918Y10293544D01*
X35751910Y10293543D01*
X35530761Y10234286D01*
X35530750Y10234282D01*
X35323254Y10137525D01*
X35323252Y10137524D01*
X35323251Y10137523D01*
X35135700Y10006198D01*
X35135698Y10006197D01*
X35135695Y10006194D01*
X34973806Y9844305D01*
X34973803Y9844302D01*
X34973802Y9844300D01*
X34937748Y9792810D01*
X34842476Y9656748D01*
X34842475Y9656746D01*
X34745718Y9449250D01*
X34745714Y9449239D01*
X34686457Y9228090D01*
X34686456Y9228082D01*
X34666502Y9000002D01*
X34666502Y8999999D01*
X27133498Y8999999D01*
X27133498Y9000000D01*
X27113543Y9228087D01*
X27054284Y9449243D01*
X26957523Y9656749D01*
X26826198Y9844300D01*
X26664300Y10006198D01*
X26476749Y10137523D01*
X26476745Y10137525D01*
X26269249Y10234282D01*
X26269238Y10234286D01*
X26048089Y10293543D01*
X26048081Y10293544D01*
X25820002Y10313498D01*
X25819998Y10313498D01*
X25591918Y10293544D01*
X25591910Y10293543D01*
X25370761Y10234286D01*
X25370750Y10234282D01*
X25163254Y10137525D01*
X25163252Y10137524D01*
X25163251Y10137523D01*
X24975700Y10006198D01*
X24975698Y10006197D01*
X24975695Y10006194D01*
X24813806Y9844305D01*
X24813803Y9844302D01*
X24813802Y9844300D01*
X24777748Y9792810D01*
X24682476Y9656748D01*
X24682475Y9656746D01*
X24585718Y9449250D01*
X24585714Y9449239D01*
X24526457Y9228090D01*
X24526456Y9228082D01*
X24506502Y9000002D01*
X24506502Y8999999D01*
X75500Y8999999D01*
X75500Y10444995D01*
X9736844Y10444995D01*
X9755434Y10220641D01*
X9755436Y10220629D01*
X9810703Y10002386D01*
X9901140Y9796208D01*
X10024276Y9607735D01*
X10024284Y9607724D01*
X10176756Y9442098D01*
X10176760Y9442094D01*
X10354424Y9303811D01*
X10354425Y9303811D01*
X10354427Y9303809D01*
X10481135Y9235239D01*
X10552426Y9196658D01*
X10765365Y9123556D01*
X10987431Y9086500D01*
X11212569Y9086500D01*
X11434635Y9123556D01*
X11647574Y9196658D01*
X11845576Y9303811D01*
X12023240Y9442094D01*
X12175722Y9607732D01*
X12298860Y9796209D01*
X12389296Y10002384D01*
X12444564Y10220632D01*
X12445695Y10234282D01*
X12463156Y10444995D01*
X12463156Y10445006D01*
X12444565Y10669360D01*
X12444563Y10669372D01*
X12389296Y10887615D01*
X12298859Y11093793D01*
X12175723Y11282266D01*
X12175715Y11282277D01*
X12023243Y11447903D01*
X12023238Y11447908D01*
X11845577Y11586188D01*
X11845578Y11586188D01*
X11845576Y11586189D01*
X11809070Y11605945D01*
X11759479Y11655164D01*
X11744371Y11723381D01*
X11768541Y11788936D01*
X11809070Y11824055D01*
X11809084Y11824064D01*
X11845576Y11843811D01*
X12023240Y11982094D01*
X12175722Y12147732D01*
X12243416Y12251346D01*
X14791500Y12251346D01*
X14798011Y12190798D01*
X14798011Y12190796D01*
X14814074Y12147732D01*
X14849111Y12053796D01*
X14936739Y11936739D01*
X15053796Y11849111D01*
X15190799Y11798011D01*
X15218050Y11795082D01*
X15251345Y11791501D01*
X15251362Y11791500D01*
X16948638Y11791500D01*
X16948654Y11791501D01*
X16975692Y11794409D01*
X17009201Y11798011D01*
X17146204Y11849111D01*
X17263261Y11936739D01*
X17270907Y11946954D01*
X17326840Y11988826D01*
X17396531Y11993812D01*
X17441302Y11974218D01*
X17447514Y11969868D01*
X17447516Y11969867D01*
X17653673Y11873735D01*
X17653682Y11873731D01*
X17873389Y11814861D01*
X17873400Y11814859D01*
X18099998Y11795034D01*
X18100002Y11795034D01*
X18326599Y11814859D01*
X18326610Y11814861D01*
X18546317Y11873731D01*
X18546331Y11873736D01*
X18752478Y11969864D01*
X18825471Y12020976D01*
X18146447Y12700000D01*
X18152661Y12700000D01*
X18254394Y12727259D01*
X18345606Y12779920D01*
X18420080Y12854394D01*
X18472741Y12945606D01*
X18500000Y13047339D01*
X18500000Y13053553D01*
X19179024Y12374529D01*
X19197802Y12401346D01*
X23041500Y12401346D01*
X23048011Y12340798D01*
X23048011Y12340796D01*
X23097845Y12207191D01*
X23099111Y12203796D01*
X23186739Y12086739D01*
X23303796Y11999111D01*
X23440799Y11948011D01*
X23468050Y11945082D01*
X23501345Y11941501D01*
X23501362Y11941500D01*
X25298638Y11941500D01*
X25298654Y11941501D01*
X25325692Y11944409D01*
X25359201Y11948011D01*
X25496204Y11999111D01*
X25613261Y12086739D01*
X25700889Y12203796D01*
X25751989Y12340799D01*
X25755615Y12374529D01*
X25758499Y12401346D01*
X25758500Y12401363D01*
X25758500Y12419999D01*
X55586502Y12419999D01*
X55606456Y12191919D01*
X55606457Y12191911D01*
X55665714Y11970762D01*
X55665718Y11970751D01*
X55734124Y11824054D01*
X55762477Y11763251D01*
X55893802Y11575700D01*
X56055700Y11413802D01*
X56243251Y11282477D01*
X56312899Y11250000D01*
X56450750Y11185719D01*
X56450752Y11185719D01*
X56450757Y11185716D01*
X56671913Y11126457D01*
X56834832Y11112204D01*
X56899998Y11106502D01*
X56900000Y11106502D01*
X56900002Y11106502D01*
X56957021Y11111491D01*
X57128087Y11126457D01*
X57349243Y11185716D01*
X57556749Y11282477D01*
X57744300Y11413802D01*
X57906198Y11575700D01*
X58037523Y11763251D01*
X58134284Y11970757D01*
X58193543Y12191913D01*
X58211867Y12401362D01*
X58213498Y12419999D01*
X58213498Y12420002D01*
X58202791Y12542384D01*
X58193543Y12648087D01*
X58134284Y12869243D01*
X58037523Y13076749D01*
X57906198Y13264300D01*
X57744300Y13426198D01*
X57556749Y13557523D01*
X57537830Y13566345D01*
X57349249Y13654282D01*
X57349238Y13654286D01*
X57128089Y13713543D01*
X57128081Y13713544D01*
X56900002Y13733498D01*
X56899998Y13733498D01*
X56671918Y13713544D01*
X56671910Y13713543D01*
X56450761Y13654286D01*
X56450750Y13654282D01*
X56243254Y13557525D01*
X56243252Y13557524D01*
X56194306Y13523251D01*
X56055700Y13426198D01*
X56055698Y13426197D01*
X56055695Y13426194D01*
X55893806Y13264305D01*
X55893803Y13264302D01*
X55893802Y13264300D01*
X55815631Y13152661D01*
X55762476Y13076748D01*
X55762475Y13076746D01*
X55665718Y12869250D01*
X55665714Y12869239D01*
X55606457Y12648090D01*
X55606456Y12648082D01*
X55586502Y12420002D01*
X55586502Y12419999D01*
X25758500Y12419999D01*
X25758500Y14179999D01*
X39166502Y14179999D01*
X39186456Y13951919D01*
X39186457Y13951911D01*
X39245714Y13730762D01*
X39245718Y13730751D01*
X39322382Y13566345D01*
X39342477Y13523251D01*
X39473802Y13335700D01*
X39635700Y13173802D01*
X39823251Y13042477D01*
X39946499Y12985006D01*
X40030750Y12945719D01*
X40030752Y12945719D01*
X40030757Y12945716D01*
X40251913Y12886457D01*
X40401144Y12873401D01*
X40479998Y12866502D01*
X40480000Y12866502D01*
X40480002Y12866502D01*
X40558730Y12873390D01*
X40708087Y12886457D01*
X40929243Y12945716D01*
X41136749Y13042477D01*
X41324300Y13173802D01*
X41486198Y13335700D01*
X41617523Y13523251D01*
X41637618Y13566345D01*
X41683790Y13618785D01*
X41750983Y13637937D01*
X41817864Y13617722D01*
X41862382Y13566345D01*
X41882477Y13523251D01*
X42013802Y13335700D01*
X42175700Y13173802D01*
X42363251Y13042477D01*
X42486499Y12985006D01*
X42570750Y12945719D01*
X42570752Y12945719D01*
X42570757Y12945716D01*
X42791913Y12886457D01*
X42941144Y12873401D01*
X43019998Y12866502D01*
X43020000Y12866502D01*
X43020002Y12866502D01*
X43098730Y12873390D01*
X43248087Y12886457D01*
X43469243Y12945716D01*
X43676749Y13042477D01*
X43864300Y13173802D01*
X44026198Y13335700D01*
X44157523Y13523251D01*
X44177618Y13566345D01*
X44223790Y13618785D01*
X44290983Y13637937D01*
X44357864Y13617722D01*
X44402382Y13566345D01*
X44422477Y13523251D01*
X44553802Y13335700D01*
X44715700Y13173802D01*
X44903251Y13042477D01*
X45026499Y12985006D01*
X45110750Y12945719D01*
X45110752Y12945719D01*
X45110757Y12945716D01*
X45331913Y12886457D01*
X45481144Y12873401D01*
X45559998Y12866502D01*
X45560000Y12866502D01*
X45560002Y12866502D01*
X45638730Y12873390D01*
X45788087Y12886457D01*
X46009243Y12945716D01*
X46216749Y13042477D01*
X46404300Y13173802D01*
X46566198Y13335700D01*
X46697523Y13523251D01*
X46717618Y13566345D01*
X46763790Y13618785D01*
X46830983Y13637937D01*
X46897864Y13617722D01*
X46942382Y13566345D01*
X46962477Y13523251D01*
X47093802Y13335700D01*
X47255700Y13173802D01*
X47443251Y13042477D01*
X47566499Y12985006D01*
X47650750Y12945719D01*
X47650752Y12945719D01*
X47650757Y12945716D01*
X47871913Y12886457D01*
X48021144Y12873401D01*
X48099998Y12866502D01*
X48100000Y12866502D01*
X48100002Y12866502D01*
X48178730Y12873390D01*
X48328087Y12886457D01*
X48549243Y12945716D01*
X48756749Y13042477D01*
X48944300Y13173802D01*
X49106198Y13335700D01*
X49237523Y13523251D01*
X49334284Y13730757D01*
X49393543Y13951913D01*
X49413498Y14180000D01*
X49411867Y14198638D01*
X49406214Y14263261D01*
X49393543Y14408087D01*
X49334284Y14629243D01*
X49323677Y14651989D01*
X49237524Y14836746D01*
X49237523Y14836748D01*
X49237523Y14836749D01*
X49106198Y15024300D01*
X48944300Y15186198D01*
X48756749Y15317523D01*
X48725688Y15332007D01*
X48549249Y15414282D01*
X48549238Y15414286D01*
X48328089Y15473543D01*
X48328081Y15473544D01*
X48100002Y15493498D01*
X48099998Y15493498D01*
X47871918Y15473544D01*
X47871910Y15473543D01*
X47650761Y15414286D01*
X47650750Y15414282D01*
X47443254Y15317525D01*
X47443252Y15317524D01*
X47443251Y15317523D01*
X47255700Y15186198D01*
X47255698Y15186197D01*
X47255695Y15186194D01*
X47093806Y15024305D01*
X46962476Y14836749D01*
X46942382Y14793655D01*
X46896209Y14741216D01*
X46829016Y14722064D01*
X46762135Y14742280D01*
X46717618Y14793655D01*
X46697523Y14836749D01*
X46566198Y15024300D01*
X46404300Y15186198D01*
X46216749Y15317523D01*
X46185688Y15332007D01*
X46009249Y15414282D01*
X46009238Y15414286D01*
X45788089Y15473543D01*
X45788081Y15473544D01*
X45560002Y15493498D01*
X45559998Y15493498D01*
X45331918Y15473544D01*
X45331910Y15473543D01*
X45110761Y15414286D01*
X45110750Y15414282D01*
X44903254Y15317525D01*
X44903252Y15317524D01*
X44903251Y15317523D01*
X44715700Y15186198D01*
X44715698Y15186197D01*
X44715695Y15186194D01*
X44553806Y15024305D01*
X44422476Y14836749D01*
X44402382Y14793655D01*
X44356209Y14741216D01*
X44289016Y14722064D01*
X44222135Y14742280D01*
X44177618Y14793655D01*
X44157523Y14836749D01*
X44026198Y15024300D01*
X43864300Y15186198D01*
X43676749Y15317523D01*
X43645688Y15332007D01*
X43469249Y15414282D01*
X43469238Y15414286D01*
X43248089Y15473543D01*
X43248081Y15473544D01*
X43020002Y15493498D01*
X43019998Y15493498D01*
X42791918Y15473544D01*
X42791910Y15473543D01*
X42570761Y15414286D01*
X42570750Y15414282D01*
X42363254Y15317525D01*
X42363252Y15317524D01*
X42363251Y15317523D01*
X42175700Y15186198D01*
X42175698Y15186197D01*
X42175695Y15186194D01*
X42013806Y15024305D01*
X41882476Y14836749D01*
X41862382Y14793655D01*
X41816209Y14741216D01*
X41749016Y14722064D01*
X41682135Y14742280D01*
X41637618Y14793655D01*
X41617523Y14836749D01*
X41486198Y15024300D01*
X41324300Y15186198D01*
X41136749Y15317523D01*
X41105688Y15332007D01*
X40929249Y15414282D01*
X40929238Y15414286D01*
X40708089Y15473543D01*
X40708081Y15473544D01*
X40480002Y15493498D01*
X40479998Y15493498D01*
X40251918Y15473544D01*
X40251910Y15473543D01*
X40030761Y15414286D01*
X40030750Y15414282D01*
X39823254Y15317525D01*
X39823252Y15317524D01*
X39823251Y15317523D01*
X39635700Y15186198D01*
X39635698Y15186197D01*
X39635695Y15186194D01*
X39473806Y15024305D01*
X39342476Y14836748D01*
X39342475Y14836746D01*
X39245718Y14629250D01*
X39245714Y14629239D01*
X39186457Y14408090D01*
X39186456Y14408082D01*
X39166502Y14180002D01*
X39166502Y14179999D01*
X25758500Y14179999D01*
X25758500Y14198638D01*
X25758499Y14198655D01*
X25754769Y14233342D01*
X25751989Y14259201D01*
X25750475Y14263260D01*
X25717791Y14350889D01*
X25700889Y14396204D01*
X25613261Y14513261D01*
X25496204Y14600889D01*
X25359203Y14651989D01*
X25298654Y14658500D01*
X25298638Y14658500D01*
X23501362Y14658500D01*
X23501345Y14658500D01*
X23440797Y14651989D01*
X23440795Y14651989D01*
X23303795Y14600889D01*
X23186739Y14513261D01*
X23099111Y14396205D01*
X23048011Y14259205D01*
X23048011Y14259203D01*
X23041500Y14198655D01*
X23041500Y12401346D01*
X19197802Y12401346D01*
X19230136Y12447522D01*
X19326264Y12653669D01*
X19326269Y12653683D01*
X19385139Y12873390D01*
X19385141Y12873401D01*
X19404966Y13099998D01*
X19404966Y13100003D01*
X19385141Y13326600D01*
X19385139Y13326611D01*
X19326269Y13546318D01*
X19326264Y13546332D01*
X19230136Y13752479D01*
X19230132Y13752487D01*
X19179025Y13825474D01*
X18500000Y13146449D01*
X18500000Y13152661D01*
X18472741Y13254394D01*
X18420080Y13345606D01*
X18345606Y13420080D01*
X18254394Y13472741D01*
X18152661Y13500000D01*
X18146447Y13500000D01*
X18825472Y14179026D01*
X18752478Y14230137D01*
X18546331Y14326265D01*
X18546317Y14326270D01*
X18326610Y14385140D01*
X18326599Y14385142D01*
X18100002Y14404966D01*
X18099998Y14404966D01*
X17873400Y14385142D01*
X17873389Y14385140D01*
X17653682Y14326270D01*
X17653673Y14326266D01*
X17447518Y14230135D01*
X17447515Y14230133D01*
X17441291Y14225775D01*
X17375083Y14203453D01*
X17307317Y14220469D01*
X17270909Y14253045D01*
X17263263Y14263258D01*
X17263261Y14263261D01*
X17146204Y14350889D01*
X17009203Y14401989D01*
X16948654Y14408500D01*
X16948638Y14408500D01*
X15251362Y14408500D01*
X15251345Y14408500D01*
X15190797Y14401989D01*
X15190795Y14401989D01*
X15053795Y14350889D01*
X14936739Y14263261D01*
X14849111Y14146205D01*
X14798011Y14009205D01*
X14798011Y14009203D01*
X14791500Y13948655D01*
X14791500Y12251346D01*
X12243416Y12251346D01*
X12298860Y12336209D01*
X12389296Y12542384D01*
X12444564Y12760632D01*
X12444565Y12760641D01*
X12463156Y12984995D01*
X12463156Y12985006D01*
X12444565Y13209360D01*
X12444563Y13209372D01*
X12389296Y13427615D01*
X12369502Y13472741D01*
X12298860Y13633791D01*
X12296151Y13637937D01*
X12175723Y13822266D01*
X12175722Y13822268D01*
X12024291Y13986764D01*
X11993370Y14049416D01*
X12001230Y14118842D01*
X12045376Y14172998D01*
X12072189Y14186927D01*
X12192086Y14231646D01*
X12192093Y14231650D01*
X12307187Y14317810D01*
X12307190Y14317813D01*
X12393350Y14432907D01*
X12393354Y14432914D01*
X12443596Y14567621D01*
X12443598Y14567628D01*
X12449999Y14627156D01*
X12450000Y14627173D01*
X12450000Y15275000D01*
X11533012Y15275000D01*
X11565925Y15332007D01*
X11600000Y15459174D01*
X11600000Y15590826D01*
X11565925Y15717993D01*
X11533012Y15775000D01*
X12450000Y15775000D01*
X12450000Y16422828D01*
X12449999Y16422845D01*
X12443598Y16482373D01*
X12443596Y16482380D01*
X12393354Y16617087D01*
X12393350Y16617094D01*
X12307190Y16732188D01*
X12307187Y16732191D01*
X12192093Y16818351D01*
X12192086Y16818355D01*
X12057379Y16868597D01*
X12057372Y16868599D01*
X11997844Y16875000D01*
X11350000Y16875000D01*
X11350000Y15958012D01*
X11292993Y15990925D01*
X11165826Y16025000D01*
X11034174Y16025000D01*
X10907007Y15990925D01*
X10850000Y15958012D01*
X10850000Y16875000D01*
X10202155Y16875000D01*
X10142627Y16868599D01*
X10142620Y16868597D01*
X10007913Y16818355D01*
X10007906Y16818351D01*
X9892812Y16732191D01*
X9892809Y16732188D01*
X9806649Y16617094D01*
X9806645Y16617087D01*
X9756403Y16482380D01*
X9756401Y16482373D01*
X9750000Y16422845D01*
X9750000Y15775000D01*
X10666988Y15775000D01*
X10634075Y15717993D01*
X10600000Y15590826D01*
X10600000Y15459174D01*
X10634075Y15332007D01*
X10666988Y15275000D01*
X9750000Y15275000D01*
X9750000Y14627156D01*
X9756401Y14567628D01*
X9756403Y14567621D01*
X9806645Y14432914D01*
X9806649Y14432907D01*
X9892809Y14317813D01*
X9892812Y14317810D01*
X10007906Y14231650D01*
X10007913Y14231646D01*
X10127810Y14186927D01*
X10183744Y14145056D01*
X10208161Y14079591D01*
X10193309Y14011318D01*
X10175706Y13986762D01*
X10024284Y13822277D01*
X10024276Y13822266D01*
X9901140Y13633793D01*
X9810703Y13427615D01*
X9755436Y13209372D01*
X9755434Y13209360D01*
X9736844Y12985006D01*
X9736844Y12984995D01*
X9755434Y12760641D01*
X9755436Y12760629D01*
X9810703Y12542386D01*
X9901140Y12336208D01*
X10024276Y12147735D01*
X10024284Y12147724D01*
X10176756Y11982098D01*
X10176761Y11982093D01*
X10191333Y11970751D01*
X10354424Y11843811D01*
X10354429Y11843809D01*
X10354431Y11843807D01*
X10390930Y11824054D01*
X10440520Y11774835D01*
X10455628Y11706618D01*
X10431457Y11641063D01*
X10390930Y11605946D01*
X10354431Y11586194D01*
X10354422Y11586188D01*
X10176761Y11447908D01*
X10176756Y11447903D01*
X10024284Y11282277D01*
X10024276Y11282266D01*
X9901140Y11093793D01*
X9810703Y10887615D01*
X9755436Y10669372D01*
X9755434Y10669360D01*
X9736844Y10445006D01*
X9736844Y10444995D01*
X75500Y10444995D01*
X75500Y19899999D01*
X9086502Y19899999D01*
X9106456Y19671919D01*
X9106457Y19671911D01*
X9165714Y19450762D01*
X9165718Y19450751D01*
X9261328Y19245715D01*
X9262477Y19243251D01*
X9393802Y19055700D01*
X9555700Y18893802D01*
X9743251Y18762477D01*
X9868091Y18704264D01*
X9950750Y18665719D01*
X9950752Y18665719D01*
X9950757Y18665716D01*
X10171913Y18606457D01*
X10334832Y18592204D01*
X10399998Y18586502D01*
X10400000Y18586502D01*
X10400002Y18586502D01*
X10457021Y18591491D01*
X10628087Y18606457D01*
X10849243Y18665716D01*
X10922764Y18699999D01*
X25006502Y18699999D01*
X25026456Y18471919D01*
X25026457Y18471911D01*
X25085714Y18250762D01*
X25085718Y18250751D01*
X25159978Y18091500D01*
X25182477Y18043251D01*
X25313802Y17855700D01*
X25475700Y17693802D01*
X25663251Y17562477D01*
X25788091Y17504264D01*
X25870750Y17465719D01*
X25870752Y17465719D01*
X25870757Y17465716D01*
X26091913Y17406457D01*
X26254832Y17392204D01*
X26319998Y17386502D01*
X26320000Y17386502D01*
X26320002Y17386502D01*
X26377021Y17391491D01*
X26548087Y17406457D01*
X26769243Y17465716D01*
X26976749Y17562477D01*
X27164300Y17693802D01*
X27326198Y17855700D01*
X27457523Y18043251D01*
X27554284Y18250757D01*
X27613543Y18471913D01*
X27633498Y18699999D01*
X35166502Y18699999D01*
X35186456Y18471919D01*
X35186457Y18471911D01*
X35245714Y18250762D01*
X35245718Y18250751D01*
X35319978Y18091500D01*
X35342477Y18043251D01*
X35473802Y17855700D01*
X35635700Y17693802D01*
X35823251Y17562477D01*
X35948091Y17504264D01*
X36030750Y17465719D01*
X36030752Y17465719D01*
X36030757Y17465716D01*
X36251913Y17406457D01*
X36414832Y17392204D01*
X36479998Y17386502D01*
X36480000Y17386502D01*
X36480002Y17386502D01*
X36537021Y17391491D01*
X36708087Y17406457D01*
X36929243Y17465716D01*
X37136749Y17562477D01*
X37324300Y17693802D01*
X37486198Y17855700D01*
X37617523Y18043251D01*
X37714284Y18250757D01*
X37773543Y18471913D01*
X37780563Y18552156D01*
X61660000Y18552156D01*
X61666401Y18492628D01*
X61666403Y18492621D01*
X61716645Y18357914D01*
X61716649Y18357907D01*
X61802809Y18242813D01*
X61802812Y18242810D01*
X61917906Y18156650D01*
X61917913Y18156646D01*
X62052620Y18106404D01*
X62052627Y18106402D01*
X62112155Y18100001D01*
X62112172Y18100000D01*
X62810000Y18100000D01*
X62810000Y19124723D01*
X62886306Y19080667D01*
X63000756Y19050000D01*
X63119244Y19050000D01*
X63233694Y19080667D01*
X63310000Y19124723D01*
X63310000Y18100000D01*
X64007828Y18100000D01*
X64007844Y18100001D01*
X64067372Y18106402D01*
X64067379Y18106404D01*
X64202086Y18156646D01*
X64202093Y18156650D01*
X64317187Y18242810D01*
X64317190Y18242813D01*
X64403350Y18357907D01*
X64403355Y18357916D01*
X64428940Y18426514D01*
X64470810Y18482448D01*
X64536274Y18506866D01*
X64604547Y18492015D01*
X64636349Y18467168D01*
X64642780Y18460182D01*
X64826983Y18316810D01*
X64826985Y18316809D01*
X64826988Y18316807D01*
X64946331Y18252223D01*
X65032273Y18205713D01*
X65146914Y18166357D01*
X65253045Y18129921D01*
X65253047Y18129921D01*
X65253049Y18129920D01*
X65483288Y18091500D01*
X65483289Y18091500D01*
X65716711Y18091500D01*
X65716712Y18091500D01*
X65946951Y18129920D01*
X66167727Y18205713D01*
X66373017Y18316810D01*
X66557220Y18460182D01*
X66715314Y18631917D01*
X66842984Y18827331D01*
X66936749Y19041093D01*
X66994051Y19267374D01*
X67011157Y19473807D01*
X67013327Y19499995D01*
X67013327Y19500006D01*
X66994051Y19732623D01*
X66994051Y19732626D01*
X66936749Y19958907D01*
X66842984Y20172669D01*
X66791213Y20251911D01*
X66715313Y20368085D01*
X66557223Y20539815D01*
X66557222Y20539816D01*
X66557220Y20539818D01*
X66373017Y20683190D01*
X66373015Y20683191D01*
X66373014Y20683192D01*
X66373011Y20683194D01*
X66167733Y20794284D01*
X66167730Y20794285D01*
X66167727Y20794287D01*
X66167721Y20794289D01*
X66167719Y20794290D01*
X65946954Y20870080D01*
X65767650Y20900000D01*
X65716712Y20908500D01*
X65483288Y20908500D01*
X65437240Y20900816D01*
X65253045Y20870080D01*
X65032280Y20794290D01*
X65032266Y20794284D01*
X64826988Y20683194D01*
X64826985Y20683192D01*
X64642781Y20539819D01*
X64642776Y20539815D01*
X64636346Y20532830D01*
X64576457Y20496843D01*
X64506619Y20498948D01*
X64449005Y20538476D01*
X64428940Y20573487D01*
X64403355Y20642085D01*
X64403350Y20642094D01*
X64317190Y20757188D01*
X64317187Y20757191D01*
X64202093Y20843351D01*
X64202086Y20843355D01*
X64067379Y20893597D01*
X64067372Y20893599D01*
X64007844Y20900000D01*
X63310000Y20900000D01*
X63310000Y19875278D01*
X63233694Y19919333D01*
X63119244Y19950000D01*
X63000756Y19950000D01*
X62886306Y19919333D01*
X62810000Y19875278D01*
X62810000Y20900000D01*
X62112155Y20900000D01*
X62052627Y20893599D01*
X62052620Y20893597D01*
X61917913Y20843355D01*
X61917906Y20843351D01*
X61802812Y20757191D01*
X61802809Y20757188D01*
X61716649Y20642094D01*
X61716645Y20642087D01*
X61666403Y20507380D01*
X61666401Y20507373D01*
X61660000Y20447845D01*
X61660000Y19750000D01*
X62684722Y19750000D01*
X62640667Y19673694D01*
X62610000Y19559244D01*
X62610000Y19440756D01*
X62640667Y19326306D01*
X62684722Y19250000D01*
X61660000Y19250000D01*
X61660000Y18552156D01*
X37780563Y18552156D01*
X37793498Y18700000D01*
X37773543Y18928087D01*
X37714284Y19149243D01*
X37696930Y19186458D01*
X37669297Y19245719D01*
X37617523Y19356749D01*
X37486198Y19544300D01*
X37324300Y19706198D01*
X37136749Y19837523D01*
X37088354Y19860090D01*
X36929249Y19934282D01*
X36929238Y19934286D01*
X36708089Y19993543D01*
X36708081Y19993544D01*
X36480002Y20013498D01*
X36479998Y20013498D01*
X36251918Y19993544D01*
X36251910Y19993543D01*
X36030761Y19934286D01*
X36030750Y19934282D01*
X35823254Y19837525D01*
X35823252Y19837524D01*
X35752856Y19788233D01*
X35635700Y19706198D01*
X35635698Y19706197D01*
X35635695Y19706194D01*
X35473806Y19544305D01*
X35473803Y19544302D01*
X35473802Y19544300D01*
X35429019Y19480343D01*
X35342476Y19356748D01*
X35342475Y19356746D01*
X35245718Y19149250D01*
X35245714Y19149239D01*
X35186457Y18928090D01*
X35186456Y18928082D01*
X35166502Y18700002D01*
X35166502Y18699999D01*
X27633498Y18699999D01*
X27633498Y18700000D01*
X27613543Y18928087D01*
X27554284Y19149243D01*
X27536930Y19186458D01*
X27509297Y19245719D01*
X27457523Y19356749D01*
X27326198Y19544300D01*
X27164300Y19706198D01*
X26976749Y19837523D01*
X26928354Y19860090D01*
X26769249Y19934282D01*
X26769238Y19934286D01*
X26548089Y19993543D01*
X26548081Y19993544D01*
X26320002Y20013498D01*
X26319998Y20013498D01*
X26091918Y19993544D01*
X26091910Y19993543D01*
X25870761Y19934286D01*
X25870750Y19934282D01*
X25663254Y19837525D01*
X25663252Y19837524D01*
X25592856Y19788233D01*
X25475700Y19706198D01*
X25475698Y19706197D01*
X25475695Y19706194D01*
X25313806Y19544305D01*
X25313803Y19544302D01*
X25313802Y19544300D01*
X25269019Y19480343D01*
X25182476Y19356748D01*
X25182475Y19356746D01*
X25085718Y19149250D01*
X25085714Y19149239D01*
X25026457Y18928090D01*
X25026456Y18928082D01*
X25006502Y18700002D01*
X25006502Y18699999D01*
X10922764Y18699999D01*
X11056749Y18762477D01*
X11244300Y18893802D01*
X11406198Y19055700D01*
X11537523Y19243251D01*
X11634284Y19450757D01*
X11693543Y19671913D01*
X11713498Y19900000D01*
X11693543Y20128087D01*
X11634284Y20349243D01*
X11537523Y20556749D01*
X11537520Y20556753D01*
X11532586Y20563800D01*
X11510260Y20630007D01*
X11527273Y20697774D01*
X11559857Y20734192D01*
X11563261Y20736739D01*
X11650889Y20853796D01*
X11701989Y20990799D01*
X11705591Y21024308D01*
X11708499Y21051346D01*
X11708500Y21051363D01*
X11708500Y22748638D01*
X11708499Y22748655D01*
X11705157Y22779730D01*
X11701989Y22809201D01*
X11688187Y22846204D01*
X11656882Y22930135D01*
X11650889Y22946204D01*
X11595647Y23019999D01*
X14286502Y23019999D01*
X14306456Y22791919D01*
X14306457Y22791911D01*
X14365714Y22570762D01*
X14365718Y22570751D01*
X14443663Y22403598D01*
X14462477Y22363251D01*
X14593802Y22175700D01*
X14755700Y22013802D01*
X14943251Y21882477D01*
X14996401Y21857693D01*
X15048840Y21811521D01*
X15067992Y21744327D01*
X15047776Y21677446D01*
X14996401Y21632929D01*
X14947517Y21610135D01*
X14761179Y21479658D01*
X14600342Y21318821D01*
X14469865Y21132483D01*
X14373734Y20926327D01*
X14373730Y20926318D01*
X14321127Y20730001D01*
X14321128Y20730000D01*
X15284314Y20730000D01*
X15279920Y20725606D01*
X15227259Y20634394D01*
X15200000Y20532661D01*
X15200000Y20427339D01*
X15227259Y20325606D01*
X15279920Y20234394D01*
X15284314Y20230000D01*
X14321128Y20230000D01*
X14373730Y20033683D01*
X14373734Y20033674D01*
X14469865Y19827518D01*
X14600342Y19641180D01*
X14761179Y19480343D01*
X14947517Y19349866D01*
X15153673Y19253735D01*
X15153682Y19253731D01*
X15349999Y19201128D01*
X15350000Y19201129D01*
X15350000Y20164314D01*
X15354394Y20159920D01*
X15445606Y20107259D01*
X15547339Y20080000D01*
X15652661Y20080000D01*
X15754394Y20107259D01*
X15845606Y20159920D01*
X15850000Y20164314D01*
X15850000Y19201128D01*
X16046317Y19253731D01*
X16046326Y19253735D01*
X16252482Y19349866D01*
X16438820Y19480343D01*
X16599657Y19641180D01*
X16730134Y19827518D01*
X16826265Y20033674D01*
X16826269Y20033683D01*
X16878872Y20230000D01*
X15915686Y20230000D01*
X15920080Y20234394D01*
X15972741Y20325606D01*
X16000000Y20427339D01*
X16000000Y20479999D01*
X21906502Y20479999D01*
X21926456Y20251919D01*
X21926457Y20251911D01*
X21985714Y20030762D01*
X21985718Y20030751D01*
X22046689Y19899999D01*
X22082477Y19823251D01*
X22213802Y19635700D01*
X22375700Y19473802D01*
X22563251Y19342477D01*
X22688091Y19284264D01*
X22770750Y19245719D01*
X22770752Y19245719D01*
X22770757Y19245716D01*
X22991913Y19186457D01*
X23154832Y19172204D01*
X23219998Y19166502D01*
X23220000Y19166502D01*
X23220002Y19166502D01*
X23277021Y19171491D01*
X23448087Y19186457D01*
X23669243Y19245716D01*
X23876749Y19342477D01*
X24064300Y19473802D01*
X24226198Y19635700D01*
X24357523Y19823251D01*
X24454284Y20030757D01*
X24513543Y20251913D01*
X24533498Y20480000D01*
X24532024Y20496843D01*
X24519317Y20642087D01*
X24513543Y20708087D01*
X24454284Y20929243D01*
X24443969Y20951363D01*
X24357524Y21136746D01*
X24357523Y21136748D01*
X24357523Y21136749D01*
X24226198Y21324300D01*
X24064300Y21486198D01*
X23876749Y21617523D01*
X23833655Y21637618D01*
X23781215Y21683790D01*
X23762063Y21750983D01*
X23782278Y21817864D01*
X23833655Y21862382D01*
X23836882Y21863888D01*
X23876749Y21882477D01*
X24064300Y22013802D01*
X24100499Y22050001D01*
X39201127Y22050001D01*
X39201128Y22050000D01*
X40164314Y22050000D01*
X40159920Y22045606D01*
X40107259Y21954394D01*
X40080000Y21852661D01*
X40080000Y21747339D01*
X40107259Y21645606D01*
X40159920Y21554394D01*
X40164314Y21550000D01*
X39201128Y21550000D01*
X39253730Y21353683D01*
X39253734Y21353674D01*
X39349865Y21147518D01*
X39480342Y20961180D01*
X39641179Y20800343D01*
X39827517Y20669866D01*
X40033673Y20573735D01*
X40033682Y20573731D01*
X40229999Y20521128D01*
X40230000Y20521129D01*
X40230000Y21484314D01*
X40234394Y21479920D01*
X40325606Y21427259D01*
X40427339Y21400000D01*
X40532661Y21400000D01*
X40634394Y21427259D01*
X40725606Y21479920D01*
X40730000Y21484314D01*
X40730000Y20521128D01*
X40926317Y20573731D01*
X40926326Y20573735D01*
X41132482Y20669866D01*
X41318820Y20800343D01*
X41479657Y20961180D01*
X41610133Y21147517D01*
X41632927Y21196400D01*
X41679098Y21248840D01*
X41746292Y21267993D01*
X41813173Y21247779D01*
X41857691Y21196404D01*
X41882477Y21143251D01*
X42013802Y20955700D01*
X42175700Y20793802D01*
X42363251Y20662477D01*
X42418445Y20636740D01*
X42570750Y20565719D01*
X42570752Y20565719D01*
X42570757Y20565716D01*
X42791913Y20506457D01*
X42954832Y20492204D01*
X43019998Y20486502D01*
X43020000Y20486502D01*
X43020002Y20486502D01*
X43077139Y20491501D01*
X43248087Y20506457D01*
X43469243Y20565716D01*
X43676749Y20662477D01*
X43864300Y20793802D01*
X44026198Y20955700D01*
X44157523Y21143251D01*
X44177618Y21186345D01*
X44223790Y21238785D01*
X44290983Y21257937D01*
X44357864Y21237722D01*
X44402382Y21186345D01*
X44422477Y21143251D01*
X44553802Y20955700D01*
X44715700Y20793802D01*
X44903251Y20662477D01*
X44958445Y20636740D01*
X45110750Y20565719D01*
X45110752Y20565719D01*
X45110757Y20565716D01*
X45331913Y20506457D01*
X45494832Y20492204D01*
X45559998Y20486502D01*
X45560000Y20486502D01*
X45560002Y20486502D01*
X45617139Y20491501D01*
X45788087Y20506457D01*
X46009243Y20565716D01*
X46216749Y20662477D01*
X46404300Y20793802D01*
X46566198Y20955700D01*
X46571566Y20963368D01*
X46626139Y21006992D01*
X46695637Y21014187D01*
X46757993Y20982667D01*
X46793409Y20922438D01*
X46796430Y20905502D01*
X46798011Y20890798D01*
X46798011Y20890796D01*
X46834189Y20793802D01*
X46849111Y20753796D01*
X46936739Y20636739D01*
X47053796Y20549111D01*
X47190799Y20498011D01*
X47218050Y20495082D01*
X47251345Y20491501D01*
X47251362Y20491500D01*
X48948638Y20491500D01*
X48948654Y20491501D01*
X48975692Y20494409D01*
X49009201Y20498011D01*
X49146204Y20549111D01*
X49263261Y20636739D01*
X49350889Y20753796D01*
X49401989Y20890799D01*
X49406123Y20929250D01*
X49408499Y20951346D01*
X49408500Y20951363D01*
X49408500Y22579999D01*
X55586502Y22579999D01*
X55606456Y22351919D01*
X55606457Y22351911D01*
X55665714Y22130762D01*
X55665718Y22130751D01*
X55747955Y21954394D01*
X55762477Y21923251D01*
X55893802Y21735700D01*
X56055700Y21573802D01*
X56243251Y21442477D01*
X56334344Y21400000D01*
X56450750Y21345719D01*
X56450752Y21345719D01*
X56450757Y21345716D01*
X56671913Y21286457D01*
X56834832Y21272204D01*
X56899998Y21266502D01*
X56900000Y21266502D01*
X56900002Y21266502D01*
X56957021Y21271491D01*
X57128087Y21286457D01*
X57349243Y21345716D01*
X57556749Y21442477D01*
X57744300Y21573802D01*
X57906198Y21735700D01*
X58037523Y21923251D01*
X58134284Y22130757D01*
X58193543Y22351913D01*
X58213498Y22580000D01*
X58212832Y22587608D01*
X58198744Y22748638D01*
X58193543Y22808087D01*
X58134284Y23029243D01*
X58131934Y23034282D01*
X58077560Y23150889D01*
X58037523Y23236749D01*
X57906198Y23424300D01*
X57744300Y23586198D01*
X57556749Y23717523D01*
X57556745Y23717525D01*
X57349249Y23814282D01*
X57349238Y23814286D01*
X57128089Y23873543D01*
X57128081Y23873544D01*
X56900002Y23893498D01*
X56899998Y23893498D01*
X56671918Y23873544D01*
X56671910Y23873543D01*
X56450761Y23814286D01*
X56450750Y23814282D01*
X56243254Y23717525D01*
X56243252Y23717524D01*
X56243251Y23717523D01*
X56055700Y23586198D01*
X56055698Y23586197D01*
X56055695Y23586194D01*
X55893806Y23424305D01*
X55762476Y23236748D01*
X55762475Y23236746D01*
X55665718Y23029250D01*
X55665714Y23029239D01*
X55606457Y22808090D01*
X55606456Y22808082D01*
X55586502Y22580002D01*
X55586502Y22579999D01*
X49408500Y22579999D01*
X49408500Y22648638D01*
X49408499Y22648655D01*
X49405157Y22679730D01*
X49401989Y22709201D01*
X49350889Y22846204D01*
X49263261Y22963261D01*
X49146204Y23050889D01*
X49113034Y23063261D01*
X49009203Y23101989D01*
X48948654Y23108500D01*
X48948638Y23108500D01*
X47251362Y23108500D01*
X47251345Y23108500D01*
X47190797Y23101989D01*
X47190795Y23101989D01*
X47053795Y23050889D01*
X46936739Y22963261D01*
X46849111Y22846205D01*
X46798011Y22709205D01*
X46798011Y22709203D01*
X46796430Y22694499D01*
X46769691Y22629948D01*
X46712298Y22590101D01*
X46642473Y22587608D01*
X46582384Y22623262D01*
X46571574Y22636621D01*
X46566198Y22644300D01*
X46404300Y22806198D01*
X46216749Y22937523D01*
X46216745Y22937525D01*
X46009249Y23034282D01*
X46009238Y23034286D01*
X45788089Y23093543D01*
X45788081Y23093544D01*
X45560002Y23113498D01*
X45559998Y23113498D01*
X45331918Y23093544D01*
X45331910Y23093543D01*
X45110761Y23034286D01*
X45110750Y23034282D01*
X44903254Y22937525D01*
X44903252Y22937524D01*
X44903251Y22937523D01*
X44715700Y22806198D01*
X44715698Y22806197D01*
X44715695Y22806194D01*
X44553806Y22644305D01*
X44422476Y22456749D01*
X44402382Y22413655D01*
X44356209Y22361216D01*
X44289016Y22342064D01*
X44222135Y22362280D01*
X44177618Y22413655D01*
X44157523Y22456749D01*
X44026198Y22644300D01*
X43864300Y22806198D01*
X43676749Y22937523D01*
X43676745Y22937525D01*
X43469249Y23034282D01*
X43469238Y23034286D01*
X43248089Y23093543D01*
X43248081Y23093544D01*
X43020002Y23113498D01*
X43019998Y23113498D01*
X42791918Y23093544D01*
X42791910Y23093543D01*
X42570761Y23034286D01*
X42570750Y23034282D01*
X42363254Y22937525D01*
X42363252Y22937524D01*
X42363251Y22937523D01*
X42175700Y22806198D01*
X42175698Y22806197D01*
X42175695Y22806194D01*
X42013806Y22644305D01*
X42013803Y22644302D01*
X42013802Y22644300D01*
X41962302Y22570751D01*
X41882476Y22456748D01*
X41882474Y22456744D01*
X41857691Y22403598D01*
X41811518Y22351159D01*
X41744324Y22332008D01*
X41677444Y22352225D01*
X41632927Y22403601D01*
X41610133Y22452483D01*
X41479657Y22638821D01*
X41318820Y22799658D01*
X41132482Y22930135D01*
X40926328Y23026266D01*
X40730000Y23078873D01*
X40730000Y22115686D01*
X40725606Y22120080D01*
X40634394Y22172741D01*
X40532661Y22200000D01*
X40427339Y22200000D01*
X40325606Y22172741D01*
X40234394Y22120080D01*
X40230000Y22115686D01*
X40230000Y23078873D01*
X40033671Y23026266D01*
X39827517Y22930135D01*
X39641179Y22799658D01*
X39480342Y22638821D01*
X39349865Y22452483D01*
X39253734Y22246327D01*
X39253730Y22246318D01*
X39201127Y22050001D01*
X24100499Y22050001D01*
X24226198Y22175700D01*
X24357523Y22363251D01*
X24454284Y22570757D01*
X24513543Y22791913D01*
X24533498Y23020000D01*
X24532248Y23034282D01*
X24513543Y23248082D01*
X24513543Y23248087D01*
X24454284Y23469243D01*
X24357523Y23676749D01*
X24226198Y23864300D01*
X24064300Y24026198D01*
X23876749Y24157523D01*
X23833655Y24177618D01*
X23781215Y24223790D01*
X23762063Y24290983D01*
X23782278Y24357864D01*
X23833655Y24402382D01*
X23836882Y24403888D01*
X23876749Y24422477D01*
X24064300Y24553802D01*
X24226198Y24715700D01*
X24357523Y24903251D01*
X24454284Y25110757D01*
X24466169Y25155111D01*
X28186502Y25155111D01*
X28206456Y24927031D01*
X28206457Y24927023D01*
X28265714Y24705874D01*
X28265718Y24705863D01*
X28362475Y24498367D01*
X28362477Y24498363D01*
X28493802Y24310812D01*
X28655700Y24148914D01*
X28843251Y24017589D01*
X28968091Y23959376D01*
X29050750Y23920831D01*
X29050752Y23920831D01*
X29050757Y23920828D01*
X29271913Y23861569D01*
X29434832Y23847316D01*
X29499998Y23841614D01*
X29500000Y23841614D01*
X29500002Y23841614D01*
X29557021Y23846603D01*
X29728087Y23861569D01*
X29949243Y23920828D01*
X30156749Y24017589D01*
X30344300Y24148914D01*
X30506198Y24310812D01*
X30569591Y24401346D01*
X35541500Y24401346D01*
X35548011Y24340798D01*
X35548011Y24340796D01*
X35592271Y24222135D01*
X35599111Y24203796D01*
X35686739Y24086739D01*
X35803796Y23999111D01*
X35940799Y23948011D01*
X35968050Y23945082D01*
X36001345Y23941501D01*
X36001362Y23941500D01*
X37798638Y23941500D01*
X37798654Y23941501D01*
X37825692Y23944409D01*
X37859201Y23948011D01*
X37996204Y23999111D01*
X38113261Y24086739D01*
X38200889Y24203796D01*
X38251989Y24340799D01*
X38255591Y24374308D01*
X38258499Y24401346D01*
X38258500Y24401363D01*
X38258500Y26198638D01*
X38258499Y26198655D01*
X38255157Y26229730D01*
X38251989Y26259201D01*
X38200889Y26396204D01*
X38113261Y26513261D01*
X37996204Y26600889D01*
X37981418Y26606404D01*
X37859203Y26651989D01*
X37798654Y26658500D01*
X37798638Y26658500D01*
X36001362Y26658500D01*
X36001345Y26658500D01*
X35940797Y26651989D01*
X35940795Y26651989D01*
X35803795Y26600889D01*
X35686739Y26513261D01*
X35599111Y26396205D01*
X35548011Y26259205D01*
X35548011Y26259203D01*
X35541500Y26198655D01*
X35541500Y24401346D01*
X30569591Y24401346D01*
X30637523Y24498363D01*
X30734284Y24705869D01*
X30793543Y24927025D01*
X30813498Y25155112D01*
X30793543Y25383199D01*
X30734284Y25604355D01*
X30733303Y25606458D01*
X30648609Y25788087D01*
X30637523Y25811861D01*
X30637520Y25811865D01*
X30632586Y25818912D01*
X30610260Y25885119D01*
X30627273Y25952886D01*
X30659857Y25989304D01*
X30663261Y25991851D01*
X30750889Y26108908D01*
X30801989Y26245911D01*
X30805591Y26279420D01*
X30808499Y26306458D01*
X30808500Y26306475D01*
X30808500Y27052156D01*
X42060000Y27052156D01*
X42066401Y26992628D01*
X42066403Y26992621D01*
X42116645Y26857914D01*
X42116649Y26857907D01*
X42202809Y26742813D01*
X42202812Y26742810D01*
X42317906Y26656650D01*
X42317913Y26656646D01*
X42452620Y26606404D01*
X42452627Y26606402D01*
X42512155Y26600001D01*
X42512172Y26600000D01*
X43210000Y26600000D01*
X43210000Y27624723D01*
X43286306Y27580667D01*
X43400756Y27550000D01*
X43519244Y27550000D01*
X43633694Y27580667D01*
X43710000Y27624723D01*
X43710000Y26600000D01*
X44407828Y26600000D01*
X44407844Y26600001D01*
X44467372Y26606402D01*
X44467379Y26606404D01*
X44602086Y26656646D01*
X44602093Y26656650D01*
X44717187Y26742810D01*
X44717190Y26742813D01*
X44803350Y26857907D01*
X44803355Y26857916D01*
X44828940Y26926514D01*
X44870810Y26982448D01*
X44936274Y27006866D01*
X45004547Y26992015D01*
X45036349Y26967168D01*
X45042780Y26960182D01*
X45226983Y26816810D01*
X45226985Y26816809D01*
X45226988Y26816807D01*
X45270219Y26793412D01*
X45432273Y26705713D01*
X45530734Y26671911D01*
X45653045Y26629921D01*
X45653047Y26629921D01*
X45653049Y26629920D01*
X45883288Y26591500D01*
X45883289Y26591500D01*
X46116711Y26591500D01*
X46116712Y26591500D01*
X46346951Y26629920D01*
X46567727Y26705713D01*
X46773017Y26816810D01*
X46957220Y26960182D01*
X47041888Y27052156D01*
X49060000Y27052156D01*
X49066401Y26992628D01*
X49066403Y26992621D01*
X49116645Y26857914D01*
X49116649Y26857907D01*
X49202809Y26742813D01*
X49202812Y26742810D01*
X49317906Y26656650D01*
X49317913Y26656646D01*
X49452620Y26606404D01*
X49452627Y26606402D01*
X49512155Y26600001D01*
X49512172Y26600000D01*
X50210000Y26600000D01*
X50210000Y27624723D01*
X50286306Y27580667D01*
X50400756Y27550000D01*
X50519244Y27550000D01*
X50633694Y27580667D01*
X50710000Y27624723D01*
X50710000Y26600000D01*
X51407828Y26600000D01*
X51407844Y26600001D01*
X51467372Y26606402D01*
X51467379Y26606404D01*
X51602086Y26656646D01*
X51602093Y26656650D01*
X51717187Y26742810D01*
X51717190Y26742813D01*
X51803350Y26857907D01*
X51803355Y26857916D01*
X51828940Y26926514D01*
X51870810Y26982448D01*
X51936274Y27006866D01*
X52004547Y26992015D01*
X52036349Y26967168D01*
X52042780Y26960182D01*
X52226983Y26816810D01*
X52226985Y26816809D01*
X52226988Y26816807D01*
X52270219Y26793412D01*
X52432273Y26705713D01*
X52530734Y26671911D01*
X52653045Y26629921D01*
X52653047Y26629921D01*
X52653049Y26629920D01*
X52883288Y26591500D01*
X52883289Y26591500D01*
X53116711Y26591500D01*
X53116712Y26591500D01*
X53346951Y26629920D01*
X53567727Y26705713D01*
X53773017Y26816810D01*
X53957220Y26960182D01*
X54041888Y27052156D01*
X56060000Y27052156D01*
X56066401Y26992628D01*
X56066403Y26992621D01*
X56116645Y26857914D01*
X56116649Y26857907D01*
X56202809Y26742813D01*
X56202812Y26742810D01*
X56317906Y26656650D01*
X56317913Y26656646D01*
X56452620Y26606404D01*
X56452627Y26606402D01*
X56512155Y26600001D01*
X56512172Y26600000D01*
X57210000Y26600000D01*
X57210000Y27624723D01*
X57286306Y27580667D01*
X57400756Y27550000D01*
X57519244Y27550000D01*
X57633694Y27580667D01*
X57710000Y27624723D01*
X57710000Y26600000D01*
X58407828Y26600000D01*
X58407844Y26600001D01*
X58467372Y26606402D01*
X58467379Y26606404D01*
X58602086Y26656646D01*
X58602093Y26656650D01*
X58717187Y26742810D01*
X58717190Y26742813D01*
X58803350Y26857907D01*
X58803355Y26857916D01*
X58828940Y26926514D01*
X58870810Y26982448D01*
X58936274Y27006866D01*
X59004547Y26992015D01*
X59036349Y26967168D01*
X59042780Y26960182D01*
X59226983Y26816810D01*
X59226985Y26816809D01*
X59226988Y26816807D01*
X59270219Y26793412D01*
X59432273Y26705713D01*
X59530734Y26671911D01*
X59653045Y26629921D01*
X59653047Y26629921D01*
X59653049Y26629920D01*
X59883288Y26591500D01*
X59883289Y26591500D01*
X60116711Y26591500D01*
X60116712Y26591500D01*
X60346951Y26629920D01*
X60567727Y26705713D01*
X60773017Y26816810D01*
X60957220Y26960182D01*
X61115314Y27131917D01*
X61242984Y27327331D01*
X61336749Y27541093D01*
X61394051Y27767374D01*
X61413327Y28000000D01*
X61413016Y28003750D01*
X61398934Y28173694D01*
X61394051Y28232626D01*
X61336749Y28458907D01*
X61242984Y28672669D01*
X61115314Y28868083D01*
X61115313Y28868085D01*
X60957223Y29039815D01*
X60957222Y29039816D01*
X60957220Y29039818D01*
X60773017Y29183190D01*
X60773015Y29183191D01*
X60773014Y29183192D01*
X60773011Y29183194D01*
X60567733Y29294284D01*
X60567730Y29294285D01*
X60567727Y29294287D01*
X60567721Y29294289D01*
X60567719Y29294290D01*
X60346954Y29370080D01*
X60155730Y29401989D01*
X60116712Y29408500D01*
X59883288Y29408500D01*
X59844270Y29401989D01*
X59653045Y29370080D01*
X59432280Y29294290D01*
X59432266Y29294284D01*
X59226988Y29183194D01*
X59226985Y29183192D01*
X59042781Y29039819D01*
X59042776Y29039815D01*
X59036346Y29032830D01*
X58976457Y28996843D01*
X58906619Y28998948D01*
X58849005Y29038476D01*
X58828940Y29073487D01*
X58803355Y29142085D01*
X58803350Y29142094D01*
X58717190Y29257188D01*
X58717187Y29257191D01*
X58602093Y29343351D01*
X58602086Y29343355D01*
X58467379Y29393597D01*
X58467372Y29393599D01*
X58407844Y29400000D01*
X57710000Y29400000D01*
X57710000Y28375278D01*
X57633694Y28419333D01*
X57519244Y28450000D01*
X57400756Y28450000D01*
X57286306Y28419333D01*
X57210000Y28375278D01*
X57210000Y29400000D01*
X56512155Y29400000D01*
X56452627Y29393599D01*
X56452620Y29393597D01*
X56317913Y29343355D01*
X56317906Y29343351D01*
X56202812Y29257191D01*
X56202809Y29257188D01*
X56116649Y29142094D01*
X56116645Y29142087D01*
X56066403Y29007380D01*
X56066401Y29007373D01*
X56060000Y28947845D01*
X56060000Y28250000D01*
X57084722Y28250000D01*
X57040667Y28173694D01*
X57010000Y28059244D01*
X57010000Y27940756D01*
X57040667Y27826306D01*
X57084722Y27750000D01*
X56060000Y27750000D01*
X56060000Y27052156D01*
X54041888Y27052156D01*
X54115314Y27131917D01*
X54242984Y27327331D01*
X54336749Y27541093D01*
X54394051Y27767374D01*
X54413327Y28000000D01*
X54413016Y28003750D01*
X54398934Y28173694D01*
X54394051Y28232626D01*
X54336749Y28458907D01*
X54242984Y28672669D01*
X54115314Y28868083D01*
X54115313Y28868085D01*
X53957223Y29039815D01*
X53957222Y29039816D01*
X53957220Y29039818D01*
X53773017Y29183190D01*
X53773015Y29183191D01*
X53773014Y29183192D01*
X53773011Y29183194D01*
X53567733Y29294284D01*
X53567730Y29294285D01*
X53567727Y29294287D01*
X53567721Y29294289D01*
X53567719Y29294290D01*
X53346954Y29370080D01*
X53155730Y29401989D01*
X53116712Y29408500D01*
X52883288Y29408500D01*
X52844270Y29401989D01*
X52653045Y29370080D01*
X52432280Y29294290D01*
X52432266Y29294284D01*
X52226988Y29183194D01*
X52226985Y29183192D01*
X52042781Y29039819D01*
X52042776Y29039815D01*
X52036346Y29032830D01*
X51976457Y28996843D01*
X51906619Y28998948D01*
X51849005Y29038476D01*
X51828940Y29073487D01*
X51803355Y29142085D01*
X51803350Y29142094D01*
X51717190Y29257188D01*
X51717187Y29257191D01*
X51602093Y29343351D01*
X51602086Y29343355D01*
X51467379Y29393597D01*
X51467372Y29393599D01*
X51407844Y29400000D01*
X50710000Y29400000D01*
X50710000Y28375278D01*
X50633694Y28419333D01*
X50519244Y28450000D01*
X50400756Y28450000D01*
X50286306Y28419333D01*
X50210000Y28375278D01*
X50210000Y29400000D01*
X49512155Y29400000D01*
X49452627Y29393599D01*
X49452620Y29393597D01*
X49317913Y29343355D01*
X49317906Y29343351D01*
X49202812Y29257191D01*
X49202809Y29257188D01*
X49116649Y29142094D01*
X49116645Y29142087D01*
X49066403Y29007380D01*
X49066401Y29007373D01*
X49060000Y28947845D01*
X49060000Y28250000D01*
X50084722Y28250000D01*
X50040667Y28173694D01*
X50010000Y28059244D01*
X50010000Y27940756D01*
X50040667Y27826306D01*
X50084722Y27750000D01*
X49060000Y27750000D01*
X49060000Y27052156D01*
X47041888Y27052156D01*
X47115314Y27131917D01*
X47242984Y27327331D01*
X47336749Y27541093D01*
X47394051Y27767374D01*
X47413327Y28000000D01*
X47413016Y28003750D01*
X47398934Y28173694D01*
X47394051Y28232626D01*
X47336749Y28458907D01*
X47242984Y28672669D01*
X47115314Y28868083D01*
X47115313Y28868085D01*
X46957223Y29039815D01*
X46957222Y29039816D01*
X46957220Y29039818D01*
X46773017Y29183190D01*
X46773015Y29183191D01*
X46773014Y29183192D01*
X46773011Y29183194D01*
X46567733Y29294284D01*
X46567730Y29294285D01*
X46567727Y29294287D01*
X46567721Y29294289D01*
X46567719Y29294290D01*
X46346954Y29370080D01*
X46155730Y29401989D01*
X46116712Y29408500D01*
X45883288Y29408500D01*
X45844270Y29401989D01*
X45653045Y29370080D01*
X45432280Y29294290D01*
X45432266Y29294284D01*
X45226988Y29183194D01*
X45226985Y29183192D01*
X45042781Y29039819D01*
X45042776Y29039815D01*
X45036346Y29032830D01*
X44976457Y28996843D01*
X44906619Y28998948D01*
X44849005Y29038476D01*
X44828940Y29073487D01*
X44803355Y29142085D01*
X44803350Y29142094D01*
X44717190Y29257188D01*
X44717187Y29257191D01*
X44602093Y29343351D01*
X44602086Y29343355D01*
X44467379Y29393597D01*
X44467372Y29393599D01*
X44407844Y29400000D01*
X43710000Y29400000D01*
X43710000Y28375278D01*
X43633694Y28419333D01*
X43519244Y28450000D01*
X43400756Y28450000D01*
X43286306Y28419333D01*
X43210000Y28375278D01*
X43210000Y29400000D01*
X42512155Y29400000D01*
X42452627Y29393599D01*
X42452620Y29393597D01*
X42317913Y29343355D01*
X42317906Y29343351D01*
X42202812Y29257191D01*
X42202809Y29257188D01*
X42116649Y29142094D01*
X42116645Y29142087D01*
X42066403Y29007380D01*
X42066401Y29007373D01*
X42060000Y28947845D01*
X42060000Y28250000D01*
X43084722Y28250000D01*
X43040667Y28173694D01*
X43010000Y28059244D01*
X43010000Y27940756D01*
X43040667Y27826306D01*
X43084722Y27750000D01*
X42060000Y27750000D01*
X42060000Y27052156D01*
X30808500Y27052156D01*
X30808500Y28003750D01*
X30808499Y28003767D01*
X30804869Y28037525D01*
X30801989Y28064313D01*
X30788678Y28100000D01*
X30775890Y28134286D01*
X30750889Y28201316D01*
X30663261Y28318373D01*
X30546204Y28406001D01*
X30510460Y28419333D01*
X30409203Y28457101D01*
X30348654Y28463612D01*
X30348638Y28463612D01*
X28651362Y28463612D01*
X28651345Y28463612D01*
X28590797Y28457101D01*
X28590795Y28457101D01*
X28453795Y28406001D01*
X28336739Y28318373D01*
X28249111Y28201317D01*
X28198011Y28064317D01*
X28198011Y28064315D01*
X28191500Y28003767D01*
X28191500Y26306458D01*
X28198011Y26245910D01*
X28198011Y26245908D01*
X28249111Y26108908D01*
X28336739Y25991851D01*
X28340146Y25989300D01*
X28342698Y25985892D01*
X28343010Y25985580D01*
X28342965Y25985536D01*
X28382018Y25933368D01*
X28387004Y25863676D01*
X28367417Y25818917D01*
X28362479Y25811865D01*
X28362474Y25811856D01*
X28265718Y25604362D01*
X28265714Y25604351D01*
X28206457Y25383202D01*
X28206456Y25383194D01*
X28186502Y25155114D01*
X28186502Y25155111D01*
X24466169Y25155111D01*
X24513543Y25331913D01*
X24533498Y25560000D01*
X24529617Y25604355D01*
X24524249Y25665719D01*
X24513543Y25788087D01*
X24454284Y26009243D01*
X24357523Y26216749D01*
X24226198Y26404300D01*
X24064300Y26566198D01*
X23876749Y26697523D01*
X23859185Y26705713D01*
X23833655Y26717618D01*
X23781215Y26763790D01*
X23762063Y26830983D01*
X23782278Y26897864D01*
X23833655Y26942382D01*
X23836882Y26943888D01*
X23876749Y26962477D01*
X24064300Y27093802D01*
X24226198Y27255700D01*
X24357523Y27443251D01*
X24454284Y27650757D01*
X24513543Y27871913D01*
X24533498Y28100000D01*
X24513543Y28328087D01*
X24454284Y28549243D01*
X24357523Y28756749D01*
X24226198Y28944300D01*
X24064300Y29106198D01*
X23876749Y29237523D01*
X23876745Y29237525D01*
X23669249Y29334282D01*
X23669238Y29334286D01*
X23448089Y29393543D01*
X23448081Y29393544D01*
X23220002Y29413498D01*
X23219998Y29413498D01*
X22991918Y29393544D01*
X22991910Y29393543D01*
X22770761Y29334286D01*
X22770750Y29334282D01*
X22563254Y29237525D01*
X22563252Y29237524D01*
X22563251Y29237523D01*
X22375700Y29106198D01*
X22375698Y29106197D01*
X22375695Y29106194D01*
X22213806Y28944305D01*
X22082476Y28756748D01*
X22082475Y28756746D01*
X21985718Y28549250D01*
X21985714Y28549239D01*
X21926457Y28328090D01*
X21926456Y28328082D01*
X21906502Y28100002D01*
X21906502Y28099999D01*
X21926456Y27871919D01*
X21926457Y27871911D01*
X21985714Y27650762D01*
X21985718Y27650751D01*
X22082475Y27443255D01*
X22082477Y27443251D01*
X22213802Y27255700D01*
X22375700Y27093802D01*
X22534730Y26982448D01*
X22563251Y26962477D01*
X22606345Y26942382D01*
X22658784Y26896209D01*
X22677936Y26829016D01*
X22657720Y26762135D01*
X22606345Y26717618D01*
X22563251Y26697524D01*
X22466704Y26629920D01*
X22375700Y26566198D01*
X22375698Y26566197D01*
X22375695Y26566194D01*
X22213806Y26404305D01*
X22213803Y26404302D01*
X22213802Y26404300D01*
X22145304Y26306475D01*
X22082476Y26216748D01*
X22082475Y26216746D01*
X21985718Y26009250D01*
X21985714Y26009239D01*
X21926457Y25788090D01*
X21926456Y25788082D01*
X21906502Y25560002D01*
X21906502Y25559999D01*
X21926456Y25331919D01*
X21926457Y25331911D01*
X21985714Y25110762D01*
X21985718Y25110751D01*
X22071388Y24927031D01*
X22082477Y24903251D01*
X22213802Y24715700D01*
X22375700Y24553802D01*
X22563251Y24422477D01*
X22606345Y24402382D01*
X22658784Y24356209D01*
X22677936Y24289016D01*
X22657720Y24222135D01*
X22606345Y24177618D01*
X22563251Y24157524D01*
X22462161Y24086739D01*
X22375700Y24026198D01*
X22375698Y24026197D01*
X22375695Y24026194D01*
X22213806Y23864305D01*
X22213803Y23864302D01*
X22213802Y23864300D01*
X22178779Y23814282D01*
X22082476Y23676748D01*
X22082475Y23676746D01*
X21985718Y23469250D01*
X21985714Y23469239D01*
X21926457Y23248090D01*
X21926456Y23248082D01*
X21906502Y23020002D01*
X21906502Y23019999D01*
X21926456Y22791919D01*
X21926457Y22791911D01*
X21985714Y22570762D01*
X21985718Y22570751D01*
X22063663Y22403598D01*
X22082477Y22363251D01*
X22213802Y22175700D01*
X22375700Y22013802D01*
X22563251Y21882477D01*
X22606345Y21862382D01*
X22658784Y21816209D01*
X22677936Y21749016D01*
X22657720Y21682135D01*
X22606345Y21637618D01*
X22563251Y21617524D01*
X22466818Y21550000D01*
X22375700Y21486198D01*
X22375698Y21486197D01*
X22375695Y21486194D01*
X22213806Y21324305D01*
X22213803Y21324302D01*
X22213802Y21324300D01*
X22167334Y21257937D01*
X22082476Y21136748D01*
X22082475Y21136746D01*
X21985718Y20929250D01*
X21985714Y20929239D01*
X21926457Y20708090D01*
X21926456Y20708082D01*
X21906502Y20480002D01*
X21906502Y20479999D01*
X16000000Y20479999D01*
X16000000Y20532661D01*
X15972741Y20634394D01*
X15920080Y20725606D01*
X15915686Y20730000D01*
X16878872Y20730000D01*
X16878872Y20730001D01*
X16826269Y20926318D01*
X16826265Y20926327D01*
X16730134Y21132483D01*
X16599657Y21318821D01*
X16438820Y21479658D01*
X16252481Y21610135D01*
X16252479Y21610136D01*
X16203599Y21632929D01*
X16151159Y21679101D01*
X16132007Y21746294D01*
X16152223Y21813176D01*
X16203599Y21857693D01*
X16256749Y21882477D01*
X16444300Y22013802D01*
X16606198Y22175700D01*
X16737523Y22363251D01*
X16834284Y22570757D01*
X16893543Y22791913D01*
X16913498Y23020000D01*
X16912248Y23034282D01*
X16893543Y23248082D01*
X16893543Y23248087D01*
X16834284Y23469243D01*
X16737523Y23676749D01*
X16606198Y23864300D01*
X16444300Y24026198D01*
X16256749Y24157523D01*
X16213655Y24177618D01*
X16161215Y24223790D01*
X16142063Y24290983D01*
X16162278Y24357864D01*
X16213655Y24402382D01*
X16216882Y24403888D01*
X16256749Y24422477D01*
X16444300Y24553802D01*
X16606198Y24715700D01*
X16737523Y24903251D01*
X16834284Y25110757D01*
X16893543Y25331913D01*
X16913498Y25560000D01*
X16909617Y25604355D01*
X16904249Y25665719D01*
X16893543Y25788087D01*
X16834284Y26009243D01*
X16737523Y26216749D01*
X16606198Y26404300D01*
X16444300Y26566198D01*
X16436627Y26571571D01*
X16393006Y26626147D01*
X16385814Y26695645D01*
X16417338Y26757999D01*
X16477568Y26793412D01*
X16494489Y26796430D01*
X16509201Y26798011D01*
X16646204Y26849111D01*
X16763261Y26936739D01*
X16850889Y27053796D01*
X16901989Y27190799D01*
X16905591Y27224308D01*
X16908499Y27251346D01*
X16908500Y27251363D01*
X16908500Y28948638D01*
X16908499Y28948655D01*
X16905157Y28979730D01*
X16901989Y29009201D01*
X16890570Y29039815D01*
X16865812Y29106194D01*
X16850889Y29146204D01*
X16763261Y29263261D01*
X16646204Y29350889D01*
X16509203Y29401989D01*
X16448654Y29408500D01*
X16448638Y29408500D01*
X14751362Y29408500D01*
X14751345Y29408500D01*
X14690797Y29401989D01*
X14690795Y29401989D01*
X14553795Y29350889D01*
X14436739Y29263261D01*
X14349111Y29146205D01*
X14298011Y29009205D01*
X14298011Y29009203D01*
X14291500Y28948655D01*
X14291500Y27251346D01*
X14298011Y27190798D01*
X14298011Y27190796D01*
X14334189Y27093802D01*
X14349111Y27053796D01*
X14436739Y26936739D01*
X14553796Y26849111D01*
X14653110Y26812069D01*
X14690793Y26798013D01*
X14690799Y26798011D01*
X14705499Y26796431D01*
X14770048Y26769695D01*
X14809897Y26712304D01*
X14812393Y26642479D01*
X14776742Y26582389D01*
X14763377Y26571575D01*
X14763371Y26571569D01*
X14755696Y26566195D01*
X14593806Y26404305D01*
X14593803Y26404302D01*
X14593802Y26404300D01*
X14525304Y26306475D01*
X14462476Y26216748D01*
X14462475Y26216746D01*
X14365718Y26009250D01*
X14365714Y26009239D01*
X14306457Y25788090D01*
X14306456Y25788082D01*
X14286502Y25560002D01*
X14286502Y25559999D01*
X14306456Y25331919D01*
X14306457Y25331911D01*
X14365714Y25110762D01*
X14365718Y25110751D01*
X14451388Y24927031D01*
X14462477Y24903251D01*
X14593802Y24715700D01*
X14755700Y24553802D01*
X14943251Y24422477D01*
X14986345Y24402382D01*
X15038784Y24356209D01*
X15057936Y24289016D01*
X15037720Y24222135D01*
X14986345Y24177618D01*
X14943251Y24157524D01*
X14842161Y24086739D01*
X14755700Y24026198D01*
X14755698Y24026197D01*
X14755695Y24026194D01*
X14593806Y23864305D01*
X14593803Y23864302D01*
X14593802Y23864300D01*
X14558779Y23814282D01*
X14462476Y23676748D01*
X14462475Y23676746D01*
X14365718Y23469250D01*
X14365714Y23469239D01*
X14306457Y23248090D01*
X14306456Y23248082D01*
X14286502Y23020002D01*
X14286502Y23019999D01*
X11595647Y23019999D01*
X11563261Y23063261D01*
X11446204Y23150889D01*
X11309203Y23201989D01*
X11248654Y23208500D01*
X11248638Y23208500D01*
X9551362Y23208500D01*
X9551345Y23208500D01*
X9490797Y23201989D01*
X9490795Y23201989D01*
X9353795Y23150889D01*
X9236739Y23063261D01*
X9149111Y22946205D01*
X9098011Y22809205D01*
X9098011Y22809203D01*
X9091500Y22748655D01*
X9091500Y21051346D01*
X9098011Y20990798D01*
X9098011Y20990796D01*
X9139337Y20880000D01*
X9149111Y20853796D01*
X9236739Y20736739D01*
X9240146Y20734188D01*
X9242698Y20730780D01*
X9243010Y20730468D01*
X9242965Y20730424D01*
X9282018Y20678256D01*
X9287004Y20608564D01*
X9267417Y20563805D01*
X9262479Y20556753D01*
X9262474Y20556744D01*
X9165718Y20349250D01*
X9165714Y20349239D01*
X9106457Y20128090D01*
X9106456Y20128082D01*
X9086502Y19900002D01*
X9086502Y19899999D01*
X75500Y19899999D01*
X75500Y26899999D01*
X706502Y26899999D01*
X726456Y26671919D01*
X726457Y26671911D01*
X785714Y26450762D01*
X785718Y26450751D01*
X881237Y26245910D01*
X882477Y26243251D01*
X1013802Y26055700D01*
X1175700Y25893802D01*
X1363251Y25762477D01*
X1488091Y25704264D01*
X1570750Y25665719D01*
X1570752Y25665719D01*
X1570757Y25665716D01*
X1791913Y25606457D01*
X1954832Y25592204D01*
X2019998Y25586502D01*
X2020000Y25586502D01*
X2020002Y25586502D01*
X2077021Y25591491D01*
X2248087Y25606457D01*
X2469243Y25665716D01*
X2676749Y25762477D01*
X2864300Y25893802D01*
X3026198Y26055700D01*
X3157523Y26243251D01*
X3254284Y26450757D01*
X3313543Y26671913D01*
X3333498Y26899999D01*
X10866502Y26899999D01*
X10886456Y26671919D01*
X10886457Y26671911D01*
X10945714Y26450762D01*
X10945718Y26450751D01*
X11041237Y26245910D01*
X11042477Y26243251D01*
X11173802Y26055700D01*
X11335700Y25893802D01*
X11523251Y25762477D01*
X11648091Y25704264D01*
X11730750Y25665719D01*
X11730752Y25665719D01*
X11730757Y25665716D01*
X11951913Y25606457D01*
X12114832Y25592204D01*
X12179998Y25586502D01*
X12180000Y25586502D01*
X12180002Y25586502D01*
X12237021Y25591491D01*
X12408087Y25606457D01*
X12629243Y25665716D01*
X12836749Y25762477D01*
X13024300Y25893802D01*
X13186198Y26055700D01*
X13317523Y26243251D01*
X13414284Y26450757D01*
X13473543Y26671913D01*
X13493498Y26900000D01*
X13473543Y27128087D01*
X13414284Y27349243D01*
X13317523Y27556749D01*
X13186198Y27744300D01*
X13024300Y27906198D01*
X12836749Y28037523D01*
X12790168Y28059244D01*
X12629249Y28134282D01*
X12629238Y28134286D01*
X12408089Y28193543D01*
X12408081Y28193544D01*
X12180002Y28213498D01*
X12179998Y28213498D01*
X11951918Y28193544D01*
X11951910Y28193543D01*
X11730761Y28134286D01*
X11730750Y28134282D01*
X11523254Y28037525D01*
X11523252Y28037524D01*
X11475018Y28003750D01*
X11335700Y27906198D01*
X11335698Y27906197D01*
X11335695Y27906194D01*
X11173806Y27744305D01*
X11173803Y27744302D01*
X11173802Y27744300D01*
X11108306Y27650762D01*
X11042476Y27556748D01*
X11042475Y27556746D01*
X10945718Y27349250D01*
X10945714Y27349239D01*
X10886457Y27128090D01*
X10886456Y27128082D01*
X10866502Y26900002D01*
X10866502Y26899999D01*
X3333498Y26899999D01*
X3333498Y26900000D01*
X3313543Y27128087D01*
X3254284Y27349243D01*
X3157523Y27556749D01*
X3026198Y27744300D01*
X2864300Y27906198D01*
X2676749Y28037523D01*
X2630168Y28059244D01*
X2469249Y28134282D01*
X2469238Y28134286D01*
X2248089Y28193543D01*
X2248081Y28193544D01*
X2020002Y28213498D01*
X2019998Y28213498D01*
X1791918Y28193544D01*
X1791910Y28193543D01*
X1570761Y28134286D01*
X1570750Y28134282D01*
X1363254Y28037525D01*
X1363252Y28037524D01*
X1315018Y28003750D01*
X1175700Y27906198D01*
X1175698Y27906197D01*
X1175695Y27906194D01*
X1013806Y27744305D01*
X1013803Y27744302D01*
X1013802Y27744300D01*
X948306Y27650762D01*
X882476Y27556748D01*
X882475Y27556746D01*
X785718Y27349250D01*
X785714Y27349239D01*
X726457Y27128090D01*
X726456Y27128082D01*
X706502Y26900002D01*
X706502Y26899999D01*
X75500Y26899999D01*
X75500Y31699999D01*
X806502Y31699999D01*
X826456Y31471919D01*
X826457Y31471911D01*
X885714Y31250762D01*
X885718Y31250751D01*
X930043Y31155696D01*
X982477Y31043251D01*
X1113802Y30855700D01*
X1275700Y30693802D01*
X1463251Y30562477D01*
X1588091Y30504264D01*
X1670750Y30465719D01*
X1670752Y30465719D01*
X1670757Y30465716D01*
X1891913Y30406457D01*
X2054832Y30392204D01*
X2119998Y30386502D01*
X2120000Y30386502D01*
X2120002Y30386502D01*
X2177021Y30391491D01*
X2348087Y30406457D01*
X2569243Y30465716D01*
X2776749Y30562477D01*
X2964300Y30693802D01*
X3126198Y30855700D01*
X3257523Y31043251D01*
X3354284Y31250757D01*
X3413543Y31471913D01*
X3433498Y31699999D01*
X10966502Y31699999D01*
X10986456Y31471919D01*
X10986457Y31471911D01*
X11045714Y31250762D01*
X11045718Y31250751D01*
X11090043Y31155696D01*
X11142477Y31043251D01*
X11273802Y30855700D01*
X11435700Y30693802D01*
X11623251Y30562477D01*
X11748091Y30504264D01*
X11830750Y30465719D01*
X11830752Y30465719D01*
X11830757Y30465716D01*
X12051913Y30406457D01*
X12214832Y30392204D01*
X12279998Y30386502D01*
X12280000Y30386502D01*
X12280002Y30386502D01*
X12337021Y30391491D01*
X12508087Y30406457D01*
X12729243Y30465716D01*
X12936749Y30562477D01*
X13124300Y30693802D01*
X13286198Y30855700D01*
X13417523Y31043251D01*
X13514284Y31250757D01*
X13573543Y31471913D01*
X13593498Y31700000D01*
X13573543Y31928087D01*
X13554274Y31999999D01*
X24186502Y31999999D01*
X24206456Y31771919D01*
X24206457Y31771911D01*
X24265714Y31550762D01*
X24265718Y31550751D01*
X24302481Y31471913D01*
X24362477Y31343251D01*
X24493802Y31155700D01*
X24655700Y30993802D01*
X24843251Y30862477D01*
X24968091Y30804264D01*
X25050750Y30765719D01*
X25050752Y30765719D01*
X25050757Y30765716D01*
X25271913Y30706457D01*
X25416561Y30693802D01*
X25499998Y30686502D01*
X25500000Y30686502D01*
X25500002Y30686502D01*
X25583439Y30693802D01*
X25728087Y30706457D01*
X25949243Y30765716D01*
X26156749Y30862477D01*
X26344300Y30993802D01*
X26506198Y31155700D01*
X26637523Y31343251D01*
X26734284Y31550757D01*
X26793543Y31771913D01*
X26813498Y31999998D01*
X29195034Y31999998D01*
X29214858Y31773401D01*
X29214860Y31773390D01*
X29273730Y31553683D01*
X29273735Y31553669D01*
X29369863Y31347522D01*
X29420974Y31274528D01*
X30100000Y31953554D01*
X30100000Y31947339D01*
X30127259Y31845606D01*
X30179920Y31754394D01*
X30254394Y31679920D01*
X30345606Y31627259D01*
X30447339Y31600000D01*
X30453553Y31600000D01*
X29774526Y30920975D01*
X29847513Y30869868D01*
X29847521Y30869864D01*
X30053668Y30773736D01*
X30053682Y30773731D01*
X30273389Y30714861D01*
X30273400Y30714859D01*
X30499998Y30695034D01*
X30500002Y30695034D01*
X30726599Y30714859D01*
X30726610Y30714861D01*
X30946317Y30773731D01*
X30946331Y30773736D01*
X31152478Y30869864D01*
X31225471Y30920976D01*
X30546447Y31600000D01*
X30552661Y31600000D01*
X30654394Y31627259D01*
X30745606Y31679920D01*
X30820080Y31754394D01*
X30872741Y31845606D01*
X30900000Y31947339D01*
X30900000Y31953553D01*
X31579024Y31274529D01*
X31630136Y31347522D01*
X31726264Y31553669D01*
X31726269Y31553683D01*
X31785139Y31773390D01*
X31785141Y31773401D01*
X31804966Y31999998D01*
X31804966Y32000003D01*
X31785141Y32226600D01*
X31785139Y32226611D01*
X31726269Y32446318D01*
X31726264Y32446332D01*
X31630136Y32652479D01*
X31630132Y32652487D01*
X31579025Y32725474D01*
X30900000Y32046449D01*
X30900000Y32052661D01*
X30872741Y32154394D01*
X30820080Y32245606D01*
X30745606Y32320080D01*
X30654394Y32372741D01*
X30552661Y32400000D01*
X30546448Y32400000D01*
X30947793Y32801346D01*
X35941500Y32801346D01*
X35948011Y32740798D01*
X35948011Y32740796D01*
X35980950Y32652487D01*
X35999111Y32603796D01*
X36086739Y32486739D01*
X36203796Y32399111D01*
X36340799Y32348011D01*
X36368050Y32345082D01*
X36401345Y32341501D01*
X36401362Y32341500D01*
X38198638Y32341500D01*
X38198654Y32341501D01*
X38225692Y32344409D01*
X38259201Y32348011D01*
X38396204Y32399111D01*
X38513261Y32486739D01*
X38600889Y32603796D01*
X38651989Y32740799D01*
X38655591Y32774308D01*
X38658499Y32801346D01*
X38658500Y32801363D01*
X38658500Y34598638D01*
X38658499Y34598655D01*
X38655157Y34629730D01*
X38651989Y34659201D01*
X38600889Y34796204D01*
X38568104Y34839999D01*
X46686502Y34839999D01*
X46706456Y34611919D01*
X46706457Y34611911D01*
X46765714Y34390762D01*
X46765718Y34390751D01*
X46862475Y34183255D01*
X46862477Y34183251D01*
X46993802Y33995700D01*
X47155700Y33833802D01*
X47343251Y33702477D01*
X47468091Y33644264D01*
X47550750Y33605719D01*
X47550752Y33605719D01*
X47550757Y33605716D01*
X47771913Y33546457D01*
X47934832Y33532204D01*
X47999998Y33526502D01*
X48000000Y33526502D01*
X48000002Y33526502D01*
X48057021Y33531491D01*
X48228087Y33546457D01*
X48449243Y33605716D01*
X48656749Y33702477D01*
X48844300Y33833802D01*
X49006198Y33995700D01*
X49137523Y34183251D01*
X49234284Y34390757D01*
X49293543Y34611913D01*
X49313498Y34839999D01*
X50686502Y34839999D01*
X50706456Y34611919D01*
X50706457Y34611911D01*
X50765714Y34390762D01*
X50765718Y34390751D01*
X50862475Y34183255D01*
X50862477Y34183251D01*
X50993802Y33995700D01*
X51155700Y33833802D01*
X51343251Y33702477D01*
X51468091Y33644264D01*
X51550750Y33605719D01*
X51550752Y33605719D01*
X51550757Y33605716D01*
X51771913Y33546457D01*
X51934832Y33532204D01*
X51999998Y33526502D01*
X52000000Y33526502D01*
X52000002Y33526502D01*
X52057021Y33531491D01*
X52228087Y33546457D01*
X52449243Y33605716D01*
X52656749Y33702477D01*
X52844300Y33833802D01*
X53006198Y33995700D01*
X53137523Y34183251D01*
X53234284Y34390757D01*
X53293543Y34611913D01*
X53313498Y34839999D01*
X54686502Y34839999D01*
X54706456Y34611919D01*
X54706457Y34611911D01*
X54765714Y34390762D01*
X54765718Y34390751D01*
X54862475Y34183255D01*
X54862477Y34183251D01*
X54993802Y33995700D01*
X55155700Y33833802D01*
X55343251Y33702477D01*
X55468091Y33644264D01*
X55550750Y33605719D01*
X55550752Y33605719D01*
X55550757Y33605716D01*
X55771913Y33546457D01*
X55934832Y33532204D01*
X55999998Y33526502D01*
X56000000Y33526502D01*
X56000002Y33526502D01*
X56057021Y33531491D01*
X56228087Y33546457D01*
X56449243Y33605716D01*
X56656749Y33702477D01*
X56844300Y33833802D01*
X57006198Y33995700D01*
X57137523Y34183251D01*
X57234284Y34390757D01*
X57293543Y34611913D01*
X57313498Y34839999D01*
X58686502Y34839999D01*
X58706456Y34611919D01*
X58706457Y34611911D01*
X58765714Y34390762D01*
X58765718Y34390751D01*
X58862475Y34183255D01*
X58862477Y34183251D01*
X58993802Y33995700D01*
X59155700Y33833802D01*
X59343251Y33702477D01*
X59468091Y33644264D01*
X59550750Y33605719D01*
X59550752Y33605719D01*
X59550757Y33605716D01*
X59771913Y33546457D01*
X59934832Y33532204D01*
X59999998Y33526502D01*
X60000000Y33526502D01*
X60000002Y33526502D01*
X60057021Y33531491D01*
X60228087Y33546457D01*
X60449243Y33605716D01*
X60656749Y33702477D01*
X60844300Y33833802D01*
X61006198Y33995700D01*
X61137523Y34183251D01*
X61234284Y34390757D01*
X61293543Y34611913D01*
X61313498Y34840000D01*
X61293543Y35068087D01*
X61234284Y35289243D01*
X61137523Y35496749D01*
X61006198Y35684300D01*
X60844300Y35846198D01*
X60656749Y35977523D01*
X60656745Y35977525D01*
X60449249Y36074282D01*
X60449238Y36074286D01*
X60228089Y36133543D01*
X60228081Y36133544D01*
X60000002Y36153498D01*
X59999998Y36153498D01*
X59771918Y36133544D01*
X59771910Y36133543D01*
X59550761Y36074286D01*
X59550750Y36074282D01*
X59343254Y35977525D01*
X59343252Y35977524D01*
X59343251Y35977523D01*
X59155700Y35846198D01*
X59155698Y35846197D01*
X59155695Y35846194D01*
X58993806Y35684305D01*
X58862476Y35496748D01*
X58862475Y35496746D01*
X58765718Y35289250D01*
X58765714Y35289239D01*
X58706457Y35068090D01*
X58706456Y35068082D01*
X58686502Y34840002D01*
X58686502Y34839999D01*
X57313498Y34839999D01*
X57313498Y34840000D01*
X57293543Y35068087D01*
X57234284Y35289243D01*
X57137523Y35496749D01*
X57006198Y35684300D01*
X56844300Y35846198D01*
X56656749Y35977523D01*
X56656745Y35977525D01*
X56449249Y36074282D01*
X56449238Y36074286D01*
X56228089Y36133543D01*
X56228081Y36133544D01*
X56000002Y36153498D01*
X55999998Y36153498D01*
X55771918Y36133544D01*
X55771910Y36133543D01*
X55550761Y36074286D01*
X55550750Y36074282D01*
X55343254Y35977525D01*
X55343252Y35977524D01*
X55343251Y35977523D01*
X55155700Y35846198D01*
X55155698Y35846197D01*
X55155695Y35846194D01*
X54993806Y35684305D01*
X54862476Y35496748D01*
X54862475Y35496746D01*
X54765718Y35289250D01*
X54765714Y35289239D01*
X54706457Y35068090D01*
X54706456Y35068082D01*
X54686502Y34840002D01*
X54686502Y34839999D01*
X53313498Y34839999D01*
X53313498Y34840000D01*
X53293543Y35068087D01*
X53234284Y35289243D01*
X53137523Y35496749D01*
X53006198Y35684300D01*
X52844300Y35846198D01*
X52656749Y35977523D01*
X52656745Y35977525D01*
X52449249Y36074282D01*
X52449238Y36074286D01*
X52228089Y36133543D01*
X52228081Y36133544D01*
X52000002Y36153498D01*
X51999998Y36153498D01*
X51771918Y36133544D01*
X51771910Y36133543D01*
X51550761Y36074286D01*
X51550750Y36074282D01*
X51343254Y35977525D01*
X51343252Y35977524D01*
X51343251Y35977523D01*
X51155700Y35846198D01*
X51155698Y35846197D01*
X51155695Y35846194D01*
X50993806Y35684305D01*
X50862476Y35496748D01*
X50862475Y35496746D01*
X50765718Y35289250D01*
X50765714Y35289239D01*
X50706457Y35068090D01*
X50706456Y35068082D01*
X50686502Y34840002D01*
X50686502Y34839999D01*
X49313498Y34839999D01*
X49313498Y34840000D01*
X49293543Y35068087D01*
X49234284Y35289243D01*
X49137523Y35496749D01*
X49006198Y35684300D01*
X48844300Y35846198D01*
X48656749Y35977523D01*
X48656745Y35977525D01*
X48449249Y36074282D01*
X48449238Y36074286D01*
X48228089Y36133543D01*
X48228081Y36133544D01*
X48000002Y36153498D01*
X47999998Y36153498D01*
X47771918Y36133544D01*
X47771910Y36133543D01*
X47550761Y36074286D01*
X47550750Y36074282D01*
X47343254Y35977525D01*
X47343252Y35977524D01*
X47343251Y35977523D01*
X47155700Y35846198D01*
X47155698Y35846197D01*
X47155695Y35846194D01*
X46993806Y35684305D01*
X46862476Y35496748D01*
X46862475Y35496746D01*
X46765718Y35289250D01*
X46765714Y35289239D01*
X46706457Y35068090D01*
X46706456Y35068082D01*
X46686502Y34840002D01*
X46686502Y34839999D01*
X38568104Y34839999D01*
X38513261Y34913261D01*
X38396204Y35000889D01*
X38259203Y35051989D01*
X38198654Y35058500D01*
X38198638Y35058500D01*
X36401362Y35058500D01*
X36401345Y35058500D01*
X36340797Y35051989D01*
X36340795Y35051989D01*
X36203795Y35000889D01*
X36086739Y34913261D01*
X35999111Y34796205D01*
X35948011Y34659205D01*
X35948011Y34659203D01*
X35941500Y34598655D01*
X35941500Y32801346D01*
X30947793Y32801346D01*
X31225472Y33079026D01*
X31152478Y33130137D01*
X30946331Y33226265D01*
X30946317Y33226270D01*
X30726610Y33285140D01*
X30726599Y33285142D01*
X30500002Y33304966D01*
X30499998Y33304966D01*
X30273400Y33285142D01*
X30273389Y33285140D01*
X30053682Y33226270D01*
X30053673Y33226266D01*
X29847516Y33130134D01*
X29847512Y33130132D01*
X29774526Y33079027D01*
X29774526Y33079026D01*
X30453553Y32400000D01*
X30447339Y32400000D01*
X30345606Y32372741D01*
X30254394Y32320080D01*
X30179920Y32245606D01*
X30127259Y32154394D01*
X30100000Y32052661D01*
X30100000Y32046448D01*
X29420974Y32725474D01*
X29420973Y32725474D01*
X29369868Y32652488D01*
X29369866Y32652484D01*
X29273734Y32446327D01*
X29273730Y32446318D01*
X29214860Y32226611D01*
X29214858Y32226600D01*
X29195034Y32000003D01*
X29195034Y31999998D01*
X26813498Y31999998D01*
X26813498Y32000000D01*
X26793543Y32228087D01*
X26734284Y32449243D01*
X26716799Y32486739D01*
X26639514Y32652479D01*
X26637523Y32656749D01*
X26506198Y32844300D01*
X26344300Y33006198D01*
X26156749Y33137523D01*
X26103235Y33162477D01*
X25949249Y33234282D01*
X25949238Y33234286D01*
X25728089Y33293543D01*
X25728081Y33293544D01*
X25500002Y33313498D01*
X25499998Y33313498D01*
X25271918Y33293544D01*
X25271910Y33293543D01*
X25050761Y33234286D01*
X25050750Y33234282D01*
X24843254Y33137525D01*
X24843252Y33137524D01*
X24772856Y33088233D01*
X24655700Y33006198D01*
X24655698Y33006197D01*
X24655695Y33006194D01*
X24493806Y32844305D01*
X24493803Y32844302D01*
X24493802Y32844300D01*
X24421330Y32740799D01*
X24362476Y32656748D01*
X24362475Y32656746D01*
X24265718Y32449250D01*
X24265714Y32449239D01*
X24206457Y32228090D01*
X24206456Y32228082D01*
X24186502Y32000002D01*
X24186502Y31999999D01*
X13554274Y31999999D01*
X13514284Y32149243D01*
X13417523Y32356749D01*
X13286198Y32544300D01*
X13124300Y32706198D01*
X12936749Y32837523D01*
X12922205Y32844305D01*
X12729249Y32934282D01*
X12729238Y32934286D01*
X12508089Y32993543D01*
X12508081Y32993544D01*
X12280002Y33013498D01*
X12279998Y33013498D01*
X12051918Y32993544D01*
X12051910Y32993543D01*
X11830761Y32934286D01*
X11830750Y32934282D01*
X11623254Y32837525D01*
X11623252Y32837524D01*
X11623251Y32837523D01*
X11435700Y32706198D01*
X11435698Y32706197D01*
X11435695Y32706194D01*
X11273806Y32544305D01*
X11142476Y32356748D01*
X11142475Y32356746D01*
X11045718Y32149250D01*
X11045714Y32149239D01*
X10986457Y31928090D01*
X10986456Y31928082D01*
X10966502Y31700002D01*
X10966502Y31699999D01*
X3433498Y31699999D01*
X3433498Y31700000D01*
X3413543Y31928087D01*
X3354284Y32149243D01*
X3257523Y32356749D01*
X3126198Y32544300D01*
X2964300Y32706198D01*
X2776749Y32837523D01*
X2762205Y32844305D01*
X2569249Y32934282D01*
X2569238Y32934286D01*
X2348089Y32993543D01*
X2348081Y32993544D01*
X2120002Y33013498D01*
X2119998Y33013498D01*
X1891918Y32993544D01*
X1891910Y32993543D01*
X1670761Y32934286D01*
X1670750Y32934282D01*
X1463254Y32837525D01*
X1463252Y32837524D01*
X1463251Y32837523D01*
X1275700Y32706198D01*
X1275698Y32706197D01*
X1275695Y32706194D01*
X1113806Y32544305D01*
X982476Y32356748D01*
X982475Y32356746D01*
X885718Y32149250D01*
X885714Y32149239D01*
X826457Y31928090D01*
X826456Y31928082D01*
X806502Y31700002D01*
X806502Y31699999D01*
X75500Y31699999D01*
X75500Y34299999D01*
X14886502Y34299999D01*
X14906456Y34071919D01*
X14906457Y34071911D01*
X14965714Y33850762D01*
X14965718Y33850751D01*
X15034860Y33702476D01*
X15062477Y33643251D01*
X15193802Y33455700D01*
X15355700Y33293802D01*
X15543251Y33162477D01*
X15612616Y33130132D01*
X15750750Y33065719D01*
X15750752Y33065719D01*
X15750757Y33065716D01*
X15971913Y33006457D01*
X16119521Y32993543D01*
X16199998Y32986502D01*
X16200000Y32986502D01*
X16200002Y32986502D01*
X16257021Y32991491D01*
X16428087Y33006457D01*
X16649243Y33065716D01*
X16856749Y33162477D01*
X17044300Y33293802D01*
X17206198Y33455700D01*
X17337523Y33643251D01*
X17434284Y33850757D01*
X17493543Y34071913D01*
X17513498Y34299999D01*
X19886502Y34299999D01*
X19906456Y34071919D01*
X19906457Y34071911D01*
X19965714Y33850762D01*
X19965718Y33850751D01*
X20034860Y33702476D01*
X20062477Y33643251D01*
X20193802Y33455700D01*
X20355700Y33293802D01*
X20543251Y33162477D01*
X20612616Y33130132D01*
X20750750Y33065719D01*
X20750752Y33065719D01*
X20750757Y33065716D01*
X20971913Y33006457D01*
X21119521Y32993543D01*
X21199998Y32986502D01*
X21200000Y32986502D01*
X21200002Y32986502D01*
X21257021Y32991491D01*
X21428087Y33006457D01*
X21649243Y33065716D01*
X21856749Y33162477D01*
X22044300Y33293802D01*
X22206198Y33455700D01*
X22337523Y33643251D01*
X22434284Y33850757D01*
X22493543Y34071913D01*
X22513498Y34300000D01*
X22493543Y34528087D01*
X22434284Y34749243D01*
X22412385Y34796205D01*
X22391963Y34840002D01*
X22337523Y34956749D01*
X22206198Y35144300D01*
X22044300Y35306198D01*
X21856749Y35437523D01*
X21856745Y35437525D01*
X21649249Y35534282D01*
X21649238Y35534286D01*
X21428089Y35593543D01*
X21428081Y35593544D01*
X21200002Y35613498D01*
X21199998Y35613498D01*
X20971918Y35593544D01*
X20971910Y35593543D01*
X20750761Y35534286D01*
X20750750Y35534282D01*
X20543254Y35437525D01*
X20543252Y35437524D01*
X20543251Y35437523D01*
X20355700Y35306198D01*
X20355698Y35306197D01*
X20355695Y35306194D01*
X20193806Y35144305D01*
X20193803Y35144302D01*
X20193802Y35144300D01*
X20133724Y35058500D01*
X20062476Y34956748D01*
X20062475Y34956746D01*
X19965718Y34749250D01*
X19965714Y34749239D01*
X19906457Y34528090D01*
X19906456Y34528082D01*
X19886502Y34300002D01*
X19886502Y34299999D01*
X17513498Y34299999D01*
X17513498Y34300000D01*
X17493543Y34528087D01*
X17434284Y34749243D01*
X17412385Y34796205D01*
X17391963Y34840002D01*
X17337523Y34956749D01*
X17206198Y35144300D01*
X17044300Y35306198D01*
X16856749Y35437523D01*
X16856745Y35437525D01*
X16649249Y35534282D01*
X16649238Y35534286D01*
X16428089Y35593543D01*
X16428081Y35593544D01*
X16200002Y35613498D01*
X16199998Y35613498D01*
X15971918Y35593544D01*
X15971910Y35593543D01*
X15750761Y35534286D01*
X15750750Y35534282D01*
X15543254Y35437525D01*
X15543252Y35437524D01*
X15543251Y35437523D01*
X15355700Y35306198D01*
X15355698Y35306197D01*
X15355695Y35306194D01*
X15193806Y35144305D01*
X15193803Y35144302D01*
X15193802Y35144300D01*
X15133724Y35058500D01*
X15062476Y34956748D01*
X15062475Y34956746D01*
X14965718Y34749250D01*
X14965714Y34749239D01*
X14906457Y34528090D01*
X14906456Y34528082D01*
X14886502Y34300002D01*
X14886502Y34299999D01*
X75500Y34299999D01*
X75500Y37901346D01*
X2041500Y37901346D01*
X2048011Y37840798D01*
X2048011Y37840796D01*
X2099111Y37703796D01*
X2186739Y37586739D01*
X2303796Y37499111D01*
X2440799Y37448011D01*
X2468050Y37445082D01*
X2501345Y37441501D01*
X2501362Y37441500D01*
X4298638Y37441500D01*
X4298654Y37441501D01*
X4325692Y37444409D01*
X4359201Y37448011D01*
X4496204Y37499111D01*
X4613261Y37586739D01*
X4700889Y37703796D01*
X4751989Y37840799D01*
X4755591Y37874308D01*
X4758499Y37901346D01*
X4758500Y37901363D01*
X4758500Y39299999D01*
X7606502Y39299999D01*
X7626456Y39071919D01*
X7626457Y39071911D01*
X7685714Y38850762D01*
X7685718Y38850751D01*
X7780487Y38647518D01*
X7782477Y38643251D01*
X7913802Y38455700D01*
X8075700Y38293802D01*
X8263251Y38162477D01*
X8305520Y38142767D01*
X8470750Y38065719D01*
X8470752Y38065719D01*
X8470757Y38065716D01*
X8691913Y38006457D01*
X8854832Y37992204D01*
X8919998Y37986502D01*
X8920000Y37986502D01*
X8920002Y37986502D01*
X8977021Y37991491D01*
X9148087Y38006457D01*
X9369243Y38065716D01*
X9576749Y38162477D01*
X9764300Y38293802D01*
X9926198Y38455700D01*
X10057523Y38643251D01*
X10154284Y38850757D01*
X10213543Y39071913D01*
X10233498Y39300000D01*
X10213543Y39528087D01*
X10207671Y39550001D01*
X17801127Y39550001D01*
X17801128Y39550000D01*
X18764314Y39550000D01*
X18759920Y39545606D01*
X18707259Y39454394D01*
X18680000Y39352661D01*
X18680000Y39247339D01*
X18707259Y39145606D01*
X18759920Y39054394D01*
X18764314Y39050000D01*
X17801128Y39050000D01*
X17853730Y38853683D01*
X17853734Y38853674D01*
X17949865Y38647518D01*
X18080342Y38461180D01*
X18241179Y38300343D01*
X18427517Y38169866D01*
X18633673Y38073735D01*
X18633682Y38073731D01*
X18829999Y38021128D01*
X18830000Y38021129D01*
X18830000Y38984314D01*
X18834394Y38979920D01*
X18925606Y38927259D01*
X19027339Y38900000D01*
X19132661Y38900000D01*
X19234394Y38927259D01*
X19325606Y38979920D01*
X19330000Y38984314D01*
X19330000Y38021128D01*
X19526317Y38073731D01*
X19526326Y38073735D01*
X19732482Y38169866D01*
X19918820Y38300343D01*
X20079657Y38461180D01*
X20210134Y38647518D01*
X20306265Y38853674D01*
X20306269Y38853683D01*
X20358872Y39050000D01*
X19395686Y39050000D01*
X19400080Y39054394D01*
X19452741Y39145606D01*
X19480000Y39247339D01*
X19480000Y39352661D01*
X19452741Y39454394D01*
X19400080Y39545606D01*
X19395686Y39550000D01*
X20358872Y39550000D01*
X20358872Y39550001D01*
X20306269Y39746318D01*
X20306265Y39746327D01*
X20210134Y39952483D01*
X20079657Y40138821D01*
X19918820Y40299658D01*
X19732482Y40430135D01*
X19526328Y40526266D01*
X19330000Y40578873D01*
X19330000Y39615686D01*
X19325606Y39620080D01*
X19234394Y39672741D01*
X19132661Y39700000D01*
X19027339Y39700000D01*
X18925606Y39672741D01*
X18834394Y39620080D01*
X18830000Y39615686D01*
X18830000Y40578873D01*
X18633671Y40526266D01*
X18427517Y40430135D01*
X18241179Y40299658D01*
X18080342Y40138821D01*
X17949865Y39952483D01*
X17853734Y39746327D01*
X17853730Y39746318D01*
X17801127Y39550001D01*
X10207671Y39550001D01*
X10154284Y39749243D01*
X10057523Y39956749D01*
X9926198Y40144300D01*
X9764300Y40306198D01*
X9576749Y40437523D01*
X9576745Y40437525D01*
X9369249Y40534282D01*
X9369238Y40534286D01*
X9148089Y40593543D01*
X9148081Y40593544D01*
X8920002Y40613498D01*
X8919998Y40613498D01*
X8691918Y40593544D01*
X8691910Y40593543D01*
X8470761Y40534286D01*
X8470750Y40534282D01*
X8263254Y40437525D01*
X8263252Y40437524D01*
X8252551Y40430031D01*
X8075700Y40306198D01*
X8075698Y40306197D01*
X8075695Y40306194D01*
X7913806Y40144305D01*
X7913803Y40144302D01*
X7913802Y40144300D01*
X7855402Y40060896D01*
X7782476Y39956748D01*
X7782475Y39956746D01*
X7685718Y39749250D01*
X7685714Y39749239D01*
X7626457Y39528090D01*
X7626456Y39528082D01*
X7606502Y39300002D01*
X7606502Y39299999D01*
X4758500Y39299999D01*
X4758500Y39698638D01*
X4758499Y39698655D01*
X4753373Y39746327D01*
X4751989Y39759201D01*
X4700889Y39896204D01*
X4613261Y40013261D01*
X4496204Y40100889D01*
X4359203Y40151989D01*
X4298654Y40158500D01*
X4298638Y40158500D01*
X2501362Y40158500D01*
X2501345Y40158500D01*
X2440797Y40151989D01*
X2440795Y40151989D01*
X2303795Y40100889D01*
X2186739Y40013261D01*
X2099111Y39896205D01*
X2048011Y39759205D01*
X2048011Y39759203D01*
X2041500Y39698655D01*
X2041500Y37901346D01*
X75500Y37901346D01*
X75500Y41500000D01*
X33486835Y41500000D01*
X33505465Y41263286D01*
X33560895Y41032405D01*
X33560895Y41032403D01*
X33651757Y40813041D01*
X33651759Y40813038D01*
X33775820Y40610590D01*
X33775821Y40610587D01*
X33790378Y40593543D01*
X33930031Y40430031D01*
X34069797Y40310660D01*
X34110586Y40275822D01*
X34110589Y40275821D01*
X34313037Y40151760D01*
X34313040Y40151758D01*
X34532403Y40060896D01*
X34532404Y40060896D01*
X34532406Y40060895D01*
X34763289Y40005465D01*
X35000000Y39986835D01*
X35236711Y40005465D01*
X35467594Y40060895D01*
X35467596Y40060896D01*
X35467597Y40060896D01*
X35686959Y40151758D01*
X35686960Y40151759D01*
X35686963Y40151760D01*
X35889416Y40275824D01*
X36069969Y40430031D01*
X36224176Y40610584D01*
X36348240Y40813037D01*
X36439105Y41032406D01*
X36494535Y41263289D01*
X36513165Y41500000D01*
X39986835Y41500000D01*
X40005465Y41263286D01*
X40060895Y41032405D01*
X40060895Y41032403D01*
X40151757Y40813041D01*
X40151759Y40813038D01*
X40275820Y40610590D01*
X40275821Y40610587D01*
X40290378Y40593543D01*
X40430031Y40430031D01*
X40569797Y40310660D01*
X40610586Y40275822D01*
X40610589Y40275821D01*
X40813037Y40151760D01*
X40813040Y40151758D01*
X41032403Y40060896D01*
X41032404Y40060896D01*
X41032406Y40060895D01*
X41263289Y40005465D01*
X41500000Y39986835D01*
X41736711Y40005465D01*
X41967594Y40060895D01*
X41967596Y40060896D01*
X41967597Y40060896D01*
X42186959Y40151758D01*
X42186960Y40151759D01*
X42186963Y40151760D01*
X42389416Y40275824D01*
X42569969Y40430031D01*
X42724176Y40610584D01*
X42848240Y40813037D01*
X42939105Y41032406D01*
X42994535Y41263289D01*
X43013165Y41500000D01*
X42994535Y41736711D01*
X42939105Y41967594D01*
X42939104Y41967597D01*
X42939104Y41967598D01*
X42848242Y42186960D01*
X42848240Y42186963D01*
X42724179Y42389411D01*
X42724178Y42389414D01*
X42689340Y42430203D01*
X42569969Y42569969D01*
X42433527Y42686502D01*
X42389413Y42724179D01*
X42389410Y42724180D01*
X42186962Y42848241D01*
X42186959Y42848243D01*
X41967596Y42939105D01*
X41736714Y42994535D01*
X41500000Y43013165D01*
X41263285Y42994535D01*
X41032404Y42939105D01*
X41032402Y42939105D01*
X40813040Y42848243D01*
X40813037Y42848241D01*
X40610589Y42724180D01*
X40610586Y42724179D01*
X40430031Y42569969D01*
X40275821Y42389414D01*
X40275820Y42389411D01*
X40151759Y42186963D01*
X40151757Y42186960D01*
X40060895Y41967598D01*
X40060895Y41967596D01*
X40005465Y41736715D01*
X39986835Y41500000D01*
X36513165Y41500000D01*
X36494535Y41736711D01*
X36439105Y41967594D01*
X36439104Y41967597D01*
X36439104Y41967598D01*
X36348242Y42186960D01*
X36348240Y42186963D01*
X36224179Y42389411D01*
X36224178Y42389414D01*
X36189340Y42430203D01*
X36069969Y42569969D01*
X35933527Y42686502D01*
X35889413Y42724179D01*
X35889410Y42724180D01*
X35686962Y42848241D01*
X35686959Y42848243D01*
X35467596Y42939105D01*
X35236714Y42994535D01*
X35000000Y43013165D01*
X34763285Y42994535D01*
X34532404Y42939105D01*
X34532402Y42939105D01*
X34313040Y42848243D01*
X34313037Y42848241D01*
X34110589Y42724180D01*
X34110586Y42724179D01*
X33930031Y42569969D01*
X33775821Y42389414D01*
X33775820Y42389411D01*
X33651759Y42186963D01*
X33651757Y42186960D01*
X33560895Y41967598D01*
X33560895Y41967596D01*
X33505465Y41736715D01*
X33486835Y41500000D01*
X75500Y41500000D01*
X75500Y43999999D01*
X7806502Y43999999D01*
X7826456Y43771919D01*
X7826457Y43771911D01*
X7885714Y43550762D01*
X7885718Y43550751D01*
X7982475Y43343255D01*
X7982477Y43343251D01*
X8113802Y43155700D01*
X8275700Y42993802D01*
X8463251Y42862477D01*
X8493783Y42848240D01*
X8670750Y42765719D01*
X8670752Y42765719D01*
X8670757Y42765716D01*
X8891913Y42706457D01*
X9054832Y42692204D01*
X9119998Y42686502D01*
X9120000Y42686502D01*
X9120002Y42686502D01*
X9177021Y42691491D01*
X9348087Y42706457D01*
X9569243Y42765716D01*
X9776749Y42862477D01*
X9964300Y42993802D01*
X10126198Y43155700D01*
X10257523Y43343251D01*
X10354284Y43550757D01*
X10413543Y43771913D01*
X10433498Y43999999D01*
X17966502Y43999999D01*
X17986456Y43771919D01*
X17986457Y43771911D01*
X18045714Y43550762D01*
X18045718Y43550751D01*
X18142475Y43343255D01*
X18142477Y43343251D01*
X18273802Y43155700D01*
X18435700Y42993802D01*
X18623251Y42862477D01*
X18653783Y42848240D01*
X18830750Y42765719D01*
X18830752Y42765719D01*
X18830757Y42765716D01*
X19051913Y42706457D01*
X19214832Y42692204D01*
X19279998Y42686502D01*
X19280000Y42686502D01*
X19280002Y42686502D01*
X19337021Y42691491D01*
X19508087Y42706457D01*
X19729243Y42765716D01*
X19936749Y42862477D01*
X20124300Y42993802D01*
X20231844Y43101346D01*
X25141500Y43101346D01*
X25148011Y43040798D01*
X25148011Y43040796D01*
X25185941Y42939105D01*
X25199111Y42903796D01*
X25286739Y42786739D01*
X25403796Y42699111D01*
X25540799Y42648011D01*
X25568050Y42645082D01*
X25601345Y42641501D01*
X25601362Y42641500D01*
X27398638Y42641500D01*
X27398654Y42641501D01*
X27425692Y42644409D01*
X27459201Y42648011D01*
X27596204Y42699111D01*
X27713261Y42786739D01*
X27800889Y42903796D01*
X27851989Y43040799D01*
X27855591Y43074308D01*
X27858499Y43101346D01*
X27858500Y43101363D01*
X27858500Y44898638D01*
X27858499Y44898655D01*
X27853771Y44942621D01*
X27851989Y44959201D01*
X27835967Y45002156D01*
X27829522Y45019436D01*
X27800889Y45096204D01*
X27713261Y45213261D01*
X27596204Y45300889D01*
X27459203Y45351989D01*
X27398654Y45358500D01*
X27398638Y45358500D01*
X25601362Y45358500D01*
X25601345Y45358500D01*
X25540797Y45351989D01*
X25540795Y45351989D01*
X25403795Y45300889D01*
X25286739Y45213261D01*
X25199111Y45096205D01*
X25148011Y44959205D01*
X25148011Y44959203D01*
X25141500Y44898655D01*
X25141500Y43101346D01*
X20231844Y43101346D01*
X20286198Y43155700D01*
X20417523Y43343251D01*
X20514284Y43550757D01*
X20573543Y43771913D01*
X20593498Y44000000D01*
X20573543Y44228087D01*
X20514284Y44449243D01*
X20417523Y44656749D01*
X20286198Y44844300D01*
X20124300Y45006198D01*
X19936749Y45137523D01*
X19936745Y45137525D01*
X19729249Y45234282D01*
X19729238Y45234286D01*
X19508089Y45293543D01*
X19508081Y45293544D01*
X19280002Y45313498D01*
X19279998Y45313498D01*
X19051918Y45293544D01*
X19051910Y45293543D01*
X18830761Y45234286D01*
X18830750Y45234282D01*
X18623254Y45137525D01*
X18623252Y45137524D01*
X18552856Y45088233D01*
X18435700Y45006198D01*
X18435698Y45006197D01*
X18435695Y45006194D01*
X18273806Y44844305D01*
X18273803Y44844302D01*
X18273802Y44844300D01*
X18223120Y44771919D01*
X18142476Y44656748D01*
X18142475Y44656746D01*
X18045718Y44449250D01*
X18045714Y44449239D01*
X17986457Y44228090D01*
X17986456Y44228082D01*
X17966502Y44000002D01*
X17966502Y43999999D01*
X10433498Y43999999D01*
X10433498Y44000000D01*
X10413543Y44228087D01*
X10354284Y44449243D01*
X10257523Y44656749D01*
X10126198Y44844300D01*
X9964300Y45006198D01*
X9776749Y45137523D01*
X9776745Y45137525D01*
X9569249Y45234282D01*
X9569238Y45234286D01*
X9348089Y45293543D01*
X9348081Y45293544D01*
X9120002Y45313498D01*
X9119998Y45313498D01*
X8891918Y45293544D01*
X8891910Y45293543D01*
X8670761Y45234286D01*
X8670750Y45234282D01*
X8463254Y45137525D01*
X8463252Y45137524D01*
X8392856Y45088233D01*
X8275700Y45006198D01*
X8275698Y45006197D01*
X8275695Y45006194D01*
X8113806Y44844305D01*
X8113803Y44844302D01*
X8113802Y44844300D01*
X8063120Y44771919D01*
X7982476Y44656748D01*
X7982475Y44656746D01*
X7885718Y44449250D01*
X7885714Y44449239D01*
X7826457Y44228090D01*
X7826456Y44228082D01*
X7806502Y44000002D01*
X7806502Y43999999D01*
X75500Y43999999D01*
X75500Y45002156D01*
X4050000Y45002156D01*
X4056401Y44942628D01*
X4056403Y44942621D01*
X4106645Y44807914D01*
X4106649Y44807907D01*
X4192809Y44692813D01*
X4192812Y44692810D01*
X4307906Y44606650D01*
X4307913Y44606646D01*
X4442620Y44556404D01*
X4442627Y44556402D01*
X4502155Y44550001D01*
X4502172Y44550000D01*
X5150000Y44550000D01*
X5150000Y45466988D01*
X5207007Y45434075D01*
X5334174Y45400000D01*
X5465826Y45400000D01*
X5592993Y45434075D01*
X5650000Y45466988D01*
X5650000Y44550000D01*
X6297828Y44550000D01*
X6297844Y44550001D01*
X6357372Y44556402D01*
X6357379Y44556404D01*
X6492086Y44606646D01*
X6492093Y44606650D01*
X6607187Y44692810D01*
X6607190Y44692813D01*
X6693350Y44807907D01*
X6693354Y44807914D01*
X6743596Y44942621D01*
X6743598Y44942628D01*
X6749999Y45002156D01*
X6750000Y45002173D01*
X6750000Y45650000D01*
X5833012Y45650000D01*
X5865925Y45707007D01*
X5900000Y45834174D01*
X5900000Y45965826D01*
X5890844Y45999995D01*
X33494859Y45999995D01*
X33515385Y45752271D01*
X33515387Y45752262D01*
X33576412Y45511283D01*
X33676266Y45283636D01*
X33776564Y45130118D01*
X34476212Y45829766D01*
X34487482Y45787708D01*
X34559890Y45662292D01*
X34662292Y45559890D01*
X34787708Y45487482D01*
X34829765Y45476213D01*
X34129942Y44776391D01*
X34176768Y44739945D01*
X34176770Y44739944D01*
X34395385Y44621636D01*
X34395396Y44621631D01*
X34630506Y44540917D01*
X34875707Y44500000D01*
X35124293Y44500000D01*
X35369493Y44540917D01*
X35604603Y44621631D01*
X35604614Y44621636D01*
X35823228Y44739943D01*
X35823231Y44739945D01*
X35870056Y44776391D01*
X35170234Y45476213D01*
X35212292Y45487482D01*
X35337708Y45559890D01*
X35440110Y45662292D01*
X35512518Y45787708D01*
X35523787Y45829765D01*
X36223434Y45130118D01*
X36323731Y45283631D01*
X36423587Y45511283D01*
X36484612Y45752262D01*
X36484614Y45752271D01*
X36505141Y45999995D01*
X39994859Y45999995D01*
X40015385Y45752271D01*
X40015387Y45752262D01*
X40076412Y45511283D01*
X40176266Y45283636D01*
X40276564Y45130118D01*
X40976212Y45829766D01*
X40987482Y45787708D01*
X41059890Y45662292D01*
X41162292Y45559890D01*
X41287708Y45487482D01*
X41329765Y45476213D01*
X40629942Y44776391D01*
X40676768Y44739945D01*
X40676770Y44739944D01*
X40895385Y44621636D01*
X40895396Y44621631D01*
X41130506Y44540917D01*
X41375707Y44500000D01*
X41624293Y44500000D01*
X41869493Y44540917D01*
X42104603Y44621631D01*
X42104614Y44621636D01*
X42323228Y44739943D01*
X42323231Y44739945D01*
X42370056Y44776391D01*
X42146448Y44999999D01*
X46686502Y44999999D01*
X46706456Y44771919D01*
X46706457Y44771911D01*
X46765714Y44550762D01*
X46765718Y44550751D01*
X46770304Y44540917D01*
X46862477Y44343251D01*
X46993802Y44155700D01*
X47155700Y43993802D01*
X47343251Y43862477D01*
X47468091Y43804264D01*
X47550750Y43765719D01*
X47550752Y43765719D01*
X47550757Y43765716D01*
X47771913Y43706457D01*
X47934832Y43692204D01*
X47999998Y43686502D01*
X48000000Y43686502D01*
X48000002Y43686502D01*
X48057021Y43691491D01*
X48228087Y43706457D01*
X48449243Y43765716D01*
X48656749Y43862477D01*
X48844300Y43993802D01*
X49006198Y44155700D01*
X49137523Y44343251D01*
X49234284Y44550757D01*
X49293543Y44771913D01*
X49313498Y44999999D01*
X50686502Y44999999D01*
X50706456Y44771919D01*
X50706457Y44771911D01*
X50765714Y44550762D01*
X50765718Y44550751D01*
X50770304Y44540917D01*
X50862477Y44343251D01*
X50993802Y44155700D01*
X51155700Y43993802D01*
X51343251Y43862477D01*
X51468091Y43804264D01*
X51550750Y43765719D01*
X51550752Y43765719D01*
X51550757Y43765716D01*
X51771913Y43706457D01*
X51934832Y43692204D01*
X51999998Y43686502D01*
X52000000Y43686502D01*
X52000002Y43686502D01*
X52057021Y43691491D01*
X52228087Y43706457D01*
X52449243Y43765716D01*
X52656749Y43862477D01*
X52844300Y43993802D01*
X53006198Y44155700D01*
X53137523Y44343251D01*
X53234284Y44550757D01*
X53293543Y44771913D01*
X53313498Y44999999D01*
X54686502Y44999999D01*
X54706456Y44771919D01*
X54706457Y44771911D01*
X54765714Y44550762D01*
X54765718Y44550751D01*
X54770304Y44540917D01*
X54862477Y44343251D01*
X54993802Y44155700D01*
X55155700Y43993802D01*
X55343251Y43862477D01*
X55468091Y43804264D01*
X55550750Y43765719D01*
X55550752Y43765719D01*
X55550757Y43765716D01*
X55771913Y43706457D01*
X55934832Y43692204D01*
X55999998Y43686502D01*
X56000000Y43686502D01*
X56000002Y43686502D01*
X56057021Y43691491D01*
X56228087Y43706457D01*
X56449243Y43765716D01*
X56656749Y43862477D01*
X56844300Y43993802D01*
X57006198Y44155700D01*
X57137523Y44343251D01*
X57234284Y44550757D01*
X57293543Y44771913D01*
X57313498Y44999999D01*
X58686502Y44999999D01*
X58706456Y44771919D01*
X58706457Y44771911D01*
X58765714Y44550762D01*
X58765718Y44550751D01*
X58770304Y44540917D01*
X58862477Y44343251D01*
X58993802Y44155700D01*
X59155700Y43993802D01*
X59343251Y43862477D01*
X59468091Y43804264D01*
X59550750Y43765719D01*
X59550752Y43765719D01*
X59550757Y43765716D01*
X59771913Y43706457D01*
X59934832Y43692204D01*
X59999998Y43686502D01*
X60000000Y43686502D01*
X60000002Y43686502D01*
X60057021Y43691491D01*
X60228087Y43706457D01*
X60449243Y43765716D01*
X60656749Y43862477D01*
X60844300Y43993802D01*
X61006198Y44155700D01*
X61137523Y44343251D01*
X61234284Y44550757D01*
X61293543Y44771913D01*
X61313498Y45000000D01*
X61313309Y45002156D01*
X61293543Y45228082D01*
X61293543Y45228087D01*
X61234284Y45449243D01*
X61205354Y45511283D01*
X61137524Y45656746D01*
X61137523Y45656748D01*
X61137523Y45656749D01*
X61006198Y45844300D01*
X60844300Y46006198D01*
X60656749Y46137523D01*
X60629992Y46150000D01*
X60449249Y46234282D01*
X60449238Y46234286D01*
X60228089Y46293543D01*
X60228081Y46293544D01*
X60000002Y46313498D01*
X59999998Y46313498D01*
X59771918Y46293544D01*
X59771910Y46293543D01*
X59550761Y46234286D01*
X59550750Y46234282D01*
X59343254Y46137525D01*
X59343252Y46137524D01*
X59343251Y46137523D01*
X59155700Y46006198D01*
X59155698Y46006197D01*
X59155695Y46006194D01*
X58993806Y45844305D01*
X58993803Y45844302D01*
X58993802Y45844300D01*
X58929356Y45752262D01*
X58862476Y45656748D01*
X58862475Y45656746D01*
X58765718Y45449250D01*
X58765714Y45449239D01*
X58706457Y45228090D01*
X58706456Y45228082D01*
X58686502Y45000002D01*
X58686502Y44999999D01*
X57313498Y44999999D01*
X57313498Y45000000D01*
X57313309Y45002156D01*
X57293543Y45228082D01*
X57293543Y45228087D01*
X57234284Y45449243D01*
X57205354Y45511283D01*
X57137524Y45656746D01*
X57137523Y45656748D01*
X57137523Y45656749D01*
X57006198Y45844300D01*
X56844300Y46006198D01*
X56656749Y46137523D01*
X56629992Y46150000D01*
X56449249Y46234282D01*
X56449238Y46234286D01*
X56228089Y46293543D01*
X56228081Y46293544D01*
X56000002Y46313498D01*
X55999998Y46313498D01*
X55771918Y46293544D01*
X55771910Y46293543D01*
X55550761Y46234286D01*
X55550750Y46234282D01*
X55343254Y46137525D01*
X55343252Y46137524D01*
X55343251Y46137523D01*
X55155700Y46006198D01*
X55155698Y46006197D01*
X55155695Y46006194D01*
X54993806Y45844305D01*
X54993803Y45844302D01*
X54993802Y45844300D01*
X54929356Y45752262D01*
X54862476Y45656748D01*
X54862475Y45656746D01*
X54765718Y45449250D01*
X54765714Y45449239D01*
X54706457Y45228090D01*
X54706456Y45228082D01*
X54686502Y45000002D01*
X54686502Y44999999D01*
X53313498Y44999999D01*
X53313498Y45000000D01*
X53313309Y45002156D01*
X53293543Y45228082D01*
X53293543Y45228087D01*
X53234284Y45449243D01*
X53205354Y45511283D01*
X53137524Y45656746D01*
X53137523Y45656748D01*
X53137523Y45656749D01*
X53006198Y45844300D01*
X52844300Y46006198D01*
X52656749Y46137523D01*
X52629992Y46150000D01*
X52449249Y46234282D01*
X52449238Y46234286D01*
X52228089Y46293543D01*
X52228081Y46293544D01*
X52000002Y46313498D01*
X51999998Y46313498D01*
X51771918Y46293544D01*
X51771910Y46293543D01*
X51550761Y46234286D01*
X51550750Y46234282D01*
X51343254Y46137525D01*
X51343252Y46137524D01*
X51343251Y46137523D01*
X51155700Y46006198D01*
X51155698Y46006197D01*
X51155695Y46006194D01*
X50993806Y45844305D01*
X50993803Y45844302D01*
X50993802Y45844300D01*
X50929356Y45752262D01*
X50862476Y45656748D01*
X50862475Y45656746D01*
X50765718Y45449250D01*
X50765714Y45449239D01*
X50706457Y45228090D01*
X50706456Y45228082D01*
X50686502Y45000002D01*
X50686502Y44999999D01*
X49313498Y44999999D01*
X49313498Y45000000D01*
X49313309Y45002156D01*
X49293543Y45228082D01*
X49293543Y45228087D01*
X49234284Y45449243D01*
X49205354Y45511283D01*
X49137524Y45656746D01*
X49137523Y45656748D01*
X49137523Y45656749D01*
X49006198Y45844300D01*
X48844300Y46006198D01*
X48656749Y46137523D01*
X48629992Y46150000D01*
X48449249Y46234282D01*
X48449238Y46234286D01*
X48228089Y46293543D01*
X48228081Y46293544D01*
X48000002Y46313498D01*
X47999998Y46313498D01*
X47771918Y46293544D01*
X47771910Y46293543D01*
X47550761Y46234286D01*
X47550750Y46234282D01*
X47343254Y46137525D01*
X47343252Y46137524D01*
X47343251Y46137523D01*
X47155700Y46006198D01*
X47155698Y46006197D01*
X47155695Y46006194D01*
X46993806Y45844305D01*
X46993803Y45844302D01*
X46993802Y45844300D01*
X46929356Y45752262D01*
X46862476Y45656748D01*
X46862475Y45656746D01*
X46765718Y45449250D01*
X46765714Y45449239D01*
X46706457Y45228090D01*
X46706456Y45228082D01*
X46686502Y45000002D01*
X46686502Y44999999D01*
X42146448Y44999999D01*
X41670234Y45476213D01*
X41712292Y45487482D01*
X41837708Y45559890D01*
X41940110Y45662292D01*
X42012518Y45787708D01*
X42023787Y45829765D01*
X42723434Y45130118D01*
X42823731Y45283631D01*
X42923587Y45511283D01*
X42984612Y45752262D01*
X42984614Y45752271D01*
X43005141Y45999995D01*
X43005141Y46000006D01*
X42984614Y46247730D01*
X42984612Y46247739D01*
X42923587Y46488718D01*
X42823731Y46716370D01*
X42723434Y46869884D01*
X42023787Y46170236D01*
X42012518Y46212292D01*
X41940110Y46337708D01*
X41837708Y46440110D01*
X41712292Y46512518D01*
X41670235Y46523788D01*
X42370057Y47223610D01*
X42370056Y47223611D01*
X42323229Y47260057D01*
X42104614Y47378365D01*
X42104603Y47378370D01*
X41869493Y47459084D01*
X41624293Y47500000D01*
X41375707Y47500000D01*
X41130506Y47459084D01*
X40895396Y47378370D01*
X40895390Y47378368D01*
X40676761Y47260051D01*
X40629942Y47223612D01*
X40629942Y47223610D01*
X41329765Y46523788D01*
X41287708Y46512518D01*
X41162292Y46440110D01*
X41059890Y46337708D01*
X40987482Y46212292D01*
X40976212Y46170236D01*
X40276564Y46869884D01*
X40176267Y46716368D01*
X40076412Y46488718D01*
X40015387Y46247739D01*
X40015385Y46247730D01*
X39994859Y46000006D01*
X39994859Y45999995D01*
X36505141Y45999995D01*
X36505141Y46000006D01*
X36484614Y46247730D01*
X36484612Y46247739D01*
X36423587Y46488718D01*
X36323731Y46716370D01*
X36223434Y46869884D01*
X35523787Y46170236D01*
X35512518Y46212292D01*
X35440110Y46337708D01*
X35337708Y46440110D01*
X35212292Y46512518D01*
X35170235Y46523788D01*
X35870057Y47223610D01*
X35870056Y47223611D01*
X35823229Y47260057D01*
X35604614Y47378365D01*
X35604603Y47378370D01*
X35369493Y47459084D01*
X35124293Y47500000D01*
X34875707Y47500000D01*
X34630506Y47459084D01*
X34395396Y47378370D01*
X34395390Y47378368D01*
X34176761Y47260051D01*
X34129942Y47223612D01*
X34129942Y47223610D01*
X34829765Y46523788D01*
X34787708Y46512518D01*
X34662292Y46440110D01*
X34559890Y46337708D01*
X34487482Y46212292D01*
X34476212Y46170236D01*
X33776564Y46869884D01*
X33676267Y46716368D01*
X33576412Y46488718D01*
X33515387Y46247739D01*
X33515385Y46247730D01*
X33494859Y46000006D01*
X33494859Y45999995D01*
X5890844Y45999995D01*
X5865925Y46092993D01*
X5833012Y46150000D01*
X6750000Y46150000D01*
X6750000Y46797828D01*
X6749999Y46797845D01*
X6743598Y46857373D01*
X6743596Y46857380D01*
X6693354Y46992087D01*
X6693350Y46992094D01*
X6607190Y47107188D01*
X6607187Y47107191D01*
X6492093Y47193351D01*
X6492086Y47193355D01*
X6357379Y47243597D01*
X6357372Y47243599D01*
X6297844Y47250000D01*
X5650000Y47250000D01*
X5650000Y46333012D01*
X5592993Y46365925D01*
X5465826Y46400000D01*
X5334174Y46400000D01*
X5207007Y46365925D01*
X5150000Y46333012D01*
X5150000Y47250000D01*
X4502155Y47250000D01*
X4442627Y47243599D01*
X4442620Y47243597D01*
X4307913Y47193355D01*
X4307906Y47193351D01*
X4192812Y47107191D01*
X4192809Y47107188D01*
X4106649Y46992094D01*
X4106645Y46992087D01*
X4056403Y46857380D01*
X4056401Y46857373D01*
X4050000Y46797845D01*
X4050000Y46150000D01*
X4966988Y46150000D01*
X4934075Y46092993D01*
X4900000Y45965826D01*
X4900000Y45834174D01*
X4934075Y45707007D01*
X4966988Y45650000D01*
X4050000Y45650000D01*
X4050000Y45002156D01*
X75500Y45002156D01*
X75500Y49901346D01*
X17437500Y49901346D01*
X17444011Y49840798D01*
X17444011Y49840796D01*
X17495111Y49703796D01*
X17582739Y49586739D01*
X17699796Y49499111D01*
X17836799Y49448011D01*
X17864050Y49445082D01*
X17897345Y49441501D01*
X17897362Y49441500D01*
X19694638Y49441500D01*
X19694654Y49441501D01*
X19721692Y49444409D01*
X19755201Y49448011D01*
X19892204Y49499111D01*
X20009261Y49586739D01*
X20096889Y49703796D01*
X20142138Y49825113D01*
X20184009Y49881044D01*
X20249474Y49905461D01*
X20317746Y49890609D01*
X20349545Y49865764D01*
X20412760Y49797094D01*
X20590424Y49658811D01*
X20590425Y49658811D01*
X20590427Y49658809D01*
X20650314Y49626400D01*
X20788426Y49551658D01*
X21001365Y49478556D01*
X21223431Y49441500D01*
X21448569Y49441500D01*
X21670635Y49478556D01*
X21883574Y49551658D01*
X22081576Y49658811D01*
X22259240Y49797094D01*
X22380594Y49928918D01*
X22411715Y49962724D01*
X22411715Y49962725D01*
X22411722Y49962732D01*
X22502193Y50101210D01*
X22555338Y50146563D01*
X22624569Y50155987D01*
X22687905Y50126485D01*
X22709804Y50101213D01*
X22800278Y49962732D01*
X22800283Y49962727D01*
X22800284Y49962724D01*
X22926968Y49825111D01*
X22952760Y49797094D01*
X23130424Y49658811D01*
X23130425Y49658811D01*
X23130427Y49658809D01*
X23190314Y49626400D01*
X23328426Y49551658D01*
X23541365Y49478556D01*
X23763431Y49441500D01*
X23988569Y49441500D01*
X24210635Y49478556D01*
X24423574Y49551658D01*
X24621576Y49658811D01*
X24799240Y49797094D01*
X24920594Y49928918D01*
X24951715Y49962724D01*
X24951715Y49962725D01*
X24951722Y49962732D01*
X25045749Y50106653D01*
X25098894Y50152006D01*
X25168125Y50161430D01*
X25231461Y50131928D01*
X25251130Y50109952D01*
X25377890Y49928922D01*
X25544917Y49761895D01*
X25738421Y49626400D01*
X25952507Y49526571D01*
X25952516Y49526567D01*
X26166000Y49469366D01*
X26166000Y50366988D01*
X26223007Y50334075D01*
X26350174Y50300000D01*
X26481826Y50300000D01*
X26608993Y50334075D01*
X26666000Y50366988D01*
X26666000Y49469367D01*
X26879483Y49526567D01*
X26879492Y49526571D01*
X27093578Y49626400D01*
X27287082Y49761895D01*
X27454105Y49928918D01*
X27580868Y50109952D01*
X27635445Y50153577D01*
X27704944Y50160769D01*
X27767298Y50129247D01*
X27786251Y50106650D01*
X27880276Y49962735D01*
X27880284Y49962724D01*
X28006968Y49825111D01*
X28032760Y49797094D01*
X28210424Y49658811D01*
X28210425Y49658811D01*
X28210427Y49658809D01*
X28270314Y49626400D01*
X28408426Y49551658D01*
X28621365Y49478556D01*
X28843431Y49441500D01*
X29068569Y49441500D01*
X29290635Y49478556D01*
X29503574Y49551658D01*
X29701576Y49658811D01*
X29879240Y49797094D01*
X30000594Y49928918D01*
X30031715Y49962724D01*
X30031715Y49962725D01*
X30031722Y49962732D01*
X30122193Y50101210D01*
X30175338Y50146563D01*
X30244569Y50155987D01*
X30307905Y50126485D01*
X30329804Y50101213D01*
X30420278Y49962732D01*
X30420283Y49962727D01*
X30420284Y49962724D01*
X30546968Y49825111D01*
X30572760Y49797094D01*
X30750424Y49658811D01*
X30750425Y49658811D01*
X30750427Y49658809D01*
X30810314Y49626400D01*
X30948426Y49551658D01*
X31161365Y49478556D01*
X31383431Y49441500D01*
X31608569Y49441500D01*
X31830635Y49478556D01*
X32043574Y49551658D01*
X32241576Y49658811D01*
X32419240Y49797094D01*
X32540594Y49928918D01*
X32571715Y49962724D01*
X32571715Y49962725D01*
X32571722Y49962732D01*
X32662193Y50101210D01*
X32715338Y50146563D01*
X32784569Y50155987D01*
X32847905Y50126485D01*
X32869804Y50101213D01*
X32960278Y49962732D01*
X32960283Y49962727D01*
X32960284Y49962724D01*
X33086968Y49825111D01*
X33112760Y49797094D01*
X33290424Y49658811D01*
X33290425Y49658811D01*
X33290427Y49658809D01*
X33350314Y49626400D01*
X33488426Y49551658D01*
X33701365Y49478556D01*
X33923431Y49441500D01*
X34148569Y49441500D01*
X34370635Y49478556D01*
X34583574Y49551658D01*
X34781576Y49658811D01*
X34959240Y49797094D01*
X35080594Y49928918D01*
X35111715Y49962724D01*
X35111715Y49962725D01*
X35111722Y49962732D01*
X35202193Y50101210D01*
X35255338Y50146563D01*
X35324569Y50155987D01*
X35387905Y50126485D01*
X35409804Y50101213D01*
X35500278Y49962732D01*
X35500283Y49962727D01*
X35500284Y49962724D01*
X35626968Y49825111D01*
X35652760Y49797094D01*
X35830424Y49658811D01*
X35830425Y49658811D01*
X35830427Y49658809D01*
X35890314Y49626400D01*
X36028426Y49551658D01*
X36241365Y49478556D01*
X36463431Y49441500D01*
X36688569Y49441500D01*
X36910635Y49478556D01*
X37123574Y49551658D01*
X37321576Y49658811D01*
X37499240Y49797094D01*
X37620594Y49928918D01*
X37651715Y49962724D01*
X37651715Y49962725D01*
X37651722Y49962732D01*
X37742193Y50101210D01*
X37795338Y50146563D01*
X37864569Y50155987D01*
X37927905Y50126485D01*
X37949804Y50101213D01*
X38040278Y49962732D01*
X38040283Y49962727D01*
X38040284Y49962724D01*
X38166968Y49825111D01*
X38192760Y49797094D01*
X38370424Y49658811D01*
X38370425Y49658811D01*
X38370427Y49658809D01*
X38430314Y49626400D01*
X38568426Y49551658D01*
X38781365Y49478556D01*
X39003431Y49441500D01*
X39228569Y49441500D01*
X39450635Y49478556D01*
X39663574Y49551658D01*
X39861576Y49658811D01*
X40039240Y49797094D01*
X40160594Y49928918D01*
X40191715Y49962724D01*
X40191715Y49962725D01*
X40191722Y49962732D01*
X40282193Y50101210D01*
X40335338Y50146563D01*
X40404569Y50155987D01*
X40467905Y50126485D01*
X40489804Y50101213D01*
X40580278Y49962732D01*
X40580283Y49962727D01*
X40580284Y49962724D01*
X40706968Y49825111D01*
X40732760Y49797094D01*
X40910424Y49658811D01*
X40910425Y49658811D01*
X40910427Y49658809D01*
X40970314Y49626400D01*
X41108426Y49551658D01*
X41321365Y49478556D01*
X41543431Y49441500D01*
X41768569Y49441500D01*
X41990635Y49478556D01*
X42203574Y49551658D01*
X42401576Y49658811D01*
X42579240Y49797094D01*
X42675212Y49901346D01*
X44361500Y49901346D01*
X44368011Y49840798D01*
X44368011Y49840796D01*
X44419111Y49703796D01*
X44506739Y49586739D01*
X44623796Y49499111D01*
X44760799Y49448011D01*
X44788050Y49445082D01*
X44821345Y49441501D01*
X44821362Y49441500D01*
X46618638Y49441500D01*
X46618654Y49441501D01*
X46645692Y49444409D01*
X46679201Y49448011D01*
X46816204Y49499111D01*
X46933261Y49586739D01*
X47020889Y49703796D01*
X47066138Y49825113D01*
X47108009Y49881044D01*
X47173474Y49905461D01*
X47241746Y49890609D01*
X47273545Y49865764D01*
X47336760Y49797094D01*
X47514424Y49658811D01*
X47514425Y49658811D01*
X47514427Y49658809D01*
X47574314Y49626400D01*
X47712426Y49551658D01*
X47925365Y49478556D01*
X48147431Y49441500D01*
X48372569Y49441500D01*
X48594635Y49478556D01*
X48807574Y49551658D01*
X49005576Y49658811D01*
X49183240Y49797094D01*
X49304594Y49928918D01*
X49335715Y49962724D01*
X49335715Y49962725D01*
X49335722Y49962732D01*
X49426193Y50101210D01*
X49479338Y50146563D01*
X49548569Y50155987D01*
X49611905Y50126485D01*
X49633804Y50101213D01*
X49724278Y49962732D01*
X49724283Y49962727D01*
X49724284Y49962724D01*
X49850968Y49825111D01*
X49876760Y49797094D01*
X50054424Y49658811D01*
X50054425Y49658811D01*
X50054427Y49658809D01*
X50114314Y49626400D01*
X50252426Y49551658D01*
X50465365Y49478556D01*
X50687431Y49441500D01*
X50912569Y49441500D01*
X51134635Y49478556D01*
X51347574Y49551658D01*
X51545576Y49658811D01*
X51723240Y49797094D01*
X51844594Y49928918D01*
X51875715Y49962724D01*
X51875715Y49962725D01*
X51875722Y49962732D01*
X51966193Y50101210D01*
X52019338Y50146563D01*
X52088569Y50155987D01*
X52151905Y50126485D01*
X52173804Y50101213D01*
X52264278Y49962732D01*
X52264283Y49962727D01*
X52264284Y49962724D01*
X52390968Y49825111D01*
X52416760Y49797094D01*
X52594424Y49658811D01*
X52594425Y49658811D01*
X52594427Y49658809D01*
X52654314Y49626400D01*
X52792426Y49551658D01*
X53005365Y49478556D01*
X53227431Y49441500D01*
X53452569Y49441500D01*
X53674635Y49478556D01*
X53887574Y49551658D01*
X54085576Y49658811D01*
X54263240Y49797094D01*
X54384594Y49928918D01*
X54415715Y49962724D01*
X54415715Y49962725D01*
X54415722Y49962732D01*
X54506193Y50101210D01*
X54559338Y50146563D01*
X54628569Y50155987D01*
X54691905Y50126485D01*
X54713804Y50101213D01*
X54804278Y49962732D01*
X54804283Y49962727D01*
X54804284Y49962724D01*
X54930968Y49825111D01*
X54956760Y49797094D01*
X55134424Y49658811D01*
X55134425Y49658811D01*
X55134427Y49658809D01*
X55194314Y49626400D01*
X55332426Y49551658D01*
X55545365Y49478556D01*
X55767431Y49441500D01*
X55992569Y49441500D01*
X56214635Y49478556D01*
X56427574Y49551658D01*
X56625576Y49658811D01*
X56803240Y49797094D01*
X56924594Y49928918D01*
X56955715Y49962724D01*
X56955715Y49962725D01*
X56955722Y49962732D01*
X57046193Y50101210D01*
X57099338Y50146563D01*
X57168569Y50155987D01*
X57231905Y50126485D01*
X57253804Y50101213D01*
X57344278Y49962732D01*
X57344283Y49962727D01*
X57344284Y49962724D01*
X57470968Y49825111D01*
X57496760Y49797094D01*
X57674424Y49658811D01*
X57674425Y49658811D01*
X57674427Y49658809D01*
X57734314Y49626400D01*
X57872426Y49551658D01*
X58085365Y49478556D01*
X58307431Y49441500D01*
X58532569Y49441500D01*
X58754635Y49478556D01*
X58967574Y49551658D01*
X59165576Y49658811D01*
X59343240Y49797094D01*
X59464594Y49928918D01*
X59495715Y49962724D01*
X59495715Y49962725D01*
X59495722Y49962732D01*
X59586193Y50101210D01*
X59639338Y50146563D01*
X59708569Y50155987D01*
X59771905Y50126485D01*
X59793804Y50101213D01*
X59884278Y49962732D01*
X59884283Y49962727D01*
X59884284Y49962724D01*
X60010968Y49825111D01*
X60036760Y49797094D01*
X60214424Y49658811D01*
X60214425Y49658811D01*
X60214427Y49658809D01*
X60274314Y49626400D01*
X60412426Y49551658D01*
X60625365Y49478556D01*
X60847431Y49441500D01*
X61072569Y49441500D01*
X61294635Y49478556D01*
X61507574Y49551658D01*
X61705576Y49658811D01*
X61883240Y49797094D01*
X62004594Y49928918D01*
X62035715Y49962724D01*
X62035715Y49962725D01*
X62035722Y49962732D01*
X62126193Y50101210D01*
X62179338Y50146563D01*
X62248569Y50155987D01*
X62311905Y50126485D01*
X62333804Y50101213D01*
X62424278Y49962732D01*
X62424283Y49962727D01*
X62424284Y49962724D01*
X62550968Y49825111D01*
X62576760Y49797094D01*
X62754424Y49658811D01*
X62754425Y49658811D01*
X62754427Y49658809D01*
X62814314Y49626400D01*
X62952426Y49551658D01*
X63165365Y49478556D01*
X63387431Y49441500D01*
X63612569Y49441500D01*
X63834635Y49478556D01*
X64047574Y49551658D01*
X64245576Y49658811D01*
X64423240Y49797094D01*
X64544594Y49928918D01*
X64575715Y49962724D01*
X64575717Y49962727D01*
X64575722Y49962732D01*
X64698860Y50151209D01*
X64789296Y50357384D01*
X64844564Y50575632D01*
X64856309Y50717365D01*
X64863156Y50799995D01*
X64863156Y50800006D01*
X64844565Y51024360D01*
X64844563Y51024372D01*
X64789296Y51242615D01*
X64779071Y51265925D01*
X64698860Y51448791D01*
X64682706Y51473516D01*
X64575723Y51637266D01*
X64575715Y51637277D01*
X64423243Y51802903D01*
X64423238Y51802908D01*
X64245577Y51941188D01*
X64245572Y51941192D01*
X64047580Y52048339D01*
X64047577Y52048341D01*
X64047574Y52048342D01*
X64047571Y52048343D01*
X64047569Y52048344D01*
X63834637Y52121444D01*
X63612569Y52158500D01*
X63387431Y52158500D01*
X63165362Y52121444D01*
X62952430Y52048344D01*
X62952419Y52048339D01*
X62754427Y51941192D01*
X62754422Y51941188D01*
X62576761Y51802908D01*
X62576756Y51802903D01*
X62424284Y51637277D01*
X62424276Y51637266D01*
X62333808Y51498794D01*
X62280662Y51453438D01*
X62211431Y51444014D01*
X62148095Y51473516D01*
X62126192Y51498794D01*
X62035723Y51637266D01*
X62035715Y51637277D01*
X61883243Y51802903D01*
X61883238Y51802908D01*
X61705577Y51941188D01*
X61705572Y51941192D01*
X61507580Y52048339D01*
X61507577Y52048341D01*
X61507574Y52048342D01*
X61507571Y52048343D01*
X61507569Y52048344D01*
X61294637Y52121444D01*
X61072569Y52158500D01*
X60847431Y52158500D01*
X60625362Y52121444D01*
X60412430Y52048344D01*
X60412419Y52048339D01*
X60214427Y51941192D01*
X60214422Y51941188D01*
X60036761Y51802908D01*
X60036756Y51802903D01*
X59884284Y51637277D01*
X59884276Y51637266D01*
X59793808Y51498794D01*
X59740662Y51453438D01*
X59671431Y51444014D01*
X59608095Y51473516D01*
X59586192Y51498794D01*
X59495723Y51637266D01*
X59495715Y51637277D01*
X59343243Y51802903D01*
X59343238Y51802908D01*
X59165577Y51941188D01*
X59165572Y51941192D01*
X58967580Y52048339D01*
X58967577Y52048341D01*
X58967574Y52048342D01*
X58967571Y52048343D01*
X58967569Y52048344D01*
X58754637Y52121444D01*
X58532569Y52158500D01*
X58307431Y52158500D01*
X58085362Y52121444D01*
X57872430Y52048344D01*
X57872419Y52048339D01*
X57674427Y51941192D01*
X57674422Y51941188D01*
X57496761Y51802908D01*
X57496756Y51802903D01*
X57344284Y51637277D01*
X57344276Y51637266D01*
X57253808Y51498794D01*
X57200662Y51453438D01*
X57131431Y51444014D01*
X57068095Y51473516D01*
X57046192Y51498794D01*
X56955723Y51637266D01*
X56955715Y51637277D01*
X56803243Y51802903D01*
X56803238Y51802908D01*
X56625577Y51941188D01*
X56625572Y51941192D01*
X56427580Y52048339D01*
X56427577Y52048341D01*
X56427574Y52048342D01*
X56427571Y52048343D01*
X56427569Y52048344D01*
X56214637Y52121444D01*
X55992569Y52158500D01*
X55767431Y52158500D01*
X55545362Y52121444D01*
X55332430Y52048344D01*
X55332419Y52048339D01*
X55134427Y51941192D01*
X55134422Y51941188D01*
X54956761Y51802908D01*
X54956756Y51802903D01*
X54804284Y51637277D01*
X54804276Y51637266D01*
X54713808Y51498794D01*
X54660662Y51453438D01*
X54591431Y51444014D01*
X54528095Y51473516D01*
X54506192Y51498794D01*
X54415723Y51637266D01*
X54415715Y51637277D01*
X54263243Y51802903D01*
X54263238Y51802908D01*
X54085577Y51941188D01*
X54085572Y51941192D01*
X53887580Y52048339D01*
X53887577Y52048341D01*
X53887574Y52048342D01*
X53887571Y52048343D01*
X53887569Y52048344D01*
X53674637Y52121444D01*
X53452569Y52158500D01*
X53227431Y52158500D01*
X53005362Y52121444D01*
X52792430Y52048344D01*
X52792419Y52048339D01*
X52594427Y51941192D01*
X52594422Y51941188D01*
X52416761Y51802908D01*
X52416756Y51802903D01*
X52264284Y51637277D01*
X52264276Y51637266D01*
X52173808Y51498794D01*
X52120662Y51453438D01*
X52051431Y51444014D01*
X51988095Y51473516D01*
X51966192Y51498794D01*
X51875723Y51637266D01*
X51875715Y51637277D01*
X51723243Y51802903D01*
X51723238Y51802908D01*
X51545577Y51941188D01*
X51545572Y51941192D01*
X51347580Y52048339D01*
X51347577Y52048341D01*
X51347574Y52048342D01*
X51347571Y52048343D01*
X51347569Y52048344D01*
X51134637Y52121444D01*
X50912569Y52158500D01*
X50687431Y52158500D01*
X50465362Y52121444D01*
X50252430Y52048344D01*
X50252419Y52048339D01*
X50054427Y51941192D01*
X50054422Y51941188D01*
X49876761Y51802908D01*
X49876756Y51802903D01*
X49724284Y51637277D01*
X49724276Y51637266D01*
X49633808Y51498794D01*
X49580662Y51453438D01*
X49511431Y51444014D01*
X49448095Y51473516D01*
X49426192Y51498794D01*
X49335723Y51637266D01*
X49335715Y51637277D01*
X49183243Y51802903D01*
X49183238Y51802908D01*
X49005577Y51941188D01*
X49005572Y51941192D01*
X48807580Y52048339D01*
X48807577Y52048341D01*
X48807574Y52048342D01*
X48807571Y52048343D01*
X48807569Y52048344D01*
X48594637Y52121444D01*
X48372569Y52158500D01*
X48147431Y52158500D01*
X47925362Y52121444D01*
X47712430Y52048344D01*
X47712419Y52048339D01*
X47514427Y51941192D01*
X47514422Y51941188D01*
X47336761Y51802908D01*
X47273548Y51734240D01*
X47213661Y51698250D01*
X47143823Y51700351D01*
X47086207Y51739876D01*
X47066138Y51774890D01*
X47020889Y51896204D01*
X46987214Y51941188D01*
X46933261Y52013261D01*
X46816204Y52100889D01*
X46679203Y52151989D01*
X46618654Y52158500D01*
X46618638Y52158500D01*
X44821362Y52158500D01*
X44821345Y52158500D01*
X44760797Y52151989D01*
X44760795Y52151989D01*
X44623795Y52100889D01*
X44506739Y52013261D01*
X44419111Y51896205D01*
X44368011Y51759205D01*
X44368011Y51759203D01*
X44361500Y51698655D01*
X44361500Y49901346D01*
X42675212Y49901346D01*
X42700594Y49928918D01*
X42731715Y49962724D01*
X42731717Y49962727D01*
X42731722Y49962732D01*
X42854860Y50151209D01*
X42945296Y50357384D01*
X43000564Y50575632D01*
X43012309Y50717365D01*
X43019156Y50799995D01*
X43019156Y50800006D01*
X43000565Y51024360D01*
X43000563Y51024372D01*
X42945296Y51242615D01*
X42935071Y51265925D01*
X42854860Y51448791D01*
X42838706Y51473516D01*
X42731723Y51637266D01*
X42731715Y51637277D01*
X42579243Y51802903D01*
X42579238Y51802908D01*
X42401577Y51941188D01*
X42401572Y51941192D01*
X42203580Y52048339D01*
X42203577Y52048341D01*
X42203574Y52048342D01*
X42203571Y52048343D01*
X42203569Y52048344D01*
X41990637Y52121444D01*
X41768569Y52158500D01*
X41543431Y52158500D01*
X41321362Y52121444D01*
X41108430Y52048344D01*
X41108419Y52048339D01*
X40910427Y51941192D01*
X40910422Y51941188D01*
X40732761Y51802908D01*
X40732756Y51802903D01*
X40580284Y51637277D01*
X40580276Y51637266D01*
X40489808Y51498794D01*
X40436662Y51453438D01*
X40367431Y51444014D01*
X40304095Y51473516D01*
X40282192Y51498794D01*
X40191723Y51637266D01*
X40191715Y51637277D01*
X40039243Y51802903D01*
X40039238Y51802908D01*
X39861577Y51941188D01*
X39861572Y51941192D01*
X39663580Y52048339D01*
X39663577Y52048341D01*
X39663574Y52048342D01*
X39663571Y52048343D01*
X39663569Y52048344D01*
X39450637Y52121444D01*
X39228569Y52158500D01*
X39003431Y52158500D01*
X38781362Y52121444D01*
X38568430Y52048344D01*
X38568419Y52048339D01*
X38370427Y51941192D01*
X38370422Y51941188D01*
X38192761Y51802908D01*
X38192756Y51802903D01*
X38040284Y51637277D01*
X38040276Y51637266D01*
X37949808Y51498794D01*
X37896662Y51453438D01*
X37827431Y51444014D01*
X37764095Y51473516D01*
X37742192Y51498794D01*
X37651723Y51637266D01*
X37651715Y51637277D01*
X37499243Y51802903D01*
X37499238Y51802908D01*
X37321577Y51941188D01*
X37321572Y51941192D01*
X37123580Y52048339D01*
X37123577Y52048341D01*
X37123574Y52048342D01*
X37123571Y52048343D01*
X37123569Y52048344D01*
X36910637Y52121444D01*
X36688569Y52158500D01*
X36463431Y52158500D01*
X36241362Y52121444D01*
X36028430Y52048344D01*
X36028419Y52048339D01*
X35830427Y51941192D01*
X35830422Y51941188D01*
X35652761Y51802908D01*
X35652756Y51802903D01*
X35500284Y51637277D01*
X35500276Y51637266D01*
X35409808Y51498794D01*
X35356662Y51453438D01*
X35287431Y51444014D01*
X35224095Y51473516D01*
X35202192Y51498794D01*
X35111723Y51637266D01*
X35111715Y51637277D01*
X34959243Y51802903D01*
X34959238Y51802908D01*
X34781577Y51941188D01*
X34781572Y51941192D01*
X34583580Y52048339D01*
X34583577Y52048341D01*
X34583574Y52048342D01*
X34583571Y52048343D01*
X34583569Y52048344D01*
X34370637Y52121444D01*
X34148569Y52158500D01*
X33923431Y52158500D01*
X33701362Y52121444D01*
X33488430Y52048344D01*
X33488419Y52048339D01*
X33290427Y51941192D01*
X33290422Y51941188D01*
X33112761Y51802908D01*
X33112756Y51802903D01*
X32960284Y51637277D01*
X32960276Y51637266D01*
X32869808Y51498794D01*
X32816662Y51453438D01*
X32747431Y51444014D01*
X32684095Y51473516D01*
X32662192Y51498794D01*
X32571723Y51637266D01*
X32571715Y51637277D01*
X32419243Y51802903D01*
X32419238Y51802908D01*
X32241577Y51941188D01*
X32241572Y51941192D01*
X32043580Y52048339D01*
X32043577Y52048341D01*
X32043574Y52048342D01*
X32043571Y52048343D01*
X32043569Y52048344D01*
X31830637Y52121444D01*
X31608569Y52158500D01*
X31383431Y52158500D01*
X31161362Y52121444D01*
X30948430Y52048344D01*
X30948419Y52048339D01*
X30750427Y51941192D01*
X30750422Y51941188D01*
X30572761Y51802908D01*
X30572756Y51802903D01*
X30420284Y51637277D01*
X30420276Y51637266D01*
X30329808Y51498794D01*
X30276662Y51453438D01*
X30207431Y51444014D01*
X30144095Y51473516D01*
X30122192Y51498794D01*
X30031723Y51637266D01*
X30031715Y51637277D01*
X29879243Y51802903D01*
X29879238Y51802908D01*
X29701577Y51941188D01*
X29701572Y51941192D01*
X29503580Y52048339D01*
X29503577Y52048341D01*
X29503574Y52048342D01*
X29503571Y52048343D01*
X29503569Y52048344D01*
X29290637Y52121444D01*
X29068569Y52158500D01*
X28843431Y52158500D01*
X28621362Y52121444D01*
X28408430Y52048344D01*
X28408419Y52048339D01*
X28210427Y51941192D01*
X28210422Y51941188D01*
X28032761Y51802908D01*
X28032756Y51802903D01*
X27880284Y51637277D01*
X27880276Y51637266D01*
X27786251Y51493350D01*
X27733105Y51447993D01*
X27663873Y51438570D01*
X27600538Y51468072D01*
X27580868Y51490049D01*
X27454113Y51671074D01*
X27454108Y51671080D01*
X27287082Y51838106D01*
X27093578Y51973601D01*
X26879492Y52073430D01*
X26879486Y52073433D01*
X26666000Y52130636D01*
X26666000Y51233012D01*
X26608993Y51265925D01*
X26481826Y51300000D01*
X26350174Y51300000D01*
X26223007Y51265925D01*
X26166000Y51233012D01*
X26166000Y52130636D01*
X26165999Y52130636D01*
X25952513Y52073433D01*
X25952507Y52073430D01*
X25738422Y51973601D01*
X25738420Y51973600D01*
X25544926Y51838114D01*
X25544920Y51838109D01*
X25377891Y51671080D01*
X25377890Y51671078D01*
X25251131Y51490048D01*
X25196554Y51446423D01*
X25127055Y51439231D01*
X25064701Y51470753D01*
X25045752Y51493344D01*
X24951722Y51637268D01*
X24951715Y51637275D01*
X24951715Y51637277D01*
X24799243Y51802903D01*
X24799238Y51802908D01*
X24621577Y51941188D01*
X24621572Y51941192D01*
X24423580Y52048339D01*
X24423577Y52048341D01*
X24423574Y52048342D01*
X24423571Y52048343D01*
X24423569Y52048344D01*
X24210637Y52121444D01*
X23988569Y52158500D01*
X23763431Y52158500D01*
X23541362Y52121444D01*
X23328430Y52048344D01*
X23328419Y52048339D01*
X23130427Y51941192D01*
X23130422Y51941188D01*
X22952761Y51802908D01*
X22952756Y51802903D01*
X22800284Y51637277D01*
X22800276Y51637266D01*
X22709808Y51498794D01*
X22656662Y51453438D01*
X22587431Y51444014D01*
X22524095Y51473516D01*
X22502192Y51498794D01*
X22411723Y51637266D01*
X22411715Y51637277D01*
X22259243Y51802903D01*
X22259238Y51802908D01*
X22081577Y51941188D01*
X22081572Y51941192D01*
X21883580Y52048339D01*
X21883577Y52048341D01*
X21883574Y52048342D01*
X21883571Y52048343D01*
X21883569Y52048344D01*
X21670637Y52121444D01*
X21448569Y52158500D01*
X21223431Y52158500D01*
X21001362Y52121444D01*
X20788430Y52048344D01*
X20788419Y52048339D01*
X20590427Y51941192D01*
X20590422Y51941188D01*
X20412761Y51802908D01*
X20349548Y51734240D01*
X20289661Y51698250D01*
X20219823Y51700351D01*
X20162207Y51739876D01*
X20142138Y51774890D01*
X20096889Y51896204D01*
X20063214Y51941188D01*
X20009261Y52013261D01*
X19892204Y52100889D01*
X19755203Y52151989D01*
X19694654Y52158500D01*
X19694638Y52158500D01*
X17897362Y52158500D01*
X17897345Y52158500D01*
X17836797Y52151989D01*
X17836795Y52151989D01*
X17699795Y52100889D01*
X17582739Y52013261D01*
X17495111Y51896205D01*
X17444011Y51759205D01*
X17444011Y51759203D01*
X17437500Y51698655D01*
X17437500Y49901346D01*
X75500Y49901346D01*
X75500Y52571908D01*
X76097Y52584062D01*
X87494Y52699778D01*
X92234Y52723611D01*
X124216Y52829041D01*
X133508Y52851474D01*
X185442Y52948635D01*
X198938Y52968834D01*
X268827Y53053994D01*
X286006Y53071173D01*
X371166Y53141062D01*
X391365Y53154558D01*
X488526Y53206492D01*
X510959Y53215784D01*
X616389Y53247766D01*
X640220Y53252506D01*
X755939Y53263903D01*
X768093Y53264500D01*
X786531Y53264500D01*
X63417365Y53264500D01*
X63484404Y53244815D01*
G37*
%TD.AperFunction*%
%TD*%
M02*
