%TF.GenerationSoftware,KiCad,Pcbnew,8.0.1*%
%TF.CreationDate,2024-05-26T17:54:05+02:00*%
%TF.ProjectId,BandPass,42616e64-5061-4737-932e-6b696361645f,v03*%
%TF.SameCoordinates,PX5f5e100PY5f5e100*%
%TF.FileFunction,Soldermask,Bot*%
%TF.FilePolarity,Negative*%
%FSLAX46Y46*%
G04 Gerber Fmt 4.6, Leading zero omitted, Abs format (unit mm)*
G04 Created by KiCad (PCBNEW 8.0.1) date 2024-05-26 17:54:05*
%MOMM*%
%LPD*%
G01*
G04 APERTURE LIST*
%ADD10C,1.600000*%
%ADD11O,1.600000X1.600000*%
%ADD12R,1.700000X1.700000*%
%ADD13R,1.600000X1.600000*%
%ADD14R,1.800000X1.800000*%
%ADD15C,1.800000*%
%ADD16C,3.200000*%
%ADD17C,2.000000*%
%ADD18O,1.700000X1.700000*%
G04 APERTURE END LIST*
D10*
%TO.C,R6*%
X26320000Y18700000D03*
D11*
X36480000Y18700000D03*
%TD*%
D12*
%TO.C,Gnd2*%
X4300000Y4000000D03*
%TD*%
%TO.C,VD1*%
X26500000Y44000000D03*
%TD*%
%TO.C,Op2_in1*%
X36900000Y25300000D03*
%TD*%
D13*
%TO.C,C2*%
X10400000Y21900000D03*
D10*
X10400000Y19900000D03*
%TD*%
D14*
%TO.C,D1*%
X63060000Y19500000D03*
D15*
X65600000Y19500000D03*
%TD*%
D12*
%TO.C,Op1_Out1*%
X37300000Y33700000D03*
%TD*%
D10*
%TO.C,R2*%
X8920000Y39300000D03*
D11*
X19080000Y39300000D03*
%TD*%
D10*
%TO.C,C6*%
X18300000Y3800000D03*
X23300000Y3800000D03*
%TD*%
%TO.C,R1*%
X9120000Y44000000D03*
D11*
X19280000Y44000000D03*
%TD*%
D10*
%TO.C,R7*%
X25820000Y9000000D03*
D11*
X35980000Y9000000D03*
%TD*%
D12*
%TO.C,Gnd1*%
X5400000Y45900000D03*
%TD*%
D13*
%TO.C,U2*%
X48100000Y21800000D03*
D11*
X45560000Y21800000D03*
X43020000Y21800000D03*
X40480000Y21800000D03*
X40480000Y14180000D03*
X43020000Y14180000D03*
X45560000Y14180000D03*
X48100000Y14180000D03*
%TD*%
D14*
%TO.C,D4*%
X57460000Y28000000D03*
D15*
X60000000Y28000000D03*
%TD*%
D16*
%TO.C,MH1*%
X15240000Y50800000D03*
%TD*%
D10*
%TO.C,R8*%
X40920000Y9000000D03*
D11*
X51080000Y9000000D03*
%TD*%
D10*
%TO.C,R10*%
X56000000Y45000000D03*
D11*
X56000000Y34840000D03*
%TD*%
D10*
%TO.C,R4*%
X12280000Y31700000D03*
D11*
X2120000Y31700000D03*
%TD*%
D12*
%TO.C,Op2_Out1*%
X24400000Y13300000D03*
%TD*%
D13*
%TO.C,C5*%
X29500000Y27155112D03*
D10*
X29500000Y25155112D03*
%TD*%
D12*
%TO.C,OP1_in1*%
X3400000Y38800000D03*
%TD*%
D10*
%TO.C,R5*%
X48000000Y34840000D03*
D11*
X48000000Y45000000D03*
%TD*%
D14*
%TO.C,D2*%
X43460000Y28000000D03*
D15*
X46000000Y28000000D03*
%TD*%
D17*
%TO.C,SW1*%
X35000000Y46000000D03*
X41500000Y46000000D03*
X35000000Y41500000D03*
X41500000Y41500000D03*
%TD*%
D14*
%TO.C,D3*%
X50460000Y28000000D03*
D15*
X53000000Y28000000D03*
%TD*%
D10*
%TO.C,C4*%
X25500000Y32000000D03*
X30500000Y32000000D03*
%TD*%
%TO.C,R9*%
X52000000Y45000000D03*
D11*
X52000000Y34840000D03*
%TD*%
D12*
%TO.C,J5*%
X11100000Y15525000D03*
D18*
X11100000Y12985000D03*
X11100000Y10445000D03*
%TD*%
D12*
%TO.C,Gnd3*%
X61250000Y11000000D03*
%TD*%
D10*
%TO.C,R12*%
X56900000Y12420000D03*
D11*
X56900000Y22580000D03*
%TD*%
D10*
%TO.C,C3*%
X21200000Y34300000D03*
X16200000Y34300000D03*
%TD*%
%TO.C,R3*%
X2020000Y26900000D03*
D11*
X12180000Y26900000D03*
%TD*%
D12*
%TO.C,Vin1*%
X9600000Y4700000D03*
%TD*%
D10*
%TO.C,R11*%
X60000000Y45000000D03*
D11*
X60000000Y34840000D03*
%TD*%
D16*
%TO.C,MH2*%
X13970000Y2540000D03*
%TD*%
D13*
%TO.C,U1*%
X15600000Y28100000D03*
D11*
X15600000Y25560000D03*
X15600000Y23020000D03*
X15600000Y20480000D03*
X23220000Y20480000D03*
X23220000Y23020000D03*
X23220000Y25560000D03*
X23220000Y28100000D03*
%TD*%
D16*
%TO.C,MH3*%
X66040000Y35560000D03*
%TD*%
%TO.C,MH4*%
X66040000Y7620000D03*
%TD*%
D13*
%TO.C,C1*%
X16100000Y13100000D03*
D10*
X18100000Y13100000D03*
%TD*%
D12*
%TO.C,J1*%
X27940000Y2540000D03*
D18*
X30480000Y2540000D03*
X33020000Y2540000D03*
X35560000Y2540000D03*
X38100000Y2540000D03*
X40640000Y2540000D03*
X43180000Y2540000D03*
X45720000Y2540000D03*
%TD*%
D12*
%TO.C,J3*%
X50800000Y2540000D03*
D18*
X53340000Y2540000D03*
X55880000Y2540000D03*
X58420000Y2540000D03*
X60960000Y2540000D03*
X63500000Y2540000D03*
%TD*%
D12*
%TO.C,J2*%
X18796000Y50800000D03*
D18*
X21336000Y50800000D03*
X23876000Y50800000D03*
X26416000Y50800000D03*
X28956000Y50800000D03*
X31496000Y50800000D03*
X34036000Y50800000D03*
X36576000Y50800000D03*
X39116000Y50800000D03*
X41656000Y50800000D03*
%TD*%
D12*
%TO.C,J4*%
X45720000Y50800000D03*
D18*
X48260000Y50800000D03*
X50800000Y50800000D03*
X53340000Y50800000D03*
X55880000Y50800000D03*
X58420000Y50800000D03*
X60960000Y50800000D03*
X63500000Y50800000D03*
%TD*%
M02*
