M48
; DRILL file {KiCad 8.0.1} date 2024-05-26T17:54:04+0200
; FORMAT={-:-/ absolute / metric / decimal}
; #@! TF.CreationDate,2024-05-26T17:54:04+02:00
; #@! TF.GenerationSoftware,Kicad,Pcbnew,8.0.1
; #@! TF.FileFunction,Plated,1,4,PTH
FMAT,2
METRIC
; #@! TA.AperFunction,Plated,PTH,ComponentDrill
T1C0.800
; #@! TA.AperFunction,Plated,PTH,ComponentDrill
T2C0.900
; #@! TA.AperFunction,Plated,PTH,ComponentDrill
T3C1.000
; #@! TA.AperFunction,Plated,PTH,ComponentDrill
T4C1.100
%
G90
G05
T1
X2.02Y26.9
X2.12Y31.7
X8.92Y39.3
X9.12Y44.0
X10.4Y21.9
X10.4Y19.9
X12.18Y26.9
X12.28Y31.7
X15.6Y28.1
X15.6Y25.56
X15.6Y23.02
X15.6Y20.48
X16.1Y13.1
X16.2Y34.3
X18.1Y13.1
X18.3Y3.8
X19.08Y39.3
X19.28Y44.0
X21.2Y34.3
X23.22Y28.1
X23.22Y25.56
X23.22Y23.02
X23.22Y20.48
X23.3Y3.8
X25.5Y32.0
X25.82Y9.0
X26.32Y18.7
X29.5Y27.155
X29.5Y25.155
X30.5Y32.0
X35.98Y9.0
X36.48Y18.7
X40.48Y21.8
X40.48Y14.18
X40.92Y9.0
X43.02Y21.8
X43.02Y14.18
X45.56Y21.8
X45.56Y14.18
X48.0Y45.0
X48.0Y34.84
X48.1Y21.8
X48.1Y14.18
X51.08Y9.0
X52.0Y45.0
X52.0Y34.84
X56.0Y45.0
X56.0Y34.84
X56.9Y22.58
X56.9Y12.42
X60.0Y45.0
X60.0Y34.84
T2
X43.46Y28.0
X46.0Y28.0
X50.46Y28.0
X53.0Y28.0
X57.46Y28.0
X60.0Y28.0
X63.06Y19.5
X65.6Y19.5
T3
X3.4Y38.8
X4.3Y4.0
X5.4Y45.9
X9.6Y4.7
X11.1Y15.525
X11.1Y12.985
X11.1Y10.445
X18.796Y50.8
X21.336Y50.8
X23.876Y50.8
X24.4Y13.3
X26.416Y50.8
X26.5Y44.0
X27.94Y2.54
X28.956Y50.8
X30.48Y2.54
X31.496Y50.8
X33.02Y2.54
X34.036Y50.8
X35.56Y2.54
X36.576Y50.8
X36.9Y25.3
X37.3Y33.7
X38.1Y2.54
X39.116Y50.8
X40.64Y2.54
X41.656Y50.8
X43.18Y2.54
X45.72Y50.8
X45.72Y2.54
X48.26Y50.8
X50.8Y50.8
X50.8Y2.54
X53.34Y50.8
X53.34Y2.54
X55.88Y50.8
X55.88Y2.54
X58.42Y50.8
X58.42Y2.54
X60.96Y50.8
X60.96Y2.54
X61.25Y11.0
X63.5Y50.8
X63.5Y2.54
T4
X35.0Y46.0
X35.0Y41.5
X41.5Y46.0
X41.5Y41.5
M30
