%TF.GenerationSoftware,KiCad,Pcbnew,8.0.1*%
%TF.CreationDate,2024-05-26T17:54:05+02:00*%
%TF.ProjectId,BandPass,42616e64-5061-4737-932e-6b696361645f,v03*%
%TF.SameCoordinates,PX5f5e100PY5f5e100*%
%TF.FileFunction,Copper,L3,Inr*%
%TF.FilePolarity,Positive*%
%FSLAX46Y46*%
G04 Gerber Fmt 4.6, Leading zero omitted, Abs format (unit mm)*
G04 Created by KiCad (PCBNEW 8.0.1) date 2024-05-26 17:54:05*
%MOMM*%
%LPD*%
G01*
G04 APERTURE LIST*
%TA.AperFunction,ComponentPad*%
%ADD10C,1.600000*%
%TD*%
%TA.AperFunction,ComponentPad*%
%ADD11O,1.600000X1.600000*%
%TD*%
%TA.AperFunction,ComponentPad*%
%ADD12R,1.700000X1.700000*%
%TD*%
%TA.AperFunction,ComponentPad*%
%ADD13R,1.600000X1.600000*%
%TD*%
%TA.AperFunction,ComponentPad*%
%ADD14R,1.800000X1.800000*%
%TD*%
%TA.AperFunction,ComponentPad*%
%ADD15C,1.800000*%
%TD*%
%TA.AperFunction,ComponentPad*%
%ADD16C,2.000000*%
%TD*%
%TA.AperFunction,ComponentPad*%
%ADD17O,1.700000X1.700000*%
%TD*%
G04 APERTURE END LIST*
D10*
%TO.N,Net-(C5-Pad2)*%
%TO.C,R6*%
X26320000Y18700000D03*
D11*
%TO.N,Net-(U2--)*%
X36480000Y18700000D03*
%TD*%
D12*
%TO.N,GND*%
%TO.C,Gnd2*%
X4300000Y4000000D03*
%TD*%
%TO.N,Net-(U1-+)*%
%TO.C,VD1*%
X26500000Y44000000D03*
%TD*%
%TO.N,Net-(U2--)*%
%TO.C,Op2_in1*%
X36900000Y25300000D03*
%TD*%
D13*
%TO.N,Net-(C2-Pad1)*%
%TO.C,C2*%
X10400000Y21900000D03*
D10*
%TO.N,Radar*%
X10400000Y19900000D03*
%TD*%
D14*
%TO.N,GND*%
%TO.C,D1*%
X63060000Y19500000D03*
D15*
%TO.N,Net-(D1-A)*%
X65600000Y19500000D03*
%TD*%
D12*
%TO.N,Net-(C3-Pad2)*%
%TO.C,Op1_Out1*%
X37300000Y33700000D03*
%TD*%
D10*
%TO.N,Net-(U1-+)*%
%TO.C,R2*%
X8920000Y39300000D03*
D11*
%TO.N,GND*%
X19080000Y39300000D03*
%TD*%
D10*
%TO.N,Net-(U2--)*%
%TO.C,C6*%
X18300000Y3800000D03*
%TO.N,Net-(C6-Pad2)*%
X23300000Y3800000D03*
%TD*%
%TO.N,+5V*%
%TO.C,R1*%
X9120000Y44000000D03*
D11*
%TO.N,Net-(U1-+)*%
X19280000Y44000000D03*
%TD*%
D10*
%TO.N,Net-(U2--)*%
%TO.C,R7*%
X25820000Y9000000D03*
D11*
%TO.N,Net-(C6-Pad2)*%
X35980000Y9000000D03*
%TD*%
D12*
%TO.N,GND*%
%TO.C,Gnd1*%
X5400000Y45900000D03*
%TD*%
D13*
%TO.N,unconnected-(U2-NC-Pad1)*%
%TO.C,U2*%
X48100000Y21800000D03*
D11*
%TO.N,Net-(U2--)*%
X45560000Y21800000D03*
%TO.N,Net-(U1-+)*%
X43020000Y21800000D03*
%TO.N,GND*%
X40480000Y21800000D03*
%TO.N,unconnected-(U2-NC-Pad5)*%
X40480000Y14180000D03*
%TO.N,Net-(C6-Pad2)*%
X43020000Y14180000D03*
%TO.N,+5V*%
X45560000Y14180000D03*
%TO.N,unconnected-(U2-NC-Pad8)*%
X48100000Y14180000D03*
%TD*%
D14*
%TO.N,GND*%
%TO.C,D4*%
X57460000Y28000000D03*
D15*
%TO.N,Net-(D4-A)*%
X60000000Y28000000D03*
%TD*%
D10*
%TO.N,Net-(C6-Pad2)*%
%TO.C,R8*%
X40920000Y9000000D03*
D11*
%TO.N,VOut*%
X51080000Y9000000D03*
%TD*%
D10*
%TO.N,LED_Yellowo*%
%TO.C,R10*%
X56000000Y45000000D03*
D11*
%TO.N,Net-(D3-A)*%
X56000000Y34840000D03*
%TD*%
D10*
%TO.N,Net-(U1--)*%
%TO.C,R4*%
X12280000Y31700000D03*
D11*
%TO.N,Net-(C3-Pad2)*%
X2120000Y31700000D03*
%TD*%
D12*
%TO.N,Net-(C6-Pad2)*%
%TO.C,Op2_Out1*%
X24400000Y13300000D03*
%TD*%
D13*
%TO.N,Net-(C3-Pad2)*%
%TO.C,C5*%
X29500000Y27155112D03*
D10*
%TO.N,Net-(C5-Pad2)*%
X29500000Y25155112D03*
%TD*%
D12*
%TO.N,Net-(U1--)*%
%TO.C,OP1_in1*%
X3400000Y38800000D03*
%TD*%
D10*
%TO.N,+5V*%
%TO.C,R5*%
X48000000Y34840000D03*
D11*
%TO.N,Push_Buttoni*%
X48000000Y45000000D03*
%TD*%
D14*
%TO.N,GND*%
%TO.C,D2*%
X43460000Y28000000D03*
D15*
%TO.N,Net-(D2-A)*%
X46000000Y28000000D03*
%TD*%
D16*
%TO.N,GND*%
%TO.C,SW1*%
X35000000Y46000000D03*
X41500000Y46000000D03*
%TO.N,Push_Buttoni*%
X35000000Y41500000D03*
X41500000Y41500000D03*
%TD*%
D14*
%TO.N,GND*%
%TO.C,D3*%
X50460000Y28000000D03*
D15*
%TO.N,Net-(D3-A)*%
X53000000Y28000000D03*
%TD*%
D10*
%TO.N,Net-(U1-+)*%
%TO.C,C4*%
X25500000Y32000000D03*
%TO.N,GND*%
X30500000Y32000000D03*
%TD*%
%TO.N,LED_Redo*%
%TO.C,R9*%
X52000000Y45000000D03*
D11*
%TO.N,Net-(D2-A)*%
X52000000Y34840000D03*
%TD*%
D12*
%TO.N,GND*%
%TO.C,J5*%
X11100000Y15525000D03*
D17*
%TO.N,Radar*%
X11100000Y12985000D03*
%TO.N,+5V*%
X11100000Y10445000D03*
%TD*%
D12*
%TO.N,GND*%
%TO.C,Gnd3*%
X61250000Y11000000D03*
%TD*%
D10*
%TO.N,+5V*%
%TO.C,R12*%
X56900000Y12420000D03*
D11*
%TO.N,Net-(D1-A)*%
X56900000Y22580000D03*
%TD*%
D10*
%TO.N,Net-(U1--)*%
%TO.C,C3*%
X21200000Y34300000D03*
%TO.N,Net-(C3-Pad2)*%
X16200000Y34300000D03*
%TD*%
%TO.N,Net-(C2-Pad1)*%
%TO.C,R3*%
X2020000Y26900000D03*
D11*
%TO.N,Net-(U1--)*%
X12180000Y26900000D03*
%TD*%
D12*
%TO.N,Radar*%
%TO.C,Vin1*%
X9600000Y4700000D03*
%TD*%
D10*
%TO.N,LED_Greeno*%
%TO.C,R11*%
X60000000Y45000000D03*
D11*
%TO.N,Net-(D4-A)*%
X60000000Y34840000D03*
%TD*%
D13*
%TO.N,unconnected-(U1-NC-Pad1)*%
%TO.C,U1*%
X15600000Y28100000D03*
D11*
%TO.N,Net-(U1--)*%
X15600000Y25560000D03*
%TO.N,Net-(U1-+)*%
X15600000Y23020000D03*
%TO.N,GND*%
X15600000Y20480000D03*
%TO.N,unconnected-(U1-NC-Pad5)*%
X23220000Y20480000D03*
%TO.N,Net-(C3-Pad2)*%
X23220000Y23020000D03*
%TO.N,+5V*%
X23220000Y25560000D03*
%TO.N,unconnected-(U1-NC-Pad8)*%
X23220000Y28100000D03*
%TD*%
D13*
%TO.N,Net-(U1-+)*%
%TO.C,C1*%
X16100000Y13100000D03*
D10*
%TO.N,GND*%
X18100000Y13100000D03*
%TD*%
D12*
%TO.N,unconnected-(J1-Pin_1-Pad1)*%
%TO.C,J1*%
X27940000Y2540000D03*
D17*
%TO.N,/IOREF*%
X30480000Y2540000D03*
%TO.N,/~{RESET}*%
X33020000Y2540000D03*
%TO.N,unconnected-(J1-Pin_4-Pad4)*%
X35560000Y2540000D03*
%TO.N,+5V*%
X38100000Y2540000D03*
%TO.N,GND*%
X40640000Y2540000D03*
X43180000Y2540000D03*
%TO.N,unconnected-(J1-Pin_8-Pad8)*%
X45720000Y2540000D03*
%TD*%
D12*
%TO.N,VOut*%
%TO.C,J3*%
X50800000Y2540000D03*
D17*
%TO.N,/A1*%
X53340000Y2540000D03*
%TO.N,/A2*%
X55880000Y2540000D03*
%TO.N,/A3*%
X58420000Y2540000D03*
%TO.N,/SDA{slash}A4*%
X60960000Y2540000D03*
%TO.N,/SCL{slash}A5*%
X63500000Y2540000D03*
%TD*%
D12*
%TO.N,unconnected-(J2-Pin_1-Pad1)*%
%TO.C,J2*%
X18796000Y50800000D03*
D17*
%TO.N,unconnected-(J2-Pin_2-Pad2)*%
X21336000Y50800000D03*
%TO.N,/AREF*%
X23876000Y50800000D03*
%TO.N,GND*%
X26416000Y50800000D03*
%TO.N,/13*%
X28956000Y50800000D03*
%TO.N,/12*%
X31496000Y50800000D03*
%TO.N,/\u002A11*%
X34036000Y50800000D03*
%TO.N,/\u002A10*%
X36576000Y50800000D03*
%TO.N,/\u002A9*%
X39116000Y50800000D03*
%TO.N,/8*%
X41656000Y50800000D03*
%TD*%
D12*
%TO.N,Push_Buttoni*%
%TO.C,J4*%
X45720000Y50800000D03*
D17*
%TO.N,LED_Redo*%
X48260000Y50800000D03*
%TO.N,LED_Yellowo*%
X50800000Y50800000D03*
%TO.N,LED_Greeno*%
X53340000Y50800000D03*
%TO.N,/\u002A3*%
X55880000Y50800000D03*
%TO.N,/2*%
X58420000Y50800000D03*
%TO.N,/TX{slash}1*%
X60960000Y50800000D03*
%TO.N,/RX{slash}0*%
X63500000Y50800000D03*
%TD*%
%TA.AperFunction,Conductor*%
%TO.N,+5V*%
G36*
X63484404Y53244815D02*
G01*
X63505046Y53228181D01*
X65928181Y50805046D01*
X65961666Y50743723D01*
X65964500Y50717365D01*
X65964500Y40655018D01*
X65964500Y40624982D01*
X65975994Y40597233D01*
X65975995Y40597232D01*
X68468181Y38105046D01*
X68501666Y38043723D01*
X68504500Y38017365D01*
X68504500Y3892636D01*
X68484815Y3825597D01*
X68468181Y3804955D01*
X65997233Y1334006D01*
X65975995Y1312769D01*
X65964500Y1285018D01*
X65964500Y768093D01*
X65963903Y755938D01*
X65952505Y640222D01*
X65947763Y616382D01*
X65917832Y517710D01*
X65915789Y510976D01*
X65906486Y488518D01*
X65854561Y391373D01*
X65841056Y371161D01*
X65771176Y286012D01*
X65753988Y268824D01*
X65668839Y198944D01*
X65648627Y185439D01*
X65551482Y133514D01*
X65529028Y124213D01*
X65487028Y111472D01*
X65423618Y92237D01*
X65399778Y87495D01*
X65291162Y76797D01*
X65284060Y76097D01*
X65271907Y75500D01*
X768093Y75500D01*
X755939Y76097D01*
X747995Y76880D01*
X640221Y87495D01*
X616381Y92237D01*
X599445Y97375D01*
X510968Y124214D01*
X488517Y133514D01*
X391372Y185439D01*
X371160Y198944D01*
X286011Y268824D01*
X268823Y286012D01*
X198943Y371161D01*
X185438Y391373D01*
X133510Y488524D01*
X124215Y510963D01*
X92234Y616388D01*
X87494Y640223D01*
X76097Y755939D01*
X75500Y768093D01*
X75500Y1641346D01*
X26581500Y1641346D01*
X26588011Y1580798D01*
X26588011Y1580796D01*
X26639111Y1443796D01*
X26726739Y1326739D01*
X26843796Y1239111D01*
X26980799Y1188011D01*
X27008050Y1185082D01*
X27041345Y1181501D01*
X27041362Y1181500D01*
X28838638Y1181500D01*
X28838654Y1181501D01*
X28865692Y1184409D01*
X28899201Y1188011D01*
X29036204Y1239111D01*
X29153261Y1326739D01*
X29240889Y1443796D01*
X29286138Y1565113D01*
X29328009Y1621044D01*
X29393474Y1645461D01*
X29461746Y1630609D01*
X29493545Y1605764D01*
X29556760Y1537094D01*
X29734424Y1398811D01*
X29734425Y1398811D01*
X29734427Y1398809D01*
X29861135Y1330239D01*
X29932426Y1291658D01*
X30145365Y1218556D01*
X30367431Y1181500D01*
X30592569Y1181500D01*
X30814635Y1218556D01*
X31027574Y1291658D01*
X31225576Y1398811D01*
X31403240Y1537094D01*
X31524594Y1668918D01*
X31555715Y1702724D01*
X31555715Y1702725D01*
X31555722Y1702732D01*
X31646193Y1841210D01*
X31699338Y1886563D01*
X31768569Y1895987D01*
X31831905Y1866485D01*
X31853804Y1841213D01*
X31944278Y1702732D01*
X31944283Y1702727D01*
X31944284Y1702724D01*
X32070968Y1565111D01*
X32096760Y1537094D01*
X32274424Y1398811D01*
X32274425Y1398811D01*
X32274427Y1398809D01*
X32401135Y1330239D01*
X32472426Y1291658D01*
X32685365Y1218556D01*
X32907431Y1181500D01*
X33132569Y1181500D01*
X33354635Y1218556D01*
X33567574Y1291658D01*
X33765576Y1398811D01*
X33943240Y1537094D01*
X34064594Y1668918D01*
X34095715Y1702724D01*
X34095715Y1702725D01*
X34095722Y1702732D01*
X34186193Y1841210D01*
X34239338Y1886563D01*
X34308569Y1895987D01*
X34371905Y1866485D01*
X34393804Y1841213D01*
X34484278Y1702732D01*
X34484283Y1702727D01*
X34484284Y1702724D01*
X34610968Y1565111D01*
X34636760Y1537094D01*
X34814424Y1398811D01*
X34814425Y1398811D01*
X34814427Y1398809D01*
X34941135Y1330239D01*
X35012426Y1291658D01*
X35225365Y1218556D01*
X35447431Y1181500D01*
X35672569Y1181500D01*
X35894635Y1218556D01*
X36107574Y1291658D01*
X36305576Y1398811D01*
X36483240Y1537094D01*
X36604594Y1668918D01*
X36635715Y1702724D01*
X36635715Y1702725D01*
X36635722Y1702732D01*
X36729749Y1846653D01*
X36782894Y1892006D01*
X36852125Y1901430D01*
X36915461Y1871928D01*
X36935130Y1849952D01*
X37061890Y1668922D01*
X37228917Y1501895D01*
X37422421Y1366400D01*
X37636507Y1266571D01*
X37636516Y1266567D01*
X37850000Y1209366D01*
X37850000Y2106988D01*
X37907007Y2074075D01*
X38034174Y2040000D01*
X38165826Y2040000D01*
X38292993Y2074075D01*
X38350000Y2106988D01*
X38350000Y1209367D01*
X38563483Y1266567D01*
X38563492Y1266571D01*
X38777578Y1366400D01*
X38971082Y1501895D01*
X39138105Y1668918D01*
X39264868Y1849952D01*
X39319445Y1893577D01*
X39388944Y1900769D01*
X39451298Y1869247D01*
X39470251Y1846650D01*
X39564276Y1702735D01*
X39564284Y1702724D01*
X39690968Y1565111D01*
X39716760Y1537094D01*
X39894424Y1398811D01*
X39894425Y1398811D01*
X39894427Y1398809D01*
X40021135Y1330239D01*
X40092426Y1291658D01*
X40305365Y1218556D01*
X40527431Y1181500D01*
X40752569Y1181500D01*
X40974635Y1218556D01*
X41187574Y1291658D01*
X41385576Y1398811D01*
X41563240Y1537094D01*
X41684594Y1668918D01*
X41715715Y1702724D01*
X41715715Y1702725D01*
X41715722Y1702732D01*
X41806193Y1841210D01*
X41859338Y1886563D01*
X41928569Y1895987D01*
X41991905Y1866485D01*
X42013804Y1841213D01*
X42104278Y1702732D01*
X42104283Y1702727D01*
X42104284Y1702724D01*
X42230968Y1565111D01*
X42256760Y1537094D01*
X42434424Y1398811D01*
X42434425Y1398811D01*
X42434427Y1398809D01*
X42561135Y1330239D01*
X42632426Y1291658D01*
X42845365Y1218556D01*
X43067431Y1181500D01*
X43292569Y1181500D01*
X43514635Y1218556D01*
X43727574Y1291658D01*
X43925576Y1398811D01*
X44103240Y1537094D01*
X44224594Y1668918D01*
X44255715Y1702724D01*
X44255715Y1702725D01*
X44255722Y1702732D01*
X44346193Y1841210D01*
X44399338Y1886563D01*
X44468569Y1895987D01*
X44531905Y1866485D01*
X44553804Y1841213D01*
X44644278Y1702732D01*
X44644283Y1702727D01*
X44644284Y1702724D01*
X44770968Y1565111D01*
X44796760Y1537094D01*
X44974424Y1398811D01*
X44974425Y1398811D01*
X44974427Y1398809D01*
X45101135Y1330239D01*
X45172426Y1291658D01*
X45385365Y1218556D01*
X45607431Y1181500D01*
X45832569Y1181500D01*
X46054635Y1218556D01*
X46267574Y1291658D01*
X46465576Y1398811D01*
X46643240Y1537094D01*
X46739212Y1641346D01*
X49441500Y1641346D01*
X49448011Y1580798D01*
X49448011Y1580796D01*
X49499111Y1443796D01*
X49586739Y1326739D01*
X49703796Y1239111D01*
X49840799Y1188011D01*
X49868050Y1185082D01*
X49901345Y1181501D01*
X49901362Y1181500D01*
X51698638Y1181500D01*
X51698654Y1181501D01*
X51725692Y1184409D01*
X51759201Y1188011D01*
X51896204Y1239111D01*
X52013261Y1326739D01*
X52100889Y1443796D01*
X52146138Y1565113D01*
X52188009Y1621044D01*
X52253474Y1645461D01*
X52321746Y1630609D01*
X52353545Y1605764D01*
X52416760Y1537094D01*
X52594424Y1398811D01*
X52594425Y1398811D01*
X52594427Y1398809D01*
X52721135Y1330239D01*
X52792426Y1291658D01*
X53005365Y1218556D01*
X53227431Y1181500D01*
X53452569Y1181500D01*
X53674635Y1218556D01*
X53887574Y1291658D01*
X54085576Y1398811D01*
X54263240Y1537094D01*
X54384594Y1668918D01*
X54415715Y1702724D01*
X54415715Y1702725D01*
X54415722Y1702732D01*
X54506193Y1841210D01*
X54559338Y1886563D01*
X54628569Y1895987D01*
X54691905Y1866485D01*
X54713804Y1841213D01*
X54804278Y1702732D01*
X54804283Y1702727D01*
X54804284Y1702724D01*
X54930968Y1565111D01*
X54956760Y1537094D01*
X55134424Y1398811D01*
X55134425Y1398811D01*
X55134427Y1398809D01*
X55261135Y1330239D01*
X55332426Y1291658D01*
X55545365Y1218556D01*
X55767431Y1181500D01*
X55992569Y1181500D01*
X56214635Y1218556D01*
X56427574Y1291658D01*
X56625576Y1398811D01*
X56803240Y1537094D01*
X56924594Y1668918D01*
X56955715Y1702724D01*
X56955715Y1702725D01*
X56955722Y1702732D01*
X57046193Y1841210D01*
X57099338Y1886563D01*
X57168569Y1895987D01*
X57231905Y1866485D01*
X57253804Y1841213D01*
X57344278Y1702732D01*
X57344283Y1702727D01*
X57344284Y1702724D01*
X57470968Y1565111D01*
X57496760Y1537094D01*
X57674424Y1398811D01*
X57674425Y1398811D01*
X57674427Y1398809D01*
X57801135Y1330239D01*
X57872426Y1291658D01*
X58085365Y1218556D01*
X58307431Y1181500D01*
X58532569Y1181500D01*
X58754635Y1218556D01*
X58967574Y1291658D01*
X59165576Y1398811D01*
X59343240Y1537094D01*
X59464594Y1668918D01*
X59495715Y1702724D01*
X59495715Y1702725D01*
X59495722Y1702732D01*
X59586193Y1841210D01*
X59639338Y1886563D01*
X59708569Y1895987D01*
X59771905Y1866485D01*
X59793804Y1841213D01*
X59884278Y1702732D01*
X59884283Y1702727D01*
X59884284Y1702724D01*
X60010968Y1565111D01*
X60036760Y1537094D01*
X60214424Y1398811D01*
X60214425Y1398811D01*
X60214427Y1398809D01*
X60341135Y1330239D01*
X60412426Y1291658D01*
X60625365Y1218556D01*
X60847431Y1181500D01*
X61072569Y1181500D01*
X61294635Y1218556D01*
X61507574Y1291658D01*
X61705576Y1398811D01*
X61883240Y1537094D01*
X62004594Y1668918D01*
X62035715Y1702724D01*
X62035715Y1702725D01*
X62035722Y1702732D01*
X62126193Y1841210D01*
X62179338Y1886563D01*
X62248569Y1895987D01*
X62311905Y1866485D01*
X62333804Y1841213D01*
X62424278Y1702732D01*
X62424283Y1702727D01*
X62424284Y1702724D01*
X62550968Y1565111D01*
X62576760Y1537094D01*
X62754424Y1398811D01*
X62754425Y1398811D01*
X62754427Y1398809D01*
X62881135Y1330239D01*
X62952426Y1291658D01*
X63165365Y1218556D01*
X63387431Y1181500D01*
X63612569Y1181500D01*
X63834635Y1218556D01*
X64047574Y1291658D01*
X64245576Y1398811D01*
X64423240Y1537094D01*
X64544594Y1668918D01*
X64575715Y1702724D01*
X64575717Y1702727D01*
X64575722Y1702732D01*
X64698860Y1891209D01*
X64789296Y2097384D01*
X64844564Y2315632D01*
X64847164Y2347007D01*
X64863156Y2539995D01*
X64863156Y2540006D01*
X64844565Y2764360D01*
X64844563Y2764372D01*
X64789296Y2982615D01*
X64779071Y3005925D01*
X64698860Y3188791D01*
X64682706Y3213516D01*
X64599090Y3341501D01*
X64575722Y3377268D01*
X64575719Y3377271D01*
X64575715Y3377277D01*
X64423243Y3542903D01*
X64423238Y3542908D01*
X64245577Y3681188D01*
X64245572Y3681192D01*
X64047580Y3788339D01*
X64047577Y3788341D01*
X64047574Y3788342D01*
X64047571Y3788343D01*
X64047569Y3788344D01*
X63834637Y3861444D01*
X63612569Y3898500D01*
X63387431Y3898500D01*
X63165362Y3861444D01*
X62952430Y3788344D01*
X62952419Y3788339D01*
X62754427Y3681192D01*
X62754422Y3681188D01*
X62576761Y3542908D01*
X62576756Y3542903D01*
X62424284Y3377277D01*
X62424276Y3377266D01*
X62333808Y3238794D01*
X62280662Y3193438D01*
X62211431Y3184014D01*
X62148095Y3213516D01*
X62126192Y3238794D01*
X62059090Y3341501D01*
X62035722Y3377268D01*
X62035719Y3377271D01*
X62035715Y3377277D01*
X61883243Y3542903D01*
X61883238Y3542908D01*
X61705577Y3681188D01*
X61705572Y3681192D01*
X61507580Y3788339D01*
X61507577Y3788341D01*
X61507574Y3788342D01*
X61507571Y3788343D01*
X61507569Y3788344D01*
X61294637Y3861444D01*
X61072569Y3898500D01*
X60847431Y3898500D01*
X60625362Y3861444D01*
X60412430Y3788344D01*
X60412419Y3788339D01*
X60214427Y3681192D01*
X60214422Y3681188D01*
X60036761Y3542908D01*
X60036756Y3542903D01*
X59884284Y3377277D01*
X59884276Y3377266D01*
X59793808Y3238794D01*
X59740662Y3193438D01*
X59671431Y3184014D01*
X59608095Y3213516D01*
X59586192Y3238794D01*
X59519090Y3341501D01*
X59495722Y3377268D01*
X59495719Y3377271D01*
X59495715Y3377277D01*
X59343243Y3542903D01*
X59343238Y3542908D01*
X59165577Y3681188D01*
X59165572Y3681192D01*
X58967580Y3788339D01*
X58967577Y3788341D01*
X58967574Y3788342D01*
X58967571Y3788343D01*
X58967569Y3788344D01*
X58754637Y3861444D01*
X58532569Y3898500D01*
X58307431Y3898500D01*
X58085362Y3861444D01*
X57872430Y3788344D01*
X57872419Y3788339D01*
X57674427Y3681192D01*
X57674422Y3681188D01*
X57496761Y3542908D01*
X57496756Y3542903D01*
X57344284Y3377277D01*
X57344276Y3377266D01*
X57253808Y3238794D01*
X57200662Y3193438D01*
X57131431Y3184014D01*
X57068095Y3213516D01*
X57046192Y3238794D01*
X56979090Y3341501D01*
X56955722Y3377268D01*
X56955719Y3377271D01*
X56955715Y3377277D01*
X56803243Y3542903D01*
X56803238Y3542908D01*
X56625577Y3681188D01*
X56625572Y3681192D01*
X56427580Y3788339D01*
X56427577Y3788341D01*
X56427574Y3788342D01*
X56427571Y3788343D01*
X56427569Y3788344D01*
X56214637Y3861444D01*
X55992569Y3898500D01*
X55767431Y3898500D01*
X55545362Y3861444D01*
X55332430Y3788344D01*
X55332419Y3788339D01*
X55134427Y3681192D01*
X55134422Y3681188D01*
X54956761Y3542908D01*
X54956756Y3542903D01*
X54804284Y3377277D01*
X54804276Y3377266D01*
X54713808Y3238794D01*
X54660662Y3193438D01*
X54591431Y3184014D01*
X54528095Y3213516D01*
X54506192Y3238794D01*
X54439090Y3341501D01*
X54415722Y3377268D01*
X54415719Y3377271D01*
X54415715Y3377277D01*
X54263243Y3542903D01*
X54263238Y3542908D01*
X54085577Y3681188D01*
X54085572Y3681192D01*
X53887580Y3788339D01*
X53887577Y3788341D01*
X53887574Y3788342D01*
X53887571Y3788343D01*
X53887569Y3788344D01*
X53674637Y3861444D01*
X53452569Y3898500D01*
X53227431Y3898500D01*
X53005362Y3861444D01*
X52792430Y3788344D01*
X52792419Y3788339D01*
X52594427Y3681192D01*
X52594422Y3681188D01*
X52416761Y3542908D01*
X52353548Y3474240D01*
X52293661Y3438250D01*
X52223823Y3440351D01*
X52166207Y3479876D01*
X52146138Y3514890D01*
X52100889Y3636204D01*
X52067214Y3681188D01*
X52013261Y3753261D01*
X51896204Y3840889D01*
X51895172Y3841274D01*
X51759203Y3891989D01*
X51698654Y3898500D01*
X51698638Y3898500D01*
X49901362Y3898500D01*
X49901345Y3898500D01*
X49840797Y3891989D01*
X49840795Y3891989D01*
X49703795Y3840889D01*
X49586739Y3753261D01*
X49499111Y3636205D01*
X49448011Y3499205D01*
X49448011Y3499203D01*
X49441500Y3438655D01*
X49441500Y1641346D01*
X46739212Y1641346D01*
X46764594Y1668918D01*
X46795715Y1702724D01*
X46795717Y1702727D01*
X46795722Y1702732D01*
X46918860Y1891209D01*
X47009296Y2097384D01*
X47064564Y2315632D01*
X47067164Y2347007D01*
X47083156Y2539995D01*
X47083156Y2540006D01*
X47064565Y2764360D01*
X47064563Y2764372D01*
X47009296Y2982615D01*
X46999071Y3005925D01*
X46918860Y3188791D01*
X46902706Y3213516D01*
X46819090Y3341501D01*
X46795722Y3377268D01*
X46795719Y3377271D01*
X46795715Y3377277D01*
X46643243Y3542903D01*
X46643238Y3542908D01*
X46465577Y3681188D01*
X46465572Y3681192D01*
X46267580Y3788339D01*
X46267577Y3788341D01*
X46267574Y3788342D01*
X46267571Y3788343D01*
X46267569Y3788344D01*
X46054637Y3861444D01*
X45832569Y3898500D01*
X45607431Y3898500D01*
X45385362Y3861444D01*
X45172430Y3788344D01*
X45172419Y3788339D01*
X44974427Y3681192D01*
X44974422Y3681188D01*
X44796761Y3542908D01*
X44796756Y3542903D01*
X44644284Y3377277D01*
X44644276Y3377266D01*
X44553808Y3238794D01*
X44500662Y3193438D01*
X44431431Y3184014D01*
X44368095Y3213516D01*
X44346192Y3238794D01*
X44279090Y3341501D01*
X44255722Y3377268D01*
X44255719Y3377271D01*
X44255715Y3377277D01*
X44103243Y3542903D01*
X44103238Y3542908D01*
X43925577Y3681188D01*
X43925572Y3681192D01*
X43727580Y3788339D01*
X43727577Y3788341D01*
X43727574Y3788342D01*
X43727571Y3788343D01*
X43727569Y3788344D01*
X43514637Y3861444D01*
X43292569Y3898500D01*
X43067431Y3898500D01*
X42845362Y3861444D01*
X42632430Y3788344D01*
X42632419Y3788339D01*
X42434427Y3681192D01*
X42434422Y3681188D01*
X42256761Y3542908D01*
X42256756Y3542903D01*
X42104284Y3377277D01*
X42104276Y3377266D01*
X42013808Y3238794D01*
X41960662Y3193438D01*
X41891431Y3184014D01*
X41828095Y3213516D01*
X41806192Y3238794D01*
X41739090Y3341501D01*
X41715722Y3377268D01*
X41715719Y3377271D01*
X41715715Y3377277D01*
X41563243Y3542903D01*
X41563238Y3542908D01*
X41385577Y3681188D01*
X41385572Y3681192D01*
X41187580Y3788339D01*
X41187577Y3788341D01*
X41187574Y3788342D01*
X41187571Y3788343D01*
X41187569Y3788344D01*
X40974637Y3861444D01*
X40752569Y3898500D01*
X40527431Y3898500D01*
X40305362Y3861444D01*
X40092430Y3788344D01*
X40092419Y3788339D01*
X39894427Y3681192D01*
X39894422Y3681188D01*
X39716761Y3542908D01*
X39716756Y3542903D01*
X39564284Y3377277D01*
X39564276Y3377266D01*
X39470251Y3233350D01*
X39417105Y3187993D01*
X39347873Y3178570D01*
X39284538Y3208072D01*
X39264868Y3230049D01*
X39138113Y3411074D01*
X39138108Y3411080D01*
X38971082Y3578106D01*
X38777578Y3713601D01*
X38563492Y3813430D01*
X38563486Y3813433D01*
X38350000Y3870636D01*
X38350000Y2973012D01*
X38292993Y3005925D01*
X38165826Y3040000D01*
X38034174Y3040000D01*
X37907007Y3005925D01*
X37850000Y2973012D01*
X37850000Y3870636D01*
X37849999Y3870636D01*
X37636513Y3813433D01*
X37636507Y3813430D01*
X37422422Y3713601D01*
X37422420Y3713600D01*
X37228926Y3578114D01*
X37228920Y3578109D01*
X37061891Y3411080D01*
X37061890Y3411078D01*
X36935131Y3230048D01*
X36880554Y3186423D01*
X36811055Y3179231D01*
X36748701Y3210753D01*
X36729752Y3233344D01*
X36635722Y3377268D01*
X36635715Y3377275D01*
X36635715Y3377277D01*
X36483243Y3542903D01*
X36483238Y3542908D01*
X36305577Y3681188D01*
X36305572Y3681192D01*
X36107580Y3788339D01*
X36107577Y3788341D01*
X36107574Y3788342D01*
X36107571Y3788343D01*
X36107569Y3788344D01*
X35894637Y3861444D01*
X35672569Y3898500D01*
X35447431Y3898500D01*
X35225362Y3861444D01*
X35012430Y3788344D01*
X35012419Y3788339D01*
X34814427Y3681192D01*
X34814422Y3681188D01*
X34636761Y3542908D01*
X34636756Y3542903D01*
X34484284Y3377277D01*
X34484276Y3377266D01*
X34393808Y3238794D01*
X34340662Y3193438D01*
X34271431Y3184014D01*
X34208095Y3213516D01*
X34186192Y3238794D01*
X34119090Y3341501D01*
X34095722Y3377268D01*
X34095719Y3377271D01*
X34095715Y3377277D01*
X33943243Y3542903D01*
X33943238Y3542908D01*
X33765577Y3681188D01*
X33765572Y3681192D01*
X33567580Y3788339D01*
X33567577Y3788341D01*
X33567574Y3788342D01*
X33567571Y3788343D01*
X33567569Y3788344D01*
X33354637Y3861444D01*
X33132569Y3898500D01*
X32907431Y3898500D01*
X32685362Y3861444D01*
X32472430Y3788344D01*
X32472419Y3788339D01*
X32274427Y3681192D01*
X32274422Y3681188D01*
X32096761Y3542908D01*
X32096756Y3542903D01*
X31944284Y3377277D01*
X31944276Y3377266D01*
X31853808Y3238794D01*
X31800662Y3193438D01*
X31731431Y3184014D01*
X31668095Y3213516D01*
X31646192Y3238794D01*
X31579090Y3341501D01*
X31555722Y3377268D01*
X31555719Y3377271D01*
X31555715Y3377277D01*
X31403243Y3542903D01*
X31403238Y3542908D01*
X31225577Y3681188D01*
X31225572Y3681192D01*
X31027580Y3788339D01*
X31027577Y3788341D01*
X31027574Y3788342D01*
X31027571Y3788343D01*
X31027569Y3788344D01*
X30814637Y3861444D01*
X30592569Y3898500D01*
X30367431Y3898500D01*
X30145362Y3861444D01*
X29932430Y3788344D01*
X29932419Y3788339D01*
X29734427Y3681192D01*
X29734422Y3681188D01*
X29556761Y3542908D01*
X29493548Y3474240D01*
X29433661Y3438250D01*
X29363823Y3440351D01*
X29306207Y3479876D01*
X29286138Y3514890D01*
X29240889Y3636204D01*
X29207214Y3681188D01*
X29153261Y3753261D01*
X29036204Y3840889D01*
X29035172Y3841274D01*
X28899203Y3891989D01*
X28838654Y3898500D01*
X28838638Y3898500D01*
X27041362Y3898500D01*
X27041345Y3898500D01*
X26980797Y3891989D01*
X26980795Y3891989D01*
X26843795Y3840889D01*
X26726739Y3753261D01*
X26639111Y3636205D01*
X26588011Y3499205D01*
X26588011Y3499203D01*
X26581500Y3438655D01*
X26581500Y1641346D01*
X75500Y1641346D01*
X75500Y3101346D01*
X2941500Y3101346D01*
X2948011Y3040798D01*
X2948011Y3040796D01*
X2999111Y2903796D01*
X3086739Y2786739D01*
X3203796Y2699111D01*
X3340799Y2648011D01*
X3368050Y2645082D01*
X3401345Y2641501D01*
X3401362Y2641500D01*
X5198638Y2641500D01*
X5198654Y2641501D01*
X5225692Y2644409D01*
X5259201Y2648011D01*
X5396204Y2699111D01*
X5513261Y2786739D01*
X5600889Y2903796D01*
X5651989Y3040799D01*
X5655591Y3074308D01*
X5658499Y3101346D01*
X5658500Y3101363D01*
X5658500Y3801346D01*
X8241500Y3801346D01*
X8248011Y3740798D01*
X8248011Y3740796D01*
X8287023Y3636205D01*
X8299111Y3603796D01*
X8386739Y3486739D01*
X8503796Y3399111D01*
X8640799Y3348011D01*
X8668050Y3345082D01*
X8701345Y3341501D01*
X8701362Y3341500D01*
X10498638Y3341500D01*
X10498654Y3341501D01*
X10525692Y3344409D01*
X10559201Y3348011D01*
X10696204Y3399111D01*
X10813261Y3486739D01*
X10900889Y3603796D01*
X10951989Y3740799D01*
X10957100Y3788339D01*
X10958354Y3799999D01*
X16986502Y3799999D01*
X17006456Y3571919D01*
X17006457Y3571911D01*
X17065714Y3350762D01*
X17065718Y3350751D01*
X17162475Y3143255D01*
X17162477Y3143251D01*
X17293802Y2955700D01*
X17455700Y2793802D01*
X17643251Y2662477D01*
X17688237Y2641500D01*
X17850750Y2565719D01*
X17850752Y2565719D01*
X17850757Y2565716D01*
X18071913Y2506457D01*
X18234832Y2492204D01*
X18299998Y2486502D01*
X18300000Y2486502D01*
X18300002Y2486502D01*
X18357021Y2491491D01*
X18528087Y2506457D01*
X18749243Y2565716D01*
X18956749Y2662477D01*
X19144300Y2793802D01*
X19306198Y2955700D01*
X19437523Y3143251D01*
X19534284Y3350757D01*
X19593543Y3571913D01*
X19613498Y3799999D01*
X21986502Y3799999D01*
X22006456Y3571919D01*
X22006457Y3571911D01*
X22065714Y3350762D01*
X22065718Y3350751D01*
X22162475Y3143255D01*
X22162477Y3143251D01*
X22293802Y2955700D01*
X22455700Y2793802D01*
X22643251Y2662477D01*
X22688237Y2641500D01*
X22850750Y2565719D01*
X22850752Y2565719D01*
X22850757Y2565716D01*
X23071913Y2506457D01*
X23234832Y2492204D01*
X23299998Y2486502D01*
X23300000Y2486502D01*
X23300002Y2486502D01*
X23357021Y2491491D01*
X23528087Y2506457D01*
X23749243Y2565716D01*
X23956749Y2662477D01*
X24144300Y2793802D01*
X24306198Y2955700D01*
X24437523Y3143251D01*
X24534284Y3350757D01*
X24593543Y3571913D01*
X24613498Y3800000D01*
X24613064Y3804955D01*
X24593543Y4028082D01*
X24593543Y4028087D01*
X24534284Y4249243D01*
X24437523Y4456749D01*
X24306198Y4644300D01*
X24144300Y4806198D01*
X23956749Y4937523D01*
X23956745Y4937525D01*
X23749249Y5034282D01*
X23749238Y5034286D01*
X23528089Y5093543D01*
X23528081Y5093544D01*
X23300002Y5113498D01*
X23299998Y5113498D01*
X23071918Y5093544D01*
X23071910Y5093543D01*
X22850761Y5034286D01*
X22850750Y5034282D01*
X22643254Y4937525D01*
X22643252Y4937524D01*
X22643251Y4937523D01*
X22455700Y4806198D01*
X22455698Y4806197D01*
X22455695Y4806194D01*
X22293806Y4644305D01*
X22162476Y4456748D01*
X22162475Y4456746D01*
X22065718Y4249250D01*
X22065714Y4249239D01*
X22006457Y4028090D01*
X22006456Y4028082D01*
X21986502Y3800002D01*
X21986502Y3799999D01*
X19613498Y3799999D01*
X19613498Y3800000D01*
X19613064Y3804955D01*
X19593543Y4028082D01*
X19593543Y4028087D01*
X19534284Y4249243D01*
X19437523Y4456749D01*
X19306198Y4644300D01*
X19144300Y4806198D01*
X18956749Y4937523D01*
X18956745Y4937525D01*
X18749249Y5034282D01*
X18749238Y5034286D01*
X18528089Y5093543D01*
X18528081Y5093544D01*
X18300002Y5113498D01*
X18299998Y5113498D01*
X18071918Y5093544D01*
X18071910Y5093543D01*
X17850761Y5034286D01*
X17850750Y5034282D01*
X17643254Y4937525D01*
X17643252Y4937524D01*
X17643251Y4937523D01*
X17455700Y4806198D01*
X17455698Y4806197D01*
X17455695Y4806194D01*
X17293806Y4644305D01*
X17162476Y4456748D01*
X17162475Y4456746D01*
X17065718Y4249250D01*
X17065714Y4249239D01*
X17006457Y4028090D01*
X17006456Y4028082D01*
X16986502Y3800002D01*
X16986502Y3799999D01*
X10958354Y3799999D01*
X10958499Y3801346D01*
X10958500Y3801363D01*
X10958500Y5598638D01*
X10958499Y5598655D01*
X10955157Y5629730D01*
X10951989Y5659201D01*
X10900889Y5796204D01*
X10813261Y5913261D01*
X10696204Y6000889D01*
X10559203Y6051989D01*
X10498654Y6058500D01*
X10498638Y6058500D01*
X8701362Y6058500D01*
X8701345Y6058500D01*
X8640797Y6051989D01*
X8640795Y6051989D01*
X8503795Y6000889D01*
X8386739Y5913261D01*
X8299111Y5796205D01*
X8248011Y5659205D01*
X8248011Y5659203D01*
X8241500Y5598655D01*
X8241500Y3801346D01*
X5658500Y3801346D01*
X5658500Y4898638D01*
X5658499Y4898655D01*
X5655157Y4929730D01*
X5651989Y4959201D01*
X5600889Y5096204D01*
X5513261Y5213261D01*
X5396204Y5300889D01*
X5259203Y5351989D01*
X5198654Y5358500D01*
X5198638Y5358500D01*
X3401362Y5358500D01*
X3401345Y5358500D01*
X3340797Y5351989D01*
X3340795Y5351989D01*
X3203795Y5300889D01*
X3086739Y5213261D01*
X2999111Y5096205D01*
X2948011Y4959205D01*
X2948011Y4959203D01*
X2941500Y4898655D01*
X2941500Y3101346D01*
X75500Y3101346D01*
X75500Y8999999D01*
X24506502Y8999999D01*
X24526456Y8771919D01*
X24526457Y8771911D01*
X24585714Y8550762D01*
X24585718Y8550751D01*
X24682475Y8343255D01*
X24682477Y8343251D01*
X24813802Y8155700D01*
X24975700Y7993802D01*
X25163251Y7862477D01*
X25288091Y7804264D01*
X25370750Y7765719D01*
X25370752Y7765719D01*
X25370757Y7765716D01*
X25591913Y7706457D01*
X25754832Y7692204D01*
X25819998Y7686502D01*
X25820000Y7686502D01*
X25820002Y7686502D01*
X25877021Y7691491D01*
X26048087Y7706457D01*
X26269243Y7765716D01*
X26476749Y7862477D01*
X26664300Y7993802D01*
X26826198Y8155700D01*
X26957523Y8343251D01*
X27054284Y8550757D01*
X27113543Y8771913D01*
X27133498Y8999999D01*
X34666502Y8999999D01*
X34686456Y8771919D01*
X34686457Y8771911D01*
X34745714Y8550762D01*
X34745718Y8550751D01*
X34842475Y8343255D01*
X34842477Y8343251D01*
X34973802Y8155700D01*
X35135700Y7993802D01*
X35323251Y7862477D01*
X35448091Y7804264D01*
X35530750Y7765719D01*
X35530752Y7765719D01*
X35530757Y7765716D01*
X35751913Y7706457D01*
X35914832Y7692204D01*
X35979998Y7686502D01*
X35980000Y7686502D01*
X35980002Y7686502D01*
X36037021Y7691491D01*
X36208087Y7706457D01*
X36429243Y7765716D01*
X36636749Y7862477D01*
X36824300Y7993802D01*
X36986198Y8155700D01*
X37117523Y8343251D01*
X37214284Y8550757D01*
X37273543Y8771913D01*
X37293498Y8999999D01*
X39606502Y8999999D01*
X39626456Y8771919D01*
X39626457Y8771911D01*
X39685714Y8550762D01*
X39685718Y8550751D01*
X39782475Y8343255D01*
X39782477Y8343251D01*
X39913802Y8155700D01*
X40075700Y7993802D01*
X40263251Y7862477D01*
X40388091Y7804264D01*
X40470750Y7765719D01*
X40470752Y7765719D01*
X40470757Y7765716D01*
X40691913Y7706457D01*
X40854832Y7692204D01*
X40919998Y7686502D01*
X40920000Y7686502D01*
X40920002Y7686502D01*
X40977021Y7691491D01*
X41148087Y7706457D01*
X41369243Y7765716D01*
X41576749Y7862477D01*
X41764300Y7993802D01*
X41926198Y8155700D01*
X42057523Y8343251D01*
X42154284Y8550757D01*
X42213543Y8771913D01*
X42233498Y8999999D01*
X49766502Y8999999D01*
X49786456Y8771919D01*
X49786457Y8771911D01*
X49845714Y8550762D01*
X49845718Y8550751D01*
X49942475Y8343255D01*
X49942477Y8343251D01*
X50073802Y8155700D01*
X50235700Y7993802D01*
X50423251Y7862477D01*
X50548091Y7804264D01*
X50630750Y7765719D01*
X50630752Y7765719D01*
X50630757Y7765716D01*
X50851913Y7706457D01*
X51014832Y7692204D01*
X51079998Y7686502D01*
X51080000Y7686502D01*
X51080002Y7686502D01*
X51137021Y7691491D01*
X51308087Y7706457D01*
X51529243Y7765716D01*
X51736749Y7862477D01*
X51924300Y7993802D01*
X52086198Y8155700D01*
X52217523Y8343251D01*
X52314284Y8550757D01*
X52373543Y8771913D01*
X52393498Y9000000D01*
X52373543Y9228087D01*
X52314284Y9449243D01*
X52217523Y9656749D01*
X52086198Y9844300D01*
X51924300Y10006198D01*
X51788415Y10101346D01*
X59891500Y10101346D01*
X59898011Y10040798D01*
X59898011Y10040796D01*
X59949111Y9903796D01*
X60036739Y9786739D01*
X60153796Y9699111D01*
X60290799Y9648011D01*
X60318050Y9645082D01*
X60351345Y9641501D01*
X60351362Y9641500D01*
X62148638Y9641500D01*
X62148654Y9641501D01*
X62175692Y9644409D01*
X62209201Y9648011D01*
X62346204Y9699111D01*
X62463261Y9786739D01*
X62550889Y9903796D01*
X62601989Y10040799D01*
X62605591Y10074308D01*
X62608499Y10101346D01*
X62608500Y10101363D01*
X62608500Y11898638D01*
X62608499Y11898655D01*
X62603192Y11948011D01*
X62601989Y11959201D01*
X62600767Y11962476D01*
X62569145Y12047259D01*
X62550889Y12096204D01*
X62463261Y12213261D01*
X62346204Y12300889D01*
X62209203Y12351989D01*
X62148654Y12358500D01*
X62148638Y12358500D01*
X60351362Y12358500D01*
X60351345Y12358500D01*
X60290797Y12351989D01*
X60290795Y12351989D01*
X60153795Y12300889D01*
X60036739Y12213261D01*
X59949111Y12096205D01*
X59898011Y11959205D01*
X59898011Y11959203D01*
X59891500Y11898655D01*
X59891500Y10101346D01*
X51788415Y10101346D01*
X51736749Y10137523D01*
X51735741Y10137993D01*
X51529249Y10234282D01*
X51529238Y10234286D01*
X51308089Y10293543D01*
X51308081Y10293544D01*
X51080002Y10313498D01*
X51079998Y10313498D01*
X50851918Y10293544D01*
X50851910Y10293543D01*
X50630761Y10234286D01*
X50630750Y10234282D01*
X50423254Y10137525D01*
X50423252Y10137524D01*
X50423251Y10137523D01*
X50235700Y10006198D01*
X50235698Y10006197D01*
X50235695Y10006194D01*
X50073806Y9844305D01*
X49942476Y9656748D01*
X49942475Y9656746D01*
X49845718Y9449250D01*
X49845714Y9449239D01*
X49786457Y9228090D01*
X49786456Y9228082D01*
X49766502Y9000002D01*
X49766502Y8999999D01*
X42233498Y8999999D01*
X42233498Y9000000D01*
X42213543Y9228087D01*
X42154284Y9449243D01*
X42057523Y9656749D01*
X41926198Y9844300D01*
X41764300Y10006198D01*
X41576749Y10137523D01*
X41575741Y10137993D01*
X41369249Y10234282D01*
X41369238Y10234286D01*
X41148089Y10293543D01*
X41148081Y10293544D01*
X40920002Y10313498D01*
X40919998Y10313498D01*
X40691918Y10293544D01*
X40691910Y10293543D01*
X40470761Y10234286D01*
X40470750Y10234282D01*
X40263254Y10137525D01*
X40263252Y10137524D01*
X40263251Y10137523D01*
X40075700Y10006198D01*
X40075698Y10006197D01*
X40075695Y10006194D01*
X39913806Y9844305D01*
X39782476Y9656748D01*
X39782475Y9656746D01*
X39685718Y9449250D01*
X39685714Y9449239D01*
X39626457Y9228090D01*
X39626456Y9228082D01*
X39606502Y9000002D01*
X39606502Y8999999D01*
X37293498Y8999999D01*
X37293498Y9000000D01*
X37273543Y9228087D01*
X37214284Y9449243D01*
X37117523Y9656749D01*
X36986198Y9844300D01*
X36824300Y10006198D01*
X36636749Y10137523D01*
X36635741Y10137993D01*
X36429249Y10234282D01*
X36429238Y10234286D01*
X36208089Y10293543D01*
X36208081Y10293544D01*
X35980002Y10313498D01*
X35979998Y10313498D01*
X35751918Y10293544D01*
X35751910Y10293543D01*
X35530761Y10234286D01*
X35530750Y10234282D01*
X35323254Y10137525D01*
X35323252Y10137524D01*
X35323251Y10137523D01*
X35135700Y10006198D01*
X35135698Y10006197D01*
X35135695Y10006194D01*
X34973806Y9844305D01*
X34842476Y9656748D01*
X34842475Y9656746D01*
X34745718Y9449250D01*
X34745714Y9449239D01*
X34686457Y9228090D01*
X34686456Y9228082D01*
X34666502Y9000002D01*
X34666502Y8999999D01*
X27133498Y8999999D01*
X27133498Y9000000D01*
X27113543Y9228087D01*
X27054284Y9449243D01*
X26957523Y9656749D01*
X26826198Y9844300D01*
X26664300Y10006198D01*
X26476749Y10137523D01*
X26475741Y10137993D01*
X26269249Y10234282D01*
X26269238Y10234286D01*
X26048089Y10293543D01*
X26048081Y10293544D01*
X25820002Y10313498D01*
X25819998Y10313498D01*
X25591918Y10293544D01*
X25591910Y10293543D01*
X25370761Y10234286D01*
X25370750Y10234282D01*
X25163254Y10137525D01*
X25163252Y10137524D01*
X25163251Y10137523D01*
X24975700Y10006198D01*
X24975698Y10006197D01*
X24975695Y10006194D01*
X24813806Y9844305D01*
X24682476Y9656748D01*
X24682475Y9656746D01*
X24585718Y9449250D01*
X24585714Y9449239D01*
X24526457Y9228090D01*
X24526456Y9228082D01*
X24506502Y9000002D01*
X24506502Y8999999D01*
X75500Y8999999D01*
X75500Y12984995D01*
X9736844Y12984995D01*
X9755434Y12760641D01*
X9755436Y12760629D01*
X9810703Y12542386D01*
X9901140Y12336208D01*
X10024276Y12147735D01*
X10024284Y12147724D01*
X10176756Y11982098D01*
X10176761Y11982093D01*
X10227384Y11942691D01*
X10354424Y11843811D01*
X10397693Y11820395D01*
X10397695Y11820394D01*
X10447286Y11771175D01*
X10462394Y11702958D01*
X10438224Y11637403D01*
X10409802Y11609764D01*
X10228922Y11483110D01*
X10228920Y11483109D01*
X10061891Y11316080D01*
X10061886Y11316074D01*
X9926400Y11122580D01*
X9926399Y11122578D01*
X9826570Y10908493D01*
X9826567Y10908487D01*
X9769364Y10695001D01*
X9769364Y10695000D01*
X10666988Y10695000D01*
X10634075Y10637993D01*
X10600000Y10510826D01*
X10600000Y10379174D01*
X10634075Y10252007D01*
X10666988Y10195000D01*
X9769364Y10195000D01*
X9826567Y9981514D01*
X9826570Y9981508D01*
X9926399Y9767422D01*
X10061894Y9573918D01*
X10228917Y9406895D01*
X10422421Y9271400D01*
X10636507Y9171571D01*
X10636516Y9171567D01*
X10850000Y9114366D01*
X10850000Y10011988D01*
X10907007Y9979075D01*
X11034174Y9945000D01*
X11165826Y9945000D01*
X11292993Y9979075D01*
X11350000Y10011988D01*
X11350000Y9114367D01*
X11563483Y9171567D01*
X11563492Y9171571D01*
X11777578Y9271400D01*
X11971082Y9406895D01*
X12138105Y9573918D01*
X12273600Y9767422D01*
X12373429Y9981508D01*
X12373432Y9981514D01*
X12430636Y10195000D01*
X11533012Y10195000D01*
X11565925Y10252007D01*
X11600000Y10379174D01*
X11600000Y10510826D01*
X11565925Y10637993D01*
X11533012Y10695000D01*
X12430636Y10695000D01*
X12430635Y10695001D01*
X12373432Y10908487D01*
X12373429Y10908493D01*
X12273600Y11122578D01*
X12273599Y11122580D01*
X12138113Y11316074D01*
X12138108Y11316080D01*
X11971082Y11483106D01*
X11790197Y11609764D01*
X11746572Y11664341D01*
X11739380Y11733840D01*
X11770902Y11796194D01*
X11802300Y11820392D01*
X11845576Y11843811D01*
X12023240Y11982094D01*
X12175722Y12147732D01*
X12243416Y12251346D01*
X14791500Y12251346D01*
X14798011Y12190798D01*
X14798011Y12190796D01*
X14834189Y12093802D01*
X14849111Y12053796D01*
X14936739Y11936739D01*
X15053796Y11849111D01*
X15190799Y11798011D01*
X15218050Y11795082D01*
X15251345Y11791501D01*
X15251362Y11791500D01*
X16948638Y11791500D01*
X16948654Y11791501D01*
X16975692Y11794409D01*
X17009201Y11798011D01*
X17146204Y11849111D01*
X17263261Y11936739D01*
X17265808Y11940142D01*
X17269212Y11942691D01*
X17269536Y11943014D01*
X17269582Y11942968D01*
X17321737Y11982016D01*
X17391428Y11987005D01*
X17436200Y11967414D01*
X17443249Y11962478D01*
X17443250Y11962478D01*
X17443251Y11962477D01*
X17498445Y11936740D01*
X17650750Y11865719D01*
X17650752Y11865719D01*
X17650757Y11865716D01*
X17871913Y11806457D01*
X18034832Y11792204D01*
X18099998Y11786502D01*
X18100000Y11786502D01*
X18100002Y11786502D01*
X18157139Y11791501D01*
X18328087Y11806457D01*
X18549243Y11865716D01*
X18756749Y11962477D01*
X18944300Y12093802D01*
X19106198Y12255700D01*
X19208181Y12401346D01*
X23041500Y12401346D01*
X23048011Y12340798D01*
X23048011Y12340796D01*
X23095581Y12213261D01*
X23099111Y12203796D01*
X23186739Y12086739D01*
X23303796Y11999111D01*
X23440799Y11948011D01*
X23468050Y11945082D01*
X23501345Y11941501D01*
X23501362Y11941500D01*
X25298638Y11941500D01*
X25298654Y11941501D01*
X25325692Y11944409D01*
X25359201Y11948011D01*
X25496204Y11999111D01*
X25613261Y12086739D01*
X25700889Y12203796D01*
X25751989Y12340799D01*
X25755591Y12374308D01*
X25758499Y12401346D01*
X25758500Y12401363D01*
X25758500Y12419998D01*
X55595034Y12419998D01*
X55614858Y12193401D01*
X55614860Y12193390D01*
X55673730Y11973683D01*
X55673735Y11973669D01*
X55769863Y11767522D01*
X55820974Y11694528D01*
X56500000Y12373554D01*
X56500000Y12367339D01*
X56527259Y12265606D01*
X56579920Y12174394D01*
X56654394Y12099920D01*
X56745606Y12047259D01*
X56847339Y12020000D01*
X56853553Y12020000D01*
X56174526Y11340975D01*
X56247513Y11289868D01*
X56247521Y11289864D01*
X56453668Y11193736D01*
X56453682Y11193731D01*
X56673389Y11134861D01*
X56673400Y11134859D01*
X56899998Y11115034D01*
X56900002Y11115034D01*
X57126599Y11134859D01*
X57126610Y11134861D01*
X57346317Y11193731D01*
X57346331Y11193736D01*
X57552478Y11289864D01*
X57625471Y11340976D01*
X56946447Y12020000D01*
X56952661Y12020000D01*
X57054394Y12047259D01*
X57145606Y12099920D01*
X57220080Y12174394D01*
X57272741Y12265606D01*
X57300000Y12367339D01*
X57300000Y12373553D01*
X57979024Y11694529D01*
X58030136Y11767522D01*
X58126264Y11973669D01*
X58126269Y11973683D01*
X58185139Y12193390D01*
X58185141Y12193401D01*
X58204966Y12419998D01*
X58204966Y12420003D01*
X58185141Y12646600D01*
X58185139Y12646611D01*
X58126269Y12866318D01*
X58126264Y12866332D01*
X58030136Y13072479D01*
X58030132Y13072487D01*
X57979025Y13145474D01*
X57300000Y12466449D01*
X57300000Y12472661D01*
X57272741Y12574394D01*
X57220080Y12665606D01*
X57145606Y12740080D01*
X57054394Y12792741D01*
X56952661Y12820000D01*
X56946448Y12820000D01*
X57625472Y13499026D01*
X57552478Y13550137D01*
X57346331Y13646265D01*
X57346317Y13646270D01*
X57126610Y13705140D01*
X57126599Y13705142D01*
X56900002Y13724966D01*
X56899998Y13724966D01*
X56673400Y13705142D01*
X56673389Y13705140D01*
X56453682Y13646270D01*
X56453673Y13646266D01*
X56247516Y13550134D01*
X56247512Y13550132D01*
X56174526Y13499027D01*
X56174526Y13499026D01*
X56853553Y12820000D01*
X56847339Y12820000D01*
X56745606Y12792741D01*
X56654394Y12740080D01*
X56579920Y12665606D01*
X56527259Y12574394D01*
X56500000Y12472661D01*
X56500000Y12466448D01*
X55820974Y13145474D01*
X55820973Y13145474D01*
X55769868Y13072488D01*
X55769866Y13072484D01*
X55673734Y12866327D01*
X55673730Y12866318D01*
X55614860Y12646611D01*
X55614858Y12646600D01*
X55595034Y12420003D01*
X55595034Y12419998D01*
X25758500Y12419998D01*
X25758500Y14179999D01*
X39166502Y14179999D01*
X39186456Y13951919D01*
X39186457Y13951911D01*
X39245714Y13730762D01*
X39245718Y13730751D01*
X39340486Y13527521D01*
X39342477Y13523251D01*
X39473802Y13335700D01*
X39635700Y13173802D01*
X39823251Y13042477D01*
X39946499Y12985006D01*
X40030750Y12945719D01*
X40030752Y12945719D01*
X40030757Y12945716D01*
X40251913Y12886457D01*
X40414832Y12872204D01*
X40479998Y12866502D01*
X40480000Y12866502D01*
X40480002Y12866502D01*
X40541917Y12871919D01*
X40708087Y12886457D01*
X40929243Y12945716D01*
X41136749Y13042477D01*
X41324300Y13173802D01*
X41486198Y13335700D01*
X41617523Y13523251D01*
X41637618Y13566345D01*
X41683790Y13618785D01*
X41750983Y13637937D01*
X41817864Y13617722D01*
X41862382Y13566345D01*
X41870353Y13549250D01*
X41882477Y13523251D01*
X42013802Y13335700D01*
X42175700Y13173802D01*
X42363251Y13042477D01*
X42486499Y12985006D01*
X42570750Y12945719D01*
X42570752Y12945719D01*
X42570757Y12945716D01*
X42791913Y12886457D01*
X42954832Y12872204D01*
X43019998Y12866502D01*
X43020000Y12866502D01*
X43020002Y12866502D01*
X43081917Y12871919D01*
X43248087Y12886457D01*
X43469243Y12945716D01*
X43676749Y13042477D01*
X43864300Y13173802D01*
X44026198Y13335700D01*
X44157523Y13523251D01*
X44182307Y13576402D01*
X44228479Y13628841D01*
X44295672Y13647993D01*
X44362553Y13627778D01*
X44407071Y13576401D01*
X44429864Y13527521D01*
X44429865Y13527519D01*
X44560342Y13341180D01*
X44721179Y13180343D01*
X44907517Y13049866D01*
X45113673Y12953735D01*
X45113682Y12953731D01*
X45309999Y12901128D01*
X45310000Y12901129D01*
X45310000Y13864314D01*
X45314394Y13859920D01*
X45405606Y13807259D01*
X45507339Y13780000D01*
X45612661Y13780000D01*
X45714394Y13807259D01*
X45805606Y13859920D01*
X45810000Y13864314D01*
X45810000Y12901128D01*
X46006317Y12953731D01*
X46006326Y12953735D01*
X46212482Y13049866D01*
X46398820Y13180343D01*
X46559657Y13341180D01*
X46690133Y13527517D01*
X46712927Y13576400D01*
X46759098Y13628840D01*
X46826292Y13647993D01*
X46893173Y13627779D01*
X46937691Y13576404D01*
X46962477Y13523251D01*
X47093802Y13335700D01*
X47255700Y13173802D01*
X47443251Y13042477D01*
X47566499Y12985006D01*
X47650750Y12945719D01*
X47650752Y12945719D01*
X47650757Y12945716D01*
X47871913Y12886457D01*
X48034832Y12872204D01*
X48099998Y12866502D01*
X48100000Y12866502D01*
X48100002Y12866502D01*
X48161917Y12871919D01*
X48328087Y12886457D01*
X48549243Y12945716D01*
X48756749Y13042477D01*
X48944300Y13173802D01*
X49106198Y13335700D01*
X49237523Y13523251D01*
X49334284Y13730757D01*
X49393543Y13951913D01*
X49413498Y14180000D01*
X49411867Y14198638D01*
X49394815Y14393544D01*
X49393543Y14408087D01*
X49334284Y14629243D01*
X49323677Y14651989D01*
X49281574Y14742280D01*
X49237523Y14836749D01*
X49106198Y15024300D01*
X48944300Y15186198D01*
X48756749Y15317523D01*
X48756745Y15317525D01*
X48549249Y15414282D01*
X48549238Y15414286D01*
X48328089Y15473543D01*
X48328081Y15473544D01*
X48100002Y15493498D01*
X48099998Y15493498D01*
X47871918Y15473544D01*
X47871910Y15473543D01*
X47650761Y15414286D01*
X47650750Y15414282D01*
X47443254Y15317525D01*
X47443252Y15317524D01*
X47443251Y15317523D01*
X47255700Y15186198D01*
X47255698Y15186197D01*
X47255695Y15186194D01*
X47093806Y15024305D01*
X46962476Y14836748D01*
X46962474Y14836744D01*
X46937691Y14783598D01*
X46891518Y14731159D01*
X46824324Y14712008D01*
X46757444Y14732225D01*
X46712927Y14783601D01*
X46690133Y14832483D01*
X46559657Y15018821D01*
X46398820Y15179658D01*
X46212482Y15310135D01*
X46006328Y15406266D01*
X45810000Y15458873D01*
X45810000Y14495686D01*
X45805606Y14500080D01*
X45714394Y14552741D01*
X45612661Y14580000D01*
X45507339Y14580000D01*
X45405606Y14552741D01*
X45314394Y14500080D01*
X45310000Y14495686D01*
X45310000Y15458873D01*
X45113671Y15406266D01*
X44907517Y15310135D01*
X44721179Y15179658D01*
X44560342Y15018821D01*
X44429865Y14832483D01*
X44407071Y14783599D01*
X44360898Y14731160D01*
X44293705Y14712008D01*
X44226824Y14732224D01*
X44182307Y14783599D01*
X44157523Y14836749D01*
X44026198Y15024300D01*
X43864300Y15186198D01*
X43676749Y15317523D01*
X43676745Y15317525D01*
X43469249Y15414282D01*
X43469238Y15414286D01*
X43248089Y15473543D01*
X43248081Y15473544D01*
X43020002Y15493498D01*
X43019998Y15493498D01*
X42791918Y15473544D01*
X42791910Y15473543D01*
X42570761Y15414286D01*
X42570750Y15414282D01*
X42363254Y15317525D01*
X42363252Y15317524D01*
X42363251Y15317523D01*
X42175700Y15186198D01*
X42175698Y15186197D01*
X42175695Y15186194D01*
X42013806Y15024305D01*
X41882476Y14836749D01*
X41862382Y14793655D01*
X41816209Y14741216D01*
X41749016Y14722064D01*
X41682135Y14742280D01*
X41637618Y14793655D01*
X41617523Y14836749D01*
X41486198Y15024300D01*
X41324300Y15186198D01*
X41136749Y15317523D01*
X41136745Y15317525D01*
X40929249Y15414282D01*
X40929238Y15414286D01*
X40708089Y15473543D01*
X40708081Y15473544D01*
X40480002Y15493498D01*
X40479998Y15493498D01*
X40251918Y15473544D01*
X40251910Y15473543D01*
X40030761Y15414286D01*
X40030750Y15414282D01*
X39823254Y15317525D01*
X39823252Y15317524D01*
X39823251Y15317523D01*
X39635700Y15186198D01*
X39635698Y15186197D01*
X39635695Y15186194D01*
X39473806Y15024305D01*
X39342476Y14836748D01*
X39342475Y14836746D01*
X39245718Y14629250D01*
X39245714Y14629239D01*
X39186457Y14408090D01*
X39186456Y14408082D01*
X39166502Y14180002D01*
X39166502Y14179999D01*
X25758500Y14179999D01*
X25758500Y14198638D01*
X25758499Y14198655D01*
X25754320Y14237521D01*
X25751989Y14259201D01*
X25751745Y14259854D01*
X25717791Y14350889D01*
X25700889Y14396204D01*
X25613261Y14513261D01*
X25496204Y14600889D01*
X25359203Y14651989D01*
X25298654Y14658500D01*
X25298638Y14658500D01*
X23501362Y14658500D01*
X23501345Y14658500D01*
X23440797Y14651989D01*
X23440795Y14651989D01*
X23303795Y14600889D01*
X23186739Y14513261D01*
X23099111Y14396205D01*
X23048011Y14259205D01*
X23048011Y14259203D01*
X23041500Y14198655D01*
X23041500Y12401346D01*
X19208181Y12401346D01*
X19237523Y12443251D01*
X19334284Y12650757D01*
X19393543Y12871913D01*
X19413498Y13100000D01*
X19393543Y13328087D01*
X19334284Y13549243D01*
X19333869Y13550132D01*
X19288236Y13647993D01*
X19237523Y13756749D01*
X19106198Y13944300D01*
X18944300Y14106198D01*
X18756749Y14237523D01*
X18756743Y14237526D01*
X18549249Y14334282D01*
X18549238Y14334286D01*
X18328089Y14393543D01*
X18328081Y14393544D01*
X18100002Y14413498D01*
X18099998Y14413498D01*
X17871918Y14393544D01*
X17871910Y14393543D01*
X17650761Y14334286D01*
X17650750Y14334282D01*
X17443256Y14237526D01*
X17443247Y14237521D01*
X17436195Y14232583D01*
X17369988Y14210260D01*
X17302222Y14227275D01*
X17265811Y14259854D01*
X17263261Y14263261D01*
X17146204Y14350889D01*
X17009203Y14401989D01*
X16948654Y14408500D01*
X16948638Y14408500D01*
X15251362Y14408500D01*
X15251345Y14408500D01*
X15190797Y14401989D01*
X15190795Y14401989D01*
X15053795Y14350889D01*
X14936739Y14263261D01*
X14849111Y14146205D01*
X14798011Y14009205D01*
X14798011Y14009203D01*
X14791500Y13948655D01*
X14791500Y12251346D01*
X12243416Y12251346D01*
X12298860Y12336209D01*
X12389296Y12542384D01*
X12444564Y12760632D01*
X12447225Y12792741D01*
X12463156Y12984995D01*
X12463156Y12985006D01*
X12444565Y13209360D01*
X12444563Y13209372D01*
X12412572Y13335700D01*
X12389296Y13427616D01*
X12298860Y13633791D01*
X12296151Y13637937D01*
X12175723Y13822266D01*
X12175715Y13822277D01*
X12030510Y13980009D01*
X11999587Y14042663D01*
X12007447Y14112089D01*
X12051594Y14166245D01*
X12078405Y14180173D01*
X12159068Y14210260D01*
X12196204Y14224111D01*
X12313261Y14311739D01*
X12400889Y14428796D01*
X12451989Y14565799D01*
X12455761Y14600889D01*
X12458499Y14626346D01*
X12458500Y14626363D01*
X12458500Y16423638D01*
X12458499Y16423655D01*
X12455157Y16454730D01*
X12451989Y16484201D01*
X12400889Y16621204D01*
X12313261Y16738261D01*
X12196204Y16825889D01*
X12059203Y16876989D01*
X11998654Y16883500D01*
X11998638Y16883500D01*
X10201362Y16883500D01*
X10201345Y16883500D01*
X10140797Y16876989D01*
X10140795Y16876989D01*
X10003795Y16825889D01*
X9886739Y16738261D01*
X9799111Y16621205D01*
X9748011Y16484205D01*
X9748011Y16484203D01*
X9741500Y16423655D01*
X9741500Y14626346D01*
X9748011Y14565798D01*
X9748011Y14565796D01*
X9772523Y14500080D01*
X9799111Y14428796D01*
X9886739Y14311739D01*
X10003796Y14224111D01*
X10040932Y14210260D01*
X10121595Y14180173D01*
X10177528Y14138301D01*
X10201944Y14072837D01*
X10187092Y14004564D01*
X10169490Y13980009D01*
X10024279Y13822270D01*
X10024276Y13822266D01*
X9901140Y13633793D01*
X9810703Y13427615D01*
X9755436Y13209372D01*
X9755434Y13209360D01*
X9736844Y12985006D01*
X9736844Y12984995D01*
X75500Y12984995D01*
X75500Y19899999D01*
X9086502Y19899999D01*
X9106456Y19671919D01*
X9106457Y19671911D01*
X9165714Y19450762D01*
X9165718Y19450751D01*
X9261328Y19245715D01*
X9262477Y19243251D01*
X9393802Y19055700D01*
X9555700Y18893802D01*
X9743251Y18762477D01*
X9868091Y18704264D01*
X9950750Y18665719D01*
X9950752Y18665719D01*
X9950757Y18665716D01*
X10171913Y18606457D01*
X10334832Y18592204D01*
X10399998Y18586502D01*
X10400000Y18586502D01*
X10400002Y18586502D01*
X10457021Y18591491D01*
X10628087Y18606457D01*
X10849243Y18665716D01*
X10922764Y18699999D01*
X25006502Y18699999D01*
X25026456Y18471919D01*
X25026457Y18471911D01*
X25085714Y18250762D01*
X25085718Y18250751D01*
X25156942Y18098011D01*
X25182477Y18043251D01*
X25313802Y17855700D01*
X25475700Y17693802D01*
X25663251Y17562477D01*
X25788091Y17504264D01*
X25870750Y17465719D01*
X25870752Y17465719D01*
X25870757Y17465716D01*
X26091913Y17406457D01*
X26254832Y17392204D01*
X26319998Y17386502D01*
X26320000Y17386502D01*
X26320002Y17386502D01*
X26377021Y17391491D01*
X26548087Y17406457D01*
X26769243Y17465716D01*
X26976749Y17562477D01*
X27164300Y17693802D01*
X27326198Y17855700D01*
X27457523Y18043251D01*
X27554284Y18250757D01*
X27613543Y18471913D01*
X27633498Y18699999D01*
X35166502Y18699999D01*
X35186456Y18471919D01*
X35186457Y18471911D01*
X35245714Y18250762D01*
X35245718Y18250751D01*
X35316942Y18098011D01*
X35342477Y18043251D01*
X35473802Y17855700D01*
X35635700Y17693802D01*
X35823251Y17562477D01*
X35948091Y17504264D01*
X36030750Y17465719D01*
X36030752Y17465719D01*
X36030757Y17465716D01*
X36251913Y17406457D01*
X36414832Y17392204D01*
X36479998Y17386502D01*
X36480000Y17386502D01*
X36480002Y17386502D01*
X36537021Y17391491D01*
X36708087Y17406457D01*
X36929243Y17465716D01*
X37136749Y17562477D01*
X37324300Y17693802D01*
X37486198Y17855700D01*
X37617523Y18043251D01*
X37714284Y18250757D01*
X37773543Y18471913D01*
X37780492Y18551346D01*
X61651500Y18551346D01*
X61658011Y18490798D01*
X61658011Y18490796D01*
X61684603Y18419503D01*
X61709111Y18353796D01*
X61796739Y18236739D01*
X61913796Y18149111D01*
X62050799Y18098011D01*
X62078050Y18095082D01*
X62111345Y18091501D01*
X62111362Y18091500D01*
X64008638Y18091500D01*
X64008654Y18091501D01*
X64035692Y18094409D01*
X64069201Y18098011D01*
X64206204Y18149111D01*
X64323261Y18236739D01*
X64410889Y18353796D01*
X64435397Y18419505D01*
X64477268Y18475437D01*
X64542733Y18499853D01*
X64611005Y18485001D01*
X64638724Y18463344D01*
X64639010Y18463653D01*
X64642774Y18460189D01*
X64642780Y18460182D01*
X64826983Y18316810D01*
X64826985Y18316809D01*
X64826988Y18316807D01*
X64946331Y18252223D01*
X65032273Y18205713D01*
X65146914Y18166357D01*
X65253045Y18129921D01*
X65253047Y18129921D01*
X65253049Y18129920D01*
X65483288Y18091500D01*
X65483289Y18091500D01*
X65716711Y18091500D01*
X65716712Y18091500D01*
X65946951Y18129920D01*
X66167727Y18205713D01*
X66373017Y18316810D01*
X66557220Y18460182D01*
X66715314Y18631917D01*
X66842984Y18827331D01*
X66936749Y19041093D01*
X66994051Y19267374D01*
X67013327Y19500000D01*
X67009656Y19544300D01*
X66994051Y19732623D01*
X66994051Y19732626D01*
X66936749Y19958907D01*
X66842984Y20172669D01*
X66791213Y20251911D01*
X66715313Y20368085D01*
X66557223Y20539815D01*
X66557222Y20539816D01*
X66557220Y20539818D01*
X66373017Y20683190D01*
X66373015Y20683191D01*
X66373014Y20683192D01*
X66373011Y20683194D01*
X66167733Y20794284D01*
X66167730Y20794285D01*
X66167727Y20794287D01*
X66167721Y20794289D01*
X66167719Y20794290D01*
X65946954Y20870080D01*
X65755730Y20901989D01*
X65716712Y20908500D01*
X65483288Y20908500D01*
X65444270Y20901989D01*
X65253045Y20870080D01*
X65032280Y20794290D01*
X65032266Y20794284D01*
X64826988Y20683194D01*
X64826985Y20683192D01*
X64642781Y20539819D01*
X64639010Y20536347D01*
X64638290Y20537129D01*
X64582899Y20503853D01*
X64513061Y20505966D01*
X64455452Y20545500D01*
X64435397Y20580497D01*
X64414419Y20636739D01*
X64410889Y20646204D01*
X64323261Y20763261D01*
X64206204Y20850889D01*
X64198410Y20853796D01*
X64069203Y20901989D01*
X64008654Y20908500D01*
X64008638Y20908500D01*
X62111362Y20908500D01*
X62111345Y20908500D01*
X62050797Y20901989D01*
X62050795Y20901989D01*
X61913795Y20850889D01*
X61796739Y20763261D01*
X61709111Y20646205D01*
X61658011Y20509205D01*
X61658011Y20509203D01*
X61651500Y20448655D01*
X61651500Y18551346D01*
X37780492Y18551346D01*
X37793498Y18700000D01*
X37773543Y18928087D01*
X37714284Y19149243D01*
X37696930Y19186458D01*
X37659197Y19267378D01*
X37617523Y19356749D01*
X37486198Y19544300D01*
X37324300Y19706198D01*
X37136749Y19837523D01*
X37136745Y19837525D01*
X36929249Y19934282D01*
X36929238Y19934286D01*
X36708089Y19993543D01*
X36708081Y19993544D01*
X36480002Y20013498D01*
X36479998Y20013498D01*
X36251918Y19993544D01*
X36251910Y19993543D01*
X36030761Y19934286D01*
X36030750Y19934282D01*
X35823254Y19837525D01*
X35823252Y19837524D01*
X35752856Y19788233D01*
X35635700Y19706198D01*
X35635698Y19706197D01*
X35635695Y19706194D01*
X35473806Y19544305D01*
X35473803Y19544302D01*
X35473802Y19544300D01*
X35424442Y19473807D01*
X35342476Y19356748D01*
X35342475Y19356746D01*
X35245718Y19149250D01*
X35245714Y19149239D01*
X35186457Y18928090D01*
X35186456Y18928082D01*
X35166502Y18700002D01*
X35166502Y18699999D01*
X27633498Y18699999D01*
X27633498Y18700000D01*
X27613543Y18928087D01*
X27554284Y19149243D01*
X27536930Y19186458D01*
X27499197Y19267378D01*
X27457523Y19356749D01*
X27326198Y19544300D01*
X27164300Y19706198D01*
X26976749Y19837523D01*
X26976745Y19837525D01*
X26769249Y19934282D01*
X26769238Y19934286D01*
X26548089Y19993543D01*
X26548081Y19993544D01*
X26320002Y20013498D01*
X26319998Y20013498D01*
X26091918Y19993544D01*
X26091910Y19993543D01*
X25870761Y19934286D01*
X25870750Y19934282D01*
X25663254Y19837525D01*
X25663252Y19837524D01*
X25592856Y19788233D01*
X25475700Y19706198D01*
X25475698Y19706197D01*
X25475695Y19706194D01*
X25313806Y19544305D01*
X25313803Y19544302D01*
X25313802Y19544300D01*
X25264442Y19473807D01*
X25182476Y19356748D01*
X25182475Y19356746D01*
X25085718Y19149250D01*
X25085714Y19149239D01*
X25026457Y18928090D01*
X25026456Y18928082D01*
X25006502Y18700002D01*
X25006502Y18699999D01*
X10922764Y18699999D01*
X11056749Y18762477D01*
X11244300Y18893802D01*
X11406198Y19055700D01*
X11537523Y19243251D01*
X11634284Y19450757D01*
X11693543Y19671913D01*
X11713498Y19900000D01*
X11693543Y20128087D01*
X11634284Y20349243D01*
X11573312Y20479999D01*
X14286502Y20479999D01*
X14306456Y20251919D01*
X14306457Y20251911D01*
X14365714Y20030762D01*
X14365718Y20030751D01*
X14426689Y19899999D01*
X14462477Y19823251D01*
X14593802Y19635700D01*
X14755700Y19473802D01*
X14943251Y19342477D01*
X15068091Y19284264D01*
X15150750Y19245719D01*
X15150752Y19245719D01*
X15150757Y19245716D01*
X15371913Y19186457D01*
X15534832Y19172204D01*
X15599998Y19166502D01*
X15600000Y19166502D01*
X15600002Y19166502D01*
X15657021Y19171491D01*
X15828087Y19186457D01*
X16049243Y19245716D01*
X16256749Y19342477D01*
X16444300Y19473802D01*
X16606198Y19635700D01*
X16737523Y19823251D01*
X16834284Y20030757D01*
X16893543Y20251913D01*
X16913498Y20479999D01*
X21906502Y20479999D01*
X21926456Y20251919D01*
X21926457Y20251911D01*
X21985714Y20030762D01*
X21985718Y20030751D01*
X22046689Y19899999D01*
X22082477Y19823251D01*
X22213802Y19635700D01*
X22375700Y19473802D01*
X22563251Y19342477D01*
X22688091Y19284264D01*
X22770750Y19245719D01*
X22770752Y19245719D01*
X22770757Y19245716D01*
X22991913Y19186457D01*
X23154832Y19172204D01*
X23219998Y19166502D01*
X23220000Y19166502D01*
X23220002Y19166502D01*
X23277021Y19171491D01*
X23448087Y19186457D01*
X23669243Y19245716D01*
X23876749Y19342477D01*
X24064300Y19473802D01*
X24226198Y19635700D01*
X24357523Y19823251D01*
X24454284Y20030757D01*
X24513543Y20251913D01*
X24533498Y20480000D01*
X24513543Y20708087D01*
X24454284Y20929243D01*
X24443969Y20951363D01*
X24357524Y21136746D01*
X24357523Y21136748D01*
X24357523Y21136749D01*
X24226198Y21324300D01*
X24064300Y21486198D01*
X23876749Y21617523D01*
X23833655Y21637618D01*
X23781215Y21683790D01*
X23762063Y21750983D01*
X23776878Y21799999D01*
X39166502Y21799999D01*
X39186456Y21571919D01*
X39186457Y21571911D01*
X39245714Y21350762D01*
X39245718Y21350751D01*
X39322382Y21186345D01*
X39342477Y21143251D01*
X39473802Y20955700D01*
X39635700Y20793802D01*
X39823251Y20662477D01*
X39858147Y20646205D01*
X40030750Y20565719D01*
X40030752Y20565719D01*
X40030757Y20565716D01*
X40251913Y20506457D01*
X40414832Y20492204D01*
X40479998Y20486502D01*
X40480000Y20486502D01*
X40480002Y20486502D01*
X40537139Y20491501D01*
X40708087Y20506457D01*
X40929243Y20565716D01*
X41136749Y20662477D01*
X41324300Y20793802D01*
X41486198Y20955700D01*
X41617523Y21143251D01*
X41637618Y21186345D01*
X41683790Y21238785D01*
X41750983Y21257937D01*
X41817864Y21237722D01*
X41862382Y21186345D01*
X41882477Y21143251D01*
X42013802Y20955700D01*
X42175700Y20793802D01*
X42363251Y20662477D01*
X42398147Y20646205D01*
X42570750Y20565719D01*
X42570752Y20565719D01*
X42570757Y20565716D01*
X42791913Y20506457D01*
X42954832Y20492204D01*
X43019998Y20486502D01*
X43020000Y20486502D01*
X43020002Y20486502D01*
X43077139Y20491501D01*
X43248087Y20506457D01*
X43469243Y20565716D01*
X43676749Y20662477D01*
X43864300Y20793802D01*
X44026198Y20955700D01*
X44157523Y21143251D01*
X44177618Y21186345D01*
X44223790Y21238785D01*
X44290983Y21257937D01*
X44357864Y21237722D01*
X44402382Y21186345D01*
X44422477Y21143251D01*
X44553802Y20955700D01*
X44715700Y20793802D01*
X44903251Y20662477D01*
X44938147Y20646205D01*
X45110750Y20565719D01*
X45110752Y20565719D01*
X45110757Y20565716D01*
X45331913Y20506457D01*
X45494832Y20492204D01*
X45559998Y20486502D01*
X45560000Y20486502D01*
X45560002Y20486502D01*
X45617139Y20491501D01*
X45788087Y20506457D01*
X46009243Y20565716D01*
X46216749Y20662477D01*
X46404300Y20793802D01*
X46566198Y20955700D01*
X46571566Y20963368D01*
X46626139Y21006992D01*
X46695637Y21014187D01*
X46757993Y20982667D01*
X46793409Y20922438D01*
X46796430Y20905502D01*
X46798011Y20890798D01*
X46798011Y20890796D01*
X46834189Y20793802D01*
X46849111Y20753796D01*
X46936739Y20636739D01*
X47053796Y20549111D01*
X47190799Y20498011D01*
X47218050Y20495082D01*
X47251345Y20491501D01*
X47251362Y20491500D01*
X48948638Y20491500D01*
X48948654Y20491501D01*
X48975692Y20494409D01*
X49009201Y20498011D01*
X49146204Y20549111D01*
X49263261Y20636739D01*
X49350889Y20753796D01*
X49401989Y20890799D01*
X49406123Y20929250D01*
X49408499Y20951346D01*
X49408500Y20951363D01*
X49408500Y22579999D01*
X55586502Y22579999D01*
X55606456Y22351919D01*
X55606457Y22351911D01*
X55665714Y22130762D01*
X55665718Y22130751D01*
X55762475Y21923255D01*
X55762477Y21923251D01*
X55893802Y21735700D01*
X56055700Y21573802D01*
X56243251Y21442477D01*
X56368091Y21384264D01*
X56450750Y21345719D01*
X56450752Y21345719D01*
X56450757Y21345716D01*
X56671913Y21286457D01*
X56834832Y21272204D01*
X56899998Y21266502D01*
X56900000Y21266502D01*
X56900002Y21266502D01*
X56957021Y21271491D01*
X57128087Y21286457D01*
X57349243Y21345716D01*
X57556749Y21442477D01*
X57744300Y21573802D01*
X57906198Y21735700D01*
X58037523Y21923251D01*
X58134284Y22130757D01*
X58193543Y22351913D01*
X58213498Y22580000D01*
X58212832Y22587608D01*
X58198744Y22748638D01*
X58193543Y22808087D01*
X58134284Y23029243D01*
X58131934Y23034282D01*
X58077560Y23150889D01*
X58037523Y23236749D01*
X57906198Y23424300D01*
X57744300Y23586198D01*
X57556749Y23717523D01*
X57556745Y23717525D01*
X57349249Y23814282D01*
X57349238Y23814286D01*
X57128089Y23873543D01*
X57128081Y23873544D01*
X56900002Y23893498D01*
X56899998Y23893498D01*
X56671918Y23873544D01*
X56671910Y23873543D01*
X56450761Y23814286D01*
X56450750Y23814282D01*
X56243254Y23717525D01*
X56243252Y23717524D01*
X56243251Y23717523D01*
X56055700Y23586198D01*
X56055698Y23586197D01*
X56055695Y23586194D01*
X55893806Y23424305D01*
X55762476Y23236748D01*
X55762475Y23236746D01*
X55665718Y23029250D01*
X55665714Y23029239D01*
X55606457Y22808090D01*
X55606456Y22808082D01*
X55586502Y22580002D01*
X55586502Y22579999D01*
X49408500Y22579999D01*
X49408500Y22648638D01*
X49408499Y22648655D01*
X49405157Y22679730D01*
X49401989Y22709201D01*
X49350889Y22846204D01*
X49263261Y22963261D01*
X49146204Y23050889D01*
X49113034Y23063261D01*
X49009203Y23101989D01*
X48948654Y23108500D01*
X48948638Y23108500D01*
X47251362Y23108500D01*
X47251345Y23108500D01*
X47190797Y23101989D01*
X47190795Y23101989D01*
X47053795Y23050889D01*
X46936739Y22963261D01*
X46849111Y22846205D01*
X46798011Y22709205D01*
X46798011Y22709203D01*
X46796430Y22694499D01*
X46769691Y22629948D01*
X46712298Y22590101D01*
X46642473Y22587608D01*
X46582384Y22623262D01*
X46571574Y22636621D01*
X46566198Y22644300D01*
X46404300Y22806198D01*
X46216749Y22937523D01*
X46216745Y22937525D01*
X46009249Y23034282D01*
X46009238Y23034286D01*
X45788089Y23093543D01*
X45788081Y23093544D01*
X45560002Y23113498D01*
X45559998Y23113498D01*
X45331918Y23093544D01*
X45331910Y23093543D01*
X45110761Y23034286D01*
X45110750Y23034282D01*
X44903254Y22937525D01*
X44903252Y22937524D01*
X44903251Y22937523D01*
X44715700Y22806198D01*
X44715698Y22806197D01*
X44715695Y22806194D01*
X44553806Y22644305D01*
X44422476Y22456749D01*
X44402382Y22413655D01*
X44356209Y22361216D01*
X44289016Y22342064D01*
X44222135Y22362280D01*
X44177618Y22413655D01*
X44157523Y22456749D01*
X44026198Y22644300D01*
X43864300Y22806198D01*
X43676749Y22937523D01*
X43676745Y22937525D01*
X43469249Y23034282D01*
X43469238Y23034286D01*
X43248089Y23093543D01*
X43248081Y23093544D01*
X43020002Y23113498D01*
X43019998Y23113498D01*
X42791918Y23093544D01*
X42791910Y23093543D01*
X42570761Y23034286D01*
X42570750Y23034282D01*
X42363254Y22937525D01*
X42363252Y22937524D01*
X42363251Y22937523D01*
X42175700Y22806198D01*
X42175698Y22806197D01*
X42175695Y22806194D01*
X42013806Y22644305D01*
X41882476Y22456749D01*
X41862382Y22413655D01*
X41816209Y22361216D01*
X41749016Y22342064D01*
X41682135Y22362280D01*
X41637618Y22413655D01*
X41617523Y22456749D01*
X41486198Y22644300D01*
X41324300Y22806198D01*
X41136749Y22937523D01*
X41136745Y22937525D01*
X40929249Y23034282D01*
X40929238Y23034286D01*
X40708089Y23093543D01*
X40708081Y23093544D01*
X40480002Y23113498D01*
X40479998Y23113498D01*
X40251918Y23093544D01*
X40251910Y23093543D01*
X40030761Y23034286D01*
X40030750Y23034282D01*
X39823254Y22937525D01*
X39823252Y22937524D01*
X39823251Y22937523D01*
X39635700Y22806198D01*
X39635698Y22806197D01*
X39635695Y22806194D01*
X39473806Y22644305D01*
X39473803Y22644302D01*
X39473802Y22644300D01*
X39422302Y22570751D01*
X39342476Y22456748D01*
X39342475Y22456746D01*
X39245718Y22249250D01*
X39245714Y22249239D01*
X39186457Y22028090D01*
X39186456Y22028082D01*
X39166502Y21800002D01*
X39166502Y21799999D01*
X23776878Y21799999D01*
X23782278Y21817864D01*
X23833655Y21862382D01*
X23836882Y21863888D01*
X23876749Y21882477D01*
X24064300Y22013802D01*
X24226198Y22175700D01*
X24357523Y22363251D01*
X24454284Y22570757D01*
X24513543Y22791913D01*
X24533498Y23020000D01*
X24532248Y23034282D01*
X24513543Y23248082D01*
X24513543Y23248087D01*
X24454284Y23469243D01*
X24357523Y23676749D01*
X24226198Y23864300D01*
X24064300Y24026198D01*
X23876749Y24157523D01*
X23823596Y24182309D01*
X23771158Y24228481D01*
X23752007Y24295675D01*
X23772223Y24362556D01*
X23823600Y24407073D01*
X23872483Y24429867D01*
X24058820Y24560343D01*
X24219657Y24721180D01*
X24350134Y24907518D01*
X24446265Y25113674D01*
X24446269Y25113683D01*
X24457370Y25155111D01*
X28186502Y25155111D01*
X28206456Y24927031D01*
X28206457Y24927023D01*
X28265714Y24705874D01*
X28265718Y24705863D01*
X28362475Y24498367D01*
X28362477Y24498363D01*
X28493802Y24310812D01*
X28655700Y24148914D01*
X28843251Y24017589D01*
X28968091Y23959376D01*
X29050750Y23920831D01*
X29050752Y23920831D01*
X29050757Y23920828D01*
X29271913Y23861569D01*
X29434832Y23847316D01*
X29499998Y23841614D01*
X29500000Y23841614D01*
X29500002Y23841614D01*
X29557021Y23846603D01*
X29728087Y23861569D01*
X29949243Y23920828D01*
X30156749Y24017589D01*
X30344300Y24148914D01*
X30506198Y24310812D01*
X30569591Y24401346D01*
X35541500Y24401346D01*
X35548011Y24340798D01*
X35548011Y24340796D01*
X35592271Y24222135D01*
X35599111Y24203796D01*
X35686739Y24086739D01*
X35803796Y23999111D01*
X35940799Y23948011D01*
X35968050Y23945082D01*
X36001345Y23941501D01*
X36001362Y23941500D01*
X37798638Y23941500D01*
X37798654Y23941501D01*
X37825692Y23944409D01*
X37859201Y23948011D01*
X37996204Y23999111D01*
X38113261Y24086739D01*
X38200889Y24203796D01*
X38251989Y24340799D01*
X38255591Y24374308D01*
X38258499Y24401346D01*
X38258500Y24401363D01*
X38258500Y26198638D01*
X38258499Y26198655D01*
X38255157Y26229730D01*
X38251989Y26259201D01*
X38200889Y26396204D01*
X38113261Y26513261D01*
X37996204Y26600889D01*
X37859203Y26651989D01*
X37798654Y26658500D01*
X37798638Y26658500D01*
X36001362Y26658500D01*
X36001345Y26658500D01*
X35940797Y26651989D01*
X35940795Y26651989D01*
X35803795Y26600889D01*
X35686739Y26513261D01*
X35599111Y26396205D01*
X35548011Y26259205D01*
X35548011Y26259203D01*
X35541500Y26198655D01*
X35541500Y24401346D01*
X30569591Y24401346D01*
X30637523Y24498363D01*
X30734284Y24705869D01*
X30793543Y24927025D01*
X30813498Y25155112D01*
X30813070Y25160000D01*
X30799947Y25310000D01*
X30793543Y25383199D01*
X30734284Y25604355D01*
X30733303Y25606458D01*
X30648609Y25788087D01*
X30637523Y25811861D01*
X30637520Y25811865D01*
X30632586Y25818912D01*
X30610260Y25885119D01*
X30627273Y25952886D01*
X30659857Y25989304D01*
X30663261Y25991851D01*
X30750889Y26108908D01*
X30801989Y26245911D01*
X30805591Y26279420D01*
X30808499Y26306458D01*
X30808500Y26306475D01*
X30808500Y27051346D01*
X42051500Y27051346D01*
X42058011Y26990798D01*
X42058011Y26990796D01*
X42091878Y26899999D01*
X42109111Y26853796D01*
X42196739Y26736739D01*
X42313796Y26649111D01*
X42450799Y26598011D01*
X42478050Y26595082D01*
X42511345Y26591501D01*
X42511362Y26591500D01*
X44408638Y26591500D01*
X44408654Y26591501D01*
X44435692Y26594409D01*
X44469201Y26598011D01*
X44606204Y26649111D01*
X44723261Y26736739D01*
X44810889Y26853796D01*
X44835397Y26919505D01*
X44877268Y26975437D01*
X44942733Y26999853D01*
X45011005Y26985001D01*
X45038724Y26963344D01*
X45039010Y26963653D01*
X45042774Y26960189D01*
X45042780Y26960182D01*
X45226983Y26816810D01*
X45226985Y26816809D01*
X45226988Y26816807D01*
X45264638Y26796432D01*
X45432273Y26705713D01*
X45530734Y26671911D01*
X45653045Y26629921D01*
X45653047Y26629921D01*
X45653049Y26629920D01*
X45883288Y26591500D01*
X45883289Y26591500D01*
X46116711Y26591500D01*
X46116712Y26591500D01*
X46346951Y26629920D01*
X46567727Y26705713D01*
X46773017Y26816810D01*
X46957220Y26960182D01*
X47041143Y27051346D01*
X49051500Y27051346D01*
X49058011Y26990798D01*
X49058011Y26990796D01*
X49091878Y26899999D01*
X49109111Y26853796D01*
X49196739Y26736739D01*
X49313796Y26649111D01*
X49450799Y26598011D01*
X49478050Y26595082D01*
X49511345Y26591501D01*
X49511362Y26591500D01*
X51408638Y26591500D01*
X51408654Y26591501D01*
X51435692Y26594409D01*
X51469201Y26598011D01*
X51606204Y26649111D01*
X51723261Y26736739D01*
X51810889Y26853796D01*
X51835397Y26919505D01*
X51877268Y26975437D01*
X51942733Y26999853D01*
X52011005Y26985001D01*
X52038724Y26963344D01*
X52039010Y26963653D01*
X52042774Y26960189D01*
X52042780Y26960182D01*
X52226983Y26816810D01*
X52226985Y26816809D01*
X52226988Y26816807D01*
X52264638Y26796432D01*
X52432273Y26705713D01*
X52530734Y26671911D01*
X52653045Y26629921D01*
X52653047Y26629921D01*
X52653049Y26629920D01*
X52883288Y26591500D01*
X52883289Y26591500D01*
X53116711Y26591500D01*
X53116712Y26591500D01*
X53346951Y26629920D01*
X53567727Y26705713D01*
X53773017Y26816810D01*
X53957220Y26960182D01*
X54041143Y27051346D01*
X56051500Y27051346D01*
X56058011Y26990798D01*
X56058011Y26990796D01*
X56091878Y26899999D01*
X56109111Y26853796D01*
X56196739Y26736739D01*
X56313796Y26649111D01*
X56450799Y26598011D01*
X56478050Y26595082D01*
X56511345Y26591501D01*
X56511362Y26591500D01*
X58408638Y26591500D01*
X58408654Y26591501D01*
X58435692Y26594409D01*
X58469201Y26598011D01*
X58606204Y26649111D01*
X58723261Y26736739D01*
X58810889Y26853796D01*
X58835397Y26919505D01*
X58877268Y26975437D01*
X58942733Y26999853D01*
X59011005Y26985001D01*
X59038724Y26963344D01*
X59039010Y26963653D01*
X59042774Y26960189D01*
X59042780Y26960182D01*
X59226983Y26816810D01*
X59226985Y26816809D01*
X59226988Y26816807D01*
X59264638Y26796432D01*
X59432273Y26705713D01*
X59530734Y26671911D01*
X59653045Y26629921D01*
X59653047Y26629921D01*
X59653049Y26629920D01*
X59883288Y26591500D01*
X59883289Y26591500D01*
X60116711Y26591500D01*
X60116712Y26591500D01*
X60346951Y26629920D01*
X60567727Y26705713D01*
X60773017Y26816810D01*
X60957220Y26960182D01*
X61115314Y27131917D01*
X61242984Y27327331D01*
X61336749Y27541093D01*
X61394051Y27767374D01*
X61413327Y28000000D01*
X61413016Y28003750D01*
X61400476Y28155084D01*
X61394051Y28232626D01*
X61336749Y28458907D01*
X61242984Y28672669D01*
X61115314Y28868083D01*
X61115313Y28868085D01*
X60957223Y29039815D01*
X60957222Y29039816D01*
X60957220Y29039818D01*
X60773017Y29183190D01*
X60773015Y29183191D01*
X60773014Y29183192D01*
X60773011Y29183194D01*
X60567733Y29294284D01*
X60567730Y29294285D01*
X60567727Y29294287D01*
X60567721Y29294289D01*
X60567719Y29294290D01*
X60346954Y29370080D01*
X60155730Y29401989D01*
X60116712Y29408500D01*
X59883288Y29408500D01*
X59844270Y29401989D01*
X59653045Y29370080D01*
X59432280Y29294290D01*
X59432266Y29294284D01*
X59226988Y29183194D01*
X59226985Y29183192D01*
X59042781Y29039819D01*
X59039010Y29036347D01*
X59038290Y29037129D01*
X58982899Y29003853D01*
X58913061Y29005966D01*
X58855452Y29045500D01*
X58835397Y29080497D01*
X58825811Y29106198D01*
X58810889Y29146204D01*
X58723261Y29263261D01*
X58606204Y29350889D01*
X58469203Y29401989D01*
X58408654Y29408500D01*
X58408638Y29408500D01*
X56511362Y29408500D01*
X56511345Y29408500D01*
X56450797Y29401989D01*
X56450795Y29401989D01*
X56313795Y29350889D01*
X56196739Y29263261D01*
X56109111Y29146205D01*
X56058011Y29009205D01*
X56058011Y29009203D01*
X56051500Y28948655D01*
X56051500Y27051346D01*
X54041143Y27051346D01*
X54115314Y27131917D01*
X54242984Y27327331D01*
X54336749Y27541093D01*
X54394051Y27767374D01*
X54413327Y28000000D01*
X54413016Y28003750D01*
X54400476Y28155084D01*
X54394051Y28232626D01*
X54336749Y28458907D01*
X54242984Y28672669D01*
X54115314Y28868083D01*
X54115313Y28868085D01*
X53957223Y29039815D01*
X53957222Y29039816D01*
X53957220Y29039818D01*
X53773017Y29183190D01*
X53773015Y29183191D01*
X53773014Y29183192D01*
X53773011Y29183194D01*
X53567733Y29294284D01*
X53567730Y29294285D01*
X53567727Y29294287D01*
X53567721Y29294289D01*
X53567719Y29294290D01*
X53346954Y29370080D01*
X53155730Y29401989D01*
X53116712Y29408500D01*
X52883288Y29408500D01*
X52844270Y29401989D01*
X52653045Y29370080D01*
X52432280Y29294290D01*
X52432266Y29294284D01*
X52226988Y29183194D01*
X52226985Y29183192D01*
X52042781Y29039819D01*
X52039010Y29036347D01*
X52038290Y29037129D01*
X51982899Y29003853D01*
X51913061Y29005966D01*
X51855452Y29045500D01*
X51835397Y29080497D01*
X51825811Y29106198D01*
X51810889Y29146204D01*
X51723261Y29263261D01*
X51606204Y29350889D01*
X51469203Y29401989D01*
X51408654Y29408500D01*
X51408638Y29408500D01*
X49511362Y29408500D01*
X49511345Y29408500D01*
X49450797Y29401989D01*
X49450795Y29401989D01*
X49313795Y29350889D01*
X49196739Y29263261D01*
X49109111Y29146205D01*
X49058011Y29009205D01*
X49058011Y29009203D01*
X49051500Y28948655D01*
X49051500Y27051346D01*
X47041143Y27051346D01*
X47115314Y27131917D01*
X47242984Y27327331D01*
X47336749Y27541093D01*
X47394051Y27767374D01*
X47413327Y28000000D01*
X47413016Y28003750D01*
X47400476Y28155084D01*
X47394051Y28232626D01*
X47336749Y28458907D01*
X47242984Y28672669D01*
X47115314Y28868083D01*
X47115313Y28868085D01*
X46957223Y29039815D01*
X46957222Y29039816D01*
X46957220Y29039818D01*
X46773017Y29183190D01*
X46773015Y29183191D01*
X46773014Y29183192D01*
X46773011Y29183194D01*
X46567733Y29294284D01*
X46567730Y29294285D01*
X46567727Y29294287D01*
X46567721Y29294289D01*
X46567719Y29294290D01*
X46346954Y29370080D01*
X46155730Y29401989D01*
X46116712Y29408500D01*
X45883288Y29408500D01*
X45844270Y29401989D01*
X45653045Y29370080D01*
X45432280Y29294290D01*
X45432266Y29294284D01*
X45226988Y29183194D01*
X45226985Y29183192D01*
X45042781Y29039819D01*
X45039010Y29036347D01*
X45038290Y29037129D01*
X44982899Y29003853D01*
X44913061Y29005966D01*
X44855452Y29045500D01*
X44835397Y29080497D01*
X44825811Y29106198D01*
X44810889Y29146204D01*
X44723261Y29263261D01*
X44606204Y29350889D01*
X44469203Y29401989D01*
X44408654Y29408500D01*
X44408638Y29408500D01*
X42511362Y29408500D01*
X42511345Y29408500D01*
X42450797Y29401989D01*
X42450795Y29401989D01*
X42313795Y29350889D01*
X42196739Y29263261D01*
X42109111Y29146205D01*
X42058011Y29009205D01*
X42058011Y29009203D01*
X42051500Y28948655D01*
X42051500Y27051346D01*
X30808500Y27051346D01*
X30808500Y28003750D01*
X30808499Y28003767D01*
X30804869Y28037525D01*
X30801989Y28064313D01*
X30788678Y28100000D01*
X30753788Y28193543D01*
X30750889Y28201316D01*
X30663261Y28318373D01*
X30546204Y28406001D01*
X30409203Y28457101D01*
X30348654Y28463612D01*
X30348638Y28463612D01*
X28651362Y28463612D01*
X28651345Y28463612D01*
X28590797Y28457101D01*
X28590795Y28457101D01*
X28453795Y28406001D01*
X28336739Y28318373D01*
X28249111Y28201317D01*
X28198011Y28064317D01*
X28198011Y28064315D01*
X28191500Y28003767D01*
X28191500Y26306458D01*
X28198011Y26245910D01*
X28198011Y26245908D01*
X28249111Y26108908D01*
X28336739Y25991851D01*
X28340146Y25989300D01*
X28342698Y25985892D01*
X28343010Y25985580D01*
X28342965Y25985536D01*
X28382018Y25933368D01*
X28387004Y25863676D01*
X28367417Y25818917D01*
X28362479Y25811865D01*
X28362474Y25811856D01*
X28265718Y25604362D01*
X28265714Y25604351D01*
X28206457Y25383202D01*
X28206456Y25383194D01*
X28186502Y25155114D01*
X28186502Y25155111D01*
X24457370Y25155111D01*
X24498872Y25310000D01*
X23535686Y25310000D01*
X23540080Y25314394D01*
X23592741Y25405606D01*
X23620000Y25507339D01*
X23620000Y25612661D01*
X23592741Y25714394D01*
X23540080Y25805606D01*
X23535686Y25810000D01*
X24498872Y25810000D01*
X24498872Y25810001D01*
X24446269Y26006318D01*
X24446265Y26006327D01*
X24350134Y26212483D01*
X24219657Y26398821D01*
X24058820Y26559658D01*
X23872481Y26690135D01*
X23872479Y26690136D01*
X23823599Y26712929D01*
X23771159Y26759101D01*
X23752007Y26826294D01*
X23772223Y26893176D01*
X23823599Y26937693D01*
X23876749Y26962477D01*
X24064300Y27093802D01*
X24226198Y27255700D01*
X24357523Y27443251D01*
X24454284Y27650757D01*
X24513543Y27871913D01*
X24533498Y28100000D01*
X24513543Y28328087D01*
X24454284Y28549243D01*
X24357523Y28756749D01*
X24226198Y28944300D01*
X24064300Y29106198D01*
X23876749Y29237523D01*
X23876745Y29237525D01*
X23669249Y29334282D01*
X23669238Y29334286D01*
X23448089Y29393543D01*
X23448081Y29393544D01*
X23220002Y29413498D01*
X23219998Y29413498D01*
X22991918Y29393544D01*
X22991910Y29393543D01*
X22770761Y29334286D01*
X22770750Y29334282D01*
X22563254Y29237525D01*
X22563252Y29237524D01*
X22563251Y29237523D01*
X22375700Y29106198D01*
X22375698Y29106197D01*
X22375695Y29106194D01*
X22213806Y28944305D01*
X22082476Y28756748D01*
X22082475Y28756746D01*
X21985718Y28549250D01*
X21985714Y28549239D01*
X21926457Y28328090D01*
X21926456Y28328082D01*
X21906502Y28100002D01*
X21906502Y28099999D01*
X21926456Y27871919D01*
X21926457Y27871911D01*
X21985714Y27650762D01*
X21985718Y27650751D01*
X22082475Y27443255D01*
X22082477Y27443251D01*
X22213802Y27255700D01*
X22375700Y27093802D01*
X22544742Y26975437D01*
X22563251Y26962477D01*
X22616401Y26937693D01*
X22668840Y26891521D01*
X22687992Y26824327D01*
X22667776Y26757446D01*
X22616401Y26712929D01*
X22567517Y26690135D01*
X22381179Y26559658D01*
X22220342Y26398821D01*
X22089865Y26212483D01*
X21993734Y26006327D01*
X21993730Y26006318D01*
X21941127Y25810001D01*
X21941128Y25810000D01*
X22904314Y25810000D01*
X22899920Y25805606D01*
X22847259Y25714394D01*
X22820000Y25612661D01*
X22820000Y25507339D01*
X22847259Y25405606D01*
X22899920Y25314394D01*
X22904314Y25310000D01*
X21941128Y25310000D01*
X21993730Y25113683D01*
X21993734Y25113674D01*
X22089865Y24907518D01*
X22220342Y24721180D01*
X22381179Y24560343D01*
X22567517Y24429867D01*
X22616399Y24407073D01*
X22668839Y24360901D01*
X22687992Y24293708D01*
X22667777Y24226826D01*
X22616402Y24182309D01*
X22563256Y24157526D01*
X22563252Y24157524D01*
X22550963Y24148919D01*
X22375700Y24026198D01*
X22375698Y24026197D01*
X22375695Y24026194D01*
X22213806Y23864305D01*
X22213803Y23864302D01*
X22213802Y23864300D01*
X22178779Y23814282D01*
X22082476Y23676748D01*
X22082475Y23676746D01*
X21985718Y23469250D01*
X21985714Y23469239D01*
X21926457Y23248090D01*
X21926456Y23248082D01*
X21906502Y23020002D01*
X21906502Y23019999D01*
X21926456Y22791919D01*
X21926457Y22791911D01*
X21985714Y22570762D01*
X21985718Y22570751D01*
X22058973Y22413655D01*
X22082477Y22363251D01*
X22213802Y22175700D01*
X22375700Y22013802D01*
X22563251Y21882477D01*
X22606345Y21862382D01*
X22658784Y21816209D01*
X22677936Y21749016D01*
X22657720Y21682135D01*
X22606345Y21637618D01*
X22563251Y21617524D01*
X22498113Y21571913D01*
X22375700Y21486198D01*
X22375698Y21486197D01*
X22375695Y21486194D01*
X22213806Y21324305D01*
X22213803Y21324302D01*
X22213802Y21324300D01*
X22167334Y21257937D01*
X22082476Y21136748D01*
X22082475Y21136746D01*
X21985718Y20929250D01*
X21985714Y20929239D01*
X21926457Y20708090D01*
X21926456Y20708082D01*
X21906502Y20480002D01*
X21906502Y20479999D01*
X16913498Y20479999D01*
X16913498Y20480000D01*
X16893543Y20708087D01*
X16834284Y20929243D01*
X16823969Y20951363D01*
X16737524Y21136746D01*
X16737523Y21136748D01*
X16737523Y21136749D01*
X16606198Y21324300D01*
X16444300Y21486198D01*
X16256749Y21617523D01*
X16213655Y21637618D01*
X16161215Y21683790D01*
X16142063Y21750983D01*
X16162278Y21817864D01*
X16213655Y21862382D01*
X16216882Y21863888D01*
X16256749Y21882477D01*
X16444300Y22013802D01*
X16606198Y22175700D01*
X16737523Y22363251D01*
X16834284Y22570757D01*
X16893543Y22791913D01*
X16913498Y23020000D01*
X16912248Y23034282D01*
X16893543Y23248082D01*
X16893543Y23248087D01*
X16834284Y23469243D01*
X16737523Y23676749D01*
X16606198Y23864300D01*
X16444300Y24026198D01*
X16256749Y24157523D01*
X16213655Y24177618D01*
X16161215Y24223790D01*
X16142063Y24290983D01*
X16162278Y24357864D01*
X16213655Y24402382D01*
X16216882Y24403888D01*
X16256749Y24422477D01*
X16444300Y24553802D01*
X16606198Y24715700D01*
X16737523Y24903251D01*
X16834284Y25110757D01*
X16893543Y25331913D01*
X16913498Y25560000D01*
X16909617Y25604355D01*
X16899990Y25714394D01*
X16893543Y25788087D01*
X16834284Y26009243D01*
X16737523Y26216749D01*
X16606198Y26404300D01*
X16444300Y26566198D01*
X16436627Y26571571D01*
X16393006Y26626147D01*
X16385814Y26695645D01*
X16417338Y26757999D01*
X16477568Y26793412D01*
X16494489Y26796430D01*
X16509201Y26798011D01*
X16646204Y26849111D01*
X16763261Y26936739D01*
X16850889Y27053796D01*
X16901989Y27190799D01*
X16905591Y27224308D01*
X16908499Y27251346D01*
X16908500Y27251363D01*
X16908500Y28948638D01*
X16908499Y28948655D01*
X16905157Y28979730D01*
X16901989Y29009201D01*
X16891572Y29037129D01*
X16865812Y29106194D01*
X16850889Y29146204D01*
X16763261Y29263261D01*
X16646204Y29350889D01*
X16509203Y29401989D01*
X16448654Y29408500D01*
X16448638Y29408500D01*
X14751362Y29408500D01*
X14751345Y29408500D01*
X14690797Y29401989D01*
X14690795Y29401989D01*
X14553795Y29350889D01*
X14436739Y29263261D01*
X14349111Y29146205D01*
X14298011Y29009205D01*
X14298011Y29009203D01*
X14291500Y28948655D01*
X14291500Y27251346D01*
X14298011Y27190798D01*
X14298011Y27190796D01*
X14334189Y27093802D01*
X14349111Y27053796D01*
X14436739Y26936739D01*
X14553796Y26849111D01*
X14653110Y26812069D01*
X14690793Y26798013D01*
X14690799Y26798011D01*
X14705499Y26796431D01*
X14770048Y26769695D01*
X14809897Y26712304D01*
X14812393Y26642479D01*
X14776742Y26582389D01*
X14763377Y26571575D01*
X14763371Y26571569D01*
X14755696Y26566195D01*
X14593806Y26404305D01*
X14593803Y26404302D01*
X14593802Y26404300D01*
X14525304Y26306475D01*
X14462476Y26216748D01*
X14462475Y26216746D01*
X14365718Y26009250D01*
X14365714Y26009239D01*
X14306457Y25788090D01*
X14306456Y25788082D01*
X14286502Y25560002D01*
X14286502Y25559999D01*
X14306456Y25331919D01*
X14306457Y25331911D01*
X14365714Y25110762D01*
X14365718Y25110751D01*
X14451388Y24927031D01*
X14462477Y24903251D01*
X14593802Y24715700D01*
X14755700Y24553802D01*
X14932697Y24429867D01*
X14943251Y24422477D01*
X14986345Y24402382D01*
X15038784Y24356209D01*
X15057936Y24289016D01*
X15037720Y24222135D01*
X14986345Y24177618D01*
X14943251Y24157524D01*
X14842161Y24086739D01*
X14755700Y24026198D01*
X14755698Y24026197D01*
X14755695Y24026194D01*
X14593806Y23864305D01*
X14593803Y23864302D01*
X14593802Y23864300D01*
X14558779Y23814282D01*
X14462476Y23676748D01*
X14462475Y23676746D01*
X14365718Y23469250D01*
X14365714Y23469239D01*
X14306457Y23248090D01*
X14306456Y23248082D01*
X14286502Y23020002D01*
X14286502Y23019999D01*
X14306456Y22791919D01*
X14306457Y22791911D01*
X14365714Y22570762D01*
X14365718Y22570751D01*
X14438973Y22413655D01*
X14462477Y22363251D01*
X14593802Y22175700D01*
X14755700Y22013802D01*
X14943251Y21882477D01*
X14986345Y21862382D01*
X15038784Y21816209D01*
X15057936Y21749016D01*
X15037720Y21682135D01*
X14986345Y21637618D01*
X14943251Y21617524D01*
X14878113Y21571913D01*
X14755700Y21486198D01*
X14755698Y21486197D01*
X14755695Y21486194D01*
X14593806Y21324305D01*
X14593803Y21324302D01*
X14593802Y21324300D01*
X14547334Y21257937D01*
X14462476Y21136748D01*
X14462475Y21136746D01*
X14365718Y20929250D01*
X14365714Y20929239D01*
X14306457Y20708090D01*
X14306456Y20708082D01*
X14286502Y20480002D01*
X14286502Y20479999D01*
X11573312Y20479999D01*
X11537523Y20556749D01*
X11537520Y20556753D01*
X11532586Y20563800D01*
X11510260Y20630007D01*
X11527273Y20697774D01*
X11559857Y20734192D01*
X11563261Y20736739D01*
X11650889Y20853796D01*
X11701989Y20990799D01*
X11705591Y21024308D01*
X11708499Y21051346D01*
X11708500Y21051363D01*
X11708500Y22748638D01*
X11708499Y22748655D01*
X11705157Y22779730D01*
X11701989Y22809201D01*
X11688187Y22846204D01*
X11679522Y22869436D01*
X11650889Y22946204D01*
X11563261Y23063261D01*
X11446204Y23150889D01*
X11309203Y23201989D01*
X11248654Y23208500D01*
X11248638Y23208500D01*
X9551362Y23208500D01*
X9551345Y23208500D01*
X9490797Y23201989D01*
X9490795Y23201989D01*
X9353795Y23150889D01*
X9236739Y23063261D01*
X9149111Y22946205D01*
X9098011Y22809205D01*
X9098011Y22809203D01*
X9091500Y22748655D01*
X9091500Y21051346D01*
X9098011Y20990798D01*
X9098011Y20990796D01*
X9143037Y20870080D01*
X9149111Y20853796D01*
X9236739Y20736739D01*
X9240146Y20734188D01*
X9242698Y20730780D01*
X9243010Y20730468D01*
X9242965Y20730424D01*
X9282018Y20678256D01*
X9287004Y20608564D01*
X9267417Y20563805D01*
X9262479Y20556753D01*
X9262474Y20556744D01*
X9165718Y20349250D01*
X9165714Y20349239D01*
X9106457Y20128090D01*
X9106456Y20128082D01*
X9086502Y19900002D01*
X9086502Y19899999D01*
X75500Y19899999D01*
X75500Y26899999D01*
X706502Y26899999D01*
X726456Y26671919D01*
X726457Y26671911D01*
X785714Y26450762D01*
X785718Y26450751D01*
X881237Y26245910D01*
X882477Y26243251D01*
X1013802Y26055700D01*
X1175700Y25893802D01*
X1363251Y25762477D01*
X1466366Y25714394D01*
X1570750Y25665719D01*
X1570752Y25665719D01*
X1570757Y25665716D01*
X1791913Y25606457D01*
X1954832Y25592204D01*
X2019998Y25586502D01*
X2020000Y25586502D01*
X2020002Y25586502D01*
X2077021Y25591491D01*
X2248087Y25606457D01*
X2469243Y25665716D01*
X2676749Y25762477D01*
X2864300Y25893802D01*
X3026198Y26055700D01*
X3157523Y26243251D01*
X3254284Y26450757D01*
X3313543Y26671913D01*
X3333498Y26899999D01*
X10866502Y26899999D01*
X10886456Y26671919D01*
X10886457Y26671911D01*
X10945714Y26450762D01*
X10945718Y26450751D01*
X11041237Y26245910D01*
X11042477Y26243251D01*
X11173802Y26055700D01*
X11335700Y25893802D01*
X11523251Y25762477D01*
X11626366Y25714394D01*
X11730750Y25665719D01*
X11730752Y25665719D01*
X11730757Y25665716D01*
X11951913Y25606457D01*
X12114832Y25592204D01*
X12179998Y25586502D01*
X12180000Y25586502D01*
X12180002Y25586502D01*
X12237021Y25591491D01*
X12408087Y25606457D01*
X12629243Y25665716D01*
X12836749Y25762477D01*
X13024300Y25893802D01*
X13186198Y26055700D01*
X13317523Y26243251D01*
X13414284Y26450757D01*
X13473543Y26671913D01*
X13493498Y26900000D01*
X13473543Y27128087D01*
X13414284Y27349243D01*
X13317523Y27556749D01*
X13186198Y27744300D01*
X13024300Y27906198D01*
X12836749Y28037523D01*
X12836745Y28037525D01*
X12629249Y28134282D01*
X12629238Y28134286D01*
X12408089Y28193543D01*
X12408081Y28193544D01*
X12180002Y28213498D01*
X12179998Y28213498D01*
X11951918Y28193544D01*
X11951910Y28193543D01*
X11730761Y28134286D01*
X11730750Y28134282D01*
X11523254Y28037525D01*
X11523252Y28037524D01*
X11475018Y28003750D01*
X11335700Y27906198D01*
X11335698Y27906197D01*
X11335695Y27906194D01*
X11173806Y27744305D01*
X11042476Y27556748D01*
X11042475Y27556746D01*
X10945718Y27349250D01*
X10945714Y27349239D01*
X10886457Y27128090D01*
X10886456Y27128082D01*
X10866502Y26900002D01*
X10866502Y26899999D01*
X3333498Y26899999D01*
X3333498Y26900000D01*
X3313543Y27128087D01*
X3254284Y27349243D01*
X3157523Y27556749D01*
X3026198Y27744300D01*
X2864300Y27906198D01*
X2676749Y28037523D01*
X2676745Y28037525D01*
X2469249Y28134282D01*
X2469238Y28134286D01*
X2248089Y28193543D01*
X2248081Y28193544D01*
X2020002Y28213498D01*
X2019998Y28213498D01*
X1791918Y28193544D01*
X1791910Y28193543D01*
X1570761Y28134286D01*
X1570750Y28134282D01*
X1363254Y28037525D01*
X1363252Y28037524D01*
X1315018Y28003750D01*
X1175700Y27906198D01*
X1175698Y27906197D01*
X1175695Y27906194D01*
X1013806Y27744305D01*
X882476Y27556748D01*
X882475Y27556746D01*
X785718Y27349250D01*
X785714Y27349239D01*
X726457Y27128090D01*
X726456Y27128082D01*
X706502Y26900002D01*
X706502Y26899999D01*
X75500Y26899999D01*
X75500Y31699999D01*
X806502Y31699999D01*
X826456Y31471919D01*
X826457Y31471911D01*
X885714Y31250762D01*
X885718Y31250751D01*
X930043Y31155696D01*
X982477Y31043251D01*
X1113802Y30855700D01*
X1275700Y30693802D01*
X1463251Y30562477D01*
X1588091Y30504264D01*
X1670750Y30465719D01*
X1670752Y30465719D01*
X1670757Y30465716D01*
X1891913Y30406457D01*
X2054832Y30392204D01*
X2119998Y30386502D01*
X2120000Y30386502D01*
X2120002Y30386502D01*
X2177021Y30391491D01*
X2348087Y30406457D01*
X2569243Y30465716D01*
X2776749Y30562477D01*
X2964300Y30693802D01*
X3126198Y30855700D01*
X3257523Y31043251D01*
X3354284Y31250757D01*
X3413543Y31471913D01*
X3433498Y31699999D01*
X10966502Y31699999D01*
X10986456Y31471919D01*
X10986457Y31471911D01*
X11045714Y31250762D01*
X11045718Y31250751D01*
X11090043Y31155696D01*
X11142477Y31043251D01*
X11273802Y30855700D01*
X11435700Y30693802D01*
X11623251Y30562477D01*
X11748091Y30504264D01*
X11830750Y30465719D01*
X11830752Y30465719D01*
X11830757Y30465716D01*
X12051913Y30406457D01*
X12214832Y30392204D01*
X12279998Y30386502D01*
X12280000Y30386502D01*
X12280002Y30386502D01*
X12337021Y30391491D01*
X12508087Y30406457D01*
X12729243Y30465716D01*
X12936749Y30562477D01*
X13124300Y30693802D01*
X13286198Y30855700D01*
X13417523Y31043251D01*
X13514284Y31250757D01*
X13573543Y31471913D01*
X13593498Y31700000D01*
X13573543Y31928087D01*
X13554274Y31999999D01*
X24186502Y31999999D01*
X24206456Y31771919D01*
X24206457Y31771911D01*
X24265714Y31550762D01*
X24265718Y31550751D01*
X24302481Y31471913D01*
X24362477Y31343251D01*
X24493802Y31155700D01*
X24655700Y30993802D01*
X24843251Y30862477D01*
X24968091Y30804264D01*
X25050750Y30765719D01*
X25050752Y30765719D01*
X25050757Y30765716D01*
X25271913Y30706457D01*
X25416561Y30693802D01*
X25499998Y30686502D01*
X25500000Y30686502D01*
X25500002Y30686502D01*
X25583439Y30693802D01*
X25728087Y30706457D01*
X25949243Y30765716D01*
X26156749Y30862477D01*
X26344300Y30993802D01*
X26506198Y31155700D01*
X26637523Y31343251D01*
X26734284Y31550757D01*
X26793543Y31771913D01*
X26813498Y31999999D01*
X29186502Y31999999D01*
X29206456Y31771919D01*
X29206457Y31771911D01*
X29265714Y31550762D01*
X29265718Y31550751D01*
X29302481Y31471913D01*
X29362477Y31343251D01*
X29493802Y31155700D01*
X29655700Y30993802D01*
X29843251Y30862477D01*
X29968091Y30804264D01*
X30050750Y30765719D01*
X30050752Y30765719D01*
X30050757Y30765716D01*
X30271913Y30706457D01*
X30416561Y30693802D01*
X30499998Y30686502D01*
X30500000Y30686502D01*
X30500002Y30686502D01*
X30583439Y30693802D01*
X30728087Y30706457D01*
X30949243Y30765716D01*
X31156749Y30862477D01*
X31344300Y30993802D01*
X31506198Y31155700D01*
X31637523Y31343251D01*
X31734284Y31550757D01*
X31793543Y31771913D01*
X31813498Y32000000D01*
X31793543Y32228087D01*
X31734284Y32449243D01*
X31716799Y32486739D01*
X31637524Y32656746D01*
X31637523Y32656748D01*
X31637523Y32656749D01*
X31536275Y32801346D01*
X35941500Y32801346D01*
X35948011Y32740798D01*
X35948011Y32740796D01*
X35979361Y32656746D01*
X35999111Y32603796D01*
X36086739Y32486739D01*
X36203796Y32399111D01*
X36340799Y32348011D01*
X36368050Y32345082D01*
X36401345Y32341501D01*
X36401362Y32341500D01*
X38198638Y32341500D01*
X38198654Y32341501D01*
X38225692Y32344409D01*
X38259201Y32348011D01*
X38396204Y32399111D01*
X38513261Y32486739D01*
X38600889Y32603796D01*
X38651989Y32740799D01*
X38655591Y32774308D01*
X38658499Y32801346D01*
X38658500Y32801363D01*
X38658500Y34598638D01*
X38658499Y34598655D01*
X38655157Y34629730D01*
X38651989Y34659201D01*
X38642140Y34685606D01*
X38618406Y34749239D01*
X38600889Y34796204D01*
X38568105Y34839998D01*
X46695034Y34839998D01*
X46714858Y34613401D01*
X46714860Y34613390D01*
X46773730Y34393683D01*
X46773735Y34393669D01*
X46869863Y34187522D01*
X46920974Y34114528D01*
X47600000Y34793554D01*
X47600000Y34787339D01*
X47627259Y34685606D01*
X47679920Y34594394D01*
X47754394Y34519920D01*
X47845606Y34467259D01*
X47947339Y34440000D01*
X47953553Y34440000D01*
X47274526Y33760975D01*
X47347513Y33709868D01*
X47347521Y33709864D01*
X47553668Y33613736D01*
X47553682Y33613731D01*
X47773389Y33554861D01*
X47773400Y33554859D01*
X47999998Y33535034D01*
X48000002Y33535034D01*
X48226599Y33554859D01*
X48226610Y33554861D01*
X48446317Y33613731D01*
X48446331Y33613736D01*
X48652478Y33709864D01*
X48725471Y33760976D01*
X48046447Y34440000D01*
X48052661Y34440000D01*
X48154394Y34467259D01*
X48245606Y34519920D01*
X48320080Y34594394D01*
X48372741Y34685606D01*
X48400000Y34787339D01*
X48400000Y34793553D01*
X49079024Y34114529D01*
X49130136Y34187522D01*
X49226264Y34393669D01*
X49226269Y34393683D01*
X49285139Y34613390D01*
X49285141Y34613401D01*
X49304966Y34839998D01*
X49304966Y34839999D01*
X50686502Y34839999D01*
X50706456Y34611919D01*
X50706457Y34611911D01*
X50765714Y34390762D01*
X50765718Y34390751D01*
X50860485Y34187522D01*
X50862477Y34183251D01*
X50993802Y33995700D01*
X51155700Y33833802D01*
X51343251Y33702477D01*
X51468091Y33644264D01*
X51550750Y33605719D01*
X51550752Y33605719D01*
X51550757Y33605716D01*
X51771913Y33546457D01*
X51934832Y33532204D01*
X51999998Y33526502D01*
X52000000Y33526502D01*
X52000002Y33526502D01*
X52057021Y33531491D01*
X52228087Y33546457D01*
X52449243Y33605716D01*
X52656749Y33702477D01*
X52844300Y33833802D01*
X53006198Y33995700D01*
X53137523Y34183251D01*
X53234284Y34390757D01*
X53293543Y34611913D01*
X53313498Y34839999D01*
X54686502Y34839999D01*
X54706456Y34611919D01*
X54706457Y34611911D01*
X54765714Y34390762D01*
X54765718Y34390751D01*
X54860485Y34187522D01*
X54862477Y34183251D01*
X54993802Y33995700D01*
X55155700Y33833802D01*
X55343251Y33702477D01*
X55468091Y33644264D01*
X55550750Y33605719D01*
X55550752Y33605719D01*
X55550757Y33605716D01*
X55771913Y33546457D01*
X55934832Y33532204D01*
X55999998Y33526502D01*
X56000000Y33526502D01*
X56000002Y33526502D01*
X56057021Y33531491D01*
X56228087Y33546457D01*
X56449243Y33605716D01*
X56656749Y33702477D01*
X56844300Y33833802D01*
X57006198Y33995700D01*
X57137523Y34183251D01*
X57234284Y34390757D01*
X57293543Y34611913D01*
X57313498Y34839999D01*
X58686502Y34839999D01*
X58706456Y34611919D01*
X58706457Y34611911D01*
X58765714Y34390762D01*
X58765718Y34390751D01*
X58860485Y34187522D01*
X58862477Y34183251D01*
X58993802Y33995700D01*
X59155700Y33833802D01*
X59343251Y33702477D01*
X59468091Y33644264D01*
X59550750Y33605719D01*
X59550752Y33605719D01*
X59550757Y33605716D01*
X59771913Y33546457D01*
X59934832Y33532204D01*
X59999998Y33526502D01*
X60000000Y33526502D01*
X60000002Y33526502D01*
X60057021Y33531491D01*
X60228087Y33546457D01*
X60449243Y33605716D01*
X60656749Y33702477D01*
X60844300Y33833802D01*
X61006198Y33995700D01*
X61137523Y34183251D01*
X61234284Y34390757D01*
X61293543Y34611913D01*
X61313498Y34840000D01*
X61293543Y35068087D01*
X61234284Y35289243D01*
X61137523Y35496749D01*
X61006198Y35684300D01*
X60844300Y35846198D01*
X60656749Y35977523D01*
X60656745Y35977525D01*
X60449249Y36074282D01*
X60449238Y36074286D01*
X60228089Y36133543D01*
X60228081Y36133544D01*
X60000002Y36153498D01*
X59999998Y36153498D01*
X59771918Y36133544D01*
X59771910Y36133543D01*
X59550761Y36074286D01*
X59550750Y36074282D01*
X59343254Y35977525D01*
X59343252Y35977524D01*
X59272856Y35928233D01*
X59155700Y35846198D01*
X59155698Y35846197D01*
X59155695Y35846194D01*
X58993806Y35684305D01*
X58862476Y35496748D01*
X58862475Y35496746D01*
X58765718Y35289250D01*
X58765714Y35289239D01*
X58706457Y35068090D01*
X58706456Y35068082D01*
X58686502Y34840002D01*
X58686502Y34839999D01*
X57313498Y34839999D01*
X57313498Y34840000D01*
X57293543Y35068087D01*
X57234284Y35289243D01*
X57137523Y35496749D01*
X57006198Y35684300D01*
X56844300Y35846198D01*
X56656749Y35977523D01*
X56656745Y35977525D01*
X56449249Y36074282D01*
X56449238Y36074286D01*
X56228089Y36133543D01*
X56228081Y36133544D01*
X56000002Y36153498D01*
X55999998Y36153498D01*
X55771918Y36133544D01*
X55771910Y36133543D01*
X55550761Y36074286D01*
X55550750Y36074282D01*
X55343254Y35977525D01*
X55343252Y35977524D01*
X55272856Y35928233D01*
X55155700Y35846198D01*
X55155698Y35846197D01*
X55155695Y35846194D01*
X54993806Y35684305D01*
X54862476Y35496748D01*
X54862475Y35496746D01*
X54765718Y35289250D01*
X54765714Y35289239D01*
X54706457Y35068090D01*
X54706456Y35068082D01*
X54686502Y34840002D01*
X54686502Y34839999D01*
X53313498Y34839999D01*
X53313498Y34840000D01*
X53293543Y35068087D01*
X53234284Y35289243D01*
X53137523Y35496749D01*
X53006198Y35684300D01*
X52844300Y35846198D01*
X52656749Y35977523D01*
X52656745Y35977525D01*
X52449249Y36074282D01*
X52449238Y36074286D01*
X52228089Y36133543D01*
X52228081Y36133544D01*
X52000002Y36153498D01*
X51999998Y36153498D01*
X51771918Y36133544D01*
X51771910Y36133543D01*
X51550761Y36074286D01*
X51550750Y36074282D01*
X51343254Y35977525D01*
X51343252Y35977524D01*
X51272856Y35928233D01*
X51155700Y35846198D01*
X51155698Y35846197D01*
X51155695Y35846194D01*
X50993806Y35684305D01*
X50862476Y35496748D01*
X50862475Y35496746D01*
X50765718Y35289250D01*
X50765714Y35289239D01*
X50706457Y35068090D01*
X50706456Y35068082D01*
X50686502Y34840002D01*
X50686502Y34839999D01*
X49304966Y34839999D01*
X49304966Y34840003D01*
X49285141Y35066600D01*
X49285139Y35066611D01*
X49226269Y35286318D01*
X49226264Y35286332D01*
X49130136Y35492479D01*
X49130132Y35492487D01*
X49079025Y35565474D01*
X48400000Y34886449D01*
X48400000Y34892661D01*
X48372741Y34994394D01*
X48320080Y35085606D01*
X48245606Y35160080D01*
X48154394Y35212741D01*
X48052661Y35240000D01*
X48046448Y35240000D01*
X48725472Y35919026D01*
X48652478Y35970137D01*
X48446331Y36066265D01*
X48446317Y36066270D01*
X48226610Y36125140D01*
X48226599Y36125142D01*
X48000002Y36144966D01*
X47999998Y36144966D01*
X47773400Y36125142D01*
X47773389Y36125140D01*
X47553682Y36066270D01*
X47553673Y36066266D01*
X47347516Y35970134D01*
X47347512Y35970132D01*
X47274526Y35919027D01*
X47274526Y35919026D01*
X47953553Y35240000D01*
X47947339Y35240000D01*
X47845606Y35212741D01*
X47754394Y35160080D01*
X47679920Y35085606D01*
X47627259Y34994394D01*
X47600000Y34892661D01*
X47600000Y34886448D01*
X46920974Y35565474D01*
X46920973Y35565474D01*
X46869868Y35492488D01*
X46869866Y35492484D01*
X46773734Y35286327D01*
X46773730Y35286318D01*
X46714860Y35066611D01*
X46714858Y35066600D01*
X46695034Y34840003D01*
X46695034Y34839998D01*
X38568105Y34839998D01*
X38513261Y34913261D01*
X38396204Y35000889D01*
X38259203Y35051989D01*
X38198654Y35058500D01*
X38198638Y35058500D01*
X36401362Y35058500D01*
X36401345Y35058500D01*
X36340797Y35051989D01*
X36340795Y35051989D01*
X36203795Y35000889D01*
X36086739Y34913261D01*
X35999111Y34796205D01*
X35948011Y34659205D01*
X35948011Y34659203D01*
X35941500Y34598655D01*
X35941500Y32801346D01*
X31536275Y32801346D01*
X31506198Y32844300D01*
X31344300Y33006198D01*
X31156749Y33137523D01*
X31103235Y33162477D01*
X30949249Y33234282D01*
X30949238Y33234286D01*
X30728089Y33293543D01*
X30728081Y33293544D01*
X30500002Y33313498D01*
X30499998Y33313498D01*
X30271918Y33293544D01*
X30271910Y33293543D01*
X30050761Y33234286D01*
X30050750Y33234282D01*
X29843254Y33137525D01*
X29843252Y33137524D01*
X29843251Y33137523D01*
X29655700Y33006198D01*
X29655698Y33006197D01*
X29655695Y33006194D01*
X29493806Y32844305D01*
X29493803Y32844302D01*
X29493802Y32844300D01*
X29421330Y32740799D01*
X29362476Y32656748D01*
X29362475Y32656746D01*
X29265718Y32449250D01*
X29265714Y32449239D01*
X29206457Y32228090D01*
X29206456Y32228082D01*
X29186502Y32000002D01*
X29186502Y31999999D01*
X26813498Y31999999D01*
X26813498Y32000000D01*
X26793543Y32228087D01*
X26734284Y32449243D01*
X26716799Y32486739D01*
X26637524Y32656746D01*
X26637523Y32656748D01*
X26637523Y32656749D01*
X26506198Y32844300D01*
X26344300Y33006198D01*
X26156749Y33137523D01*
X26103235Y33162477D01*
X25949249Y33234282D01*
X25949238Y33234286D01*
X25728089Y33293543D01*
X25728081Y33293544D01*
X25500002Y33313498D01*
X25499998Y33313498D01*
X25271918Y33293544D01*
X25271910Y33293543D01*
X25050761Y33234286D01*
X25050750Y33234282D01*
X24843254Y33137525D01*
X24843252Y33137524D01*
X24843251Y33137523D01*
X24655700Y33006198D01*
X24655698Y33006197D01*
X24655695Y33006194D01*
X24493806Y32844305D01*
X24493803Y32844302D01*
X24493802Y32844300D01*
X24421330Y32740799D01*
X24362476Y32656748D01*
X24362475Y32656746D01*
X24265718Y32449250D01*
X24265714Y32449239D01*
X24206457Y32228090D01*
X24206456Y32228082D01*
X24186502Y32000002D01*
X24186502Y31999999D01*
X13554274Y31999999D01*
X13514284Y32149243D01*
X13417523Y32356749D01*
X13286198Y32544300D01*
X13124300Y32706198D01*
X12936749Y32837523D01*
X12922205Y32844305D01*
X12729249Y32934282D01*
X12729238Y32934286D01*
X12508089Y32993543D01*
X12508081Y32993544D01*
X12280002Y33013498D01*
X12279998Y33013498D01*
X12051918Y32993544D01*
X12051910Y32993543D01*
X11830761Y32934286D01*
X11830750Y32934282D01*
X11623254Y32837525D01*
X11623252Y32837524D01*
X11623251Y32837523D01*
X11435700Y32706198D01*
X11435698Y32706197D01*
X11435695Y32706194D01*
X11273806Y32544305D01*
X11142476Y32356748D01*
X11142475Y32356746D01*
X11045718Y32149250D01*
X11045714Y32149239D01*
X10986457Y31928090D01*
X10986456Y31928082D01*
X10966502Y31700002D01*
X10966502Y31699999D01*
X3433498Y31699999D01*
X3433498Y31700000D01*
X3413543Y31928087D01*
X3354284Y32149243D01*
X3257523Y32356749D01*
X3126198Y32544300D01*
X2964300Y32706198D01*
X2776749Y32837523D01*
X2762205Y32844305D01*
X2569249Y32934282D01*
X2569238Y32934286D01*
X2348089Y32993543D01*
X2348081Y32993544D01*
X2120002Y33013498D01*
X2119998Y33013498D01*
X1891918Y32993544D01*
X1891910Y32993543D01*
X1670761Y32934286D01*
X1670750Y32934282D01*
X1463254Y32837525D01*
X1463252Y32837524D01*
X1463251Y32837523D01*
X1275700Y32706198D01*
X1275698Y32706197D01*
X1275695Y32706194D01*
X1113806Y32544305D01*
X982476Y32356748D01*
X982475Y32356746D01*
X885718Y32149250D01*
X885714Y32149239D01*
X826457Y31928090D01*
X826456Y31928082D01*
X806502Y31700002D01*
X806502Y31699999D01*
X75500Y31699999D01*
X75500Y34299999D01*
X14886502Y34299999D01*
X14906456Y34071919D01*
X14906457Y34071911D01*
X14965714Y33850762D01*
X14965718Y33850751D01*
X15034860Y33702476D01*
X15062477Y33643251D01*
X15193802Y33455700D01*
X15355700Y33293802D01*
X15543251Y33162477D01*
X15668091Y33104264D01*
X15750750Y33065719D01*
X15750752Y33065719D01*
X15750757Y33065716D01*
X15971913Y33006457D01*
X16119521Y32993543D01*
X16199998Y32986502D01*
X16200000Y32986502D01*
X16200002Y32986502D01*
X16257021Y32991491D01*
X16428087Y33006457D01*
X16649243Y33065716D01*
X16856749Y33162477D01*
X17044300Y33293802D01*
X17206198Y33455700D01*
X17337523Y33643251D01*
X17434284Y33850757D01*
X17493543Y34071913D01*
X17513498Y34299999D01*
X19886502Y34299999D01*
X19906456Y34071919D01*
X19906457Y34071911D01*
X19965714Y33850762D01*
X19965718Y33850751D01*
X20034860Y33702476D01*
X20062477Y33643251D01*
X20193802Y33455700D01*
X20355700Y33293802D01*
X20543251Y33162477D01*
X20668091Y33104264D01*
X20750750Y33065719D01*
X20750752Y33065719D01*
X20750757Y33065716D01*
X20971913Y33006457D01*
X21119521Y32993543D01*
X21199998Y32986502D01*
X21200000Y32986502D01*
X21200002Y32986502D01*
X21257021Y32991491D01*
X21428087Y33006457D01*
X21649243Y33065716D01*
X21856749Y33162477D01*
X22044300Y33293802D01*
X22206198Y33455700D01*
X22337523Y33643251D01*
X22434284Y33850757D01*
X22493543Y34071913D01*
X22513498Y34300000D01*
X22493543Y34528087D01*
X22434284Y34749243D01*
X22412385Y34796205D01*
X22391962Y34840003D01*
X22337523Y34956749D01*
X22206198Y35144300D01*
X22044300Y35306198D01*
X21856749Y35437523D01*
X21856745Y35437525D01*
X21649249Y35534282D01*
X21649238Y35534286D01*
X21428089Y35593543D01*
X21428081Y35593544D01*
X21200002Y35613498D01*
X21199998Y35613498D01*
X20971918Y35593544D01*
X20971910Y35593543D01*
X20750761Y35534286D01*
X20750750Y35534282D01*
X20543254Y35437525D01*
X20543252Y35437524D01*
X20543251Y35437523D01*
X20355700Y35306198D01*
X20355698Y35306197D01*
X20355695Y35306194D01*
X20193806Y35144305D01*
X20193803Y35144302D01*
X20193802Y35144300D01*
X20139396Y35066600D01*
X20062476Y34956748D01*
X20062475Y34956746D01*
X19965718Y34749250D01*
X19965714Y34749239D01*
X19906457Y34528090D01*
X19906456Y34528082D01*
X19886502Y34300002D01*
X19886502Y34299999D01*
X17513498Y34299999D01*
X17513498Y34300000D01*
X17493543Y34528087D01*
X17434284Y34749243D01*
X17412385Y34796205D01*
X17391962Y34840003D01*
X17337523Y34956749D01*
X17206198Y35144300D01*
X17044300Y35306198D01*
X16856749Y35437523D01*
X16856745Y35437525D01*
X16649249Y35534282D01*
X16649238Y35534286D01*
X16428089Y35593543D01*
X16428081Y35593544D01*
X16200002Y35613498D01*
X16199998Y35613498D01*
X15971918Y35593544D01*
X15971910Y35593543D01*
X15750761Y35534286D01*
X15750750Y35534282D01*
X15543254Y35437525D01*
X15543252Y35437524D01*
X15543251Y35437523D01*
X15355700Y35306198D01*
X15355698Y35306197D01*
X15355695Y35306194D01*
X15193806Y35144305D01*
X15193803Y35144302D01*
X15193802Y35144300D01*
X15139396Y35066600D01*
X15062476Y34956748D01*
X15062475Y34956746D01*
X14965718Y34749250D01*
X14965714Y34749239D01*
X14906457Y34528090D01*
X14906456Y34528082D01*
X14886502Y34300002D01*
X14886502Y34299999D01*
X75500Y34299999D01*
X75500Y37901346D01*
X2041500Y37901346D01*
X2048011Y37840798D01*
X2048011Y37840796D01*
X2099111Y37703796D01*
X2186739Y37586739D01*
X2303796Y37499111D01*
X2440799Y37448011D01*
X2468050Y37445082D01*
X2501345Y37441501D01*
X2501362Y37441500D01*
X4298638Y37441500D01*
X4298654Y37441501D01*
X4325692Y37444409D01*
X4359201Y37448011D01*
X4496204Y37499111D01*
X4613261Y37586739D01*
X4700889Y37703796D01*
X4751989Y37840799D01*
X4755591Y37874308D01*
X4758499Y37901346D01*
X4758500Y37901363D01*
X4758500Y39299999D01*
X7606502Y39299999D01*
X7626456Y39071919D01*
X7626457Y39071911D01*
X7685714Y38850762D01*
X7685718Y38850751D01*
X7782475Y38643255D01*
X7782477Y38643251D01*
X7913802Y38455700D01*
X8075700Y38293802D01*
X8263251Y38162477D01*
X8305520Y38142767D01*
X8470750Y38065719D01*
X8470752Y38065719D01*
X8470757Y38065716D01*
X8691913Y38006457D01*
X8854832Y37992204D01*
X8919998Y37986502D01*
X8920000Y37986502D01*
X8920002Y37986502D01*
X8977021Y37991491D01*
X9148087Y38006457D01*
X9369243Y38065716D01*
X9576749Y38162477D01*
X9764300Y38293802D01*
X9926198Y38455700D01*
X10057523Y38643251D01*
X10154284Y38850757D01*
X10213543Y39071913D01*
X10233498Y39299999D01*
X17766502Y39299999D01*
X17786456Y39071919D01*
X17786457Y39071911D01*
X17845714Y38850762D01*
X17845718Y38850751D01*
X17942475Y38643255D01*
X17942477Y38643251D01*
X18073802Y38455700D01*
X18235700Y38293802D01*
X18423251Y38162477D01*
X18465520Y38142767D01*
X18630750Y38065719D01*
X18630752Y38065719D01*
X18630757Y38065716D01*
X18851913Y38006457D01*
X19014832Y37992204D01*
X19079998Y37986502D01*
X19080000Y37986502D01*
X19080002Y37986502D01*
X19137021Y37991491D01*
X19308087Y38006457D01*
X19529243Y38065716D01*
X19736749Y38162477D01*
X19924300Y38293802D01*
X20086198Y38455700D01*
X20217523Y38643251D01*
X20314284Y38850757D01*
X20373543Y39071913D01*
X20393498Y39300000D01*
X20373543Y39528087D01*
X20314284Y39749243D01*
X20217523Y39956749D01*
X20086198Y40144300D01*
X19924300Y40306198D01*
X19736749Y40437523D01*
X19736745Y40437525D01*
X19529249Y40534282D01*
X19529238Y40534286D01*
X19308089Y40593543D01*
X19308081Y40593544D01*
X19080002Y40613498D01*
X19079998Y40613498D01*
X18851918Y40593544D01*
X18851910Y40593543D01*
X18630761Y40534286D01*
X18630750Y40534282D01*
X18423254Y40437525D01*
X18423252Y40437524D01*
X18412551Y40430031D01*
X18235700Y40306198D01*
X18235698Y40306197D01*
X18235695Y40306194D01*
X18073806Y40144305D01*
X18073803Y40144302D01*
X18073802Y40144300D01*
X18015402Y40060896D01*
X17942476Y39956748D01*
X17942475Y39956746D01*
X17845718Y39749250D01*
X17845714Y39749239D01*
X17786457Y39528090D01*
X17786456Y39528082D01*
X17766502Y39300002D01*
X17766502Y39299999D01*
X10233498Y39299999D01*
X10233498Y39300000D01*
X10213543Y39528087D01*
X10154284Y39749243D01*
X10057523Y39956749D01*
X9926198Y40144300D01*
X9764300Y40306198D01*
X9576749Y40437523D01*
X9576745Y40437525D01*
X9369249Y40534282D01*
X9369238Y40534286D01*
X9148089Y40593543D01*
X9148081Y40593544D01*
X8920002Y40613498D01*
X8919998Y40613498D01*
X8691918Y40593544D01*
X8691910Y40593543D01*
X8470761Y40534286D01*
X8470750Y40534282D01*
X8263254Y40437525D01*
X8263252Y40437524D01*
X8252551Y40430031D01*
X8075700Y40306198D01*
X8075698Y40306197D01*
X8075695Y40306194D01*
X7913806Y40144305D01*
X7913803Y40144302D01*
X7913802Y40144300D01*
X7855402Y40060896D01*
X7782476Y39956748D01*
X7782475Y39956746D01*
X7685718Y39749250D01*
X7685714Y39749239D01*
X7626457Y39528090D01*
X7626456Y39528082D01*
X7606502Y39300002D01*
X7606502Y39299999D01*
X4758500Y39299999D01*
X4758500Y39698638D01*
X4758499Y39698655D01*
X4755157Y39729730D01*
X4751989Y39759201D01*
X4700889Y39896204D01*
X4613261Y40013261D01*
X4496204Y40100889D01*
X4359203Y40151989D01*
X4298654Y40158500D01*
X4298638Y40158500D01*
X2501362Y40158500D01*
X2501345Y40158500D01*
X2440797Y40151989D01*
X2440795Y40151989D01*
X2303795Y40100889D01*
X2186739Y40013261D01*
X2099111Y39896205D01*
X2048011Y39759205D01*
X2048011Y39759203D01*
X2041500Y39698655D01*
X2041500Y37901346D01*
X75500Y37901346D01*
X75500Y41500000D01*
X33486835Y41500000D01*
X33505465Y41263286D01*
X33560895Y41032405D01*
X33560895Y41032403D01*
X33651757Y40813041D01*
X33651759Y40813038D01*
X33775820Y40610590D01*
X33775821Y40610587D01*
X33790378Y40593543D01*
X33930031Y40430031D01*
X34069797Y40310660D01*
X34110586Y40275822D01*
X34110589Y40275821D01*
X34313037Y40151760D01*
X34313040Y40151758D01*
X34532403Y40060896D01*
X34532404Y40060896D01*
X34532406Y40060895D01*
X34763289Y40005465D01*
X35000000Y39986835D01*
X35236711Y40005465D01*
X35467594Y40060895D01*
X35467596Y40060896D01*
X35467597Y40060896D01*
X35686959Y40151758D01*
X35686960Y40151759D01*
X35686963Y40151760D01*
X35889416Y40275824D01*
X36069969Y40430031D01*
X36224176Y40610584D01*
X36348240Y40813037D01*
X36439105Y41032406D01*
X36494535Y41263289D01*
X36513165Y41500000D01*
X39986835Y41500000D01*
X40005465Y41263286D01*
X40060895Y41032405D01*
X40060895Y41032403D01*
X40151757Y40813041D01*
X40151759Y40813038D01*
X40275820Y40610590D01*
X40275821Y40610587D01*
X40290378Y40593543D01*
X40430031Y40430031D01*
X40569797Y40310660D01*
X40610586Y40275822D01*
X40610589Y40275821D01*
X40813037Y40151760D01*
X40813040Y40151758D01*
X41032403Y40060896D01*
X41032404Y40060896D01*
X41032406Y40060895D01*
X41263289Y40005465D01*
X41500000Y39986835D01*
X41736711Y40005465D01*
X41967594Y40060895D01*
X41967596Y40060896D01*
X41967597Y40060896D01*
X42186959Y40151758D01*
X42186960Y40151759D01*
X42186963Y40151760D01*
X42389416Y40275824D01*
X42569969Y40430031D01*
X42724176Y40610584D01*
X42848240Y40813037D01*
X42939105Y41032406D01*
X42994535Y41263289D01*
X43013165Y41500000D01*
X42994535Y41736711D01*
X42939105Y41967594D01*
X42939104Y41967597D01*
X42939104Y41967598D01*
X42848242Y42186960D01*
X42848240Y42186963D01*
X42724179Y42389411D01*
X42724178Y42389414D01*
X42689340Y42430203D01*
X42569969Y42569969D01*
X42423537Y42695034D01*
X42389413Y42724179D01*
X42389410Y42724180D01*
X42186962Y42848241D01*
X42186959Y42848243D01*
X41967596Y42939105D01*
X41736714Y42994535D01*
X41500000Y43013165D01*
X41263285Y42994535D01*
X41032404Y42939105D01*
X41032402Y42939105D01*
X40813040Y42848243D01*
X40813037Y42848241D01*
X40610589Y42724180D01*
X40610586Y42724179D01*
X40430031Y42569969D01*
X40275821Y42389414D01*
X40275820Y42389411D01*
X40151759Y42186963D01*
X40151757Y42186960D01*
X40060895Y41967598D01*
X40060895Y41967596D01*
X40005465Y41736715D01*
X39986835Y41500000D01*
X36513165Y41500000D01*
X36494535Y41736711D01*
X36439105Y41967594D01*
X36439104Y41967597D01*
X36439104Y41967598D01*
X36348242Y42186960D01*
X36348240Y42186963D01*
X36224179Y42389411D01*
X36224178Y42389414D01*
X36189340Y42430203D01*
X36069969Y42569969D01*
X35923537Y42695034D01*
X35889413Y42724179D01*
X35889410Y42724180D01*
X35686962Y42848241D01*
X35686959Y42848243D01*
X35467596Y42939105D01*
X35236714Y42994535D01*
X35000000Y43013165D01*
X34763285Y42994535D01*
X34532404Y42939105D01*
X34532402Y42939105D01*
X34313040Y42848243D01*
X34313037Y42848241D01*
X34110589Y42724180D01*
X34110586Y42724179D01*
X33930031Y42569969D01*
X33775821Y42389414D01*
X33775820Y42389411D01*
X33651759Y42186963D01*
X33651757Y42186960D01*
X33560895Y41967598D01*
X33560895Y41967596D01*
X33505465Y41736715D01*
X33486835Y41500000D01*
X75500Y41500000D01*
X75500Y43999998D01*
X7815034Y43999998D01*
X7834858Y43773401D01*
X7834860Y43773390D01*
X7893730Y43553683D01*
X7893735Y43553669D01*
X7989863Y43347522D01*
X8040974Y43274528D01*
X8720000Y43953554D01*
X8720000Y43947339D01*
X8747259Y43845606D01*
X8799920Y43754394D01*
X8874394Y43679920D01*
X8965606Y43627259D01*
X9067339Y43600000D01*
X9073553Y43600000D01*
X8394526Y42920975D01*
X8467513Y42869868D01*
X8467521Y42869864D01*
X8673668Y42773736D01*
X8673682Y42773731D01*
X8893389Y42714861D01*
X8893400Y42714859D01*
X9119998Y42695034D01*
X9120002Y42695034D01*
X9346599Y42714859D01*
X9346610Y42714861D01*
X9566317Y42773731D01*
X9566331Y42773736D01*
X9772478Y42869864D01*
X9845471Y42920976D01*
X9166447Y43600000D01*
X9172661Y43600000D01*
X9274394Y43627259D01*
X9365606Y43679920D01*
X9440080Y43754394D01*
X9492741Y43845606D01*
X9520000Y43947339D01*
X9520000Y43953553D01*
X10199024Y43274529D01*
X10250136Y43347522D01*
X10346264Y43553669D01*
X10346269Y43553683D01*
X10405139Y43773390D01*
X10405141Y43773401D01*
X10424966Y43999998D01*
X10424966Y43999999D01*
X17966502Y43999999D01*
X17986456Y43771919D01*
X17986457Y43771911D01*
X18045714Y43550762D01*
X18045718Y43550751D01*
X18140485Y43347522D01*
X18142477Y43343251D01*
X18273802Y43155700D01*
X18435700Y42993802D01*
X18623251Y42862477D01*
X18653783Y42848240D01*
X18830750Y42765719D01*
X18830752Y42765719D01*
X18830757Y42765716D01*
X19051913Y42706457D01*
X19214832Y42692204D01*
X19279998Y42686502D01*
X19280000Y42686502D01*
X19280002Y42686502D01*
X19337021Y42691491D01*
X19508087Y42706457D01*
X19729243Y42765716D01*
X19936749Y42862477D01*
X20124300Y42993802D01*
X20231844Y43101346D01*
X25141500Y43101346D01*
X25148011Y43040798D01*
X25148011Y43040796D01*
X25185941Y42939105D01*
X25199111Y42903796D01*
X25286739Y42786739D01*
X25403796Y42699111D01*
X25540799Y42648011D01*
X25568050Y42645082D01*
X25601345Y42641501D01*
X25601362Y42641500D01*
X27398638Y42641500D01*
X27398654Y42641501D01*
X27425692Y42644409D01*
X27459201Y42648011D01*
X27596204Y42699111D01*
X27713261Y42786739D01*
X27800889Y42903796D01*
X27851989Y43040799D01*
X27855591Y43074308D01*
X27858499Y43101346D01*
X27858500Y43101363D01*
X27858500Y44898638D01*
X27858499Y44898655D01*
X27855125Y44930032D01*
X27851989Y44959201D01*
X27800889Y45096204D01*
X27713261Y45213261D01*
X27596204Y45300889D01*
X27585273Y45304966D01*
X27459203Y45351989D01*
X27398654Y45358500D01*
X27398638Y45358500D01*
X25601362Y45358500D01*
X25601345Y45358500D01*
X25540797Y45351989D01*
X25540795Y45351989D01*
X25403795Y45300889D01*
X25286739Y45213261D01*
X25199111Y45096205D01*
X25148011Y44959205D01*
X25148011Y44959203D01*
X25141500Y44898655D01*
X25141500Y43101346D01*
X20231844Y43101346D01*
X20286198Y43155700D01*
X20417523Y43343251D01*
X20514284Y43550757D01*
X20573543Y43771913D01*
X20593498Y44000000D01*
X20573543Y44228087D01*
X20514284Y44449243D01*
X20488067Y44505465D01*
X20466950Y44550751D01*
X20417523Y44656749D01*
X20286198Y44844300D01*
X20124300Y45006198D01*
X19936749Y45137523D01*
X19936745Y45137525D01*
X19729249Y45234282D01*
X19729238Y45234286D01*
X19508089Y45293543D01*
X19508081Y45293544D01*
X19280002Y45313498D01*
X19279998Y45313498D01*
X19051918Y45293544D01*
X19051910Y45293543D01*
X18830761Y45234286D01*
X18830750Y45234282D01*
X18623254Y45137525D01*
X18623252Y45137524D01*
X18552856Y45088233D01*
X18435700Y45006198D01*
X18435698Y45006197D01*
X18435695Y45006194D01*
X18273806Y44844305D01*
X18273803Y44844302D01*
X18273802Y44844300D01*
X18223120Y44771919D01*
X18142476Y44656748D01*
X18142475Y44656746D01*
X18045718Y44449250D01*
X18045714Y44449239D01*
X17986457Y44228090D01*
X17986456Y44228082D01*
X17966502Y44000002D01*
X17966502Y43999999D01*
X10424966Y43999999D01*
X10424966Y44000003D01*
X10405141Y44226600D01*
X10405139Y44226611D01*
X10346269Y44446318D01*
X10346264Y44446332D01*
X10250136Y44652479D01*
X10250132Y44652487D01*
X10199025Y44725474D01*
X9520000Y44046449D01*
X9520000Y44052661D01*
X9492741Y44154394D01*
X9440080Y44245606D01*
X9365606Y44320080D01*
X9274394Y44372741D01*
X9172661Y44400000D01*
X9166448Y44400000D01*
X9845472Y45079026D01*
X9772478Y45130137D01*
X9566331Y45226265D01*
X9566317Y45226270D01*
X9346610Y45285140D01*
X9346599Y45285142D01*
X9120002Y45304966D01*
X9119998Y45304966D01*
X8893400Y45285142D01*
X8893389Y45285140D01*
X8673682Y45226270D01*
X8673673Y45226266D01*
X8467516Y45130134D01*
X8467512Y45130132D01*
X8394526Y45079027D01*
X8394526Y45079026D01*
X9073553Y44400000D01*
X9067339Y44400000D01*
X8965606Y44372741D01*
X8874394Y44320080D01*
X8799920Y44245606D01*
X8747259Y44154394D01*
X8720000Y44052661D01*
X8720000Y44046448D01*
X8040974Y44725474D01*
X8040973Y44725474D01*
X7989868Y44652488D01*
X7989866Y44652484D01*
X7893734Y44446327D01*
X7893730Y44446318D01*
X7834860Y44226611D01*
X7834858Y44226600D01*
X7815034Y44000003D01*
X7815034Y43999998D01*
X75500Y43999998D01*
X75500Y45001346D01*
X4041500Y45001346D01*
X4048011Y44940798D01*
X4048011Y44940796D01*
X4099111Y44803796D01*
X4186739Y44686739D01*
X4303796Y44599111D01*
X4440799Y44548011D01*
X4468050Y44545082D01*
X4501345Y44541501D01*
X4501362Y44541500D01*
X6298638Y44541500D01*
X6298654Y44541501D01*
X6325692Y44544409D01*
X6359201Y44548011D01*
X6496204Y44599111D01*
X6613261Y44686739D01*
X6700889Y44803796D01*
X6751989Y44940799D01*
X6755591Y44974308D01*
X6758499Y45001346D01*
X6758500Y45001363D01*
X6758500Y46000000D01*
X33486835Y46000000D01*
X33505465Y45763286D01*
X33560895Y45532405D01*
X33560895Y45532403D01*
X33651757Y45313041D01*
X33651759Y45313038D01*
X33775820Y45110590D01*
X33775821Y45110587D01*
X33802776Y45079027D01*
X33930031Y44930031D01*
X34030403Y44844305D01*
X34110586Y44775822D01*
X34110588Y44775822D01*
X34192747Y44725474D01*
X34313037Y44651760D01*
X34313040Y44651758D01*
X34532403Y44560896D01*
X34532404Y44560896D01*
X34532406Y44560895D01*
X34763289Y44505465D01*
X35000000Y44486835D01*
X35236711Y44505465D01*
X35467594Y44560895D01*
X35467596Y44560896D01*
X35467597Y44560896D01*
X35686959Y44651758D01*
X35686960Y44651759D01*
X35686963Y44651760D01*
X35889416Y44775824D01*
X36069969Y44930031D01*
X36224176Y45110584D01*
X36348240Y45313037D01*
X36364375Y45351989D01*
X36439104Y45532403D01*
X36439104Y45532404D01*
X36439105Y45532406D01*
X36494535Y45763289D01*
X36513165Y46000000D01*
X39986835Y46000000D01*
X40005465Y45763286D01*
X40060895Y45532405D01*
X40060895Y45532403D01*
X40151757Y45313041D01*
X40151759Y45313038D01*
X40275820Y45110590D01*
X40275821Y45110587D01*
X40302776Y45079027D01*
X40430031Y44930031D01*
X40530403Y44844305D01*
X40610586Y44775822D01*
X40610588Y44775822D01*
X40692747Y44725474D01*
X40813037Y44651760D01*
X40813040Y44651758D01*
X41032403Y44560896D01*
X41032404Y44560896D01*
X41032406Y44560895D01*
X41263289Y44505465D01*
X41500000Y44486835D01*
X41736711Y44505465D01*
X41967594Y44560895D01*
X41967596Y44560896D01*
X41967597Y44560896D01*
X42186959Y44651758D01*
X42186960Y44651759D01*
X42186963Y44651760D01*
X42389416Y44775824D01*
X42569969Y44930031D01*
X42629727Y44999999D01*
X46686502Y44999999D01*
X46706456Y44771919D01*
X46706457Y44771911D01*
X46765714Y44550762D01*
X46765718Y44550751D01*
X46857673Y44353553D01*
X46862477Y44343251D01*
X46993802Y44155700D01*
X47155700Y43993802D01*
X47343251Y43862477D01*
X47468091Y43804264D01*
X47550750Y43765719D01*
X47550752Y43765719D01*
X47550757Y43765716D01*
X47771913Y43706457D01*
X47934832Y43692204D01*
X47999998Y43686502D01*
X48000000Y43686502D01*
X48000002Y43686502D01*
X48057021Y43691491D01*
X48228087Y43706457D01*
X48449243Y43765716D01*
X48656749Y43862477D01*
X48844300Y43993802D01*
X49006198Y44155700D01*
X49137523Y44343251D01*
X49234284Y44550757D01*
X49293543Y44771913D01*
X49313498Y44999999D01*
X50686502Y44999999D01*
X50706456Y44771919D01*
X50706457Y44771911D01*
X50765714Y44550762D01*
X50765718Y44550751D01*
X50857673Y44353553D01*
X50862477Y44343251D01*
X50993802Y44155700D01*
X51155700Y43993802D01*
X51343251Y43862477D01*
X51468091Y43804264D01*
X51550750Y43765719D01*
X51550752Y43765719D01*
X51550757Y43765716D01*
X51771913Y43706457D01*
X51934832Y43692204D01*
X51999998Y43686502D01*
X52000000Y43686502D01*
X52000002Y43686502D01*
X52057021Y43691491D01*
X52228087Y43706457D01*
X52449243Y43765716D01*
X52656749Y43862477D01*
X52844300Y43993802D01*
X53006198Y44155700D01*
X53137523Y44343251D01*
X53234284Y44550757D01*
X53293543Y44771913D01*
X53313498Y44999999D01*
X54686502Y44999999D01*
X54706456Y44771919D01*
X54706457Y44771911D01*
X54765714Y44550762D01*
X54765718Y44550751D01*
X54857673Y44353553D01*
X54862477Y44343251D01*
X54993802Y44155700D01*
X55155700Y43993802D01*
X55343251Y43862477D01*
X55468091Y43804264D01*
X55550750Y43765719D01*
X55550752Y43765719D01*
X55550757Y43765716D01*
X55771913Y43706457D01*
X55934832Y43692204D01*
X55999998Y43686502D01*
X56000000Y43686502D01*
X56000002Y43686502D01*
X56057021Y43691491D01*
X56228087Y43706457D01*
X56449243Y43765716D01*
X56656749Y43862477D01*
X56844300Y43993802D01*
X57006198Y44155700D01*
X57137523Y44343251D01*
X57234284Y44550757D01*
X57293543Y44771913D01*
X57313498Y44999999D01*
X58686502Y44999999D01*
X58706456Y44771919D01*
X58706457Y44771911D01*
X58765714Y44550762D01*
X58765718Y44550751D01*
X58857673Y44353553D01*
X58862477Y44343251D01*
X58993802Y44155700D01*
X59155700Y43993802D01*
X59343251Y43862477D01*
X59468091Y43804264D01*
X59550750Y43765719D01*
X59550752Y43765719D01*
X59550757Y43765716D01*
X59771913Y43706457D01*
X59934832Y43692204D01*
X59999998Y43686502D01*
X60000000Y43686502D01*
X60000002Y43686502D01*
X60057021Y43691491D01*
X60228087Y43706457D01*
X60449243Y43765716D01*
X60656749Y43862477D01*
X60844300Y43993802D01*
X61006198Y44155700D01*
X61137523Y44343251D01*
X61234284Y44550757D01*
X61293543Y44771913D01*
X61313498Y45000000D01*
X61293543Y45228087D01*
X61234284Y45449243D01*
X61137523Y45656749D01*
X61006198Y45844300D01*
X60844300Y46006198D01*
X60656749Y46137523D01*
X60656745Y46137525D01*
X60449249Y46234282D01*
X60449238Y46234286D01*
X60228089Y46293543D01*
X60228081Y46293544D01*
X60000002Y46313498D01*
X59999998Y46313498D01*
X59771918Y46293544D01*
X59771910Y46293543D01*
X59550761Y46234286D01*
X59550750Y46234282D01*
X59343254Y46137525D01*
X59343252Y46137524D01*
X59343251Y46137523D01*
X59155700Y46006198D01*
X59155698Y46006197D01*
X59155695Y46006194D01*
X58993806Y45844305D01*
X58862476Y45656748D01*
X58862475Y45656746D01*
X58765718Y45449250D01*
X58765714Y45449239D01*
X58706457Y45228090D01*
X58706456Y45228082D01*
X58686502Y45000002D01*
X58686502Y44999999D01*
X57313498Y44999999D01*
X57313498Y45000000D01*
X57293543Y45228087D01*
X57234284Y45449243D01*
X57137523Y45656749D01*
X57006198Y45844300D01*
X56844300Y46006198D01*
X56656749Y46137523D01*
X56656745Y46137525D01*
X56449249Y46234282D01*
X56449238Y46234286D01*
X56228089Y46293543D01*
X56228081Y46293544D01*
X56000002Y46313498D01*
X55999998Y46313498D01*
X55771918Y46293544D01*
X55771910Y46293543D01*
X55550761Y46234286D01*
X55550750Y46234282D01*
X55343254Y46137525D01*
X55343252Y46137524D01*
X55343251Y46137523D01*
X55155700Y46006198D01*
X55155698Y46006197D01*
X55155695Y46006194D01*
X54993806Y45844305D01*
X54862476Y45656748D01*
X54862475Y45656746D01*
X54765718Y45449250D01*
X54765714Y45449239D01*
X54706457Y45228090D01*
X54706456Y45228082D01*
X54686502Y45000002D01*
X54686502Y44999999D01*
X53313498Y44999999D01*
X53313498Y45000000D01*
X53293543Y45228087D01*
X53234284Y45449243D01*
X53137523Y45656749D01*
X53006198Y45844300D01*
X52844300Y46006198D01*
X52656749Y46137523D01*
X52656745Y46137525D01*
X52449249Y46234282D01*
X52449238Y46234286D01*
X52228089Y46293543D01*
X52228081Y46293544D01*
X52000002Y46313498D01*
X51999998Y46313498D01*
X51771918Y46293544D01*
X51771910Y46293543D01*
X51550761Y46234286D01*
X51550750Y46234282D01*
X51343254Y46137525D01*
X51343252Y46137524D01*
X51343251Y46137523D01*
X51155700Y46006198D01*
X51155698Y46006197D01*
X51155695Y46006194D01*
X50993806Y45844305D01*
X50862476Y45656748D01*
X50862475Y45656746D01*
X50765718Y45449250D01*
X50765714Y45449239D01*
X50706457Y45228090D01*
X50706456Y45228082D01*
X50686502Y45000002D01*
X50686502Y44999999D01*
X49313498Y44999999D01*
X49313498Y45000000D01*
X49293543Y45228087D01*
X49234284Y45449243D01*
X49137523Y45656749D01*
X49006198Y45844300D01*
X48844300Y46006198D01*
X48656749Y46137523D01*
X48656745Y46137525D01*
X48449249Y46234282D01*
X48449238Y46234286D01*
X48228089Y46293543D01*
X48228081Y46293544D01*
X48000002Y46313498D01*
X47999998Y46313498D01*
X47771918Y46293544D01*
X47771910Y46293543D01*
X47550761Y46234286D01*
X47550750Y46234282D01*
X47343254Y46137525D01*
X47343252Y46137524D01*
X47343251Y46137523D01*
X47155700Y46006198D01*
X47155698Y46006197D01*
X47155695Y46006194D01*
X46993806Y45844305D01*
X46862476Y45656748D01*
X46862475Y45656746D01*
X46765718Y45449250D01*
X46765714Y45449239D01*
X46706457Y45228090D01*
X46706456Y45228082D01*
X46686502Y45000002D01*
X46686502Y44999999D01*
X42629727Y44999999D01*
X42724176Y45110584D01*
X42848240Y45313037D01*
X42864375Y45351989D01*
X42939104Y45532403D01*
X42939104Y45532404D01*
X42939105Y45532406D01*
X42994535Y45763289D01*
X43013165Y46000000D01*
X42994535Y46236711D01*
X42939105Y46467594D01*
X42939104Y46467597D01*
X42939104Y46467598D01*
X42848242Y46686960D01*
X42848240Y46686963D01*
X42724179Y46889411D01*
X42724178Y46889414D01*
X42632969Y46996205D01*
X42569969Y47069969D01*
X42416682Y47200889D01*
X42389413Y47224179D01*
X42389410Y47224180D01*
X42186962Y47348241D01*
X42186959Y47348243D01*
X41967596Y47439105D01*
X41736714Y47494535D01*
X41500000Y47513165D01*
X41263285Y47494535D01*
X41032404Y47439105D01*
X41032402Y47439105D01*
X40813040Y47348243D01*
X40813037Y47348241D01*
X40610589Y47224180D01*
X40610586Y47224179D01*
X40430031Y47069969D01*
X40275821Y46889414D01*
X40275820Y46889411D01*
X40151759Y46686963D01*
X40151757Y46686960D01*
X40060895Y46467598D01*
X40060895Y46467596D01*
X40005465Y46236715D01*
X39986835Y46000000D01*
X36513165Y46000000D01*
X36494535Y46236711D01*
X36439105Y46467594D01*
X36439104Y46467597D01*
X36439104Y46467598D01*
X36348242Y46686960D01*
X36348240Y46686963D01*
X36224179Y46889411D01*
X36224178Y46889414D01*
X36132969Y46996205D01*
X36069969Y47069969D01*
X35916682Y47200889D01*
X35889413Y47224179D01*
X35889410Y47224180D01*
X35686962Y47348241D01*
X35686959Y47348243D01*
X35467596Y47439105D01*
X35236714Y47494535D01*
X35000000Y47513165D01*
X34763285Y47494535D01*
X34532404Y47439105D01*
X34532402Y47439105D01*
X34313040Y47348243D01*
X34313037Y47348241D01*
X34110589Y47224180D01*
X34110586Y47224179D01*
X33930031Y47069969D01*
X33775821Y46889414D01*
X33775820Y46889411D01*
X33651759Y46686963D01*
X33651757Y46686960D01*
X33560895Y46467598D01*
X33560895Y46467596D01*
X33505465Y46236715D01*
X33486835Y46000000D01*
X6758500Y46000000D01*
X6758500Y46798638D01*
X6758499Y46798655D01*
X6755157Y46829730D01*
X6751989Y46859201D01*
X6740719Y46889416D01*
X6729522Y46919436D01*
X6700889Y46996204D01*
X6613261Y47113261D01*
X6496204Y47200889D01*
X6359203Y47251989D01*
X6298654Y47258500D01*
X6298638Y47258500D01*
X4501362Y47258500D01*
X4501345Y47258500D01*
X4440797Y47251989D01*
X4440795Y47251989D01*
X4303795Y47200889D01*
X4186739Y47113261D01*
X4099111Y46996205D01*
X4048011Y46859205D01*
X4048011Y46859203D01*
X4041500Y46798655D01*
X4041500Y45001346D01*
X75500Y45001346D01*
X75500Y49901346D01*
X17437500Y49901346D01*
X17444011Y49840798D01*
X17444011Y49840796D01*
X17495111Y49703796D01*
X17582739Y49586739D01*
X17699796Y49499111D01*
X17836799Y49448011D01*
X17864050Y49445082D01*
X17897345Y49441501D01*
X17897362Y49441500D01*
X19694638Y49441500D01*
X19694654Y49441501D01*
X19721692Y49444409D01*
X19755201Y49448011D01*
X19892204Y49499111D01*
X20009261Y49586739D01*
X20096889Y49703796D01*
X20142138Y49825113D01*
X20184009Y49881044D01*
X20249474Y49905461D01*
X20317746Y49890609D01*
X20349545Y49865764D01*
X20412760Y49797094D01*
X20590424Y49658811D01*
X20590425Y49658811D01*
X20590427Y49658809D01*
X20717135Y49590239D01*
X20788426Y49551658D01*
X21001365Y49478556D01*
X21223431Y49441500D01*
X21448569Y49441500D01*
X21670635Y49478556D01*
X21883574Y49551658D01*
X22081576Y49658811D01*
X22259240Y49797094D01*
X22411722Y49962732D01*
X22502193Y50101210D01*
X22555338Y50146563D01*
X22624569Y50155987D01*
X22687905Y50126485D01*
X22709804Y50101213D01*
X22800278Y49962732D01*
X22800283Y49962727D01*
X22800284Y49962724D01*
X22926968Y49825111D01*
X22952760Y49797094D01*
X23130424Y49658811D01*
X23130425Y49658811D01*
X23130427Y49658809D01*
X23257135Y49590239D01*
X23328426Y49551658D01*
X23541365Y49478556D01*
X23763431Y49441500D01*
X23988569Y49441500D01*
X24210635Y49478556D01*
X24423574Y49551658D01*
X24621576Y49658811D01*
X24799240Y49797094D01*
X24951722Y49962732D01*
X25042193Y50101210D01*
X25095338Y50146563D01*
X25164569Y50155987D01*
X25227905Y50126485D01*
X25249804Y50101213D01*
X25340278Y49962732D01*
X25340283Y49962727D01*
X25340284Y49962724D01*
X25466968Y49825111D01*
X25492760Y49797094D01*
X25670424Y49658811D01*
X25670425Y49658811D01*
X25670427Y49658809D01*
X25797135Y49590239D01*
X25868426Y49551658D01*
X26081365Y49478556D01*
X26303431Y49441500D01*
X26528569Y49441500D01*
X26750635Y49478556D01*
X26963574Y49551658D01*
X27161576Y49658811D01*
X27339240Y49797094D01*
X27491722Y49962732D01*
X27582193Y50101210D01*
X27635338Y50146563D01*
X27704569Y50155987D01*
X27767905Y50126485D01*
X27789804Y50101213D01*
X27880278Y49962732D01*
X27880283Y49962727D01*
X27880284Y49962724D01*
X28006968Y49825111D01*
X28032760Y49797094D01*
X28210424Y49658811D01*
X28210425Y49658811D01*
X28210427Y49658809D01*
X28337135Y49590239D01*
X28408426Y49551658D01*
X28621365Y49478556D01*
X28843431Y49441500D01*
X29068569Y49441500D01*
X29290635Y49478556D01*
X29503574Y49551658D01*
X29701576Y49658811D01*
X29879240Y49797094D01*
X30031722Y49962732D01*
X30122193Y50101210D01*
X30175338Y50146563D01*
X30244569Y50155987D01*
X30307905Y50126485D01*
X30329804Y50101213D01*
X30420278Y49962732D01*
X30420283Y49962727D01*
X30420284Y49962724D01*
X30546968Y49825111D01*
X30572760Y49797094D01*
X30750424Y49658811D01*
X30750425Y49658811D01*
X30750427Y49658809D01*
X30877135Y49590239D01*
X30948426Y49551658D01*
X31161365Y49478556D01*
X31383431Y49441500D01*
X31608569Y49441500D01*
X31830635Y49478556D01*
X32043574Y49551658D01*
X32241576Y49658811D01*
X32419240Y49797094D01*
X32571722Y49962732D01*
X32662193Y50101210D01*
X32715338Y50146563D01*
X32784569Y50155987D01*
X32847905Y50126485D01*
X32869804Y50101213D01*
X32960278Y49962732D01*
X32960283Y49962727D01*
X32960284Y49962724D01*
X33086968Y49825111D01*
X33112760Y49797094D01*
X33290424Y49658811D01*
X33290425Y49658811D01*
X33290427Y49658809D01*
X33417135Y49590239D01*
X33488426Y49551658D01*
X33701365Y49478556D01*
X33923431Y49441500D01*
X34148569Y49441500D01*
X34370635Y49478556D01*
X34583574Y49551658D01*
X34781576Y49658811D01*
X34959240Y49797094D01*
X35111722Y49962732D01*
X35202193Y50101210D01*
X35255338Y50146563D01*
X35324569Y50155987D01*
X35387905Y50126485D01*
X35409804Y50101213D01*
X35500278Y49962732D01*
X35500283Y49962727D01*
X35500284Y49962724D01*
X35626968Y49825111D01*
X35652760Y49797094D01*
X35830424Y49658811D01*
X35830425Y49658811D01*
X35830427Y49658809D01*
X35957135Y49590239D01*
X36028426Y49551658D01*
X36241365Y49478556D01*
X36463431Y49441500D01*
X36688569Y49441500D01*
X36910635Y49478556D01*
X37123574Y49551658D01*
X37321576Y49658811D01*
X37499240Y49797094D01*
X37651722Y49962732D01*
X37742193Y50101210D01*
X37795338Y50146563D01*
X37864569Y50155987D01*
X37927905Y50126485D01*
X37949804Y50101213D01*
X38040278Y49962732D01*
X38040283Y49962727D01*
X38040284Y49962724D01*
X38166968Y49825111D01*
X38192760Y49797094D01*
X38370424Y49658811D01*
X38370425Y49658811D01*
X38370427Y49658809D01*
X38497135Y49590239D01*
X38568426Y49551658D01*
X38781365Y49478556D01*
X39003431Y49441500D01*
X39228569Y49441500D01*
X39450635Y49478556D01*
X39663574Y49551658D01*
X39861576Y49658811D01*
X40039240Y49797094D01*
X40191722Y49962732D01*
X40282193Y50101210D01*
X40335338Y50146563D01*
X40404569Y50155987D01*
X40467905Y50126485D01*
X40489804Y50101213D01*
X40580278Y49962732D01*
X40580283Y49962727D01*
X40580284Y49962724D01*
X40706968Y49825111D01*
X40732760Y49797094D01*
X40910424Y49658811D01*
X40910425Y49658811D01*
X40910427Y49658809D01*
X41037135Y49590239D01*
X41108426Y49551658D01*
X41321365Y49478556D01*
X41543431Y49441500D01*
X41768569Y49441500D01*
X41990635Y49478556D01*
X42203574Y49551658D01*
X42401576Y49658811D01*
X42579240Y49797094D01*
X42675212Y49901346D01*
X44361500Y49901346D01*
X44368011Y49840798D01*
X44368011Y49840796D01*
X44419111Y49703796D01*
X44506739Y49586739D01*
X44623796Y49499111D01*
X44760799Y49448011D01*
X44788050Y49445082D01*
X44821345Y49441501D01*
X44821362Y49441500D01*
X46618638Y49441500D01*
X46618654Y49441501D01*
X46645692Y49444409D01*
X46679201Y49448011D01*
X46816204Y49499111D01*
X46933261Y49586739D01*
X47020889Y49703796D01*
X47066138Y49825113D01*
X47108009Y49881044D01*
X47173474Y49905461D01*
X47241746Y49890609D01*
X47273545Y49865764D01*
X47336760Y49797094D01*
X47514424Y49658811D01*
X47514425Y49658811D01*
X47514427Y49658809D01*
X47641135Y49590239D01*
X47712426Y49551658D01*
X47925365Y49478556D01*
X48147431Y49441500D01*
X48372569Y49441500D01*
X48594635Y49478556D01*
X48807574Y49551658D01*
X49005576Y49658811D01*
X49183240Y49797094D01*
X49335722Y49962732D01*
X49426193Y50101210D01*
X49479338Y50146563D01*
X49548569Y50155987D01*
X49611905Y50126485D01*
X49633804Y50101213D01*
X49724278Y49962732D01*
X49724283Y49962727D01*
X49724284Y49962724D01*
X49850968Y49825111D01*
X49876760Y49797094D01*
X50054424Y49658811D01*
X50054425Y49658811D01*
X50054427Y49658809D01*
X50181135Y49590239D01*
X50252426Y49551658D01*
X50465365Y49478556D01*
X50687431Y49441500D01*
X50912569Y49441500D01*
X51134635Y49478556D01*
X51347574Y49551658D01*
X51545576Y49658811D01*
X51723240Y49797094D01*
X51875722Y49962732D01*
X51966193Y50101210D01*
X52019338Y50146563D01*
X52088569Y50155987D01*
X52151905Y50126485D01*
X52173804Y50101213D01*
X52264278Y49962732D01*
X52264283Y49962727D01*
X52264284Y49962724D01*
X52390968Y49825111D01*
X52416760Y49797094D01*
X52594424Y49658811D01*
X52594425Y49658811D01*
X52594427Y49658809D01*
X52721135Y49590239D01*
X52792426Y49551658D01*
X53005365Y49478556D01*
X53227431Y49441500D01*
X53452569Y49441500D01*
X53674635Y49478556D01*
X53887574Y49551658D01*
X54085576Y49658811D01*
X54263240Y49797094D01*
X54415722Y49962732D01*
X54506193Y50101210D01*
X54559338Y50146563D01*
X54628569Y50155987D01*
X54691905Y50126485D01*
X54713804Y50101213D01*
X54804278Y49962732D01*
X54804283Y49962727D01*
X54804284Y49962724D01*
X54930968Y49825111D01*
X54956760Y49797094D01*
X55134424Y49658811D01*
X55134425Y49658811D01*
X55134427Y49658809D01*
X55261135Y49590239D01*
X55332426Y49551658D01*
X55545365Y49478556D01*
X55767431Y49441500D01*
X55992569Y49441500D01*
X56214635Y49478556D01*
X56427574Y49551658D01*
X56625576Y49658811D01*
X56803240Y49797094D01*
X56955722Y49962732D01*
X57046193Y50101210D01*
X57099338Y50146563D01*
X57168569Y50155987D01*
X57231905Y50126485D01*
X57253804Y50101213D01*
X57344278Y49962732D01*
X57344283Y49962727D01*
X57344284Y49962724D01*
X57470968Y49825111D01*
X57496760Y49797094D01*
X57674424Y49658811D01*
X57674425Y49658811D01*
X57674427Y49658809D01*
X57801135Y49590239D01*
X57872426Y49551658D01*
X58085365Y49478556D01*
X58307431Y49441500D01*
X58532569Y49441500D01*
X58754635Y49478556D01*
X58967574Y49551658D01*
X59165576Y49658811D01*
X59343240Y49797094D01*
X59495722Y49962732D01*
X59586193Y50101210D01*
X59639338Y50146563D01*
X59708569Y50155987D01*
X59771905Y50126485D01*
X59793804Y50101213D01*
X59884278Y49962732D01*
X59884283Y49962727D01*
X59884284Y49962724D01*
X60010968Y49825111D01*
X60036760Y49797094D01*
X60214424Y49658811D01*
X60214425Y49658811D01*
X60214427Y49658809D01*
X60341135Y49590239D01*
X60412426Y49551658D01*
X60625365Y49478556D01*
X60847431Y49441500D01*
X61072569Y49441500D01*
X61294635Y49478556D01*
X61507574Y49551658D01*
X61705576Y49658811D01*
X61883240Y49797094D01*
X62035722Y49962732D01*
X62126193Y50101210D01*
X62179338Y50146563D01*
X62248569Y50155987D01*
X62311905Y50126485D01*
X62333804Y50101213D01*
X62424278Y49962732D01*
X62424283Y49962727D01*
X62424284Y49962724D01*
X62550968Y49825111D01*
X62576760Y49797094D01*
X62754424Y49658811D01*
X62754425Y49658811D01*
X62754427Y49658809D01*
X62881135Y49590239D01*
X62952426Y49551658D01*
X63165365Y49478556D01*
X63387431Y49441500D01*
X63612569Y49441500D01*
X63834635Y49478556D01*
X64047574Y49551658D01*
X64245576Y49658811D01*
X64423240Y49797094D01*
X64575722Y49962732D01*
X64698860Y50151209D01*
X64789296Y50357384D01*
X64844564Y50575632D01*
X64863156Y50800000D01*
X64859612Y50842767D01*
X64844565Y51024360D01*
X64844563Y51024372D01*
X64789296Y51242615D01*
X64698859Y51448793D01*
X64575723Y51637266D01*
X64575715Y51637277D01*
X64423243Y51802903D01*
X64423238Y51802908D01*
X64245577Y51941188D01*
X64245572Y51941192D01*
X64047580Y52048339D01*
X64047577Y52048341D01*
X64047574Y52048342D01*
X64047571Y52048343D01*
X64047569Y52048344D01*
X63834637Y52121444D01*
X63612569Y52158500D01*
X63387431Y52158500D01*
X63165362Y52121444D01*
X62952430Y52048344D01*
X62952419Y52048339D01*
X62754427Y51941192D01*
X62754422Y51941188D01*
X62576761Y51802908D01*
X62576756Y51802903D01*
X62424284Y51637277D01*
X62424276Y51637266D01*
X62333808Y51498794D01*
X62280662Y51453438D01*
X62211431Y51444014D01*
X62148095Y51473516D01*
X62126192Y51498794D01*
X62035723Y51637266D01*
X62035715Y51637277D01*
X61883243Y51802903D01*
X61883238Y51802908D01*
X61705577Y51941188D01*
X61705572Y51941192D01*
X61507580Y52048339D01*
X61507577Y52048341D01*
X61507574Y52048342D01*
X61507571Y52048343D01*
X61507569Y52048344D01*
X61294637Y52121444D01*
X61072569Y52158500D01*
X60847431Y52158500D01*
X60625362Y52121444D01*
X60412430Y52048344D01*
X60412419Y52048339D01*
X60214427Y51941192D01*
X60214422Y51941188D01*
X60036761Y51802908D01*
X60036756Y51802903D01*
X59884284Y51637277D01*
X59884276Y51637266D01*
X59793808Y51498794D01*
X59740662Y51453438D01*
X59671431Y51444014D01*
X59608095Y51473516D01*
X59586192Y51498794D01*
X59495723Y51637266D01*
X59495715Y51637277D01*
X59343243Y51802903D01*
X59343238Y51802908D01*
X59165577Y51941188D01*
X59165572Y51941192D01*
X58967580Y52048339D01*
X58967577Y52048341D01*
X58967574Y52048342D01*
X58967571Y52048343D01*
X58967569Y52048344D01*
X58754637Y52121444D01*
X58532569Y52158500D01*
X58307431Y52158500D01*
X58085362Y52121444D01*
X57872430Y52048344D01*
X57872419Y52048339D01*
X57674427Y51941192D01*
X57674422Y51941188D01*
X57496761Y51802908D01*
X57496756Y51802903D01*
X57344284Y51637277D01*
X57344276Y51637266D01*
X57253808Y51498794D01*
X57200662Y51453438D01*
X57131431Y51444014D01*
X57068095Y51473516D01*
X57046192Y51498794D01*
X56955723Y51637266D01*
X56955715Y51637277D01*
X56803243Y51802903D01*
X56803238Y51802908D01*
X56625577Y51941188D01*
X56625572Y51941192D01*
X56427580Y52048339D01*
X56427577Y52048341D01*
X56427574Y52048342D01*
X56427571Y52048343D01*
X56427569Y52048344D01*
X56214637Y52121444D01*
X55992569Y52158500D01*
X55767431Y52158500D01*
X55545362Y52121444D01*
X55332430Y52048344D01*
X55332419Y52048339D01*
X55134427Y51941192D01*
X55134422Y51941188D01*
X54956761Y51802908D01*
X54956756Y51802903D01*
X54804284Y51637277D01*
X54804276Y51637266D01*
X54713808Y51498794D01*
X54660662Y51453438D01*
X54591431Y51444014D01*
X54528095Y51473516D01*
X54506192Y51498794D01*
X54415723Y51637266D01*
X54415715Y51637277D01*
X54263243Y51802903D01*
X54263238Y51802908D01*
X54085577Y51941188D01*
X54085572Y51941192D01*
X53887580Y52048339D01*
X53887577Y52048341D01*
X53887574Y52048342D01*
X53887571Y52048343D01*
X53887569Y52048344D01*
X53674637Y52121444D01*
X53452569Y52158500D01*
X53227431Y52158500D01*
X53005362Y52121444D01*
X52792430Y52048344D01*
X52792419Y52048339D01*
X52594427Y51941192D01*
X52594422Y51941188D01*
X52416761Y51802908D01*
X52416756Y51802903D01*
X52264284Y51637277D01*
X52264276Y51637266D01*
X52173808Y51498794D01*
X52120662Y51453438D01*
X52051431Y51444014D01*
X51988095Y51473516D01*
X51966192Y51498794D01*
X51875723Y51637266D01*
X51875715Y51637277D01*
X51723243Y51802903D01*
X51723238Y51802908D01*
X51545577Y51941188D01*
X51545572Y51941192D01*
X51347580Y52048339D01*
X51347577Y52048341D01*
X51347574Y52048342D01*
X51347571Y52048343D01*
X51347569Y52048344D01*
X51134637Y52121444D01*
X50912569Y52158500D01*
X50687431Y52158500D01*
X50465362Y52121444D01*
X50252430Y52048344D01*
X50252419Y52048339D01*
X50054427Y51941192D01*
X50054422Y51941188D01*
X49876761Y51802908D01*
X49876756Y51802903D01*
X49724284Y51637277D01*
X49724276Y51637266D01*
X49633808Y51498794D01*
X49580662Y51453438D01*
X49511431Y51444014D01*
X49448095Y51473516D01*
X49426192Y51498794D01*
X49335723Y51637266D01*
X49335715Y51637277D01*
X49183243Y51802903D01*
X49183238Y51802908D01*
X49005577Y51941188D01*
X49005572Y51941192D01*
X48807580Y52048339D01*
X48807577Y52048341D01*
X48807574Y52048342D01*
X48807571Y52048343D01*
X48807569Y52048344D01*
X48594637Y52121444D01*
X48372569Y52158500D01*
X48147431Y52158500D01*
X47925362Y52121444D01*
X47712430Y52048344D01*
X47712419Y52048339D01*
X47514427Y51941192D01*
X47514422Y51941188D01*
X47336761Y51802908D01*
X47273548Y51734240D01*
X47213661Y51698250D01*
X47143823Y51700351D01*
X47086207Y51739876D01*
X47066138Y51774890D01*
X47020889Y51896204D01*
X46987214Y51941188D01*
X46933261Y52013261D01*
X46816204Y52100889D01*
X46679203Y52151989D01*
X46618654Y52158500D01*
X46618638Y52158500D01*
X44821362Y52158500D01*
X44821345Y52158500D01*
X44760797Y52151989D01*
X44760795Y52151989D01*
X44623795Y52100889D01*
X44506739Y52013261D01*
X44419111Y51896205D01*
X44368011Y51759205D01*
X44368011Y51759203D01*
X44361500Y51698655D01*
X44361500Y49901346D01*
X42675212Y49901346D01*
X42731722Y49962732D01*
X42854860Y50151209D01*
X42945296Y50357384D01*
X43000564Y50575632D01*
X43019156Y50800000D01*
X43015612Y50842767D01*
X43000565Y51024360D01*
X43000563Y51024372D01*
X42945296Y51242615D01*
X42854859Y51448793D01*
X42731723Y51637266D01*
X42731715Y51637277D01*
X42579243Y51802903D01*
X42579238Y51802908D01*
X42401577Y51941188D01*
X42401572Y51941192D01*
X42203580Y52048339D01*
X42203577Y52048341D01*
X42203574Y52048342D01*
X42203571Y52048343D01*
X42203569Y52048344D01*
X41990637Y52121444D01*
X41768569Y52158500D01*
X41543431Y52158500D01*
X41321362Y52121444D01*
X41108430Y52048344D01*
X41108419Y52048339D01*
X40910427Y51941192D01*
X40910422Y51941188D01*
X40732761Y51802908D01*
X40732756Y51802903D01*
X40580284Y51637277D01*
X40580276Y51637266D01*
X40489808Y51498794D01*
X40436662Y51453438D01*
X40367431Y51444014D01*
X40304095Y51473516D01*
X40282192Y51498794D01*
X40191723Y51637266D01*
X40191715Y51637277D01*
X40039243Y51802903D01*
X40039238Y51802908D01*
X39861577Y51941188D01*
X39861572Y51941192D01*
X39663580Y52048339D01*
X39663577Y52048341D01*
X39663574Y52048342D01*
X39663571Y52048343D01*
X39663569Y52048344D01*
X39450637Y52121444D01*
X39228569Y52158500D01*
X39003431Y52158500D01*
X38781362Y52121444D01*
X38568430Y52048344D01*
X38568419Y52048339D01*
X38370427Y51941192D01*
X38370422Y51941188D01*
X38192761Y51802908D01*
X38192756Y51802903D01*
X38040284Y51637277D01*
X38040276Y51637266D01*
X37949808Y51498794D01*
X37896662Y51453438D01*
X37827431Y51444014D01*
X37764095Y51473516D01*
X37742192Y51498794D01*
X37651723Y51637266D01*
X37651715Y51637277D01*
X37499243Y51802903D01*
X37499238Y51802908D01*
X37321577Y51941188D01*
X37321572Y51941192D01*
X37123580Y52048339D01*
X37123577Y52048341D01*
X37123574Y52048342D01*
X37123571Y52048343D01*
X37123569Y52048344D01*
X36910637Y52121444D01*
X36688569Y52158500D01*
X36463431Y52158500D01*
X36241362Y52121444D01*
X36028430Y52048344D01*
X36028419Y52048339D01*
X35830427Y51941192D01*
X35830422Y51941188D01*
X35652761Y51802908D01*
X35652756Y51802903D01*
X35500284Y51637277D01*
X35500276Y51637266D01*
X35409808Y51498794D01*
X35356662Y51453438D01*
X35287431Y51444014D01*
X35224095Y51473516D01*
X35202192Y51498794D01*
X35111723Y51637266D01*
X35111715Y51637277D01*
X34959243Y51802903D01*
X34959238Y51802908D01*
X34781577Y51941188D01*
X34781572Y51941192D01*
X34583580Y52048339D01*
X34583577Y52048341D01*
X34583574Y52048342D01*
X34583571Y52048343D01*
X34583569Y52048344D01*
X34370637Y52121444D01*
X34148569Y52158500D01*
X33923431Y52158500D01*
X33701362Y52121444D01*
X33488430Y52048344D01*
X33488419Y52048339D01*
X33290427Y51941192D01*
X33290422Y51941188D01*
X33112761Y51802908D01*
X33112756Y51802903D01*
X32960284Y51637277D01*
X32960276Y51637266D01*
X32869808Y51498794D01*
X32816662Y51453438D01*
X32747431Y51444014D01*
X32684095Y51473516D01*
X32662192Y51498794D01*
X32571723Y51637266D01*
X32571715Y51637277D01*
X32419243Y51802903D01*
X32419238Y51802908D01*
X32241577Y51941188D01*
X32241572Y51941192D01*
X32043580Y52048339D01*
X32043577Y52048341D01*
X32043574Y52048342D01*
X32043571Y52048343D01*
X32043569Y52048344D01*
X31830637Y52121444D01*
X31608569Y52158500D01*
X31383431Y52158500D01*
X31161362Y52121444D01*
X30948430Y52048344D01*
X30948419Y52048339D01*
X30750427Y51941192D01*
X30750422Y51941188D01*
X30572761Y51802908D01*
X30572756Y51802903D01*
X30420284Y51637277D01*
X30420276Y51637266D01*
X30329808Y51498794D01*
X30276662Y51453438D01*
X30207431Y51444014D01*
X30144095Y51473516D01*
X30122192Y51498794D01*
X30031723Y51637266D01*
X30031715Y51637277D01*
X29879243Y51802903D01*
X29879238Y51802908D01*
X29701577Y51941188D01*
X29701572Y51941192D01*
X29503580Y52048339D01*
X29503577Y52048341D01*
X29503574Y52048342D01*
X29503571Y52048343D01*
X29503569Y52048344D01*
X29290637Y52121444D01*
X29068569Y52158500D01*
X28843431Y52158500D01*
X28621362Y52121444D01*
X28408430Y52048344D01*
X28408419Y52048339D01*
X28210427Y51941192D01*
X28210422Y51941188D01*
X28032761Y51802908D01*
X28032756Y51802903D01*
X27880284Y51637277D01*
X27880276Y51637266D01*
X27789808Y51498794D01*
X27736662Y51453438D01*
X27667431Y51444014D01*
X27604095Y51473516D01*
X27582192Y51498794D01*
X27491723Y51637266D01*
X27491715Y51637277D01*
X27339243Y51802903D01*
X27339238Y51802908D01*
X27161577Y51941188D01*
X27161572Y51941192D01*
X26963580Y52048339D01*
X26963577Y52048341D01*
X26963574Y52048342D01*
X26963571Y52048343D01*
X26963569Y52048344D01*
X26750637Y52121444D01*
X26528569Y52158500D01*
X26303431Y52158500D01*
X26081362Y52121444D01*
X25868430Y52048344D01*
X25868419Y52048339D01*
X25670427Y51941192D01*
X25670422Y51941188D01*
X25492761Y51802908D01*
X25492756Y51802903D01*
X25340284Y51637277D01*
X25340276Y51637266D01*
X25249808Y51498794D01*
X25196662Y51453438D01*
X25127431Y51444014D01*
X25064095Y51473516D01*
X25042192Y51498794D01*
X24951723Y51637266D01*
X24951715Y51637277D01*
X24799243Y51802903D01*
X24799238Y51802908D01*
X24621577Y51941188D01*
X24621572Y51941192D01*
X24423580Y52048339D01*
X24423577Y52048341D01*
X24423574Y52048342D01*
X24423571Y52048343D01*
X24423569Y52048344D01*
X24210637Y52121444D01*
X23988569Y52158500D01*
X23763431Y52158500D01*
X23541362Y52121444D01*
X23328430Y52048344D01*
X23328419Y52048339D01*
X23130427Y51941192D01*
X23130422Y51941188D01*
X22952761Y51802908D01*
X22952756Y51802903D01*
X22800284Y51637277D01*
X22800276Y51637266D01*
X22709808Y51498794D01*
X22656662Y51453438D01*
X22587431Y51444014D01*
X22524095Y51473516D01*
X22502192Y51498794D01*
X22411723Y51637266D01*
X22411715Y51637277D01*
X22259243Y51802903D01*
X22259238Y51802908D01*
X22081577Y51941188D01*
X22081572Y51941192D01*
X21883580Y52048339D01*
X21883577Y52048341D01*
X21883574Y52048342D01*
X21883571Y52048343D01*
X21883569Y52048344D01*
X21670637Y52121444D01*
X21448569Y52158500D01*
X21223431Y52158500D01*
X21001362Y52121444D01*
X20788430Y52048344D01*
X20788419Y52048339D01*
X20590427Y51941192D01*
X20590422Y51941188D01*
X20412761Y51802908D01*
X20349548Y51734240D01*
X20289661Y51698250D01*
X20219823Y51700351D01*
X20162207Y51739876D01*
X20142138Y51774890D01*
X20096889Y51896204D01*
X20063214Y51941188D01*
X20009261Y52013261D01*
X19892204Y52100889D01*
X19755203Y52151989D01*
X19694654Y52158500D01*
X19694638Y52158500D01*
X17897362Y52158500D01*
X17897345Y52158500D01*
X17836797Y52151989D01*
X17836795Y52151989D01*
X17699795Y52100889D01*
X17582739Y52013261D01*
X17495111Y51896205D01*
X17444011Y51759205D01*
X17444011Y51759203D01*
X17437500Y51698655D01*
X17437500Y49901346D01*
X75500Y49901346D01*
X75500Y52571908D01*
X76097Y52584062D01*
X87494Y52699778D01*
X92234Y52723611D01*
X124216Y52829041D01*
X133508Y52851474D01*
X185442Y52948635D01*
X198938Y52968834D01*
X268827Y53053994D01*
X286006Y53071173D01*
X371166Y53141062D01*
X391365Y53154558D01*
X488526Y53206492D01*
X510959Y53215784D01*
X616389Y53247766D01*
X640220Y53252506D01*
X755939Y53263903D01*
X768093Y53264500D01*
X786531Y53264500D01*
X63417365Y53264500D01*
X63484404Y53244815D01*
G37*
%TD.AperFunction*%
%TD*%
M02*
