%TF.GenerationSoftware,KiCad,Pcbnew,8.0.1*%
%TF.CreationDate,2024-05-26T17:54:05+02:00*%
%TF.ProjectId,BandPass,42616e64-5061-4737-932e-6b696361645f,v03*%
%TF.SameCoordinates,PX5f5e100PY5f5e100*%
%TF.FileFunction,Legend,Bot*%
%TF.FilePolarity,Positive*%
%FSLAX46Y46*%
G04 Gerber Fmt 4.6, Leading zero omitted, Abs format (unit mm)*
G04 Created by KiCad (PCBNEW 8.0.1) date 2024-05-26 17:54:05*
%MOMM*%
%LPD*%
G01*
G04 APERTURE LIST*
%ADD10C,0.150000*%
%ADD11C,0.120000*%
G04 APERTURE END LIST*
D10*
X34033333Y5945181D02*
X34033333Y5230896D01*
X34033333Y5230896D02*
X34080952Y5088039D01*
X34080952Y5088039D02*
X34176190Y4992800D01*
X34176190Y4992800D02*
X34319047Y4945181D01*
X34319047Y4945181D02*
X34414285Y4945181D01*
X33033333Y4945181D02*
X33604761Y4945181D01*
X33319047Y4945181D02*
X33319047Y5945181D01*
X33319047Y5945181D02*
X33414285Y5802324D01*
X33414285Y5802324D02*
X33509523Y5707086D01*
X33509523Y5707086D02*
X33604761Y5659467D01*
X54233333Y5845181D02*
X54233333Y5130896D01*
X54233333Y5130896D02*
X54280952Y4988039D01*
X54280952Y4988039D02*
X54376190Y4892800D01*
X54376190Y4892800D02*
X54519047Y4845181D01*
X54519047Y4845181D02*
X54614285Y4845181D01*
X53852380Y5845181D02*
X53233333Y5845181D01*
X53233333Y5845181D02*
X53566666Y5464229D01*
X53566666Y5464229D02*
X53423809Y5464229D01*
X53423809Y5464229D02*
X53328571Y5416610D01*
X53328571Y5416610D02*
X53280952Y5368991D01*
X53280952Y5368991D02*
X53233333Y5273753D01*
X53233333Y5273753D02*
X53233333Y5035658D01*
X53233333Y5035658D02*
X53280952Y4940420D01*
X53280952Y4940420D02*
X53328571Y4892800D01*
X53328571Y4892800D02*
X53423809Y4845181D01*
X53423809Y4845181D02*
X53709523Y4845181D01*
X53709523Y4845181D02*
X53804761Y4892800D01*
X53804761Y4892800D02*
X53852380Y4940420D01*
X19233333Y48445181D02*
X19233333Y47730896D01*
X19233333Y47730896D02*
X19280952Y47588039D01*
X19280952Y47588039D02*
X19376190Y47492800D01*
X19376190Y47492800D02*
X19519047Y47445181D01*
X19519047Y47445181D02*
X19614285Y47445181D01*
X18804761Y48349943D02*
X18757142Y48397562D01*
X18757142Y48397562D02*
X18661904Y48445181D01*
X18661904Y48445181D02*
X18423809Y48445181D01*
X18423809Y48445181D02*
X18328571Y48397562D01*
X18328571Y48397562D02*
X18280952Y48349943D01*
X18280952Y48349943D02*
X18233333Y48254705D01*
X18233333Y48254705D02*
X18233333Y48159467D01*
X18233333Y48159467D02*
X18280952Y48016610D01*
X18280952Y48016610D02*
X18852380Y47445181D01*
X18852380Y47445181D02*
X18233333Y47445181D01*
X47433333Y48745181D02*
X47433333Y48030896D01*
X47433333Y48030896D02*
X47480952Y47888039D01*
X47480952Y47888039D02*
X47576190Y47792800D01*
X47576190Y47792800D02*
X47719047Y47745181D01*
X47719047Y47745181D02*
X47814285Y47745181D01*
X46528571Y48411848D02*
X46528571Y47745181D01*
X46766666Y48792800D02*
X47004761Y48078515D01*
X47004761Y48078515D02*
X46385714Y48078515D01*
D11*
%TO.C,J1*%
X26610000Y3870000D02*
X27940000Y3870000D01*
X26610000Y2540000D02*
X26610000Y3870000D01*
X29210000Y1210000D02*
X29210000Y3870000D01*
X47050000Y3870000D02*
X29210000Y3870000D01*
X47050000Y1210000D02*
X29210000Y1210000D01*
X47050000Y1210000D02*
X47050000Y3870000D01*
%TO.C,J3*%
X49470000Y3870000D02*
X50800000Y3870000D01*
X49470000Y2540000D02*
X49470000Y3870000D01*
X52070000Y1210000D02*
X52070000Y3870000D01*
X64830000Y3870000D02*
X52070000Y3870000D01*
X64830000Y1210000D02*
X52070000Y1210000D01*
X64830000Y1210000D02*
X64830000Y3870000D01*
%TO.C,J2*%
X17466000Y52130000D02*
X18796000Y52130000D01*
X17466000Y50800000D02*
X17466000Y52130000D01*
X20066000Y49470000D02*
X20066000Y52130000D01*
X42986000Y52130000D02*
X20066000Y52130000D01*
X42986000Y49470000D02*
X20066000Y49470000D01*
X42986000Y49470000D02*
X42986000Y52130000D01*
%TO.C,J4*%
X44390000Y52130000D02*
X45720000Y52130000D01*
X44390000Y50800000D02*
X44390000Y52130000D01*
X46990000Y49470000D02*
X46990000Y52130000D01*
X64830000Y52130000D02*
X46990000Y52130000D01*
X64830000Y49470000D02*
X46990000Y49470000D01*
X64830000Y49470000D02*
X64830000Y52130000D01*
%TD*%
M02*
